<?xml version="1.0" encoding="UTF-8"?>
<svg version="1.1" xmlns="http://www.w3.org/2000/svg" width="468" height="533">
<path d="M0 0 C0.80138555 -0.00187569 1.60277109 -0.00375137 2.42844105 -0.0056839 C5.07405616 -0.00932155 7.71939898 0.00138631 10.36499023 0.01245117 C12.24606304 0.01330889 14.12713634 0.01338871 16.00820923 0.01274109 C21.02822769 0.01388957 26.04812644 0.02819045 31.06811142 0.04568481 C34.16989086 0.05540834 37.27165236 0.06124762 40.3734436 0.06567383 C72.79389019 0.1121174 105.20020169 0.41755644 137.61108398 1.24291992 C136.10077072 4.78108045 134.03515043 7.07658139 131.32983398 9.78979492 C130.48807617 10.63413086 129.64631836 11.4784668 128.77905273 12.34838867 C127.4584082 13.65743164 127.4584082 13.65743164 126.11108398 14.99291992 C125.2306543 15.88108398 124.35022461 16.76924805 123.44311523 17.68432617 C122.60135742 18.52350586 121.75959961 19.36268555 120.89233398 20.22729492 C120.11954102 20.99783203 119.34674805 21.76836914 118.55053711 22.56225586 C116.61108398 24.24291992 116.61108398 24.24291992 114.61108398 24.24291992 C114.36818209 24.81063087 114.1252802 25.37834181 113.87501764 25.96325612 C112.3691351 28.67930526 110.58496432 30.51979882 108.38814545 32.71754074 C107.05162359 34.06188584 107.05162359 34.06188584 105.68810129 35.43338943 C104.69324085 36.4239257 103.69828604 37.41436719 102.70324707 38.40472412 C101.65069787 39.45957715 100.59858515 40.51486586 99.54687262 41.57055306 C96.65235264 44.47344017 93.75160537 47.37003435 90.84980845 50.26564479 C87.72280844 53.38812928 84.60155704 56.51635092 81.47956848 59.6438446 C75.36194521 65.77037251 69.23891325 71.89146724 63.11394083 78.01064697 C58.1384608 82.98161555 53.16492984 87.95452633 48.1927948 92.92884064 C47.48592611 93.63601579 46.77905742 94.34319095 46.05076846 95.07179566 C44.61494351 96.50826004 43.17912306 97.94472892 41.74330705 99.38120225 C28.27245593 112.85775959 14.79547558 126.32817412 1.3164019 139.79650667 C-10.26056037 151.3645293 -21.83226329 162.93779123 -33.40014648 174.51489258 C-46.82244189 187.94787879 -60.24796006 201.37763032 -73.67867613 214.80219769 C-75.10933057 216.23221501 -76.53998082 217.66223652 -77.97062683 219.09226227 C-78.67460355 219.79593044 -79.37858027 220.4995986 -80.10388961 221.22459005 C-85.07565069 226.1946209 -90.04508022 231.16697577 -95.0136261 236.14022064 C-101.06327638 242.19546639 -107.11644893 248.24716392 -113.17423642 254.29426947 C-116.26758218 257.38234108 -119.35927406 260.47202322 -122.44669151 263.56602287 C-125.26865562 266.39391243 -128.09513266 269.21720518 -130.92540377 272.03678003 C-131.95269391 273.06182163 -132.97827178 274.08858245 -134.00202686 275.11715469 C-135.38542794 276.50656874 -136.7755031 277.88932834 -138.16597748 279.27166367 C-139.32515631 280.43035544 -139.32515631 280.43035544 -140.5077529 281.61245513 C-142.38891602 283.24291992 -142.38891602 283.24291992 -144.38891602 283.24291992 C-144.6215918 283.80011719 -144.85426758 284.35731445 -145.09399414 284.93139648 C-146.72460995 287.84215637 -148.75130795 289.86473125 -151.10766602 292.22729492 C-152.5056543 293.62915039 -152.5056543 293.62915039 -153.93188477 295.05932617 C-154.41705566 295.54030762 -154.90222656 296.02128906 -155.40209961 296.5168457 C-156.8909794 297.9949684 -158.36883252 299.48351903 -159.84594727 300.97338867 C-160.77793945 301.90280273 -161.70993164 302.8322168 -162.67016602 303.78979492 C-163.52674805 304.64412109 -164.38333008 305.49844727 -165.26586914 306.37866211 C-167.38891602 308.24291992 -167.38891602 308.24291992 -169.38891602 308.24291992 C-169.61321289 308.79463867 -169.83750977 309.34635742 -170.06860352 309.91479492 C-171.79276785 312.95503736 -174.01407424 315.05717665 -176.51391602 317.49291992 C-177.42399414 318.38495117 -178.33407227 319.27698242 -179.27172852 320.19604492 C-180.31973633 321.20924805 -180.31973633 321.20924805 -181.38891602 322.24291992 C-184.31149041 320.92250548 -186.38149811 319.49863927 -188.64129639 317.23104858 C-189.57089424 316.30557472 -189.57089424 316.30557472 -190.51927185 315.36140442 C-191.52160606 314.34828438 -191.52160606 314.34828438 -192.54418945 313.31469727 C-193.25678421 312.60239456 -193.96937897 311.89009186 -194.7035675 311.15620422 C-197.05658053 308.80179843 -199.40243111 306.44038867 -201.74829102 304.07885742 C-203.37881576 302.44460237 -205.00978278 300.81078846 -206.64117432 299.17739868 C-210.93308277 294.87785519 -215.21895115 290.57233927 -219.50360107 286.26556396 C-223.87711423 281.87158969 -228.25629681 277.48327389 -232.63500977 273.09448242 C-241.22521226 264.48283228 -249.80904622 255.86486381 -258.38891602 247.24291992 C-257.72891602 245.59291992 -257.06891602 243.94291992 -256.38891602 242.24291992 C-255.72891602 242.24291992 -255.06891602 242.24291992 -254.38891602 242.24291992 C-254.05891602 241.25291992 -253.72891602 240.26291992 -253.38891602 239.24291992 C-252.72891602 239.24291992 -252.06891602 239.24291992 -251.38891602 239.24291992 C-251.38891602 238.58291992 -251.38891602 237.92291992 -251.38891602 237.24291992 C-249.81469727 235.72729492 -249.81469727 235.72729492 -247.70141602 233.99291992 C-244.13555208 230.96695792 -241.31380355 227.87926658 -238.38891602 224.24291992 C-235.70141602 221.36791992 -235.70141602 221.36791992 -233.38891602 219.24291992 C-232.72891602 219.24291992 -232.06891602 219.24291992 -231.38891602 219.24291992 C-231.38891602 218.58291992 -231.38891602 217.92291992 -231.38891602 217.24291992 C-229.95532227 215.83276367 -229.95532227 215.83276367 -227.95141602 214.18041992 C-222.19076064 209.27925842 -216.66788693 204.10624235 -211.95141602 198.18041992 C-211.43579102 197.54104492 -210.92016602 196.90166992 -210.38891602 196.24291992 C-209.72891602 196.24291992 -209.06891602 196.24291992 -208.38891602 196.24291992 C-208.38891602 195.58291992 -208.38891602 194.92291992 -208.38891602 194.24291992 C-207.72891602 194.24291992 -207.06891602 194.24291992 -206.38891602 194.24291992 C-206.38891602 193.58291992 -206.38891602 192.92291992 -206.38891602 192.24291992 C-204.88500977 190.76245117 -204.88500977 190.76245117 -202.82641602 189.05541992 C-195.73106212 183.39196136 -195.73106212 183.39196136 -190.38891602 176.24291992 C-189.72891602 176.24291992 -189.06891602 176.24291992 -188.38891602 176.24291992 C-188.38891602 175.58291992 -188.38891602 174.92291992 -188.38891602 174.24291992 C-187.01391602 172.61791992 -187.01391602 172.61791992 -185.38891602 171.24291992 C-184.72891602 171.24291992 -184.06891602 171.24291992 -183.38891602 171.24291992 C-183.38891602 170.58291992 -183.38891602 169.92291992 -183.38891602 169.24291992 C-182.72891602 169.24291992 -182.06891602 169.24291992 -181.38891602 169.24291992 C-181.38891602 168.58291992 -181.38891602 167.92291992 -181.38891602 167.24291992 C-179.84985352 165.76245117 -179.84985352 165.76245117 -177.76391602 164.05541992 C-174.30104334 161.13285362 -171.41380694 158.0846109 -168.61547852 154.52807617 C-168.21071289 154.10397461 -167.80594727 153.67987305 -167.38891602 153.24291992 C-166.72891602 153.24291992 -166.06891602 153.24291992 -165.38891602 153.24291992 C-165.38891602 152.58291992 -165.38891602 151.92291992 -165.38891602 151.24291992 C-164.72891602 151.24291992 -164.06891602 151.24291992 -163.38891602 151.24291992 C-163.38891602 150.58291992 -163.38891602 149.92291992 -163.38891602 149.24291992 C-162.01391602 147.61791992 -162.01391602 147.61791992 -160.38891602 146.24291992 C-159.72891602 146.24291992 -159.06891602 146.24291992 -158.38891602 146.24291992 C-158.38891602 145.58291992 -158.38891602 144.92291992 -158.38891602 144.24291992 C-156.81469727 142.69213867 -156.81469727 142.69213867 -154.70141602 140.93041992 C-150.70682338 137.52866436 -146.80945239 134.18958088 -143.70141602 129.93041992 C-143.26829102 129.37354492 -142.83516602 128.81666992 -142.38891602 128.24291992 C-141.72891602 128.24291992 -141.06891602 128.24291992 -140.38891602 128.24291992 C-140.38891602 127.58291992 -140.38891602 126.92291992 -140.38891602 126.24291992 C-139.72891602 126.24291992 -139.06891602 126.24291992 -138.38891602 126.24291992 C-138.38891602 125.58291992 -138.38891602 124.92291992 -138.38891602 124.24291992 C-137.01391602 122.61791992 -137.01391602 122.61791992 -135.38891602 121.24291992 C-134.72891602 121.24291992 -134.06891602 121.24291992 -133.38891602 121.24291992 C-133.38891602 120.58291992 -133.38891602 119.92291992 -133.38891602 119.24291992 C-130.95652256 116.6020356 -128.44905478 114.29075758 -125.63891602 112.05541992 C-123.31404214 110.43982915 -123.31404214 110.43982915 -122.38891602 108.24291992 C-121.72891602 108.24291992 -121.06891602 108.24291992 -120.38891602 108.24291992 C-120.38891602 107.58291992 -120.38891602 106.92291992 -120.38891602 106.24291992 C-119.01391602 104.61791992 -119.01391602 104.61791992 -117.38891602 103.24291992 C-116.72891602 103.24291992 -116.06891602 103.24291992 -115.38891602 103.24291992 C-115.38891602 102.58291992 -115.38891602 101.92291992 -115.38891602 101.24291992 C-114.72891602 101.24291992 -114.06891602 101.24291992 -113.38891602 101.24291992 C-113.05891602 100.25291992 -112.72891602 99.26291992 -112.38891602 98.24291992 C-110.97094727 96.88354492 -110.97094727 96.88354492 -109.20141602 95.49291992 C-105.91417476 92.80089931 -103.28029138 89.89172928 -100.65063477 86.56323242 C-100.23426758 86.1275293 -99.81790039 85.69182617 -99.38891602 85.24291992 C-98.72891602 85.24291992 -98.06891602 85.24291992 -97.38891602 85.24291992 C-97.38891602 84.58291992 -97.38891602 83.92291992 -97.38891602 83.24291992 C-95.01391602 80.61791992 -95.01391602 80.61791992 -92.38891602 78.24291992 C-91.72891602 78.24291992 -91.06891602 78.24291992 -90.38891602 78.24291992 C-90.38891602 77.58291992 -90.38891602 76.92291992 -90.38891602 76.24291992 C-89.72891602 76.24291992 -89.06891602 76.24291992 -88.38891602 76.24291992 C-88.05891602 75.25291992 -87.72891602 74.26291992 -87.38891602 73.24291992 C-86.72891602 73.24291992 -86.06891602 73.24291992 -85.38891602 73.24291992 C-85.05891602 72.25291992 -84.72891602 71.26291992 -84.38891602 70.24291992 C-82.61157227 68.52416992 -82.61157227 68.52416992 -80.45141602 66.74291992 C-77.87916409 64.61415971 -76.26630839 63.05900848 -74.38891602 60.24291992 C-73.72891602 60.24291992 -73.06891602 60.24291992 -72.38891602 60.24291992 C-72.38891602 59.58291992 -72.38891602 58.92291992 -72.38891602 58.24291992 C-70.01391602 55.61791992 -70.01391602 55.61791992 -67.38891602 53.24291992 C-66.72891602 53.24291992 -66.06891602 53.24291992 -65.38891602 53.24291992 C-65.05891602 52.25291992 -64.72891602 51.26291992 -64.38891602 50.24291992 C-61.95141602 47.55541992 -61.95141602 47.55541992 -59.38891602 45.24291992 C-58.72891602 45.24291992 -58.06891602 45.24291992 -57.38891602 45.24291992 C-57.05891602 44.25291992 -56.72891602 43.26291992 -56.38891602 42.24291992 C-55.72891602 42.24291992 -55.06891602 42.24291992 -54.38891602 42.24291992 C-54.38891602 41.58291992 -54.38891602 40.92291992 -54.38891602 40.24291992 C-52.01391602 37.61791992 -52.01391602 37.61791992 -49.38891602 35.24291992 C-48.72891602 35.24291992 -48.06891602 35.24291992 -47.38891602 35.24291992 C-47.38891602 34.58291992 -47.38891602 33.92291992 -47.38891602 33.24291992 C-46.01391602 31.61791992 -46.01391602 31.61791992 -44.38891602 30.24291992 C-43.72891602 30.24291992 -43.06891602 30.24291992 -42.38891602 30.24291992 C-42.13110352 29.64608398 -41.87329102 29.04924805 -41.60766602 28.43432617 C-40.28833179 26.06206175 -39.00142281 24.85878867 -36.88891602 23.18041992 C-34.4522669 21.23419806 -33.1662948 19.9089881 -31.38891602 17.24291992 C-30.72891602 17.24291992 -30.06891602 17.24291992 -29.38891602 17.24291992 C-29.38891602 16.58291992 -29.38891602 15.92291992 -29.38891602 15.24291992 C-27.01391602 12.61791992 -27.01391602 12.61791992 -24.38891602 10.24291992 C-23.72891602 10.24291992 -23.06891602 10.24291992 -22.38891602 10.24291992 C-22.05891602 9.25291992 -21.72891602 8.26291992 -21.38891602 7.24291992 C-20.72891602 7.24291992 -20.06891602 7.24291992 -19.38891602 7.24291992 C-19.38891602 6.58291992 -19.38891602 5.92291992 -19.38891602 5.24291992 C-18.72891602 5.24291992 -18.06891602 5.24291992 -17.38891602 5.24291992 C-17.05891602 4.25291992 -16.72891602 3.26291992 -16.38891602 2.24291992 C-10.85749104 0.41018022 -5.78857581 -0.0442253 0 0 Z " fill="#54C5F8" transform="translate(294.388916015625,20.757080078125)"/>
<path d="M0 0 C1.27934347 0.08247891 1.27934347 0.08247891 2.58453226 0.16662407 C24.53791493 1.607832 46.22236541 4.21457311 67.875 8.125 C67.875 9.115 67.875 10.105 67.875 11.125 C67.215 11.125 66.555 11.125 65.875 11.125 C65.875 11.785 65.875 12.445 65.875 13.125 C64.37109375 14.60546875 64.37109375 14.60546875 62.3125 16.3125 C55.2171461 21.97595856 55.2171461 21.97595856 49.875 29.125 C49.215 29.125 48.555 29.125 47.875 29.125 C47.875 29.785 47.875 30.445 47.875 31.125 C46.5 32.75 46.5 32.75 44.875 34.125 C44.215 34.125 43.555 34.125 42.875 34.125 C42.875 34.785 42.875 35.445 42.875 36.125 C42.215 36.125 41.555 36.125 40.875 36.125 C40.875 36.785 40.875 37.445 40.875 38.125 C39.37109375 39.60546875 39.37109375 39.60546875 37.3125 41.3125 C30.2171461 46.97595856 30.2171461 46.97595856 24.875 54.125 C24.215 54.125 23.555 54.125 22.875 54.125 C22.875 54.785 22.875 55.445 22.875 56.125 C20.5 58.75 20.5 58.75 17.875 61.125 C17.215 61.125 16.555 61.125 15.875 61.125 C15.875 61.785 15.875 62.445 15.875 63.125 C14.3359375 64.60546875 14.3359375 64.60546875 12.25 66.3125 C8.78712733 69.2350663 5.89989092 72.28330902 3.1015625 75.83984375 C2.69679688 76.26394531 2.29203125 76.68804687 1.875 77.125 C1.215 77.125 0.555 77.125 -0.125 77.125 C-0.125 77.785 -0.125 78.445 -0.125 79.125 C-0.785 79.125 -1.445 79.125 -2.125 79.125 C-2.125 79.785 -2.125 80.445 -2.125 81.125 C-4.5 83.75 -4.5 83.75 -7.125 86.125 C-7.785 86.125 -8.445 86.125 -9.125 86.125 C-9.125 86.785 -9.125 87.445 -9.125 88.125 C-10.6640625 89.60546875 -10.6640625 89.60546875 -12.75 91.3125 C-16.21287267 94.2350663 -19.10010908 97.28330902 -21.8984375 100.83984375 C-22.30320312 101.26394531 -22.70796875 101.68804687 -23.125 102.125 C-23.785 102.125 -24.445 102.125 -25.125 102.125 C-25.125 102.785 -25.125 103.445 -25.125 104.125 C-25.785 104.125 -26.445 104.125 -27.125 104.125 C-27.125 104.785 -27.125 105.445 -27.125 106.125 C-28.6640625 107.60546875 -28.6640625 107.60546875 -30.75 109.3125 C-34.21287267 112.2350663 -37.10010908 115.28330902 -39.8984375 118.83984375 C-40.30320312 119.26394531 -40.70796875 119.68804687 -41.125 120.125 C-41.785 120.125 -42.445 120.125 -43.125 120.125 C-43.125 120.785 -43.125 121.445 -43.125 122.125 C-45.10760426 123.81232277 -47.1082342 125.47866057 -49.125 127.125 C-49.455 127.785 -49.785 128.445 -50.125 129.125 C-50.785 129.125 -51.445 129.125 -52.125 129.125 C-52.125 129.785 -52.125 130.445 -52.125 131.125 C-54.09680605 132.94858373 -56.18118027 134.59502794 -58.27734375 136.2734375 C-60.3493668 138.34984114 -60.89484003 139.22724285 -61.125 142.125 C-59.76471269 144.17886435 -59.76471269 144.17886435 -57.6796875 146.05859375 C-56.55820312 147.1559082 -56.55820312 147.1559082 -55.4140625 148.27539062 C-54.61742187 149.03013672 -53.82078125 149.78488281 -53 150.5625 C-52.2265625 151.31337891 -51.453125 152.06425781 -50.65625 152.83789062 C-49.19946313 154.25117277 -47.73759447 155.65924924 -46.26904297 157.06030273 C-43.85573446 159.38430069 -41.49224236 161.75408939 -39.125 164.125 C-37.57087502 165.67532744 -36.01639317 167.22529719 -34.46159363 168.77494812 C-33.55440582 169.67924561 -32.64721802 170.58354309 -31.71253967 171.51524353 C-31.22983675 171.99639555 -30.74713383 172.47754757 -30.24980354 172.97327995 C-19.11531504 184.07232371 -7.9866296 195.17717143 3.13885975 206.2852354 C9.5679833 212.70401788 15.99899108 219.12089187 22.43432617 225.53344727 C28.05722295 231.13645081 33.67663104 236.74292547 39.29182547 242.35364848 C42.26260761 245.32181893 45.23513735 248.28819124 48.21186256 251.25040245 C51.00605535 254.03107678 53.79558097 256.81634662 56.58151245 259.60529709 C57.60696132 260.63019346 58.63413915 261.65336315 59.66312218 262.67471123 C61.06216627 264.0638768 62.45454246 265.45974832 63.84651184 266.85600281 C64.62907254 267.63671992 65.41163324 268.41743704 66.21790791 269.22181225 C67.875 271.125 67.875 271.125 67.875 273.125 C45.3828653 277.22397993 22.87140502 279.82979079 0.0625 281.3125 C-0.78471792 281.36912874 -1.63193583 281.42575748 -2.50482702 281.48410225 C-46.25299437 284.32468041 -82.2104495 279.78924434 -116.31775934 250.45602185 C-131.48971438 237.11569333 -145.5192677 222.73490259 -159.1875 207.875 C-159.90653771 207.09630035 -160.62557542 206.3176007 -161.36640215 205.51530409 C-176.62528097 188.97774665 -191.45286966 172.08453758 -205.62524414 154.60449219 C-206.13001238 153.98859643 -206.63478063 153.37270068 -207.15484488 152.73814142 C-208.54933922 151.02955238 -209.92507085 149.30774244 -211.29481506 147.57928467 C-212.06435548 146.61693279 -212.83389589 145.65458092 -213.62675571 144.66306686 C-215.125 142.125 -215.125 142.125 -215.11643219 140.12262726 C-213.74465585 137.3586482 -212.01581058 135.1246779 -210.0922699 132.7086792 C-209.66799192 132.17437668 -209.24371394 131.64007416 -208.80657905 131.08958066 C-207.37684879 129.29793523 -205.9349191 127.51671135 -204.48999023 125.73730469 C-203.98378214 125.11148884 -203.47757405 124.48567299 -202.95602632 123.84089303 C-188.75552711 106.32646513 -173.82888786 89.46358953 -158.5625 72.875 C-157.50268528 71.71955169 -157.50268528 71.71955169 -156.42146015 70.54076099 C-109.36166117 19.33555631 -70.56276798 -4.67717227 0 0 Z " fill="#55C5F8" transform="translate(364.125,238.875)"/>
<path d="M0 0 C3.70140044 1.39945071 6.03891865 2.67478564 8.8125 5.51953125 C9.49570312 6.21240234 10.17890625 6.90527344 10.8828125 7.61914062 C11.58148438 8.34294922 12.28015625 9.06675781 13 9.8125 C13.69867188 10.52470703 14.39734375 11.23691406 15.1171875 11.97070312 C16.42930211 13.30881246 17.73829184 14.6499991 19.04296875 15.99536133 C22.84917195 19.89415555 26.72499685 23.7243626 30.58747864 27.56729126 C31.47783813 28.45331528 32.36819763 29.33933929 33.28553772 30.25221252 C33.75905733 30.72340578 34.23257694 31.19459904 34.72044563 31.68007088 C45.64822717 42.55465941 56.5672805 53.4379783 67.48155689 64.32612038 C73.78826663 70.61732147 80.09779202 76.9056512 86.41381836 83.1875 C91.93311016 88.67694152 97.44715272 94.17159191 102.95489138 99.6726259 C105.86850833 102.58232715 108.78472161 105.48931599 111.70725441 108.39006424 C114.45108806 111.11360369 117.18787432 113.84402613 119.91931534 116.57999229 C120.92453753 117.5843865 121.93234961 118.58619609 122.942873 119.58525658 C124.31793904 120.94547914 125.6829897 122.31580456 127.04743958 123.68667603 C127.81525159 124.45172266 128.5830636 125.21676929 129.37414265 126.00499916 C131 128 131 128 131 131 C107.3519527 132.70423871 83.70034565 133.85231956 60 134.5 C59.13798871 134.52418849 58.27597741 134.54837698 57.38784456 134.57329845 C-20.29894093 136.69256164 -20.29894093 136.69256164 -44.62228394 114.89801025 C-48.48195271 111.20955837 -51.95035519 107.26746725 -55.3125 103.125 C-56.1256366 102.12664627 -56.1256366 102.12664627 -56.9552002 101.10812378 C-74 79.84139776 -74 79.84139776 -74 73 C-72.49492645 71.51437283 -72.49492645 71.51437283 -70.4354248 69.80332947 C-66.45035775 66.41236723 -62.72027048 62.85632532 -59.03320312 59.14672852 C-58.38829926 58.50197067 -57.74339539 57.85721283 -57.07894897 57.19291687 C-54.97733287 55.09061182 -52.8792673 52.98480223 -50.78125 50.87890625 C-49.313167 49.40895544 -47.84486103 47.93922728 -46.37634277 46.4697113 C-42.53386864 42.62344055 -38.6944086 38.77417494 -34.85559082 34.92425537 C-30.92899789 30.9873866 -26.99953094 27.05338869 -23.0703125 23.11914062 C-15.37740957 15.41555078 -7.68769113 7.70879065 0 0 Z " fill="#035799" transform="translate(299,380)"/>
<path d="M0 0 C3.53134059 1.21807701 5.59234665 2.26326563 7.89477539 5.20117188 C11.29522707 9.27332829 14.92148591 13.03526205 18.66967773 16.78320312 C19.61315111 17.72748798 19.61315111 17.72748798 20.57568455 18.6908493 C22.60970505 20.72294593 24.64660622 22.75212793 26.68359375 24.78125 C28.10870413 26.20449244 29.53359176 27.62795794 30.95826721 29.05163574 C34.68617009 32.77574302 38.41706756 36.49683584 42.14862061 40.21728516 C45.9648443 44.02323076 49.77819517 47.83205245 53.59179688 51.640625 C61.05840678 59.09654981 68.528187 66.54928963 76 74 C71.93804723 78.87038599 67.68518114 83.46346004 63.20019531 87.94506836 C62.54904251 88.59957977 61.89788971 89.25409119 61.227005 89.92843628 C59.09666163 92.06819866 56.96264281 94.2042461 54.828125 96.33984375 C53.33926188 97.83192256 51.85047314 99.3240756 50.36175537 100.81629944 C47.25352293 103.9304981 44.14325228 107.04264469 41.03173828 110.15356445 C37.03613943 114.14906109 33.04749779 118.15142727 29.06053543 122.15553951 C25.99456506 125.23259112 22.9240984 128.30512484 19.85231781 131.3763752 C18.37864498 132.85123122 16.90660062 134.32771622 15.43619537 135.80583 C13.38955825 137.8622013 11.3367596 139.91221521 9.28222656 141.96069336 C8.6723439 142.57619553 8.06246124 143.19169769 7.43409729 143.82585144 C3.22832409 148 3.22832409 148 1 148 C1.60699407 148.66830259 1.60699407 148.66830259 2.22625065 149.35010624 C5.68868083 153.22734785 8.9435676 157.18977986 12.06187439 161.34971619 C26.90422294 180.95657639 44.72318081 204.22115268 70.31641579 208.51311684 C89.00580988 211.09679072 108.12233355 210.07849076 126.8912462 208.97469366 C135.54108112 208.47635777 144.19142683 208.27625393 152.85274231 208.09261429 C170.58709869 207.7103436 188.28880356 206.98057354 206 206 C206.33 205.34 206.66 204.68 207 204 C207.33 204.99 207.66 205.98 208 207 C185.48507585 211.06615484 162.95133573 213.6532508 140.125 215.125 C139.27734778 215.18119444 138.42969556 215.23738888 137.55635691 215.29528618 C92.43180143 218.20128665 56.42129742 213.002172 21.61447906 182.42591476 C7.46333346 169.7529609 -5.7131119 156.22907895 -18.5625 142.25 C-19.63209599 141.0909111 -19.63209599 141.0909111 -20.72329998 139.90840626 C-35.85257222 123.50068125 -50.55035416 106.73772798 -64.59204102 89.38769531 C-65.09205053 88.77655829 -65.59206005 88.16542126 -66.10722136 87.53576493 C-67.48858478 85.84029256 -68.85117433 84.13163128 -70.20777893 82.4163208 C-70.969945 81.46134327 -71.73211107 80.50636574 -72.51737309 79.52244949 C-74 77 -74 77 -73.91773987 74.86475372 C-72.88000112 72.75617452 -71.77513839 71.40579805 -70.10838318 69.74761963 C-69.49277527 69.12788773 -68.87716736 68.50815582 -68.24290466 67.86964417 C-67.56389603 67.20142136 -66.88488739 66.53319855 -66.18530273 65.84472656 C-65.47314606 65.13213181 -64.76098938 64.41953705 -64.0272522 63.68534851 C-61.66974005 61.32992766 -59.30177685 58.98531282 -56.93359375 56.640625 C-55.29769242 55.01031838 -53.66245185 53.3793485 -52.02784729 51.7477417 C-47.72225516 47.45360806 -43.40773006 43.16855922 -39.09130859 38.88531494 C-34.68892511 34.51361044 -30.29501395 30.13340908 -25.90039062 25.75390625 C-17.27521683 17.16091436 -8.64058593 8.57749229 0 0 Z " fill="#28B5F5" transform="translate(224,305)"/>
<path d="M0 0 C0.80138555 -0.00187569 1.60277109 -0.00375137 2.42844105 -0.0056839 C5.07405616 -0.00932155 7.71939898 0.00138631 10.36499023 0.01245117 C12.24606304 0.01330889 14.12713634 0.01338871 16.00820923 0.01274109 C21.02822769 0.01388957 26.04812644 0.02819045 31.06811142 0.04568481 C34.16989086 0.05540834 37.27165236 0.06124762 40.3734436 0.06567383 C72.79389019 0.1121174 105.20020169 0.41755644 137.61108398 1.24291992 C135.59029338 5.49801863 133.3072754 7.35024838 129.61108398 10.24291992 C129.61108398 8.26291992 129.61108398 6.28291992 129.61108398 4.24291992 C111.06992778 4.1027241 92.52887921 3.99693644 73.98730278 3.93204689 C65.37799226 3.90111589 56.76901117 3.85895021 48.15991211 3.7902832 C40.65571501 3.73045756 33.1517565 3.69176526 25.64732754 3.67838895 C21.67407832 3.67057036 17.70151163 3.65221206 13.72848129 3.60853958 C9.98711272 3.56774762 6.24670632 3.55526356 2.50513649 3.56427383 C0.48082315 3.56184163 -1.54338587 3.52958719 -3.56742859 3.49639893 C-9.84359405 3.35979405 -9.84359405 3.35979405 -15.50094223 5.62446213 C-17.32566027 7.42122873 -17.32566027 7.42122873 -19.38891602 10.24291992 C-20.04891602 10.24291992 -20.70891602 10.24291992 -21.38891602 10.24291992 C-22.04891602 11.89291992 -22.70891602 13.54291992 -23.38891602 15.24291992 C-24.04891602 15.24291992 -24.70891602 15.24291992 -25.38891602 15.24291992 C-25.71891602 16.23291992 -26.04891602 17.22291992 -26.38891602 18.24291992 C-27.04891602 18.24291992 -27.70891602 18.24291992 -28.38891602 18.24291992 C-28.63641602 19.04729492 -28.88391602 19.85166992 -29.13891602 20.68041992 C-30.38891602 23.24291992 -30.38891602 23.24291992 -32.51391602 24.05541992 C-33.13266602 24.11729492 -33.75141602 24.17916992 -34.38891602 24.24291992 C-34.05891602 25.23291992 -33.72891602 26.22291992 -33.38891602 27.24291992 C-34.70891602 28.23291992 -36.02891602 29.22291992 -37.38891602 30.24291992 C-38.04891602 29.91291992 -38.70891602 29.58291992 -39.38891602 29.24291992 C-40.37891602 29.57291992 -41.36891602 29.90291992 -42.38891602 30.24291992 C-41.02587705 27.08748472 -39.57065472 25.3110386 -36.88891602 23.18041992 C-34.4522669 21.23419806 -33.1662948 19.9089881 -31.38891602 17.24291992 C-30.72891602 17.24291992 -30.06891602 17.24291992 -29.38891602 17.24291992 C-29.38891602 16.58291992 -29.38891602 15.92291992 -29.38891602 15.24291992 C-27.01391602 12.61791992 -27.01391602 12.61791992 -24.38891602 10.24291992 C-23.72891602 10.24291992 -23.06891602 10.24291992 -22.38891602 10.24291992 C-22.05891602 9.25291992 -21.72891602 8.26291992 -21.38891602 7.24291992 C-20.72891602 7.24291992 -20.06891602 7.24291992 -19.38891602 7.24291992 C-19.38891602 6.58291992 -19.38891602 5.92291992 -19.38891602 5.24291992 C-18.72891602 5.24291992 -18.06891602 5.24291992 -17.38891602 5.24291992 C-17.05891602 4.25291992 -16.72891602 3.26291992 -16.38891602 2.24291992 C-10.85749104 0.41018022 -5.78857581 -0.0442253 0 0 Z " fill="#9CD7F4" transform="translate(294.388916015625,20.757080078125)"/>
<path d="M0 0 C2.81626308 1.28262721 4.86033064 2.61366641 7.03564453 4.80859375 C7.60752502 5.38061523 8.17940552 5.95263672 8.76861572 6.54199219 C9.38380066 7.16750977 9.9989856 7.79302734 10.6328125 8.4375 C11.6189151 9.4279834 11.6189151 9.4279834 12.62493896 10.43847656 C14.05018069 11.87132301 15.47310732 13.30647516 16.89398193 14.74365234 C19.14222544 17.01742101 21.39665654 19.28488476 23.65283203 21.55078125 C29.2544399 27.17913397 34.84514769 32.81827501 40.4362793 38.45703125 C45.16228 43.22245884 49.89232605 47.98379987 54.62786865 52.73974609 C56.84994395 54.97479763 59.06591468 57.21578414 61.28173828 59.45703125 C62.64325816 60.82581585 64.00505943 62.19432063 65.3671875 63.5625 C66.2899649 64.50077637 66.2899649 64.50077637 67.23138428 65.45800781 C68.08920502 66.31604004 68.08920502 66.31604004 68.96435547 67.19140625 C69.45692841 67.68842041 69.94950134 68.18543457 70.45700073 68.69750977 C72.18477487 70.1559738 73.98403409 70.99449943 76 72 C77.07951355 73.79353333 77.07951355 73.79353333 78 76 C82.84337278 85.63430137 88.56490475 94.29217851 95.3125 102.6875 C95.81166805 103.31057919 96.31083611 103.93365837 96.82513046 104.57561874 C109.85573809 120.40247618 125.39077509 129.1702367 145.80406797 131.36782658 C166.73458406 133.37881778 187.81275915 133.22120055 208.8125 132.8125 C209.68018147 132.79615367 210.54786294 132.77980735 211.44183779 132.76296568 C234.31925189 132.32063789 257.16071837 131.38808803 280 130 C280.33 129.34 280.66 128.68 281 128 C281.33 128.99 281.66 129.98 282 131 C259.48465702 135.06623048 236.9514056 137.65001949 214.125 139.125 C213.27728153 139.18139318 212.42956306 139.23778636 211.55615616 139.29588842 C167.93227249 142.11750848 131.99167161 137.74895306 98.00937688 108.4202435 C82.96479164 95.14501702 69.0405715 80.852443 55.5 66.0625 C54.78790029 65.28688123 54.07580057 64.51126245 53.34212208 63.71214008 C0 5.53521128 0 5.53521128 0 0 Z " fill="#B3DDF2" transform="translate(150,381)"/>
<path d="M0 0 C1.49869668 0.00225944 2.9974022 0.00098437 4.49609375 -0.00354004 C8.54586262 -0.00582685 12.59371936 0.0410609 16.64304543 0.09705162 C20.88168147 0.14720904 25.1203659 0.15177291 29.35925293 0.16125488 C37.37758236 0.18607726 45.3950347 0.25166734 53.41297865 0.3320508 C62.54466786 0.42160426 71.67639991 0.46548948 80.80841923 0.50561428 C99.58566657 0.58913813 118.3620986 0.72976735 137.13867188 0.90820312 C137.13867188 1.89820313 137.13867188 2.88820312 137.13867188 3.90820312 C136.47867188 3.90820312 135.81867188 3.90820312 135.13867188 3.90820312 C135.13867188 4.56820312 135.13867188 5.22820312 135.13867188 5.90820312 C133.63476562 7.38867188 133.63476562 7.38867188 131.57617188 9.09570312 C124.48081798 14.75916169 124.48081798 14.75916169 119.13867188 21.90820312 C118.47867188 21.90820312 117.81867188 21.90820312 117.13867188 21.90820312 C117.13867188 20.25820313 117.13867188 18.60820312 117.13867188 16.90820312 C118.78867187 16.57820313 120.43867188 16.24820312 122.13867188 15.90820312 C121.89117187 15.16570312 121.64367187 14.42320312 121.38867188 13.65820312 C121.13867188 10.90820312 121.13867188 10.90820312 122.95117188 8.59570312 C125.96701628 6.26919458 127.18226499 6.90820312 131.13867188 6.90820312 C131.13867188 5.58820313 131.13867188 4.26820313 131.13867188 2.90820312 C83.28867187 2.90820312 35.43867188 2.90820312 -13.86132812 2.90820312 C-14.52132813 4.22820312 -15.18132812 5.54820312 -15.86132812 6.90820312 C-18.36132812 8.72070312 -18.36132812 8.72070312 -20.86132812 9.90820312 C-21.52132813 9.57820312 -22.18132812 9.24820313 -22.86132812 8.90820312 C-16.56056398 0.08956129 -10.27449297 -0.21749518 0 0 Z " fill="#A5DEF4" transform="translate(294.861328125,246.091796875)"/>
<path d="M0 0 C-0.56710662 3.96974635 -1.61336101 6.76098995 -4 10 C-4.78375 10.45375 -5.5675 10.9075 -6.375 11.375 C-10.02798335 13.63637064 -11.64085648 16.42758267 -14 20 C-14.33 19.34 -14.66 18.68 -15 18 C-15.99 18.33 -16.98 18.66 -18 19 C-18.309375 19.66 -18.61875 20.32 -18.9375 21 C-20 23 -20 23 -22.125 23.75 C-23.053125 23.87375 -23.053125 23.87375 -24 24 C-24 24.66 -24 25.32 -24 26 C-23.34 26 -22.68 26 -22 26 C-23.37154504 28.95409701 -24.98863724 31.44008376 -27 34 C-26.34 34.33 -25.68 34.66 -25 35 C-26.74468372 35.70088156 -28.49601161 36.38524009 -30.25 37.0625 C-31.22453125 37.44535156 -32.1990625 37.82820313 -33.203125 38.22265625 C-36.13115153 39.03645133 -37.18807969 38.84515582 -40 38 C-34.63181251 32.58126115 -29.25592414 27.17025351 -23.87451172 21.76464844 C-22.04328357 19.92333894 -20.21385123 18.08024169 -18.38623047 16.23535156 C-15.76475271 13.58971926 -13.13696465 10.95050303 -10.5078125 8.3125 C-9.68693146 7.48129639 -8.86605042 6.65009277 -8.02029419 5.79370117 C-7.25965668 5.0329126 -6.49901917 4.27212402 -5.71533203 3.48828125 C-4.70939499 2.47568237 -4.70939499 2.47568237 -3.68313599 1.44262695 C-2 0 -2 0 0 0 Z " fill="#00294A" transform="translate(267,414)"/>
<path d="M0 0 C0.99 0.33 1.98 0.66 3 1 C3.495 2.485 3.495 2.485 4 4 C3.27167969 4.22945313 2.54335938 4.45890625 1.79296875 4.6953125 C-1.54977589 6.25681839 -3.266911 8.10509001 -5.6875 10.875 C-6.45449219 11.73867188 -7.22148437 12.60234375 -8.01171875 13.4921875 C-10.02428295 15.85092167 -10.02428295 15.85092167 -11.1171875 18.2578125 C-12.41499369 20.81896986 -14.39059603 20.98169601 -17 22 C-18.68846452 23.87607169 -19.806927 25.56261187 -20.82421875 27.8671875 C-22.25174127 30.45664696 -24.00338509 32.19682428 -26.125 34.25 C-26.84945313 34.95640625 -27.57390625 35.6628125 -28.3203125 36.390625 C-28.87460937 36.92171875 -29.42890625 37.4528125 -30 38 C-30.99 37.67 -31.98 37.34 -33 37 C-32.48013873 33.16642387 -31.70280706 31.20550813 -28.94897461 28.49487305 C-28.30838608 27.85458664 -27.66779755 27.21430023 -27.00779724 26.55461121 C-26.31299759 25.8804567 -25.61819794 25.20630219 -24.90234375 24.51171875 C-24.19348526 23.80852005 -23.48462677 23.10532135 -22.75428772 22.3808136 C-20.49124831 20.14013904 -18.21469069 17.91378228 -15.9375 15.6875 C-14.39947863 14.16954329 -12.86235793 12.65067342 -11.32617188 11.13085938 C-7.56116283 7.40991918 -3.7849631 3.70063503 0 0 Z " fill="#004278" transform="translate(299,380)"/>
<path d="M0 0 C2 1.3125 2 1.3125 4 3 C4 3.99 4 4.98 4 6 C-45.17 6 -94.34 6 -145 6 C-145 5.67 -145 5.34 -145 5 C-97.15 4.67 -49.3 4.34 0 4 C0 2.68 0 1.36 0 0 Z " fill="#225A87" transform="translate(426,505)"/>
<path d="M0 0 C0.495 0.99 0.495 0.99 1 2 C0.34 2 -0.32 2 -1 2 C-1.66 3.65 -2.32 5.3 -3 7 C-3.66 7 -4.32 7 -5 7 C-5.23074219 7.88171875 -5.46148437 8.7634375 -5.69921875 9.671875 C-7.1815782 13.46457847 -8.91321268 15.41591404 -11.8125 18.25 C-12.66457031 19.10078125 -13.51664063 19.9515625 -14.39453125 20.828125 C-16.91431855 22.92857738 -18.96428226 23.87168013 -22 25 C-22.35412344 26.32796291 -22.68521554 27.66216607 -23 29 C-27.22222222 33 -27.22222222 33 -31 33 C-31.33 34.32 -31.66 35.64 -32 37 C-32.99 37 -33.98 37 -35 37 C-35 34 -35 34 -33.6796875 32.640625 C-33.08414063 32.18171875 -32.48859375 31.7228125 -31.875 31.25 C-28.54666551 28.56302814 -25.90882169 25.67089212 -23.26171875 22.3203125 C-22.84535156 21.88460937 -22.42898437 21.44890625 -22 21 C-21.34 21 -20.68 21 -20 21 C-20 20.34 -20 19.68 -20 19 C-17.625 16.375 -17.625 16.375 -15 14 C-14.34 14 -13.68 14 -13 14 C-13 13.34 -13 12.68 -13 12 C-12.34 12 -11.68 12 -11 12 C-10.67 11.01 -10.34 10.02 -10 9 C-9.34 9 -8.68 9 -8 9 C-7.67 8.01 -7.34 7.02 -7 6 C-5.37109375 4.39453125 -5.37109375 4.39453125 -3.4375 2.8125 C-2.47650391 2.01779297 -2.47650391 2.01779297 -1.49609375 1.20703125 C-1.00238281 0.80871094 -0.50867188 0.41039063 0 0 Z " fill="#87D5F1" transform="translate(217,85)"/>
<path d="M0 0 C0.66 0.33 1.32 0.66 2 1 C-0.50535332 5.76017131 -0.50535332 5.76017131 -3.0625 7 C-5.27436582 7.89415374 -5.27436582 7.89415374 -6.25 10.625 C-6.4975 11.40875 -6.745 12.1925 -7 13 C-7.66 13 -8.32 13 -9 13 C-9.33 13.99 -9.66 14.98 -10 16 C-10.66 16 -11.32 16 -12 16 C-12.2475 16.804375 -12.495 17.60875 -12.75 18.4375 C-14 21 -14 21 -16.125 21.8125 C-16.74375 21.874375 -17.3625 21.93625 -18 22 C-17.67 22.99 -17.34 23.98 -17 25 C-18.32 25.99 -19.64 26.98 -21 28 C-21.66 27.67 -22.32 27.34 -23 27 C-23.99 27.33 -24.98 27.66 -26 28 C-24.63696103 24.84456479 -23.1817387 23.06811867 -20.5 20.9375 C-18.06335088 18.99127814 -16.77737879 17.66606818 -15 15 C-14.34 15 -13.68 15 -13 15 C-13 14.34 -13 13.68 -13 13 C-10.625 10.375 -10.625 10.375 -8 8 C-7.34 8 -6.68 8 -6 8 C-5.67 7.01 -5.34 6.02 -5 5 C-4.34 5 -3.68 5 -3 5 C-3 4.34 -3 3.68 -3 3 C-2.34 3 -1.68 3 -1 3 C-0.67 2.01 -0.34 1.02 0 0 Z " fill="#8DD6F3" transform="translate(278,23)"/>
<path d="M0 0 C0.33 0.66 0.66 1.32 1 2 C-0.80288943 6.60738411 -2.88550128 9.25700085 -7 12 C-7.66 12 -8.32 12 -9 12 C-9.2475 12.5775 -9.495 13.155 -9.75 13.75 C-11.18299988 16.32939979 -12.78424676 18.06121592 -15 20 C-15.66 20 -16.32 20 -17 20 C-17.33 20.99 -17.66 21.98 -18 23 C-19.65 23.33 -21.3 23.66 -23 24 C-23 23.34 -23 22.68 -23 22 C-21.35546875 20.4140625 -21.35546875 20.4140625 -19.1875 18.625 C-16.93749143 16.76433718 -15.09649715 15.13127297 -13.36328125 12.7734375 C-12.91339844 12.18820313 -12.46351562 11.60296875 -12 11 C-11.34 11 -10.68 11 -10 11 C-10 10.34 -10 9.68 -10 9 C-8.625 7.375 -8.625 7.375 -7 6 C-6.34 6 -5.68 6 -5 6 C-5 5.34 -5 4.68 -5 4 C-4.34 4 -3.68 4 -3 4 C-3 3.34 -3 2.68 -3 2 C-2.01 1.34 -1.02 0.68 0 0 Z " fill="#91D8F0" transform="translate(116,186)"/>
<path d="M0 0 C0.99 0.33 1.98 0.66 3 1 C3.33 1.99 3.66 2.98 4 4 C3.27167969 4.22945313 2.54335938 4.45890625 1.79296875 4.6953125 C-1.54977589 6.25681839 -3.266911 8.10509001 -5.6875 10.875 C-6.45449219 11.73867188 -7.22148437 12.60234375 -8.01171875 13.4921875 C-10.0287245 15.84597208 -10.0287245 15.84597208 -11.08203125 18.2578125 C-12 20 -12 20 -15 21 C-15 20.01 -15 19.02 -15 18 C-15.66 17.67 -16.32 17.34 -17 17 C-11.39 11.39 -5.78 5.78 0 0 Z " fill="#034881" transform="translate(299,380)"/>
<path d="M0 0 C0.66 0.33 1.32 0.66 2 1 C0.88559348 4.34321955 0.02527657 5.06019619 -2.625 7.25 C-9.68768648 12.88338558 -9.68768648 12.88338558 -15 20 C-15.66 20 -16.32 20 -17 20 C-17 18.35 -17 16.7 -17 15 C-15.35 14.67 -13.7 14.34 -12 14 C-12.37125 12.88625 -12.37125 12.88625 -12.75 11.75 C-13 9 -13 9 -11.1875 6.6875 C-8.17165559 4.36099146 -6.95640689 5 -3 5 C-3 3.68 -3 2.36 -3 1 C-2.01 0.67 -1.02 0.34 0 0 Z " fill="#72CDF4" transform="translate(429,248)"/>
<path d="M0 0 C0.66 0.33 1.32 0.66 2 1 C-7.9 10.9 -17.8 20.8 -28 31 C-28 26.79667349 -25.88331504 25.88331504 -23 23 C-23 22.01 -23 21.02 -23 20 C-22.21625 19.71125 -21.4325 19.4225 -20.625 19.125 C-17.90328368 18.15087746 -17.90328368 18.15087746 -16 16 C-15.9175 15.360625 -15.835 14.72125 -15.75 14.0625 C-14.58897231 10.86967387 -11.95430796 10.44700798 -9 9 C-7.86649466 6.98330173 -7.86649466 6.98330173 -7 5 C-5.0625 3.9375 -5.0625 3.9375 -3 3 C-1.29078411 1.4587688 -1.29078411 1.4587688 0 0 Z " fill="#B8E8F9" transform="translate(244,209)"/>
<path d="M0 0 C0.66 0.33 1.32 0.66 2 1 C-7.57 10.57 -17.14 20.14 -27 30 C-27 29.01 -27 28.02 -27 27 C-26 26 -25 25 -24 24 C-23.71125 23.154375 -23.4225 22.30875 -23.125 21.4375 C-22 19 -22 19 -19.5 17.8125 C-18.675 17.544375 -17.85 17.27625 -17 17 C-14.83421182 15.2271912 -14.83421182 15.2271912 -14.6875 13 C-14.460625 12.34 -14.23375 11.68 -14 11 C-12.89011719 10.58621094 -12.89011719 10.58621094 -11.7578125 10.1640625 C-8.44524718 8.76584088 -6.66439528 6.96280104 -4.1875 4.375 C-3.39730469 3.55773437 -2.60710937 2.74046875 -1.79296875 1.8984375 C-1.20128906 1.27195312 -0.60960937 0.64546875 0 0 Z " fill="#AFE4F6" transform="translate(195,258)"/>
<path d="M0 0 C0.66 0.33 1.32 0.66 2 1 C-7.9 10.9 -17.8 20.8 -28 31 C-28 28 -28 28 -25.375 25.1875 C-23.68574306 23.57063979 -21.97583228 21.97746524 -20.265625 20.3828125 C-18.79287295 18.9731784 -17.39100359 17.49036099 -16 16 C-16 15.01 -16 14.02 -16 13 C-15.236875 12.731875 -14.47375 12.46375 -13.6875 12.1875 C-11.06396566 11.0282639 -9.72880272 10.24744354 -8 8 C-7.87625 7.319375 -7.7525 6.63875 -7.625 5.9375 C-7.315625 4.9784375 -7.315625 4.9784375 -7 4 C-4.5625 2.875 -4.5625 2.875 -2 2 C-1.34 1.34 -0.68 0.68 0 0 Z " fill="#B5E8F8" transform="translate(301,152)"/>
<path d="M0 0 C0.66 0.33 1.32 0.66 2 1 C-0.12686008 5.14178015 -2.07729313 6.64637588 -6 9 C-7.60907108 11.37612865 -7.60907108 11.37612865 -9 14 C-11.51756797 17.57332229 -12.75079798 19.12085476 -17 20 C-17.33 20.99 -17.66 21.98 -18 23 C-18.99 22.67 -19.98 22.34 -21 22 C-19.625 20 -19.625 20 -18 18 C-17.34 18 -16.68 18 -16 18 C-15.67 17.01 -15.34 16.02 -15 15 C-12.5625 12.3125 -12.5625 12.3125 -10 10 C-9.34 10 -8.68 10 -8 10 C-7.67 9.01 -7.34 8.02 -7 7 C-6.34 7 -5.68 7 -5 7 C-5 6.34 -5 5.68 -5 5 C-3.37446717 3.29319053 -1.70884005 1.62339805 0 0 Z " fill="#98DAF1" transform="translate(245,56)"/>
<path d="M0 0 C0.66 1.32 1.32 2.64 2 4 C0.3247185 5.85162692 -1.0995688 7.05382097 -3.3125 8.25 C-6.43642173 10.28418159 -8.25804936 12.61118515 -10.47265625 15.57421875 C-12 17 -12 17 -16 17 C-16 16.34 -16 15.68 -16 15 C-15.34 15 -14.68 15 -14 15 C-14 14.34 -14 13.68 -14 13 C-12.625 11.375 -12.625 11.375 -11 10 C-10.34 10 -9.68 10 -9 10 C-9 9.34 -9 8.68 -9 8 C-7.28515625 6.30859375 -7.28515625 6.30859375 -5.0625 4.4375 C-4.33160156 3.81746094 -3.60070312 3.19742188 -2.84765625 2.55859375 C-1.93306641 1.78708984 -1.93306641 1.78708984 -1 1 C-0.67 0.67 -0.34 0.34 0 0 Z " fill="#84D1EF" transform="translate(145,157)"/>
<path d="M0 0 C-0.56710662 3.96974635 -1.61336101 6.76098995 -4 10 C-5.65532623 11.01866229 -7.32260138 12.01810813 -9 13 C-11.27537692 15.57183314 -11.27537692 15.57183314 -13 18 C-12.835 17.236875 -12.67 16.47375 -12.5 15.6875 C-11.90854604 12.96403764 -11.90854604 12.96403764 -12 10 C-9.8828125 7.51953125 -9.8828125 7.51953125 -7.125 4.8125 C-6.22007812 3.91144531 -5.31515625 3.01039063 -4.3828125 2.08203125 C-2 0 -2 0 0 0 Z " fill="#023668" transform="translate(267,414)"/>
<path d="M0 0 C0.66 0.33 1.32 0.66 2 1 C-0.58156943 7.92947584 -4.09922372 12.73121124 -11 16 C-11.99 15.67 -12.98 15.34 -14 15 C-13.21625 14.236875 -12.4325 13.47375 -11.625 12.6875 C-8.92742283 10.09108195 -8.92742283 10.09108195 -7 7 C-6.34 7 -5.68 7 -5 7 C-5 6.34 -5 5.68 -5 5 C-3.625 3.375 -3.625 3.375 -2 2 C-1.34 2 -0.68 2 0 2 C0 1.34 0 0.68 0 0 Z " fill="#78CEF0" transform="translate(179,122)"/>
<path d="M0 0 C0.33 0.99 0.66 1.98 1 3 C2.32 3.33 3.64 3.66 5 4 C2.36 6.64 -0.28 9.28 -3 12 C-8.98808129 10.68554313 -12.03429323 7.38808974 -16 3 C-13.92446352 2.4465236 -12.15634036 2 -10 2 C-9.87625 2.78375 -9.7525 3.5675 -9.625 4.375 C-9.20882007 7.14057822 -9.20882007 7.14057822 -7 9 C-4.93125966 9.6425235 -4.93125966 9.6425235 -3 10 C-3 9.01 -3 8.02 -3 7 C-2.34 7 -1.68 7 -1 7 C-0.67 4.69 -0.34 2.38 0 0 Z " fill="#31AAE0" transform="translate(230,441)"/>
<path d="M0 0 C-1.66169474 4.30577504 -4.83080306 7.09011855 -8.0625 10.25 C-8.61744141 10.80429687 -9.17238281 11.35859375 -9.74414062 11.9296875 C-13.85956743 16 -13.85956743 16 -15 16 C-15 14.35 -15 12.7 -15 11 C-14.34 10.67 -13.68 10.34 -13 10 C-12.34 10.33 -11.68 10.66 -11 11 C-10.814375 10.071875 -10.814375 10.071875 -10.625 9.125 C-10 7 -10 7 -8 5 C-7.01 5 -6.02 5 -5 5 C-5 3.68 -5 2.36 -5 1 C-2 0 -2 0 0 0 Z " fill="#2EA7E0" transform="translate(277,401)"/>
<path d="M0 0 C0.33 0.66 0.66 1.32 1 2 C-0.88580531 7.10276732 -3.2437106 9.42367657 -8 12 C-8.99 12 -9.98 12 -11 12 C-11 12.66 -11 13.32 -11 14 C-11.66 13.67 -12.32 13.34 -13 13 C-12.67 12.34 -12.34 11.68 -12 11 C-11.34 11 -10.68 11 -10 11 C-10 10.34 -10 9.68 -10 9 C-9.34 9 -8.68 9 -8 9 C-8 8.34 -8 7.68 -8 7 C-6.625 5.375 -6.625 5.375 -5 4 C-4.34 4 -3.68 4 -3 4 C-3 3.34 -3 2.68 -3 2 C-2.01 1.34 -1.02 0.68 0 0 Z " fill="#94D9F0" transform="translate(164,138)"/>
<path d="M0 0 C0 3 0 3 -2 6 C-1.34 6.33 -0.68 6.66 0 7 C-0.66 7 -1.32 7 -2 7 C-2.33 7.99 -2.66 8.98 -3 10 C-3.99 9.67 -4.98 9.34 -6 9 C-6 9.66 -6 10.32 -6 11 C-8.88229224 12.92152816 -11.90127153 14.46387819 -15 16 C-10.30233025 10.33870569 -5.25276628 5.14771096 0 0 Z " fill="#9DDDF4" transform="translate(255,272)"/>
<path d="M0 0 C0.66 0.33 1.32 0.66 2 1 C-0.6418167 3.67067203 -3.2891042 6.33585333 -5.9375 9 C-6.69224609 9.763125 -7.44699219 10.52625 -8.22460938 11.3125 C-8.94326172 12.034375 -9.66191406 12.75625 -10.40234375 13.5 C-11.39995728 14.50546875 -11.39995728 14.50546875 -12.41772461 15.53125 C-14 17 -14 17 -15 17 C-15 15.35 -15 13.7 -15 12 C-14.05125 11.5875 -13.1025 11.175 -12.125 10.75 C-8.80862971 8.89283264 -8.47225043 8.2599831 -7 5 C-5.0625 3.9375 -5.0625 3.9375 -3 3 C-1.29078411 1.4587688 -1.29078411 1.4587688 0 0 Z " fill="#ABE1F5" transform="translate(212,241)"/>
<path d="M0 0 C0 3 0 3 -1 5 C-1.66 5 -2.32 5 -3 5 C-3.061875 5.61875 -3.12375 6.2375 -3.1875 6.875 C-3.455625 7.57625 -3.72375 8.2775 -4 9 C-5.65204456 9.70211894 -7.31923769 10.36971413 -9 11 C-9.33 11.99 -9.66 12.98 -10 14 C-12.5625 15.1875 -12.5625 15.1875 -15 16 C-13.625 13.5 -13.625 13.5 -12 11 C-11.34 11 -10.68 11 -10 11 C-10 10.34 -10 9.68 -10 9 C-8.3203125 7.34375 -8.3203125 7.34375 -6.125 5.5 C-4.00964496 3.71066742 -1.95980876 1.95980876 0 0 Z " fill="#91D9EE" transform="translate(73,229)"/>
<path d="M0 0 C1.65 0 3.3 0 5 0 C3.56394807 3.38818502 1.79533421 5.3186598 -1 7.6875 C-1.70125 8.28949219 -2.4025 8.89148438 -3.125 9.51171875 C-5 11 -5 11 -7 12 C-7 10.35 -7 8.7 -7 7 C-5.02 6.34 -3.04 5.68 -1 5 C-0.67 3.35 -0.34 1.7 0 0 Z " fill="#8DD6EE" transform="translate(397,278)"/>
<path d="M0 0 C0.66 0 1.32 0 2 0 C2 0.99 2 1.98 2 3 C1.34 3 0.68 3 0 3 C-0.28875 3.94875 -0.5775 4.8975 -0.875 5.875 C-2 9 -2 9 -4 11 C-5.98821313 11.39764263 -7.98944339 11.73775349 -10 12 C-9.61328125 11.55269531 -9.2265625 11.10539063 -8.828125 10.64453125 C-8.30734375 10.03996094 -7.7865625 9.43539062 -7.25 8.8125 C-6.7034375 8.17828125 -6.156875 7.5440625 -5.59375 6.890625 C-4.26789342 5.31779514 -3.00087924 3.69559234 -1.75 2.0625 C-1.1725 1.381875 -0.595 0.70125 0 0 Z " fill="#79CFEE" transform="translate(84,217)"/>
<path d="M0 0 C0.66 0.33 1.32 0.66 2 1 C1.0479279 2.00596297 0.08812654 3.00461563 -0.875 4 C-1.40867187 4.556875 -1.94234375 5.11375 -2.4921875 5.6875 C-4 7 -4 7 -6 7 C-6.33 7.99 -6.66 8.98 -7 10 C-8.65 10.33 -10.3 10.66 -12 11 C-12 9 -12 9 -10.390625 7.34375 C-9.68421875 6.7353125 -8.9778125 6.126875 -8.25 5.5 C-7.55390625 4.8915625 -6.8578125 4.283125 -6.140625 3.65625 C-4.13219166 2.10227968 -2.36715173 0.91503344 0 0 Z " fill="#83D2EF" transform="translate(105,199)"/>
<path d="M0 0 C0.66 0.33 1.32 0.66 2 1 C-0.45023758 3.50804718 -2.91147598 6.0050076 -5.375 8.5 C-6.42300781 9.57314453 -6.42300781 9.57314453 -7.4921875 10.66796875 C-8.1625 11.34472656 -8.8328125 12.02148438 -9.5234375 12.71875 C-10.14138184 13.34716797 -10.75932617 13.97558594 -11.39599609 14.62304688 C-13 16 -13 16 -15 16 C-15 15.01 -15 14.02 -15 13 C-13.36935236 11.94228261 -11.69719127 10.94726954 -10 10 C-8.10727833 8.38768154 -7.12407358 7.28359677 -6.125 5 C-4.59122347 2.27328618 -2.78881776 1.32468843 0 0 Z " fill="#B0E3F5" transform="translate(140,313)"/>
<path d="M0 0 C0 0.66 0 1.32 0 2 C-2.5 3.625 -2.5 3.625 -5 5 C-4.67 6.65 -4.34 8.3 -4 10 C-5.1725131 9.04882866 -6.33787015 8.08882991 -7.5 7.125 C-8.1496875 6.59132813 -8.799375 6.05765625 -9.46875 5.5078125 C-9.9740625 5.01023437 -10.479375 4.51265625 -11 4 C-11 3.34 -11 2.68 -11 2 C-9.5422647 1.664061 -8.08378894 1.33133376 -6.625 1 C-5.40683594 0.7215625 -5.40683594 0.7215625 -4.1640625 0.4375 C-2 0 -2 0 0 0 Z " fill="#064979" transform="translate(236,451)"/>
<path d="M0 0 C0.33 0.66 0.66 1.32 1 2 C1.66 2.33 2.32 2.66 3 3 C1.6905332 4.33631236 0.37734515 5.66897925 -0.9375 7 C-2.03384766 8.11375 -2.03384766 8.11375 -3.15234375 9.25 C-5 11 -5 11 -6 11 C-6.22036864 7.14354879 -5.60355101 4.50776784 -4 1 C-3.01 1.33 -2.02 1.66 -1 2 C-0.67 1.34 -0.34 0.68 0 0 Z " fill="#2DA7E2" transform="translate(252,422)"/>
<path d="M0 0 C5.03788711 2.32517867 9.42417823 5.7574844 12.625 10.3125 C14.49524509 12.60780079 16.13213016 12.68996002 19 13 C18.01 14.485 18.01 14.485 17 16 C14.08462499 14.68285542 12.0152987 13.26341874 9.765625 10.99609375 C9.19199219 10.42052734 8.61835937 9.84496094 8.02734375 9.25195312 C7.44082031 8.65318359 6.85429688 8.05441406 6.25 7.4375 C5.64800781 6.83486328 5.04601562 6.23222656 4.42578125 5.61132812 C0 1.14038584 0 1.14038584 0 0 Z " fill="#65BFE4" transform="translate(96,325)"/>
<path d="M0 0 C0.33 0.99 0.66 1.98 1 3 C0.01 3.33 -0.98 3.66 -2 4 C-2.309375 4.639375 -2.61875 5.27875 -2.9375 5.9375 C-4.2342338 8.45468915 -5.4221737 8.96886948 -8 10 C-7.34 11.65 -6.68 13.3 -6 15 C-7.32 14.01 -8.64 13.02 -10 12 C-9.34 10.35 -8.68 8.7 -8 7 C-7.34 7 -6.68 7 -6 7 C-5.67 6.01 -5.34 5.02 -5 4 C-4.34 4 -3.68 4 -3 4 C-3 3.34 -3 2.68 -3 2 C-2.01 1.34 -1.02 0.68 0 0 Z " fill="#ABE2F3" transform="translate(46,256)"/>
<path d="M0 0 C0.66 0.66 1.32 1.32 2 2 C-2.79813482 5.69087294 -7.05925113 6.99667352 -13 8 C-12.175 7.195625 -11.35 6.39125 -10.5 5.5625 C-7.88361269 3.47736982 -7.88361269 3.47736982 -8 2 C-6.2984375 1.7834375 -6.2984375 1.7834375 -4.5625 1.5625 C-1.19222799 1.38828522 -1.19222799 1.38828522 0 0 Z " fill="#00345F" transform="translate(256,440)"/>
<path d="M0 0 C1.32 0.33 2.64 0.66 4 1 C3.67 1.66 3.34 2.32 3 3 C2.34 3 1.68 3 1 3 C0.79375 3.556875 0.5875 4.11375 0.375 4.6875 C-1.55000774 7.92501302 -4.03850902 9.68231141 -7 12 C-7.33 11.01 -7.66 10.02 -8 9 C-7.01 9 -6.02 9 -5 9 C-5 7.35 -5 5.7 -5 4 C-3.68 4 -2.36 4 -1 4 C-0.67 2.68 -0.34 1.36 0 0 Z " fill="#94D8F2" transform="translate(149,301)"/>
<path d="M0 0 C0.66 0.33 1.32 0.66 2 1 C0.68 3.31 -0.64 5.62 -2 8 C-2.66 8 -3.32 8 -4 8 C-4.66 9.32 -5.32 10.64 -6 12 C-7.32 11.67 -8.64 11.34 -10 11 C-9.44570312 10.45730469 -8.89140625 9.91460937 -8.3203125 9.35546875 C-7.23363281 8.28232422 -7.23363281 8.28232422 -6.125 7.1875 C-5.40570313 6.47980469 -4.68640625 5.77210938 -3.9453125 5.04296875 C-1.84641063 2.95600806 -1.84641063 2.95600806 0 0 Z " fill="#93D9F1" transform="translate(127,174)"/>
<path d="M0 0 C0.66 0.33 1.32 0.66 2 1 C-2.95 5.95 -7.9 10.9 -13 16 C-13 11.79667349 -10.88331504 10.88331504 -8 8 C-8 7.01 -8 6.02 -8 5 C-7.236875 4.731875 -6.47375 4.46375 -5.6875 4.1875 C-3.12619116 3.05575888 -1.80307062 2.08776599 0 0 Z " fill="#BAE9F9" transform="translate(325,128)"/>
<path d="M0 0 C0.66 0.33 1.32 0.66 2 1 C-2.95 5.95 -7.9 10.9 -13 16 C-13 11.79667349 -10.88331504 10.88331504 -8 8 C-8 7.01 -8 6.02 -8 5 C-7.236875 4.731875 -6.47375 4.46375 -5.6875 4.1875 C-3.12619116 3.05575888 -1.80307062 2.08776599 0 0 Z " fill="#BCEAF9" transform="translate(373,80)"/>
<path d="M0 0 C0.66 0.33 1.32 0.66 2 1 C2 1.99 2 2.98 2 4 C2.66 4.33 3.32 4.66 4 5 C4 5.66 4 6.32 4 7 C2.68 7 1.36 7 0 7 C0 8.32 0 9.64 0 11 C-0.66 11 -1.32 11 -2 11 C-4.125 6.375 -4.125 6.375 -3 3 C-1.4375 1.3125 -1.4375 1.3125 0 0 Z " fill="#77CEF4" transform="translate(250,51)"/>
<path d="M0 0 C1.32 0.99 2.64 1.98 4 3 C2.25531628 3.70088156 0.50398839 4.38524009 -1.25 5.0625 C-2.22453125 5.44535156 -3.1990625 5.82820313 -4.203125 6.22265625 C-7.04007395 7.01113787 -8.29409552 7.02437812 -11 6 C-9.35 4.68 -7.7 3.36 -6 2 C-6 2.66 -6 3.32 -6 4 C-4.68 4 -3.36 4 -2 4 C-2 3.34 -2 2.68 -2 2 C-1.34 2 -0.68 2 0 2 C0 1.34 0 0.68 0 0 Z " fill="#002E55" transform="translate(238,446)"/>
<path d="M0 0 C0.66 0.66 1.32 1.32 2 2 C1.01 3.485 1.01 3.485 0 5 C-0.16713569 7.62531524 -0.16713569 7.62531524 0 10 C-2.31 8.02 -4.62 6.04 -7 4 C-5.68 3.34 -4.36 2.68 -3 2 C-2.01 1.34 -1.02 0.68 0 0 Z " fill="#30B3EA" transform="translate(214,433)"/>
<path d="M0 0 C0.66 0.33 1.32 0.66 2 1 C-2.62 5.62 -7.24 10.24 -12 15 C-12 10.79667349 -9.88331504 9.88331504 -7 7 C-7 6.01 -7 5.02 -7 4 C-5.824375 3.566875 -5.824375 3.566875 -4.625 3.125 C-1.90328368 2.15087746 -1.90328368 2.15087746 0 0 Z " fill="#B8E8F9" transform="translate(228,225)"/>
<path d="M0 0 C0.66 0.33 1.32 0.66 2 1 C-2.62 5.62 -7.24 10.24 -12 15 C-12 10.79667349 -9.88331504 9.88331504 -7 7 C-7 6.01 -7 5.02 -7 4 C-5.824375 3.566875 -5.824375 3.566875 -4.625 3.125 C-1.90328368 2.15087746 -1.90328368 2.15087746 0 0 Z " fill="#B6E8F9" transform="translate(260,193)"/>
<path d="M0 0 C0.99 0.33 1.98 0.66 3 1 C2.67 1.66 2.34 2.32 2 3 C1.34 3 0.68 3 0 3 C0 3.66 0 4.32 0 5 C-0.66 5 -1.32 5 -2 5 C-2 5.66 -2 6.32 -2 7 C-4.5 8.625 -4.5 8.625 -7 10 C-7.042721 8.33388095 -7.04063832 6.66617115 -7 5 C-6 4 -6 4 -3.4375 3.9375 C-2.2309375 3.9684375 -2.2309375 3.9684375 -1 4 C-0.67 2.68 -0.34 1.36 0 0 Z " fill="#9BDBF0" transform="translate(339,338)"/>
<path d="M0 0 C0.66 0.33 1.32 0.66 2 1 C0.90904165 4.27287504 0.08205507 5.04460593 -2.5 7.1875 C-3.1290625 7.71730469 -3.758125 8.24710937 -4.40625 8.79296875 C-6 10 -6 10 -7 10 C-7 8.35 -7 6.7 -7 5 C-5.68 5 -4.36 5 -3 5 C-3 3.68 -3 2.36 -3 1 C-2.01 0.67 -1.02 0.34 0 0 Z " fill="#93D7EF" transform="translate(429,248)"/>
<path d="M0 0 C-0.763125 0.7425 -1.52625 1.485 -2.3125 2.25 C-4.4393702 4.4263323 -6.2559956 6.52167796 -8 9 C-8.33 7.35 -8.66 5.7 -9 4 C-8.01 4 -7.02 4 -6 4 C-6 2.68 -6 1.36 -6 0 C-3 -1 -3 -1 0 0 Z " fill="#96D9F0" transform="translate(309,372)"/>
<path d="M0 0 C0.66 0.33 1.32 0.66 2 1 C1.67 1.99 1.34 2.98 1 4 C0.34 4 -0.32 4 -1 4 C-1.2475 4.598125 -1.495 5.19625 -1.75 5.8125 C-3.16370012 8.28647521 -4.65055383 9.43370255 -7 11 C-7.66 10.67 -8.32 10.34 -9 10 C-8.34 9.01 -7.68 8.02 -7 7 C-6.34 7 -5.68 7 -5 7 C-5 6.34 -5 5.68 -5 5 C-3.625 3.375 -3.625 3.375 -2 2 C-1.34 2 -0.68 2 0 2 C0 1.34 0 0.68 0 0 Z " fill="#A4E0F1" transform="translate(179,122)"/>
<path d="M0 0 C0.66 0.33 1.32 0.66 2 1 C-1.63 4.63 -5.26 8.26 -9 12 C-9.66 11.67 -10.32 11.34 -11 11 C-10.2884375 10.38125 -10.2884375 10.38125 -9.5625 9.75 C-7.83724908 8.12407989 -7.83724908 8.12407989 -7.625 5.9375 C-7.41875 5.298125 -7.2125 4.65875 -7 4 C-4.5625 2.875 -4.5625 2.875 -2 2 C-1.34 1.34 -0.68 0.68 0 0 Z " fill="#B3E6F7" transform="translate(420,33)"/>
<path d="M0 0 C0.66 0.33 1.32 0.66 2 1 C-1.63 4.63 -5.26 8.26 -9 12 C-9 9 -9 9 -7 7 C-6.896875 6.34 -6.79375 5.68 -6.6875 5 C-6.3471875 4.01 -6.3471875 4.01 -6 3 C-3.5 1.8125 -3.5 1.8125 -1 1 C-0.67 0.67 -0.34 0.34 0 0 Z " fill="#AFE4F6" transform="translate(163,290)"/>
<path d="M0 0 C1.32 0.66 2.64 1.32 4 2 C-0.75 7.75 -0.75 7.75 -3 10 C-2.835 9.236875 -2.67 8.47375 -2.5 7.6875 C-1.90854604 4.96403764 -1.90854604 4.96403764 -2 2 C-1.34 1.34 -0.68 0.68 0 0 Z " fill="#01315A" transform="translate(257,422)"/>
<path d="M0 0 C0.12375 0.7425 0.2475 1.485 0.375 2.25 C0.9578376 4.81448542 1.78664449 6.69166512 3 9 C1.87105124 8.06725891 0.74699124 7.12859878 -0.375 6.1875 C-1.00148437 5.66542969 -1.62796875 5.14335937 -2.2734375 4.60546875 C-4 3 -4 3 -6 0 C-3 -1 -3 -1 0 0 Z " fill="#35B1E5" transform="translate(188,411)"/>
<path d="M0 0 C0.66 1.32 1.32 2.64 2 4 C-0.17424117 6.50037734 -1.73045798 7.43628586 -5 8 C-4.45773019 4.20411134 -2.79872437 2.52788007 0 0 Z " fill="#7BCFEE" transform="translate(145,157)"/>
<path d="M0 0 C0.66 0.33 1.32 0.66 2 1 C2 3.31 2 5.62 2 8 C-0.31 6.02 -2.62 4.04 -5 2 C-3.68 1.67 -2.36 1.34 -1 1 C-0.67 0.67 -0.34 0.34 0 0 Z " fill="#33B2E7" transform="translate(180,403)"/>
<path d="M0 0 C2.31 0.33 4.62 0.66 7 1 C7.12375 1.7425 7.2475 2.485 7.375 3.25 C7.9578376 5.81448542 8.78664449 7.69166512 10 10 C2.51708428 3.84965831 2.51708428 3.84965831 0 0 Z " fill="#36B1E3" transform="translate(165,394)"/>
<path d="M0 0 C0.33 0.66 0.66 1.32 1 2 C0.0625 4.625 0.0625 4.625 -1 7 C-1.99 7 -2.98 7 -4 7 C-4.33 7.66 -4.66 8.32 -5 9 C-5.66 8.34 -6.32 7.68 -7 7 C-4.69 4.69 -2.38 2.38 0 0 Z " fill="#34B0F2" transform="translate(172,357)"/>
<path d="M0 0 C0.33 0.66 0.66 1.32 1 2 C0.0625 4.625 0.0625 4.625 -1 7 C-1.99 7 -2.98 7 -4 7 C-4.33 7.66 -4.66 8.32 -5 9 C-5.66 8.34 -6.32 7.68 -7 7 C-4.69 4.69 -2.38 2.38 0 0 Z " fill="#34B0F3" transform="translate(188,341)"/>
<path d="M0 0 C2 1.3125 2 1.3125 4 3 C4 3.99 4 4.98 4 6 C0.04 6 -3.92 6 -8 6 C-8 5.67 -8 5.34 -8 5 C-5.36 4.67 -2.72 4.34 0 4 C0 2.68 0 1.36 0 0 Z " fill="#40729B" transform="translate(426,505)"/>
<path d="M0 0 C0.33 0.66 0.66 1.32 1 2 C0.34 2 -0.32 2 -1 2 C-1 2.66 -1 3.32 -1 4 C-2.62553283 5.70680947 -4.29115995 7.37660195 -6 9 C-6.66 8.67 -7.32 8.34 -8 8 C-7.67 6.35 -7.34 4.7 -7 3 C-5.68 3 -4.36 3 -3 3 C-3 2.34 -3 1.68 -3 1 C-2.01 0.67 -1.02 0.34 0 0 Z " fill="#A5E0F3" transform="translate(381,298)"/>
<path d="M0 0 C0.66 0.33 1.32 0.66 2 1 C-0.21689838 5.43379675 -2.77728219 7.46636932 -7 10 C-7 9.01 -7 8.02 -7 7 C-6.34 7 -5.68 7 -5 7 C-5 6.34 -5 5.68 -5 5 C-3.37446717 3.29319053 -1.70884005 1.62339805 0 0 Z " fill="#A9E1F4" transform="translate(245,56)"/>
<path d="M0 0 C0.66 0 1.32 0 2 0 C1.67 0.99 1.34 1.98 1 3 C0.67 2.01 0.34 1.02 0 0 Z M0 2 C-0.33 3.98 -0.66 5.96 -1 8 C-2.65 6.35 -4.3 4.7 -6 3 C-3.92446352 2.4465236 -2.15634036 2 0 2 Z " fill="#33B2EA" transform="translate(166,386)"/>
<path d="M0 0 C1 2 1 2 0.4375 4.5625 C-1 7 -1 7 -4.125 7.8125 C-5.548125 7.9053125 -5.548125 7.9053125 -7 8 C-6.02133662 6.85373678 -5.04205413 5.70800212 -4.0625 4.5625 C-3.51722656 3.92441406 -2.97195312 3.28632813 -2.41015625 2.62890625 C-1.63204305 1.73008851 -0.84063472 0.84063472 0 0 Z " fill="#34AFF2" transform="translate(204,325)"/>
<path d="M0 0 C1.65 0 3.3 0 5 0 C5 2 5 2 3.625 3.625 C2 5 2 5 0 5 C0 5.66 0 6.32 0 7 C-0.66 6.67 -1.32 6.34 -2 6 C-1.34 4.02 -0.68 2.04 0 0 Z " fill="#9CDDF1" transform="translate(407,268)"/>
<path d="M0 0 C1.85776765 3.13498292 2.20140476 5.37471432 2 9 C-0.31 7.02 -2.62 5.04 -5 3 C-4.34 2.67 -3.68 2.34 -3 2 C-2.01 2.33 -1.02 2.66 0 3 C0 2.01 0 1.02 0 0 Z " fill="#34B1E6" transform="translate(202,424)"/>
<path d="M0 0 C4.20626034 1.50223584 5.73900021 4.28550034 8 8 C5.6875 7.8125 5.6875 7.8125 3 7 C0 2.96551724 0 2.96551724 0 0 Z " fill="#6897BB" transform="translate(318,397)"/>
<path d="M0 0 C0.66 0.33 1.32 0.66 2 1 C1.8125 2.8125 1.8125 2.8125 1 5 C-1.4375 6.8125 -1.4375 6.8125 -4 8 C-4.66 7.67 -5.32 7.34 -6 7 C-4.02 4.69 -2.04 2.38 0 0 Z " fill="#93DAF2" transform="translate(56,245)"/>
<path d="M0 0 C0.66 0.33 1.32 0.66 2 1 C0.47793991 3.62901288 -0.84365964 5.84365964 -3 8 C-3.99 8 -4.98 8 -6 8 C-5.67 7.01 -5.34 6.02 -5 5 C-4.34 5 -3.68 5 -3 5 C-3 4.34 -3 3.68 -3 3 C-2.34 3 -1.68 3 -1 3 C-0.67 2.01 -0.34 1.02 0 0 Z " fill="#AEE1F3" transform="translate(278,23)"/>
<path d="M0 0 C0 3 0 3 -1.53125 4.60546875 C-2.1809375 5.12753906 -2.830625 5.64960938 -3.5 6.1875 C-4.1496875 6.71730469 -4.799375 7.24710937 -5.46875 7.79296875 C-5.9740625 8.19128906 -6.479375 8.58960938 -7 9 C-7 7.35 -7 5.7 -7 4 C-5.824375 3.566875 -5.824375 3.566875 -4.625 3.125 C-1.90328368 2.15087746 -1.90328368 2.15087746 0 0 Z " fill="#A5E0F4" transform="translate(124,329)"/>
<path d="M0 0 C1.2065625 0.0309375 1.2065625 0.0309375 2.4375 0.0625 C2.4375 0.7225 2.4375 1.3825 2.4375 2.0625 C1.7775 2.0625 1.1175 2.0625 0.4375 2.0625 C0.4375 2.7225 0.4375 3.3825 0.4375 4.0625 C-1.5425 5.0525 -1.5425 5.0525 -3.5625 6.0625 C-3.605221 4.39638095 -3.60313832 2.72867115 -3.5625 1.0625 C-2.5625 0.0625 -2.5625 0.0625 0 0 Z " fill="#95D9F0" transform="translate(361.5625,315.9375)"/>
<path d="M0 0 C1.2065625 0.0309375 1.2065625 0.0309375 2.4375 0.0625 C2.4375 0.7225 2.4375 1.3825 2.4375 2.0625 C0.47602126 3.45188077 -1.52416576 4.7885411 -3.5625 6.0625 C-3.605221 4.39638095 -3.60313832 2.72867115 -3.5625 1.0625 C-2.5625 0.0625 -2.5625 0.0625 0 0 Z " fill="#90D6F0" transform="translate(329.5625,347.9375)"/>
<path d="M0 0 C1.2065625 0.0309375 1.2065625 0.0309375 2.4375 0.0625 C1.1635411 2.10083424 -0.17311923 4.10102126 -1.5625 6.0625 C-2.2225 6.0625 -2.8825 6.0625 -3.5625 6.0625 C-3.605221 4.39638095 -3.60313832 2.72867115 -3.5625 1.0625 C-2.5625 0.0625 -2.5625 0.0625 0 0 Z " fill="#90D7EF" transform="translate(367.5625,309.9375)"/>
<path d="M0 0 C1.32 0 2.64 0 4 0 C3 2 2 4 1 6 C0.34 6 -0.32 6 -1 6 C-1.042721 4.33388095 -1.04063832 2.66617115 -1 1 C-0.67 0.67 -0.34 0.34 0 0 Z " fill="#8DD6EE" transform="translate(413,262)"/>
<path d="M0 0 C0.33 0.99 0.66 1.98 1 3 C0.34 3 -0.32 3 -1 3 C-1.33 3.99 -1.66 4.98 -2 6 C-4.5625 7.1875 -4.5625 7.1875 -7 8 C-5.625 5.5 -5.625 5.5 -4 3 C-3.34 3 -2.68 3 -2 3 C-2 2.34 -2 1.68 -2 1 C-1.34 0.67 -0.68 0.34 0 0 Z " fill="#A6E1F1" transform="translate(65,237)"/>
<path d="M0 0 C1.32 1.32 2.64 2.64 4 4 C3.01 5.485 3.01 5.485 2 7 C0.68 6.01 -0.64 5.02 -2 4 C-1.34 2.68 -0.68 1.36 0 0 Z " fill="#3DB1E6" transform="translate(152,377)"/>
<path d="M0 0 C0.33 0.99 0.66 1.98 1 3 C-1.97 5.475 -1.97 5.475 -5 8 C-5.66 7.67 -6.32 7.34 -7 7 C-4.66666667 4.66666667 -2.33333333 2.33333333 0 0 Z " fill="#5DC1EE" transform="translate(236,293)"/>
<path d="M0 0 C0.66 0.33 1.32 0.66 2 1 C0.9024777 3.99324263 0.32317108 4.84610901 -2.625 6.25 C-3.40875 6.4975 -4.1925 6.745 -5 7 C-5 6.34 -5 5.68 -5 5 C-4.34 5 -3.68 5 -3 5 C-3 4.34 -3 3.68 -3 3 C-2.34 3 -1.68 3 -1 3 C-0.67 2.01 -0.34 1.02 0 0 Z " fill="#AEE4F3" transform="translate(207,94)"/>
<path d="M0 0 C1.98 0.495 1.98 0.495 4 1 C3.67 1.66 3.34 2.32 3 3 C3.39938767 5.09821215 3.39938767 5.09821215 4 7 C2.35 5.35 0.7 3.7 -1 2 C-0.67 1.34 -0.34 0.68 0 0 Z " fill="#074F88" transform="translate(228,454)"/>
<path d="M0 0 C0.66 1.32 1.32 2.64 2 4 C1.01 4.99 0.02 5.98 -1 7 C-1.66 6.67 -2.32 6.34 -3 6 C-1.125 1.125 -1.125 1.125 0 0 Z " fill="#73CCF0" transform="translate(49,253)"/>
<path d="M0 0 C0 0.99 0 1.98 0 3 C-0.66 3 -1.32 3 -2 3 C-2.33 3.99 -2.66 4.98 -3 6 C-5.0625 6.6875 -5.0625 6.6875 -7 7 C-3.86206897 0 -3.86206897 0 0 0 Z " fill="#A5E1F1" transform="translate(86,217)"/>
<path d="M0 0 C-1.36983503 3.16115776 -1.9890638 3.9927092 -5 6 C-5.33 4.68 -5.66 3.36 -6 2 C-2.25 0 -2.25 0 0 0 Z " fill="#2FA7E2" transform="translate(285,393)"/>
<path d="M0 0 C1.98 1.65 3.96 3.3 6 5 C5.01 5.33 4.02 5.66 3 6 C2.01 5.34 1.02 4.68 0 4 C0 2.68 0 1.36 0 0 Z " fill="#5D8FB6" transform="translate(308,387)"/>
<path d="M0 0 C1.65 0 3.3 0 5 0 C4.67 0.99 4.34 1.98 4 3 C3.34 3 2.68 3 2 3 C2 3.66 2 4.32 2 5 C1.34 5 0.68 5 0 5 C0 3.35 0 1.7 0 0 Z " fill="#9DDCF1" transform="translate(310,365)"/>
<path d="M0 0 C-0.8125 1.9375 -0.8125 1.9375 -2 4 C-2.99 4.33 -3.98 4.66 -5 5 C-5 3.68 -5 2.36 -5 1 C-3 0 -3 0 0 0 Z " fill="#95D5F1" transform="translate(234,220)"/>
<path d="M0 0 C0.33 0.66 0.66 1.32 1 2 C-1.46153846 5.81538462 -1.46153846 5.81538462 -4.1875 6.75 C-4.785625 6.8325 -5.38375 6.915 -6 7 C-6 6.34 -6 5.68 -6 5 C-5.34 5 -4.68 5 -4 5 C-4 4.34 -4 3.68 -4 3 C-2 1.375 -2 1.375 0 0 Z " fill="#A9E3F2" transform="translate(92,210)"/>
<path d="M0 0 C0.33 0.99 0.66 1.98 1 3 C0.34 3.66 -0.32 4.32 -1 5 C-1.99 5 -2.98 5 -4 5 C-4 5.66 -4 6.32 -4 7 C-4.66 6.67 -5.32 6.34 -6 6 C-5.67 5.34 -5.34 4.68 -5 4 C-4.34 4 -3.68 4 -3 4 C-3 3.34 -3 2.68 -3 2 C-2.01 1.34 -1.02 0.68 0 0 Z " fill="#A9E3F2" transform="translate(139,163)"/>
</svg>
