<?xml version="1.0" encoding="UTF-8"?>
<svg version="1.1" xmlns="http://www.w3.org/2000/svg" width="200" height="175">
<path d="M0 0 C10.36525893 7.94178606 16.56712675 19.98332137 18.625 32.75 C19.75663516 45.74335314 16.52897891 58.1398415 8.8125 68.75 C0.84589495 78.2275129 -9.57617855 85.16912105 -22 87 C-37.79435934 87.76827766 -50.06804464 85.33474408 -62.8125 75.1875 C-63.534375 74.465625 -64.25625 73.74375 -65 73 C-65 72.34 -65 71.68 -65 71 C-65.66 71 -66.32 71 -67 71 C-76.29662587 59.57385146 -79.29040291 46.37551075 -78.22753906 31.98339844 C-76.7056945 18.71787781 -68.9235673 7.49112193 -59 -1 C-56.66126674 -2.71236732 -54.67899535 -3.82124205 -52 -5 C-49 -4 -49 -4 -47.83203125 -1.890625 C-47.49558594 -1.01921875 -47.15914062 -0.1478125 -46.8125 0.75 C-46.46832031 1.61109375 -46.12414062 2.4721875 -45.76953125 3.359375 C-44.95540958 6.15301079 -44.58323197 8.1157758 -45 11 C-46.57421875 12.73828125 -46.57421875 12.73828125 -48.6875 14.3125 C-55.14449463 19.59237879 -58.84652903 25.6982582 -60 34 C-60.17871739 36.81479885 -60.23187582 39.22802994 -60 42 C-59.94328125 42.69867188 -59.8865625 43.39734375 -59.828125 44.1171875 C-58.68306532 51.77818203 -54.11305646 58.48115486 -48.26953125 63.48046875 C-40.24189846 68.45721972 -31.15468314 70.14175183 -22 68 C-12.48560123 64.4303843 -6.31475398 59.53433048 -1.98046875 50.3046875 C1.08607444 43.09647841 1.3216902 35.08307867 -1.09375 27.62109375 C-5.39001022 18.49154077 -10.65609732 13.32623974 -20.04296875 9.70703125 C-23.0198153 8.99526213 -25.75033336 8.88864077 -28.80224609 8.88305664 C-31.99728883 8.87025164 -34.87238981 8.68520082 -38 8 C-42.04705126 3.82089525 -42.97893617 -1.4342011 -44 -7 C-30.92427573 -15.71714951 -11.41311594 -8.05724828 0 0 Z " fill="#4385F2" transform="translate(129,78)"/>
<path d="M0 0 C10.36525893 7.94178606 16.56712675 19.98332137 18.625 32.75 C19.59685816 43.90880519 17.37690698 54.13738609 12 64 C9.8359375 66.34375 9.8359375 66.34375 8 68 C7.79859524 64.37471432 8.14223235 62.13498292 10 59 C10.66 59 11.32 59 12 59 C11.505 54.545 11.505 54.545 11 50 C11.99 50.495 11.99 50.495 13 51 C13.06058594 50.31035156 13.12117188 49.62070313 13.18359375 48.91015625 C13.26738281 47.97042969 13.35117188 47.03070313 13.4375 46.0625 C13.52515625 45.05960938 13.6128125 44.05671875 13.703125 43.0234375 C13.96124016 40.39473837 14.31284643 37.80115468 14.6875 35.1875 C15.14259383 31.35367924 14.5609605 28.58102703 13 25 C11.68 26.32 10.36 27.64 9 29 C9.33 27.35 9.66 25.7 10 24 C9.34 24.66 8.68 25.32 8 26 C8.020625 26.94875 8.04125 27.8975 8.0625 28.875 C8 32 8 32 6.5703125 33.6796875 C4.33888001 36.97687878 4.18465837 40.38501586 3.8125 44.25 C3.73064453 44.99507812 3.64878906 45.74015625 3.56445312 46.5078125 C3.36508006 48.33735356 3.18101526 50.16855151 3 52 C2.34 52 1.68 52 1 52 C0.71125 52.639375 0.4225 53.27875 0.125 53.9375 C-1 56 -1 56 -3 57 C-3.103125 57.763125 -3.20625 58.52625 -3.3125 59.3125 C-4.23737382 62.92791582 -5.94334094 63.98707818 -9 66 C-9.66 66 -10.32 66 -11 66 C-11.66 67.65 -12.32 69.3 -13 71 C-14.98 71 -16.96 71 -19 71 C-19 71.66 -19 72.32 -19 73 C-21.97 73.495 -21.97 73.495 -25 74 C-25 73 -25 72 -25 71 C-25.65226562 71.02320313 -26.30453125 71.04640625 -26.9765625 71.0703125 C-32.08698903 71.17583753 -36.20425033 71.01926302 -41 69 C-37.84092555 67.94697518 -36.58220385 68.07887402 -33.375 68.5625 C-23.91941819 69.57657689 -16.51980832 66.78053292 -9 61 C-2.50984579 54.40076757 0.11049089 47.39062861 0.5625 38.25 C0.3667016 29.95526797 -2.31821097 23.44322958 -7.60546875 17.0625 C-13.57274508 11.39287878 -20.65908371 8.8979563 -28.80224609 8.88305664 C-31.99728883 8.87025164 -34.87238981 8.68520082 -38 8 C-42.04705126 3.82089525 -42.97893617 -1.4342011 -44 -7 C-30.92427573 -15.71714951 -11.41311594 -8.05724828 0 0 Z " fill="#4385F1" transform="translate(129,78)"/>
<path d="M0 0 C1.16796875 2.109375 1.16796875 2.109375 2.1875 4.75 C2.53167969 5.61109375 2.87585938 6.4721875 3.23046875 7.359375 C4.04459042 10.15301079 4.41676803 12.1157758 4 15 C2.42578125 16.73828125 2.42578125 16.73828125 0.3125 18.3125 C-6.14449463 23.59237879 -9.84652903 29.6982582 -11 38 C-11.17871739 40.81479885 -11.23187582 43.22802994 -11 46 C-10.94328125 46.69867188 -10.8865625 47.39734375 -10.828125 48.1171875 C-9.69104083 55.72482206 -5.12946129 62.88887188 1.01171875 67.515625 C2.63118375 68.42551309 4.31241614 69.22371143 6 70 C6.99 70.99 6.99 70.99 8 72 C0.15 72.30192308 0.15 72.30192308 -3 70 C-3.33 69.01 -3.66 68.02 -4 67 C-4.66 67 -5.32 67 -6 67 C-6.66 68.32 -7.32 69.64 -8 71 C-9.65 70.67 -11.3 70.34 -13 70 C-12.67 72.64 -12.34 75.28 -12 78 C-11.05125 78.0825 -10.1025 78.165 -9.125 78.25 C-7.578125 78.62125 -7.578125 78.62125 -6 79 C-4.875 81 -4.875 81 -4 83 C-2.67405895 83.36162029 -1.34061543 83.69728039 0 84 C0.33 84.99 0.66 85.98 1 87 C-3.62509876 85.68246445 -7.0101877 83.84885893 -10.875 81 C-12.32519531 79.948125 -12.32519531 79.948125 -13.8046875 78.875 C-14.52914062 78.25625 -15.25359375 77.6375 -16 77 C-16 76.34 -16 75.68 -16 75 C-16.66 75 -17.32 75 -18 75 C-27.29662587 63.57385146 -30.29040291 50.37551075 -29.22753906 35.98339844 C-27.7056945 22.71787781 -19.9235673 11.49112193 -10 3 C-4.05605787 -1.35201929 -4.05605787 -1.35201929 0 0 Z " fill="#4586EC" transform="translate(80,74)"/>
<path d="M0 0 C1 3 1 3 0.171875 4.82421875 C-1.4418255 6.93887572 -2.80221115 8.48130321 -5 10 C-7.9198315 10.37444525 -10.49038076 10.26432922 -13.4140625 9.953125 C-16.64849013 10.01175511 -17.76983286 10.68910283 -20 13 C-21.07221261 15.98209131 -21.23264642 18.84819491 -21 22 C-19.18817417 25.27522362 -18.07371837 26.65104153 -14.5 27.8125 C-11.05409781 29.44930354 -10.28810079 31.66745485 -8.69921875 35.02734375 C-8 37 -8 37 -8 40 C-13.6567952 41.59550634 -17.85806928 40.53622259 -23 38 C-28.46845572 34.31638747 -32.26450528 30.50810519 -34 24 C-34.84649568 16.85300484 -34.36115939 10.88369432 -30 5 C-21.96726307 -4.15648769 -10.55942619 -6.69622149 0 0 Z " fill="#6196F2" transform="translate(85,31)"/>
<path d="M0 0 C0 0.99 0 1.98 0 3 C0.99 2.34 1.98 1.68 3 1 C5.62056424 5.92666077 6.25854303 8.95741352 5.39453125 14.4453125 C4.92607983 17.4786514 4.67865773 20.50303627 4.4375 23.5625 C4.35371094 24.59503906 4.26992187 25.62757812 4.18359375 26.69140625 C4.09271484 27.83416016 4.09271484 27.83416016 4 29 C3.34 28.67 2.68 28.34 2 28 C2 30.64 2 33.28 2 36 C1.34 36 0.68 36 0 36 C0.04125 36.7425 0.0825 37.485 0.125 38.25 C-0.0070855 41.15588108 -0.31593094 42.64230332 -2 45 C-4.125 45.75 -4.125 45.75 -6 46 C-6 46.99 -6 47.98 -6 49 C-6.99 49 -7.98 49 -9 49 C-9 49.99 -9 50.98 -9 52 C-14.61 52.66 -20.22 53.32 -26 54 C-26.66 52.35 -27.32 50.7 -28 49 C-27.21625 48.7525 -26.4325 48.505 -25.625 48.25 C-22.90780895 47.29216317 -22.90780895 47.29216317 -22.125 45.1875 C-20.83363931 42.67652088 -19.77607937 42.07095485 -17.4375 40.5625 C-14.44843481 38.60926012 -14.44843481 38.60926012 -13.1875 35.25 C-13.125625 34.5075 -13.06375 33.765 -13 33 C-12.01 32.505 -12.01 32.505 -11 32 C-10.27840576 30.35636866 -9.60648579 28.68949614 -9 27 C-8.67 27 -8.34 27 -8 27 C-7.83564453 25.55367187 -7.83564453 25.55367187 -7.66796875 24.078125 C-7.50941406 22.81484375 -7.35085937 21.5515625 -7.1875 20.25 C-7.03667969 18.99703125 -6.88585937 17.7440625 -6.73046875 16.453125 C-6.00343888 13.01625654 -5.16671253 11.64160843 -3 9 C-3 7.989375 -3 6.97875 -3 5.9375 C-3 3 -3 3 -1.5 1.125 C-1.005 0.75375 -0.51 0.3825 0 0 Z " fill="#4485F2" transform="translate(139,101)"/>
<path d="M0 0 C0 0.66 0 1.32 0 2 C-0.66 2 -1.32 2 -2 2 C-1.34 3.65 -0.68 5.3 0 7 C-1.32 7 -2.64 7 -4 7 C-3.505 7.99 -3.505 7.99 -3 9 C-2.34 8.67 -1.68 8.34 -1 8 C-1.33 9.65 -1.66 11.3 -2 13 C-5.43559127 14.14519709 -6.81665304 13.78626804 -10.3125 13.0625 C-17.23710913 11.79962759 -23.98267514 11.81314815 -31 12 C-31.86580287 10.06767179 -32.71729941 8.12892806 -33.5625 6.1875 C-34.03816406 5.10855469 -34.51382813 4.02960938 -35.00390625 2.91796875 C-36 0 -36 0 -35 -3 C-24.18713872 -7.56543032 -10.12567834 -5.49270287 0 0 Z " fill="#4785EB" transform="translate(121,73)"/>
<path d="M0 0 C3.56016965 1.84813636 6.2677291 3.90159364 8.5 7.25 C9.39115354 12.15134444 9.37730354 16.69432414 6.765625 21.06640625 C4.00225588 24.47788513 1.4327894 27.13506548 -3 28 C-6.29416842 27.72083319 -9.03124226 27.48437887 -12 26 C-11.6875 23.625 -11.6875 23.625 -11 21 C-8.01353231 19.00902154 -5.40312738 18.05875074 -2 17 C-2 15.02 -2 13.04 -2 11 C-5.58327753 9.99782936 -5.58327753 9.99782936 -9 11 C-9.7195752 12.82419651 -9.7195752 12.82419651 -10.3125 14.9375 C-11.6556905 18.80782725 -11.6556905 18.80782725 -14.6875 20.5 C-15.8321875 20.7475 -15.8321875 20.7475 -17 21 C-19.72820637 18.27179363 -19.85961766 16.8605144 -20 13 C-18.63981833 8.06399482 -16.92838691 4.75786686 -12.9375 1.5 C-8.06339305 -0.98890568 -5.34850807 -1.24798522 0 0 Z " fill="#D8E7F5" transform="translate(104,10)"/>
<path d="M0 0 C1.97387813 4.76052962 2.0070238 7.96488101 1 13 C0.236875 13.20625 -0.52625 13.4125 -1.3125 13.625 C-4.82229103 15.42070704 -5.52599781 17.43136312 -7 21 C-7.66 21 -8.32 21 -9 21 C-9.33 21.66 -9.66 22.32 -10 23 C-10.66 23 -11.32 23 -12 23 C-12.185625 24.0828125 -12.185625 24.0828125 -12.375 25.1875 C-12.9904931 27.95721894 -13.88444374 30.3970354 -15 33 C-15.66 33 -16.32 33 -17 33 C-17 29.33333333 -17 25.66666667 -17 22 C-17.33 21.67 -17.66 21.34 -18 21 C-18.72044406 17.19388041 -18.7889998 13.79706156 -18 10 C-12.89855377 2.90323004 -8.65231797 -0.16022811 0 0 Z " fill="#4484EF" transform="translate(79,78)"/>
<path d="M0 0 C0.33 0 0.66 0 1 0 C1.33 2.64 1.66 5.28 2 8 C1.67 8 1.34 8 1 8 C1 13.28 1 18.56 1 24 C1.66 24 2.32 24 3 24 C3.12375 24.639375 3.2475 25.27875 3.375 25.9375 C3.58125 26.618125 3.7875 27.29875 4 28 C4.66 28.33 5.32 28.66 6 29 C6.72159424 30.64363134 7.39351421 32.31050386 8 34 C8.99 34 9.98 34 11 34 C11 34.66 11 35.32 11 36 C11.99 36 12.98 36 14 36 C14 34.68 14 33.36 14 32 C15.32 31.67 16.64 31.34 18 31 C17.4740625 30.1646875 17.4740625 30.1646875 16.9375 29.3125 C15.78154007 26.46113217 16.19032562 24.91482778 17 22 C18.23457573 23.85186359 19.46791101 25.70455566 20.69921875 27.55859375 C24.66102605 33.29504165 27.64922653 37.07864421 34 40 C34.66 40.66 35.32 41.32 36 42 C28.15 42.30192308 28.15 42.30192308 25 40 C24.67 39.01 24.34 38.02 24 37 C23.34 37 22.68 37 22 37 C21.34 38.32 20.68 39.64 20 41 C18.35 40.67 16.7 40.34 15 40 C15.33 42.64 15.66 45.28 16 48 C16.94875 48.0825 17.8975 48.165 18.875 48.25 C19.90625 48.4975 20.9375 48.745 22 49 C23.125 51 23.125 51 24 53 C25.32594105 53.36162029 26.65938457 53.69728039 28 54 C28.33 54.99 28.66 55.98 29 57 C24.37490124 55.68246445 20.9898123 53.84885893 17.125 51 C15.67480469 49.948125 15.67480469 49.948125 14.1953125 48.875 C13.47085938 48.25625 12.74640625 47.6375 12 47 C12 46.34 12 45.68 12 45 C11.34 45 10.68 45 10 45 C0.01213731 32.72427713 -1.99491683 19.24995462 -1 4 C-0.48046875 1.50390625 -0.48046875 1.50390625 0 0 Z " fill="#4D8AEB" transform="translate(52,104)"/>
<path d="M0 0 C2.31828059 0.92731224 3.71744461 1.57119235 5.109375 3.68359375 C7.13864883 8.96148578 7.02927611 15.92278276 5.2421875 21.265625 C3.39477516 24.61133239 1.0573749 27.70696883 -2 30 C-4.125 30.0625 -4.125 30.0625 -6 29 C-8.57737845 24.82710156 -7.82951265 21.67543492 -7 17 C-6.97164063 16.11441406 -6.94328125 15.22882812 -6.9140625 14.31640625 C-6.6192527 5.95968225 -6.6192527 5.95968225 -2.9375 2.3125 C-1.968125 1.549375 -0.99875 0.78625 0 0 Z " fill="#97B7E6" transform="translate(88,37)"/>
<path d="M0 0 C3.07451502 1.52163951 5.23077261 3.32418424 7.75390625 5.64453125 C8.59050781 6.40378906 9.42710937 7.16304688 10.2890625 7.9453125 C12.64903613 10.28993671 14.73835766 12.63925986 16.69140625 15.33203125 C16.69140625 15.99203125 16.69140625 16.65203125 16.69140625 17.33203125 C15.70140625 17.33203125 14.71140625 17.33203125 13.69140625 17.33203125 C13.65015625 16.71328125 13.60890625 16.09453125 13.56640625 15.45703125 C13.27765625 14.75578125 12.98890625 14.05453125 12.69140625 13.33203125 C9.69524679 12.02746565 9.69524679 12.02746565 6.69140625 11.33203125 C6.69140625 11.99203125 6.69140625 12.65203125 6.69140625 13.33203125 C5.04140625 13.66203125 3.39140625 13.99203125 1.69140625 14.33203125 C1.36140625 15.32203125 1.03140625 16.31203125 0.69140625 17.33203125 C-0.29859375 17.33203125 -1.28859375 17.33203125 -2.30859375 17.33203125 C0.16640625 20.30203125 0.16640625 20.30203125 2.69140625 23.33203125 C2.36140625 23.99203125 2.03140625 24.65203125 1.69140625 25.33203125 C1.3253125 24.81253906 0.95921875 24.29304688 0.58203125 23.7578125 C-4.63027461 17.04386614 -10.81841423 13.300197 -19.31835938 12.03222656 C-23.64293005 11.5716095 -27.95959953 11.39738499 -32.30859375 11.33203125 C-32.30859375 11.00203125 -32.30859375 10.67203125 -32.30859375 10.33203125 C-23.25417364 8.06842622 -14.36233977 9.90784648 -5.30859375 11.33203125 C-5.15047987 8.27932662 -5.15047987 8.27932662 -6.30859375 5.33203125 C-5.31859375 5.00203125 -4.32859375 4.67203125 -3.30859375 4.33203125 C-3.63859375 3.01203125 -3.96859375 1.69203125 -4.30859375 0.33203125 C-2.30859375 -0.66796875 -2.30859375 -0.66796875 0 0 Z " fill="#558EED" transform="translate(123.30859375,74.66796875)"/>
<path d="M0 0 C1.16796875 2.109375 1.16796875 2.109375 2.1875 4.75 C2.53167969 5.61109375 2.87585938 6.4721875 3.23046875 7.359375 C4.04459042 10.15301079 4.41676803 12.1157758 4 15 C2.42578125 16.73828125 2.42578125 16.73828125 0.3125 18.3125 C-6.03148369 23.49996985 -10.07909103 29.69847274 -11 38 C-11.14632318 42.6722504 -11.11812634 47.32744718 -11 52 C-12.83069903 48.87070822 -13.23931181 46.62356854 -13.1953125 43.015625 C-13.18564453 41.61376953 -13.18564453 41.61376953 -13.17578125 40.18359375 C-13.15902344 39.21550781 -13.14226562 38.24742188 -13.125 37.25 C-13.11597656 36.26644531 -13.10695313 35.28289062 -13.09765625 34.26953125 C-13.07412785 31.84610593 -13.04125368 29.42317778 -13 27 C-12.34 27 -11.68 27 -11 27 C-10.67 26.01 -10.34 25.02 -10 24 C-9.34 24 -8.68 24 -8 24 C-7.608125 23.030625 -7.21625 22.06125 -6.8125 21.0625 C-5 18 -5 18 -2.3125 17.125 C-1.549375 17.08375 -0.78625 17.0425 0 17 C0.08948558 12.52572076 -0.14256349 8.39436211 -1 4 C-7.83627732 4.63298864 -11.82677944 6.78755659 -16.48046875 11.8359375 C-18.55964961 14.79703312 -18.7904473 17.43760414 -19 21 C-20.4375 22.9375 -20.4375 22.9375 -22 24 C-22.66 24 -23.32 24 -24 24 C-24.66 25.98 -25.32 27.96 -26 30 C-27.38625787 25.84122639 -26.08301647 24.3355034 -24.1875 20.4375 C-20.34923139 12.81042501 -9.93000833 -3.31000278 0 0 Z " fill="#9DBCE6" transform="translate(80,74)"/>
<path d="M0 0 C0.99 0 1.98 0 3 0 C7.55476803 10.09970302 7.61338639 19.1096419 6 30 C5.34 30 4.68 30 4 30 C3.71125 30.639375 3.4225 31.27875 3.125 31.9375 C2 34 2 34 0 35 C-0.103125 35.763125 -0.20625 36.52625 -0.3125 37.3125 C-1.23737382 40.92791582 -2.94334094 41.98707818 -6 44 C-6.66 44 -7.32 44 -8 44 C-8.99 46.475 -8.99 46.475 -10 49 C-11.98 49 -13.96 49 -16 49 C-16 49.66 -16 50.32 -16 51 C-18.97 51.495 -18.97 51.495 -22 52 C-22 51 -22 50 -22 49 C-22.65226562 49.02320313 -23.30453125 49.04640625 -23.9765625 49.0703125 C-29.08698903 49.17583753 -33.20425033 49.01926302 -38 47 C-34.84092555 45.94697518 -33.58220385 46.07887402 -30.375 46.5625 C-20.91941819 47.57657689 -13.51980832 44.78053292 -6 39 C0.59212263 32.29708539 3.135552 25.35108685 3.375 16.0625 C3.25962345 10.10778794 2.26931236 5.48417153 0 0 Z " fill="#71A2D8" transform="translate(126,100)"/>
<path d="M0 0 C1 3 1 3 0.171875 4.82421875 C-1.44052625 6.93717313 -2.80554871 8.48076449 -5 10 C-7.89470692 10.37610061 -10.52155738 10.25290057 -13.4296875 10.046875 C-16.68966418 9.98742254 -18.50881465 10.93832937 -21 13 C-20.34 11.68 -19.68 10.36 -19 9 C-18.34 9 -17.68 9 -17 9 C-17 8.34 -17 7.68 -17 7 C-8.42857143 6.85714286 -8.42857143 6.85714286 -5 8 C-5 6.02 -5 4.04 -5 2 C-12.14612113 0.267607 -17.5522191 0.58646893 -24 4 C-24.99 5.485 -24.99 5.485 -26 7 C-26.66 7 -27.32 7 -28 7 C-28.103125 7.78375 -28.20625 8.5675 -28.3125 9.375 C-29 12 -29 12 -32 14 C-32.58189266 16.42521494 -32.58189266 16.42521494 -32.6875 19.125 C-32.75324219 20.03507812 -32.81898437 20.94515625 -32.88671875 21.8828125 C-32.94279297 22.93082031 -32.94279297 22.93082031 -33 24 C-33.33 24 -33.66 24 -34 24 C-34.47888981 16.76344288 -34.4311531 10.97812371 -30 5 C-21.96726307 -4.15648769 -10.55942619 -6.69622149 0 0 Z " fill="#6F98D9" transform="translate(85,31)"/>
<path d="M0 0 C0.71651254 2.55897337 1.0947255 4.89989221 1.375 7.5625 C1.73504697 10.881673 1.73504697 10.881673 3.25 12.8125 C5.01003558 14.14132612 5.01003558 14.14132612 7.4375 14.6875 C11.29348336 16.66251587 12.5843692 20.00618126 14 24 C14 24.99 14 25.98 14 27 C8.34575153 28.59478803 4.13881602 27.53907773 -1 25 C-6.11781104 21.52688721 -9.77155164 18.29579785 -11 12 C-9.29159719 13.63412443 -8.06546953 14.86906094 -7 17 C-6.01 17 -5.02 17 -4 17 C-3.54625 17.66 -3.0925 18.32 -2.625 19 C-2.08875 19.66 -1.5525 20.32 -1 21 C1.62625139 21.33425735 1.62625139 21.33425735 4 21 C3.52054481 18.00340505 2.63032741 16.42868781 0.9375 13.8125 C-1.53140155 9.68871878 -1.61545472 5.70167052 -1 1 C-0.67 0.67 -0.34 0.34 0 0 Z " fill="#82AAE7" transform="translate(63,44)"/>
<path d="M0 0 C7.0413379 9.38845053 8.93091522 20.44766451 7.375 31.9375 C5.79350224 40.1335053 3.32210276 48.29665623 -3 54 C-3.20140476 50.37471432 -2.85776765 48.13498292 -1 45 C-0.34 45 0.32 45 1 45 C0.67 42.03 0.34 39.06 0 36 C0.66 36.33 1.32 36.66 2 37 C2.09087891 35.96552734 2.09087891 35.96552734 2.18359375 34.91015625 C2.26738281 33.97042969 2.35117188 33.03070313 2.4375 32.0625 C2.56898438 30.55816406 2.56898438 30.55816406 2.703125 29.0234375 C2.96124016 26.39473837 3.31284643 23.80115468 3.6875 21.1875 C4.14259383 17.35367924 3.5609605 14.58102703 2 11 C0.68 12.32 -0.64 13.64 -2 15 C-1.34 10.05 -0.68 5.1 0 0 Z " fill="#5C8DDA" transform="translate(140,92)"/>
<path d="M0 0 C0 0.66 0 1.32 0 2 C-0.825 2.680625 -1.65 3.36125 -2.5 4.0625 C-5.4746927 7.55776392 -5.72675762 9.20716983 -5.51171875 13.65625 C-4.7695062 17.05569682 -3.105258 19.44930063 -0.99609375 22.17578125 C0 24 0 24 -0.34765625 26.23046875 C-0.56292969 26.81441406 -0.77820313 27.39835937 -1 28 C-3.25 28.3125 -3.25 28.3125 -6 28 C-7.38232443 26.37373596 -8.71937515 24.7074998 -10 23 C-10.99 23 -11.98 23 -13 23 C-16.72032434 19.00409608 -16.32167939 14.57368895 -16.30078125 9.42578125 C-16 7 -16 7 -14 5 C-13.92652344 6.01320313 -13.92652344 6.01320313 -13.8515625 7.046875 C-13.77679688 7.93890625 -13.70203125 8.8309375 -13.625 9.75 C-13.55539063 10.63171875 -13.48578125 11.5134375 -13.4140625 12.421875 C-13.00149945 14.99066382 -12.28839043 16.75841015 -11 19 C-10.34 18.67 -9.68 18.34 -9 18 C-8.68289895 15.61234108 -8.68289895 15.61234108 -8.625 12.8125 C-8.25329808 7.6154313 -7.40383164 4.9195637 -4 1 C-2 0 -2 0 0 0 Z " fill="#6896E1" transform="translate(68,38)"/>
<path d="M0 0 C0.66 0 1.32 0 2 0 C2.33 0.66 2.66 1.32 3 2 C3.8971875 2.433125 3.8971875 2.433125 4.8125 2.875 C7.38820998 4.19965085 9.03454804 5.89415861 11 8 C10.030625 8.12375 9.06125 8.2475 8.0625 8.375 C7.051875 8.58125 6.04125 8.7875 5 9 C4.67 9.66 4.34 10.32 4 11 C3.34 11 2.68 11 2 11 C2.66 12.65 3.32 14.3 4 16 C3.34 16 2.68 16 2 16 C1.34 15.01 0.68 14.02 0 13 C-3.05429073 11.78715124 -3.05429073 11.78715124 -6 11 C-6.33 8.36 -6.66 5.72 -7 3 C-6.21625 3.061875 -5.4325 3.12375 -4.625 3.1875 C-3.75875 3.125625 -2.8925 3.06375 -2 3 C-1.34 2.01 -0.68 1.02 0 0 Z " fill="#4288EF" transform="translate(74,141)"/>
<path d="M0 0 C0 3 0 3 -1.6171875 4.8671875 C-7.03664556 9.68656716 -12.28342406 13.24662104 -19 16 C-20.15242188 16.47953125 -20.15242188 16.47953125 -21.328125 16.96875 C-30.46460234 20.23609951 -40.5704851 19.79334332 -50 18 C-50 17.67 -50 17.34 -50 17 C-48.7934375 17.01160156 -47.586875 17.02320313 -46.34375 17.03515625 C-44.72916823 17.04454335 -43.11458476 17.05364256 -41.5 17.0625 C-40.31277344 17.07506836 -40.31277344 17.07506836 -39.1015625 17.08789062 C-33.97238283 17.10891185 -29.07663894 16.73937287 -24 16 C-24 15.34 -24 14.68 -24 14 C-23.21625 13.7525 -22.4325 13.505 -21.625 13.25 C-18.85076366 12.29315024 -18.85076366 12.29315024 -18.1875 9.96875 C-17.795625 9.3190625 -17.40375 8.669375 -17 8 C-14.3984375 7.390625 -14.3984375 7.390625 -11.375 7.25 C-10.37210938 7.19328125 -9.36921875 7.1365625 -8.3359375 7.078125 C-7.56507813 7.05234375 -6.79421875 7.0265625 -6 7 C-6 6.01 -6 5.02 -6 4 C-5.01 4 -4.02 4 -3 4 C-3 3.01 -3 2.02 -3 1 C-2.01 0.67 -1.02 0.34 0 0 Z " fill="#74A3E3" transform="translate(136,146)"/>
<path d="M0 0 C0.99 0 1.98 0 3 0 C4.33257403 11.52164009 4.33257403 11.52164009 3 17 C2.34 17 1.68 17 1 17 C0.67 18.65 0.34 20.3 0 22 C-1.32 21.67 -2.64 21.34 -4 21 C-5.125 16.25 -5.125 16.25 -4 14 C-3.01 14 -2.02 14 -1 14 C-1.09539062 13.24074219 -1.19078125 12.48148438 -1.2890625 11.69921875 C-1.39992188 10.70535156 -1.51078125 9.71148437 -1.625 8.6875 C-1.74101563 7.70136719 -1.85703125 6.71523438 -1.9765625 5.69921875 C-2 3 -2 3 0 0 Z " fill="#6095EE" transform="translate(88,42)"/>
<path d="M0 0 C0.33 0.99 0.66 1.98 1 3 C1.66 3 2.32 3 3 3 C3.99 5.64 4.98 8.28 6 11 C4.35 11 2.7 11 1 11 C1 12.32 1 13.64 1 15 C-4.75 14.25 -4.75 14.25 -7 12 C-7.625 9.375 -7.625 9.375 -8 7 C-7.4225 6.95875 -6.845 6.9175 -6.25 6.875 C-2.86687535 5.55934042 -1.80777315 3.03447636 0 0 Z " fill="#4185F6" transform="translate(65,125)"/>
<path d="M0 0 C1 3 1 3 0.171875 4.82421875 C-1.44052625 6.93717313 -2.80554871 8.48076449 -5 10 C-7.89470692 10.37610061 -10.52155738 10.25290057 -13.4296875 10.046875 C-16.68966418 9.98742254 -18.50881465 10.93832937 -21 13 C-20.34 11.68 -19.68 10.36 -19 9 C-18.34 9 -17.68 9 -17 9 C-17 8.34 -17 7.68 -17 7 C-8.42857143 6.85714286 -8.42857143 6.85714286 -5 8 C-5 6.68 -5 5.36 -5 4 C-4.01 3.34 -3.02 2.68 -2 2 C-8.83411898 -2.20561168 -15.36939066 -1.5652532 -23 0 C-16.11954978 -5.86112426 -7.31383893 -4.6380442 0 0 Z " fill="#BCD6F3" transform="translate(85,31)"/>
<path d="M0 0 C0.5465625 0.46019531 1.093125 0.92039062 1.65625 1.39453125 C-2.95389446 0.52259246 -7.4829832 -0.33833423 -11.96875 -1.73046875 C-18.13171446 -3.32827435 -23.36418649 -2.99729415 -29.34375 -0.60546875 C-28.65395781 2.96489149 -28.65395781 2.96489149 -27.65625 6.45703125 C-27.24479154 9.00807371 -28.13701166 10.17061883 -29.34375 12.39453125 C-30.20955287 10.46220304 -31.06104941 8.52345931 -31.90625 6.58203125 C-32.38191406 5.50308594 -32.85757813 4.42414063 -33.34765625 3.3125 C-34.34375 0.39453125 -34.34375 0.39453125 -33.34375 -2.60546875 C-23.6208483 -6.71069391 -8.79257135 -6.02291137 0 0 Z " fill="#97BBE7" transform="translate(119.34375,72.60546875)"/>
<path d="M0 0 C2.31509559 3.47264338 2.62582455 5.88407008 3 10 C2.67 10.66 2.34 11.32 2 12 C1.01 12 0.02 12 -1 12 C-1 14.31 -1 16.62 -1 19 C0.32 19.33 1.64 19.66 3 20 C2.34 20.99 1.68 21.98 1 23 C-0.875 22.8125 -0.875 22.8125 -3 22 C-5.53019243 17.90349797 -4.96923075 14.5818181 -4 10 C-3.67 9.67 -3.34 9.34 -3 9 C-2.855625 7.865625 -2.71125 6.73125 -2.5625 5.5625 C-2 2 -2 2 0 0 Z " fill="#7299DF" transform="translate(85,44)"/>
<path d="M0 0 C0.66 0.33 1.32 0.66 2 1 C1.55269531 1.3403125 1.10539062 1.680625 0.64453125 2.03125 C-6.22090969 7.53531352 -11.00433773 14.0246097 -12 23 C-12.14632318 27.6722504 -12.11812634 32.32744718 -12 37 C-13.83069903 33.87070822 -14.23931181 31.62356854 -14.1953125 28.015625 C-14.18886719 27.08105469 -14.18242188 26.14648438 -14.17578125 25.18359375 C-14.15902344 24.21550781 -14.14226562 23.24742188 -14.125 22.25 C-14.11597656 21.26644531 -14.10695313 20.28289062 -14.09765625 19.26953125 C-14.07412785 16.84610593 -14.04125368 14.42317778 -14 12 C-13.34 12 -12.68 12 -12 12 C-11.67 11.01 -11.34 10.02 -11 9 C-10.34 9 -9.68 9 -9 9 C-8.62875 8.071875 -8.2575 7.14375 -7.875 6.1875 C-5.67919462 2.45463085 -4.02370768 1.45538363 0 0 Z " fill="#96BBEA" transform="translate(81,89)"/>
<path d="M0 0 C0.33 0 0.66 0 1 0 C1.33 2.64 1.66 5.28 2 8 C1.67 8 1.34 8 1 8 C1 13.28 1 18.56 1 24 C1.66 24 2.32 24 3 24 C3.12375 24.639375 3.2475 25.27875 3.375 25.9375 C3.58125 26.618125 3.7875 27.29875 4 28 C4.66 28.33 5.32 28.66 6 29 C8.12358318 33.1692367 9.44158425 37.28976797 9 42 C5.61915679 38.99400508 3.98593439 36.24872546 2.3125 32.0625 C1.89613281 31.04285156 1.47976562 30.02320313 1.05078125 28.97265625 C-0.92806059 23.37452004 -1.15526401 18.31376156 -1.125 12.4375 C-1.12886719 11.68275391 -1.13273437 10.92800781 -1.13671875 10.15039062 C-1.13045683 6.59675207 -0.95795536 3.41753192 0 0 Z " fill="#8BB4E7" transform="translate(52,104)"/>
<path d="M0 0 C1.32 0 2.64 0 4 0 C4.66 1.65 5.32 3.3 6 5 C4.68 5 3.36 5 2 5 C2.33 5.66 2.66 6.32 3 7 C3.66 6.67 4.32 6.34 5 6 C4.67 7.65 4.34 9.3 4 11 C1 12 1 12 -1.1875 11.0625 C-1.785625 10.711875 -2.38375 10.36125 -3 10 C-3 9.34 -3 8.68 -3 8 C-5.97 7.505 -5.97 7.505 -9 7 C-6.23776722 4.23776722 -3.79293383 4.42143709 0 4 C-0.33 3.01 -0.66 2.02 -1 1 C-0.67 0.67 -0.34 0.34 0 0 Z " fill="#4084F2" transform="translate(115,75)"/>
<path d="M0 0 C0.99 0 1.98 0 3 0 C7.55476803 10.09970302 7.61338639 19.1096419 6 30 C5.01 30 4.02 30 3 30 C3.01571045 29.410979 3.0314209 28.82195801 3.04760742 28.21508789 C3.110692 25.49765973 3.14921991 22.78038639 3.1875 20.0625 C3.21263672 19.13630859 3.23777344 18.21011719 3.26367188 17.25585938 C3.33010773 10.94445326 2.40207858 5.84135682 0 0 Z " fill="#76A4DF" transform="translate(126,100)"/>
<path d="M0 0 C0.86882812 0.08378906 1.73765625 0.16757813 2.6328125 0.25390625 C3.78523438 0.35574219 4.93765625 0.45757812 6.125 0.5625 C7.83042969 0.71912109 7.83042969 0.71912109 9.5703125 0.87890625 C12.90702098 0.99671714 15.72949277 0.60433286 19 0 C20.62394748 -0.0620775 22.25005297 -0.08712041 23.875 -0.0625 C25.04675781 -0.04896484 25.04675781 -0.04896484 26.2421875 -0.03515625 C26.82226562 -0.02355469 27.40234375 -0.01195312 28 0 C28 0.99 28 1.98 28 3 C26.02 3 24.04 3 22 3 C22 3.66 22 4.32 22 5 C20.02 5.33 18.04 5.66 16 6 C16 5 16 4 16 3 C15.02160156 3.03480469 15.02160156 3.03480469 14.0234375 3.0703125 C8.91301097 3.17583753 4.79574967 3.01926302 0 1 C0 0.67 0 0.34 0 0 Z " fill="#80ACE9" transform="translate(88,146)"/>
<path d="M0 0 C2.9375 0.75 2.9375 0.75 6 2 C6.875 4.125 6.875 4.125 7 6 C5.02 6.99 5.02 6.99 3 8 C2.67 7.34 2.34 6.68 2 6 C1.01 7.32 0.02 8.64 -1 10 C-2.32 9.67 -3.64 9.34 -5 9 C-4.67 7.35 -4.34 5.7 -4 4 C-2.35 3.67 -0.7 3.34 1 3 C0.67 2.01 0.34 1.02 0 0 Z " fill="#3C87F4" transform="translate(129,85)"/>
<path d="M0 0 C3.24271506 0.5590888 4.93057424 1.4132178 7 4 C7 4.66 7 5.32 7 6 C7.94875 6.0825 8.8975 6.165 9.875 6.25 C10.90625 6.4975 11.9375 6.745 13 7 C14.125 9 14.125 9 15 11 C16.32594105 11.36162029 17.65938457 11.69728039 19 12 C19.33 12.99 19.66 13.98 20 15 C15.37490124 13.68246445 11.9898123 11.84885893 8.125 9 C7.15820312 8.29875 6.19140625 7.5975 5.1953125 6.875 C4.47085938 6.25625 3.74640625 5.6375 3 5 C3 4.34 3 3.68 3 3 C2.34 3 1.68 3 1 3 C0.67 2.01 0.34 1.02 0 0 Z " fill="#6696D4" transform="translate(61,146)"/>
<path d="M0 0 C0 0.66 0 1.32 0 2 C7.92 1.67 15.84 1.34 24 1 C20.53015325 4.46984675 16.00422163 4.06532786 11.3125 4.125 C-4.06163594 3.93836406 -4.06163594 3.93836406 -7 1 C-4.50935112 0.31292445 -2.62113708 0 0 0 Z " fill="#5185D0" transform="translate(88,160)"/>
<path d="M0 0 C3.24384081 -0.15446861 5.67713406 -0.1174058 8.75 1 C12.45463786 2.13988857 15.50852371 2.19795238 19.375 2.125 C21.24285156 2.09792969 21.24285156 2.09792969 23.1484375 2.0703125 C24.08945313 2.04710937 25.03046875 2.02390625 26 2 C22.00041467 5.52411015 19.05412659 5.43509723 13.8984375 5.296875 C8.77479556 4.77208149 3.71044878 3.71044878 0 0 Z " fill="#4E83CE" transform="translate(82,146)"/>
<path d="M0 0 C0.71651254 2.55897337 1.0947255 4.89989221 1.375 7.5625 C1.73504697 10.881673 1.73504697 10.881673 3.25 12.8125 C5.03986889 14.13950204 5.03986889 14.13950204 7.5625 14.875 C10 16 10 16 11.3125 18.625 C11.539375 19.40875 11.76625 20.1925 12 21 C11.34 20.67 10.68 20.34 10 20 C10 19.34 10 18.68 10 18 C9.01 18.33 8.02 18.66 7 19 C3.7431809 17.61585188 2.20312634 16.29418297 0.1875 13.375 C-1.28882685 9.17912368 -1.4829958 5.41198091 -1 1 C-0.67 0.67 -0.34 0.34 0 0 Z " fill="#B1CDEF" transform="translate(63,44)"/>
<path d="M0 0 C0 0.66 0 1.32 0 2 C-1.2375 3.0209375 -1.2375 3.0209375 -2.5 4.0625 C-5.50541917 7.59386752 -5.61487411 9.23187986 -5.375 13.70703125 C-4.80913767 17.1670436 -3.59154722 19.88322003 -2 23 C-2.66 23 -3.32 23 -4 23 C-4.33 22.01 -4.66 21.02 -5 20 C-5.50660156 19.54238281 -6.01320312 19.08476563 -6.53515625 18.61328125 C-9.00581883 15.89225819 -8.46098537 13.03297334 -8.36328125 9.515625 C-7.81625426 5.72761015 -6.50050323 3.86822429 -4 1 C-2 0 -2 0 0 0 Z " fill="#6B97D9" transform="translate(68,38)"/>
<path d="M0 0 C0.33 0 0.66 0 1 0 C2.60697362 11.03165676 1.34094119 20.73959355 -3 31 C-4.15837573 27.52487282 -3.77265943 25.86329714 -3.0625 22.3125 C-2.86785156 21.31863281 -2.67320312 20.32476562 -2.47265625 19.30078125 C-2.31667969 18.54152344 -2.16070312 17.78226563 -2 17 C-1.34 17 -0.68 17 0 17 C0 11.39 0 5.78 0 0 Z " fill="#92B5E2" transform="translate(146,107)"/>
<path d="M0 0 C0 0.66 0 1.32 0 2 C-0.54785156 1.79503906 -1.09570312 1.59007813 -1.66015625 1.37890625 C-9.42947004 -1.26139714 -16.8536705 -1.68500859 -25 -2 C-25 -2.33 -25 -2.66 -25 -3 C-16.79855866 -5.05036033 -7.17253279 -4.78168853 0 0 Z " fill="#C9DCF6" transform="translate(116,88)"/>
<path d="M0 0 C2.76437351 3.68583134 4.43733645 6.70267525 6 11 C5.67 11.99 5.34 12.98 5 14 C4.01 13.01 3.02 12.02 2 11 C0.68 12.32 -0.64 13.64 -2 15 C-1.34 10.05 -0.68 5.1 0 0 Z " fill="#6C98E6" transform="translate(140,92)"/>
<path d="M0 0 C0.66 0 1.32 0 2 0 C1.67 3.63 1.34 7.26 1 11 C-0.65 10.67 -2.3 10.34 -4 10 C-3.52651586 5.8333396 -2.95303159 3.07115285 0 0 Z " fill="#CAE4FA" transform="translate(91,16)"/>
<path d="M0 0 C3.82283043 0.54611863 5.41079952 2.23818615 8 5 C8.66 5.33 9.32 5.66 10 6 C11.55203911 9.6758821 12.46534385 12.19010598 11 16 C11 15.34 11 14.68 11 14 C10.34 13.67 9.68 13.34 9 13 C9 11.68 9 10.36 9 9 C8.01 9 7.02 9 6 9 C3.9375 6.1875 3.9375 6.1875 2 3 C1.34 2.01 0.68 1.02 0 0 Z " fill="#4E84D7" transform="translate(120,91)"/>
<path d="M0 0 C-0.37596209 2.78211944 -0.67318459 4.5879284 -2.4375 6.8125 C-4 8 -4 8 -6 8 C-6.66 9.98 -7.32 11.96 -8 14 C-9.19005859 10.42982423 -8.75814719 9.75433096 -7.25 6.4375 C-6.73179688 5.25994141 -6.73179688 5.25994141 -6.203125 4.05859375 C-4.65433546 1.40855451 -3.17673799 0 0 0 Z " fill="#759FE0" transform="translate(62,90)"/>
<path d="M0 0 C0.144375 0.639375 0.28875 1.27875 0.4375 1.9375 C0.81007181 3.97545146 0.81007181 3.97545146 2 5 C2.04063832 6.66617115 2.042721 8.33388095 2 10 C1.01 10.495 1.01 10.495 0 11 C-0.66 11.99 -1.32 12.98 -2 14 C-3.10643764 8.16605611 -3.27137992 5.23420787 0 0 Z " fill="#4F81E5" transform="translate(56,98)"/>
<path d="M0 0 C1.70840281 1.63412443 2.93453047 2.86906094 4 5 C4.99 5 5.98 5 7 5 C8.38671875 6.53125 8.38671875 6.53125 9.6875 8.5 C10.12449219 9.1496875 10.56148437 9.799375 11.01171875 10.46875 C11.33785156 10.9740625 11.66398437 11.479375 12 12 C11.01 12.495 11.01 12.495 10 13 C1.18451025 6.07061503 1.18451025 6.07061503 0 0 Z " fill="#95B6E8" transform="translate(52,56)"/>
<path d="M0 0 C3.91225672 1.26884002 6.0949669 2.28518545 8 6 C8.64559869 8.9932303 9.12428149 11.93439002 9 15 C8.34 15.66 7.68 16.32 7 17 C6.01751476 12.9472484 5.91840426 9.16138263 6 5 C5.34 5 4.68 5 4 5 C4 4.34 4 3.68 4 3 C2.68 2.34 1.36 1.68 0 1 C0 0.67 0 0.34 0 0 Z " fill="#ECF0F8" transform="translate(104,11)"/>
<path d="M0 0 C0.33 0 0.66 0 1 0 C1.06058594 0.94101563 1.12117188 1.88203125 1.18359375 2.8515625 C1.26738281 4.09679687 1.35117188 5.34203125 1.4375 6.625 C1.55931641 8.46964844 1.55931641 8.46964844 1.68359375 10.3515625 C1.96663944 13.61532388 2.41038953 16.77943859 3 20 C2.01 20 1.02 20 0 20 C-1.13896163 15.65507229 -0.93100471 11.61379215 -0.5625 7.1875 C-0.51029297 6.49462891 -0.45808594 5.80175781 -0.40429688 5.08789062 C-0.27560181 3.39145563 -0.13863816 1.69565137 0 0 Z " fill="#5787CF" transform="translate(66,108)"/>
<path d="M0 0 C2.475 0.495 2.475 0.495 5 1 C5.33 3.64 5.66 6.28 6 9 C4.125 8.75 4.125 8.75 2 8 C-0.02755186 5.06004981 0 3.72295997 0 0 Z " fill="#3E87F4" transform="translate(89,72)"/>
<path d="M0 0 C0 1.98 0 3.96 0 6 C2.64 6 5.28 6 8 6 C5 8 5 8 1.4375 7.6875 C-2 7 -2 7 -4 6 C-3.625 3.5625 -3.625 3.5625 -3 1 C-1 0 -1 0 0 0 Z " fill="#E2EEF6" transform="translate(96,30)"/>
<path d="M0 0 C0.66 0.99 1.32 1.98 2 3 C1.25 5.625 1.25 5.625 0 8 C-0.99 8.495 -0.99 8.495 -2 9 C-2.46751788 11.35599235 -2.46751788 11.35599235 -2.625 14.0625 C-2.69976562 14.98160156 -2.77453125 15.90070312 -2.8515625 16.84765625 C-2.90054688 17.55792969 -2.94953125 18.26820312 -3 19 C-3.33 19 -3.66 19 -4 19 C-4.50146657 11.42228293 -3.94998798 6.54216759 0 0 Z " fill="#A4C4EB" transform="translate(55,36)"/>
<path d="M0 0 C1.98 0.495 1.98 0.495 4 1 C4.66 3.64 5.32 6.28 6 9 C5.01 8.67 4.02 8.34 3 8 C3 7.34 3 6.68 3 6 C1.68 5.67 0.36 5.34 -1 5 C-0.67 3.35 -0.34 1.7 0 0 Z " fill="#4783DE" transform="translate(62,141)"/>
<path d="M0 0 C3.50281042 4.67041389 3.5344992 6.41399038 4 12 C2.68 12.33 1.36 12.66 0 13 C0 8.71 0 4.42 0 0 Z " fill="#8CB2DF" transform="translate(80,77)"/>
<path d="M0 0 C-0.33 1.32 -0.66 2.64 -1 4 C-1.99 4 -2.98 4 -4 4 C-4 4.99 -4 5.98 -4 7 C-4.99 7 -5.98 7 -7 7 C-7 7.99 -7 8.98 -7 10 C-7.66 9.67 -8.32 9.34 -9 9 C-9 8.01 -9 7.02 -9 6 C-8.01 6 -7.02 6 -6 6 C-5.67 4.35 -5.34 2.7 -5 1 C-2 0 -2 0 0 0 Z " fill="#4A82E1" transform="translate(137,143)"/>
<path d="M0 0 C2.79256219 0.11361602 5.58344118 0.2403589 8.375 0.375 C9.1690625 0.4059375 9.963125 0.436875 10.78125 0.46875 C16.7734375 0.7734375 16.7734375 0.7734375 19 3 C12.73 3 6.46 3 0 3 C0 2.01 0 1.02 0 0 Z " fill="#5982CB" transform="translate(91,82)"/>
<path d="M0 0 C0.598125 0.226875 1.19625 0.45375 1.8125 0.6875 C-3.33035714 7.25892857 -3.33035714 7.25892857 -7.1875 8.6875 C-4.49237805 -0.64176829 -4.49237805 -0.64176829 0 0 Z " fill="#92ABDC" transform="translate(62.1875,31.3125)"/>
<path d="M0 0 C-0.60183749 2.02045442 -1.27306096 4.02111039 -2 6 C-4.86177057 7.43088528 -6.93375773 6.59991697 -10 6 C-8.66666667 5 -7.33333333 4 -6 3 C-5.29875 2.443125 -4.5975 1.88625 -3.875 1.3125 C-2 0 -2 0 0 0 Z " fill="#9BC1E9" transform="translate(120,140)"/>
<path d="M0 0 C1 2 2 4 3 6 C4.64363134 6.72159424 6.31050386 7.39351421 8 8 C7.01 9.485 7.01 9.485 6 11 C4.125 10.8125 4.125 10.8125 2 10 C0.12320013 6.62176024 -0.21849583 3.82367701 0 0 Z " fill="#A1B8E1" transform="translate(80,56)"/>
<path d="M0 0 C2.475 0.99 2.475 0.99 5 2 C4.67 3.32 4.34 4.64 4 6 C2.68 6 1.36 6 0 6 C-0.38218767 4.34385343 -0.71395102 2.67542976 -1 1 C-0.67 0.67 -0.34 0.34 0 0 Z " fill="#5B97F9" transform="translate(63,60)"/>
<path d="M0 0 C-0.639375 0.28875 -1.27875 0.5775 -1.9375 0.875 C-4.15206079 1.82823451 -4.15206079 1.82823451 -5 4 C-5.66 4 -6.32 4 -7 4 C-7 4.66 -7 5.32 -7 6 C-8.98 6.99 -8.98 6.99 -11 8 C-11 7.01 -11 6.02 -11 5 C-10.34 5 -9.68 5 -9 5 C-8.7525 4.38125 -8.505 3.7625 -8.25 3.125 C-6.05756043 -0.60214727 -4.06146667 -1.35382222 0 0 Z " fill="#6693E9" transform="translate(68,33)"/>
<path d="M0 0 C3.85103301 0.53675903 5.31797587 2.11600923 7.75 5.0625 C8.36359375 5.79597656 8.9771875 6.52945313 9.609375 7.28515625 C10.06828125 7.85105469 10.5271875 8.41695312 11 9 C7.06830895 9 5.83572772 7.60580385 3 5 C3 4.34 3 3.68 3 3 C2.34 3 1.68 3 1 3 C0.67 2.01 0.34 1.02 0 0 Z " fill="#90B4E6" transform="translate(61,146)"/>
<path d="M0 0 C0.66 0.99 1.32 1.98 2 3 C2.87072072 4.23220174 3.74584102 5.46130459 4.625 6.6875 C5.07101563 7.31011719 5.51703125 7.93273437 5.9765625 8.57421875 C6.31429687 9.04472656 6.65203125 9.51523438 7 10 C6.67 10.66 6.34 11.32 6 12 C4.5 10.625 4.5 10.625 3 9 C3 8.34 3 7.68 3 7 C1.68 6.34 0.36 5.68 -1 5 C-0.67 3.35 -0.34 1.7 0 0 Z " fill="#9EC5F3" transform="translate(69,126)"/>
<path d="M0 0 C3.73487777 0.4979837 5.81237635 0.87491756 9 3 C6.03 3.66 3.06 4.32 0 5 C0 3.35 0 1.7 0 0 Z " fill="#5186DD" transform="translate(112,72)"/>
<path d="M0 0 C0.33 0 0.66 0 1 0 C1 1.98 1 3.96 1 6 C-0.98 6.99 -0.98 6.99 -3 8 C-3 8.66 -3 9.32 -3 10 C-3.66 10 -4.32 10 -5 10 C-4.625 8.0625 -4.625 8.0625 -4 6 C-3.34 5.67 -2.68 5.34 -2 5 C-1.27840576 3.35636866 -0.60648579 1.68949614 0 0 Z " fill="#4A82D8" transform="translate(130,128)"/>
<path d="M0 0 C2.81296623 1.40648311 4.5330209 2.98807877 6.625 5.3125 C3.655 4.8175 3.655 4.8175 0.625 4.3125 C0.295 3.3225 -0.035 2.3325 -0.375 1.3125 C-2.39008358 0.57926204 -2.39008358 0.57926204 -4.375 0.3125 C-2.375 -0.6875 -2.375 -0.6875 0 0 Z " fill="#81A6DF" transform="translate(123.375,74.6875)"/>
<path d="M0 0 C0.556875 0.28875 1.11375 0.5775 1.6875 0.875 C4.08494645 2.0413253 6.51596939 3.0339881 9 4 C9 4.33 9 4.66 9 5 C5.625 5.125 5.625 5.125 2 5 C1.34 4.34 0.68 3.68 0 3 C0 2.01 0 1.02 0 0 Z " fill="#9AB7E5" transform="translate(79,141)"/>
<path d="M0 0 C4.46839215 -0.21278058 7.82262526 0.40861915 12 2 C12 2.33 12 2.66 12 3 C10.56344146 3.08131463 9.1255517 3.13933559 7.6875 3.1875 C6.48673828 3.23970703 6.48673828 3.23970703 5.26171875 3.29296875 C2.52148416 2.93801608 1.70828921 2.10633718 0 0 Z " fill="#5B87CC" transform="translate(82,146)"/>
<path d="M0 0 C0.33 0 0.66 0 1 0 C1.433125 1.8253125 1.433125 1.8253125 1.875 3.6875 C2.67835792 6.91814648 3.66265409 9.94320935 5 13 C4.34 13 3.68 13 3 13 C2.67 12.01 2.34 11.02 2 10 C1.46375 9.5875 0.9275 9.175 0.375 8.75 C-1 7 -1 7 -0.6875 3.3125 C-0.460625 2.219375 -0.23375 1.12625 0 0 Z " fill="#789EDE" transform="translate(61,48)"/>
<path d="M0 0 C1.29550413 2.59100826 0.96400816 4.19424369 0.6875 7.0625 C0.60886719 7.96097656 0.53023438 8.85945313 0.44921875 9.78515625 C0.30097656 10.51605469 0.15273437 11.24695313 0 12 C-0.99 12.495 -0.99 12.495 -2 13 C-3.46845421 7.52667068 -2.44038726 4.88077452 0 0 Z " fill="#E9EFF9" transform="translate(87,16)"/>
<path d="M0 0 C-1.28524261 0.86380259 -2.57842419 1.71580369 -3.875 2.5625 C-4.59429687 3.03816406 -5.31359375 3.51382813 -6.0546875 4.00390625 C-6.69664063 4.33261719 -7.33859375 4.66132813 -8 5 C-8.66 4.67 -9.32 4.34 -10 4 C-9.67 3.34 -9.34 2.68 -9 2 C-8.01 2 -7.02 2 -6 2 C-6 1.34 -6 0.68 -6 0 C-2.25 -1.125 -2.25 -1.125 0 0 Z " fill="#8FB5E5" transform="translate(128,156)"/>
<path d="M0 0 C0 3 0 3 -1.3125 4.38671875 C-2.875 5.59114583 -4.4375 6.79557292 -6 8 C-6 6.68 -6 5.36 -6 4 C-5.01 4 -4.02 4 -3 4 C-3 3.01 -3 2.02 -3 1 C-2.01 0.67 -1.02 0.34 0 0 Z " fill="#92B8E9" transform="translate(136,146)"/>
<path d="M0 0 C0.33 0 0.66 0 1 0 C1 2.64 1 5.28 1 8 C-0.65 8.66 -2.3 9.32 -4 10 C-2.66666667 6.66666667 -1.33333333 3.33333333 0 0 Z " fill="#A5C4EF" transform="translate(128,126)"/>
<path d="M0 0 C1.485 0.99 1.485 0.99 3 2 C2.4140625 8.15234375 2.4140625 8.15234375 2 10 C1.01 10.495 1.01 10.495 0 11 C0 7.37 0 3.74 0 0 Z " fill="#4B81D7" transform="translate(140,128)"/>
<path d="M0 0 C3.73884332 2.65654657 5.64978174 4.58110387 7 9 C6.01 9 5.02 9 4 9 C3.896875 8.401875 3.79375 7.80375 3.6875 7.1875 C2.90614947 4.70138466 1.85104584 3.77056558 0 2 C0 1.34 0 0.68 0 0 Z " fill="#8BAFDF" transform="translate(133,83)"/>
<path d="M0 0 C3.73487777 0.4979837 5.81237635 0.87491756 9 3 C9 3.66 9 4.32 9 5 C6.69 4.34 4.38 3.68 2 3 C2 2.34 2 1.68 2 1 C1.34 0.67 0.68 0.34 0 0 Z " fill="#A2C2ED" transform="translate(107,85)"/>
<path d="M0 0 C-0.25 1.875 -0.25 1.875 -1 4 C-3.0625 5.25 -3.0625 5.25 -5 6 C-5 4.68 -5 3.36 -5 2 C-2 0 -2 0 0 0 Z " fill="#98B4DF" transform="translate(85,33)"/>
<path d="M0 0 C0 0.66 0 1.32 0 2 C0.99 2.33 1.98 2.66 3 3 C-3.0546875 3.1953125 -3.0546875 3.1953125 -5 3 C-5.66 2.34 -6.32 1.68 -7 1 C-4.50935112 0.31292445 -2.62113708 0 0 0 Z " fill="#73A3DB" transform="translate(88,160)"/>
<path d="M0 0 C0.66 0 1.32 0 2 0 C3.125 5.75 3.125 5.75 2 8 C1.34 8 0.68 8 0 8 C0 5.36 0 2.72 0 0 Z " fill="#3889EF" transform="translate(134,104)"/>
<path d="M0 0 C0.99 0 1.98 0 3 0 C4.125 2.8125 4.125 2.8125 5 6 C4.01 7.485 4.01 7.485 3 9 C2.01 6.03 1.02 3.06 0 0 Z " fill="#9AC1E9" transform="translate(126,100)"/>
<path d="M0 0 C2.62187494 1.04874998 3.79371361 1.64931313 5.25 4.125 C5.4975 4.74375 5.745 5.3625 6 6 C3.5625 5.25 3.5625 5.25 1 4 C0.1875 1.875 0.1875 1.875 0 0 Z " fill="#87ACE1" transform="translate(58,63)"/>
<path d="M0 0 C0.66 0.33 1.32 0.66 2 1 C2 3.97 2 6.94 2 10 C1.01 9.01 0.02 8.02 -1 7 C-0.6875 3.3125 -0.6875 3.3125 0 0 Z " fill="#5793F8" transform="translate(56,44)"/>
<path d="M0 0 C0.66 0 1.32 0 2 0 C2.99 2.31 3.98 4.62 5 7 C4.01 7.495 4.01 7.495 3 8 C0 3.375 0 3.375 0 0 Z " fill="#7297CB" transform="translate(71,62)"/>
</svg>
