<?xml version="1.0" encoding="UTF-8"?>
<svg version="1.1" xmlns="http://www.w3.org/2000/svg" width="180" height="180">
<path d="M0 0 C2.75383283 2.36042814 4.34918763 4.55013692 5.8125 7.8125 C7.24323851 10.82865146 8.69645673 12.9011431 11.125 15.1875 C25.18220391 28.55237909 33.10817674 45.48236946 38 64 C38.24621094 64.90621094 38.49242188 65.81242187 38.74609375 66.74609375 C43.1088931 86.03267571 40.22855061 109.06592291 29.77978516 125.97460938 C27.01563758 130.10909663 24.0281538 134.05686448 21 138 C20.34 138.99 19.68 139.98 19 141 C18.34 141 17.68 141 17 141 C16.67 141.99 16.34 142.98 16 144 C14.72223518 145.08399389 13.40387429 146.12078851 12.0625 147.125 C7.45712925 151.04900574 6.69631168 154.16380864 6 160 C5.63371243 162.02243066 5.25862471 164.04328618 4.875 166.0625 C4.58156054 167.70801818 4.2892494 169.35374012 4 171 C2.0625 170.625 2.0625 170.625 0 170 C-1.46883571 167.06232858 -1.34591207 164.13967973 -1.625 160.875 C-2.47680609 153.54514373 -4.52348732 149.83970888 -10 145 C-27.02270153 129.02998439 -36.45903755 110.9058574 -38.28515625 87.31640625 C-38.99543942 58.62714265 -29.04822578 34.04107158 -10 13 C-8.47841081 11.31318151 -6.95748747 9.62576194 -5.4375 7.9375 C-4.81746094 7.26589844 -4.19742188 6.59429687 -3.55859375 5.90234375 C-2.01430169 4.01745595 -0.99261004 2.21732293 0 0 Z " fill="#4FA840" transform="translate(89,4)"/>
<path d="M0 0 C2 3.75 2 3.75 2 6 C3.04285156 6.03996094 4.08570312 6.07992188 5.16015625 6.12109375 C9.89941663 7.20586851 11.69812554 9.29522529 14.4375 13.0625 C14.90559082 13.68592285 15.37368164 14.3093457 15.85595703 14.95166016 C24.25224142 26.50336403 29.37261181 39.26879371 33 53 C33.24621094 53.90621094 33.49242187 54.81242187 33.74609375 55.74609375 C38.1088931 75.03267571 35.22855061 98.06592291 24.77978516 114.97460938 C22.01563758 119.10909663 19.0281538 123.05686448 16 127 C15.01 128.485 15.01 128.485 14 130 C13.34 130 12.68 130 12 130 C11.67 130.99 11.34 131.98 11 133 C6.13157895 137.86842105 6.13157895 137.86842105 2.3125 138.3125 C-0.67949927 136.61433825 -1.28246532 134.66236517 -2.38954926 131.4939537 C-3.58702928 126.60173307 -3.39704732 121.65848098 -3.35644531 116.64892578 C-3.35848969 115.43177383 -3.36053406 114.21462189 -3.36264038 112.96058655 C-3.36512195 109.64470022 -3.35430789 106.32938248 -3.33711338 103.01357508 C-3.32200839 99.53785662 -3.32324992 96.06214105 -3.32244873 92.58639526 C-3.31876586 86.75773799 -3.30384218 80.92919918 -3.28125 75.10058594 C-3.25229446 67.61494029 -3.2420175 60.12938949 -3.2375679 52.64369392 C-3.23359243 46.20439921 -3.22109714 39.76512516 -3.20722103 33.32584524 C-3.20312149 31.2560401 -3.20019635 29.18623568 -3.19742584 27.11642838 C-3.19163327 23.26915792 -3.17696291 19.4219499 -3.16113281 15.57470703 C-3.16001495 14.42562363 -3.15889709 13.27654022 -3.15774536 12.09263611 C-3.15203522 11.0496788 -3.14632507 10.0067215 -3.14044189 8.93215942 C-3.13746723 8.02260057 -3.13449257 7.11304173 -3.13142776 6.17592049 C-3 4 -3 4 -2 2 C-1.34 2 -0.68 2 0 2 C0 1.34 0 0.68 0 0 Z " fill="#439835" transform="translate(94,15)"/>
<path d="M0 0 C0.33 0 0.66 0 1 0 C1.04898438 0.556875 1.09796875 1.11375 1.1484375 1.6875 C1.66526543 6.96270919 2.31987187 11.95961562 4 17 C5.97034802 18.5748108 5.97034802 18.5748108 8 19 C7.34 19.99 6.68 20.98 6 22 C5.56684635 24.51398978 5.21463888 26.96960155 4.9375 29.5 C4.11189956 36.66430131 4.11189956 36.66430131 3 40 C1.0625 39.625 1.0625 39.625 -1 39 C-2.72149988 35.55700023 -2.69752444 31.48139508 -3.07421875 27.67382812 C-3.56997193 23.42631567 -4.52759609 20.4924394 -7 17 C-5.68 17 -4.36 17 -3 17 C-1.45357192 11.3297637 -0.51482919 5.852795 0 0 Z " fill="#B8BE9F" transform="translate(90,135)"/>
<path d="M0 0 C1.65 0 3.3 0 5 0 C4.69191406 0.50402344 4.38382813 1.00804687 4.06640625 1.52734375 C2.6581175 4.79271656 2.32567978 8.06213104 1.9375 11.5625 C1.11452206 18.65643382 1.11452206 18.65643382 0 22 C-1.9375 21.625 -1.9375 21.625 -4 21 C-5.52106634 17.95786733 -5.37429338 14.71952428 -5.5625 11.375 C-5.60568359 10.66859375 -5.64886719 9.9621875 -5.69335938 9.234375 C-5.79944751 7.48981463 -5.90022889 5.74493303 -6 4 C-5.3503125 4.7425 -5.3503125 4.7425 -4.6875 5.5 C-3.00259517 7.33218192 -3.00259517 7.33218192 0 7 C0 4.69 0 2.38 0 0 Z " fill="#CDD2BD" transform="translate(93,153)"/>
<path d="M0 0 C3.48904726 3.10897675 5.34503567 6.21453065 7.3125 10.4375 C7.84488281 11.54996094 8.37726563 12.66242187 8.92578125 13.80859375 C10.04923794 17.14628146 10.05586958 18.6965484 9 22 C8.67 21.34 8.34 20.68 8 20 C7.34 20 6.68 20 6 20 C6 19.34 6 18.68 6 18 C5.01 18.33 4.02 18.66 3 19 C2.67 18.67 2.34 18.34 2 18 C1.34 18.66 0.68 19.32 0 20 C0.875 13.125 0.875 13.125 2 12 C2.04063832 10.33382885 2.042721 8.66611905 2 7 C1.34 7 0.68 7 0 7 C-0.93423645 3.98968256 -1.04449911 3.13349732 0 0 Z " fill="#5EA354" transform="translate(112,35)"/>
<path d="M0 0 C1.32 1.32 2.64 2.64 4 4 C2.64048651 8.07854048 0.43639222 9.50693113 -3 12 C-4.32 12 -5.64 12 -7 12 C-7.99 14.97 -8.98 17.94 -10 21 C-10.66 21 -11.32 21 -12 21 C-12.33 21.66 -12.66 22.32 -13 23 C-15.5625 23.625 -15.5625 23.625 -18 24 C-16.46386447 20.43485124 -14.3161548 17.96129644 -11.6875 15.125 C-4.95658532 8.18572679 -4.95658532 8.18572679 0 0 Z " fill="#9EC699" transform="translate(89,4)"/>
<path d="M0 0 C0.99 0.33 1.98 0.66 3 1 C3 2.65 3 4.3 3 6 C2.34 5.34 1.68 4.68 1 4 C-1.2477975 6.05233685 -2.0022242 7.00667261 -3 10 C-3.66 10 -4.32 10 -5 10 C-5 10.66 -5 11.32 -5 12 C-6.62626404 13.38232443 -8.2925002 14.71937515 -10 16 C-10.33 15.01 -10.66 14.02 -11 13 C-10.34 13 -9.68 13 -9 13 C-8.87625 12.2575 -8.7525 11.515 -8.625 10.75 C-8.02085639 8.09176812 -7.54427697 6.23920161 -6 4 C-4.35636866 3.27840576 -2.68949614 2.60648579 -1 2 C-0.67 1.34 -0.34 0.68 0 0 Z " fill="#60AE4F" transform="translate(88,12)"/>
<path d="M0 0 C0.33 0 0.66 0 1 0 C1.33 2.64 1.66 5.28 2 8 C2.33 8 2.66 8 3 8 C2.98839844 8.90363281 2.97679687 9.80726562 2.96484375 10.73828125 C2.95582031 11.91777344 2.94679687 13.09726563 2.9375 14.3125 C2.92589844 15.48425781 2.91429687 16.65601563 2.90234375 17.86328125 C2.85100102 21.03059195 2.85100102 21.03059195 4 24 C4.66 24 5.32 24 6 24 C6.09978121 27.49234244 5.77842938 30.59437148 5 34 C2.75843778 30.63765668 2.09797128 27.64157194 1.375 23.75 C1.24311279 23.05068359 1.11122559 22.35136719 0.9753418 21.63085938 C-0.28004543 14.39229826 -0.28431278 7.32895158 0 0 Z " fill="#8FC788" transform="translate(51,80)"/>
<path d="M0 0 C1.03366148 3.74702285 1.25733598 6.22799206 0 10 C-1.98075027 11.36176581 -3.98079663 12.69593116 -6 14 C-6.33 14.66 -6.66 15.32 -7 16 C-7.66 16 -8.32 16 -9 16 C-7.51637716 9.73581469 -3.75837844 5.08486495 0 0 Z " fill="#92C187" transform="translate(70,28)"/>
<path d="M0 0 C0.33 0.99 0.66 1.98 1 3 C1.9075 2.505 2.815 2.01 3.75 1.5 C7 0 7 0 11 0 C11 3 11 3 8.3125 5.75 C5.86026626 7.70130238 5.38475847 8.02509294 2.125 7.8125 C1.073125 7.4103125 1.073125 7.4103125 0 7 C-0.93423645 3.98968256 -1.04449911 3.13349732 0 0 Z " fill="#609E50" transform="translate(94,145)"/>
<path d="M0 0 C0.33 0 0.66 0 1 0 C1.07347656 0.85271484 1.07347656 0.85271484 1.1484375 1.72265625 C1.63143081 6.71081129 2.47638163 11.22599578 4 16 C3.01 16 2.02 16 1 16 C0.34 17.32 -0.32 18.64 -1 20 C-1.99 19.67 -2.98 19.34 -4 19 C-3.69255859 18.07380859 -3.69255859 18.07380859 -3.37890625 17.12890625 C-1.54784707 11.37289724 -0.48550136 6.02021684 0 0 Z " fill="#93BA7C" transform="translate(90,135)"/>
<path d="M0 0 C5.71612945 2.41127049 9.59118196 4.72183013 13 10 C12.62109375 12.1875 12.62109375 12.1875 12 14 C9.99387601 12.04761147 7.99507567 10.08862178 6 8.125 C5.42765625 7.56941406 4.8553125 7.01382813 4.265625 6.44140625 C2.80549218 4.99865596 1.39850702 3.5025626 0 2 C0 1.34 0 0.68 0 0 Z " fill="#6EA768" transform="translate(68,136)"/>
<path d="M0 0 C2.10827055 3.16240582 2.33817465 4.50657469 2.625 8.1875 C2.69976562 9.08855469 2.77453125 9.98960937 2.8515625 10.91796875 C2.90054688 11.60503906 2.94953125 12.29210937 3 13 C3.99 13 4.98 13 6 13 C6.33 12.34 6.66 11.68 7 11 C6.67 13.31 6.34 15.62 6 18 C4.0625 17.625 4.0625 17.625 2 17 C0.47893366 13.95786733 0.62570662 10.71952428 0.4375 7.375 C0.39431641 6.66859375 0.35113281 5.9621875 0.30664062 5.234375 C0.20055249 3.48981463 0.09977111 1.74493303 0 0 Z " fill="#E6E7DC" transform="translate(87,157)"/>
<path d="M0 0 C0.99 0.33 1.98 0.66 3 1 C2.01 3.31 1.02 5.62 0 8 C-0.66 8 -1.32 8 -2 8 C-2.33 8.66 -2.66 9.32 -3 10 C-5.5625 10.625 -5.5625 10.625 -8 11 C-6.63629701 8.00779732 -5.05091917 5.70973471 -2.875 3.25 C-2.33617188 2.63640625 -1.79734375 2.0228125 -1.2421875 1.390625 C-0.62730469 0.70226562 -0.62730469 0.70226562 0 0 Z " fill="#8ABD7F" transform="translate(79,17)"/>
<path d="M0 0 C0.33 0 0.66 0 1 0 C2.04167441 4.09725269 1.94409525 7.61495224 1.5625 11.8125 C1.46066406 12.97394531 1.35882813 14.13539062 1.25390625 15.33203125 C1.17011719 16.21246094 1.08632813 17.09289062 1 18 C0.01 18.33 -0.98 18.66 -2 19 C-2.24794402 12.4294834 -1.32388229 6.43028541 0 0 Z " fill="#74AE6B" transform="translate(54,61)"/>
<path d="M0 0 C3.59634744 3.49359465 6.83451967 7.11098131 10 11 C9.67 11.66 9.34 12.32 9 13 C6.69 12.01 4.38 11.02 2 10 C2 8.02 2 6.04 2 4 C1.01 4 0.02 4 -1 4 C-0.67 2.68 -0.34 1.36 0 0 Z " fill="#7AAC6E" transform="translate(102,22)"/>
<path d="M0 0 C2.44553939 3.66830909 2.95607424 6.63377915 3 11 C2.0625 13.5 2.0625 13.5 1 15 C-1 13 -1 13 -1.1875 9.1875 C-1.11266813 6.02729249 -0.76920251 3.07681004 0 0 Z " fill="#539648" transform="translate(124,61)"/>
<path d="M0 0 C0.66 1.32 1.32 2.64 2 4 C1.34 4 0.68 4 0 4 C-0.33 5.65 -0.66 7.3 -1 9 C-0.34 9 0.32 9 1 9 C1.33 9.99 1.66 10.98 2 12 C1.34 12 0.68 12 0 12 C-0.33 12.66 -0.66 13.32 -1 14 C-3.0625 15.125 -3.0625 15.125 -5 16 C-4.54548816 14.26982492 -4.08621143 12.54090123 -3.625 10.8125 C-3.36976562 9.84957031 -3.11453125 8.88664062 -2.8515625 7.89453125 C-2.05233704 5.17789793 -1.0968638 2.60862825 0 0 Z " fill="#89BF81" transform="translate(60,44)"/>
<path d="M0 0 C2.375 0.6875 2.375 0.6875 5 2 C6.3125 4.625 6.3125 4.625 7 7 C4.525 6.01 4.525 6.01 2 5 C2 5.66 2 6.32 2 7 C1.34 7 0.68 7 0 7 C-0.93423645 3.98968256 -1.04449911 3.13349732 0 0 Z " fill="#4E9442" transform="translate(106,32)"/>
<path d="M0 0 C0.556875 0.70125 1.11375 1.4025 1.6875 2.125 C4.09124732 5.11344261 6.53810432 8.05940238 9 11 C6.125 10.8125 6.125 10.8125 3 10 C1.75 7.5625 1.75 7.5625 1 5 C0.34 4.34 -0.32 3.68 -1 3 C-0.67 2.01 -0.34 1.02 0 0 Z " fill="#8DB781" transform="translate(93,11)"/>
<path d="M0 0 C0.33 0 0.66 0 1 0 C0.88557539 1.60495567 0.75805306 3.20898119 0.625 4.8125 C0.55539063 5.70582031 0.48578125 6.59914063 0.4140625 7.51953125 C0 10 0 10 -2 13 C-2 11.68 -2 10.36 -2 9 C-2.66 9 -3.32 9 -4 9 C-3.35499066 5.51694958 -1.95865224 2.93797836 0 0 Z " fill="#7CAC76" transform="translate(127,100)"/>
<path d="M0 0 C2 2 2 2 3 5 C3.66 5 4.32 5 5 5 C5.09978121 8.49234244 4.77842938 11.59437148 4 15 C1.81257986 11.7188698 1.45557194 9.66915644 0.875 5.8125 C0.70742188 4.72582031 0.53984375 3.63914062 0.3671875 2.51953125 C0.24601562 1.68808594 0.12484375 0.85664062 0 0 Z " fill="#86BA7D" transform="translate(52,99)"/>
<path d="M0 0 C0.33 0.99 0.66 1.98 1 3 C-0.43359375 5.69921875 -0.43359375 5.69921875 -2.4375 8.6875 C-3.42556641 10.17830078 -3.42556641 10.17830078 -4.43359375 11.69921875 C-5.20896484 12.83810547 -5.20896484 12.83810547 -6 14 C-7 11 -7 11 -5.6875 8 C-4 5 -4 5 -2 2 C-1.34 2 -0.68 2 0 2 C0 1.34 0 0.68 0 0 Z " fill="#7EA776" transform="translate(121,121)"/>
<path d="M0 0 C1.0326802 2.78823655 1.04509293 3.8677274 0.0625 6.75 C-0.288125 7.4925 -0.63875 8.235 -1 9 C-1.66 9 -2.32 9 -3 9 C-3 9.99 -3 10.98 -3 12 C-3.66 12 -4.32 12 -5 12 C-4.41196203 8.97580475 -3.77321882 5.98241547 -3 3 C-2.34 3 -1.68 3 -1 3 C-0.67 2.01 -0.34 1.02 0 0 Z " fill="#579D4D" transform="translate(64,41)"/>
<path d="M0 0 C2 1.8125 2 1.8125 4 4 C4 4.99 4 5.98 4 7 C4.99 7 5.98 7 7 7 C7.33 6.34 7.66 5.68 8 5 C7.67 6.32 7.34 7.64 7 9 C5.02 8.34 3.04 7.68 1 7 C0.67 4.69 0.34 2.38 0 0 Z " fill="#599952" transform="translate(80,144)"/>
<path d="M0 0 C0.33 0 0.66 0 1 0 C1.05422947 1.4370809 1.09289723 2.87475462 1.125 4.3125 C1.14820312 5.11300781 1.17140625 5.91351563 1.1953125 6.73828125 C1 9 1 9 -1 12 C-1.99 12 -2.98 12 -4 12 C-4 11.34 -4 10.68 -4 10 C-3.34 10 -2.68 10 -2 10 C-1.34 6.7 -0.68 3.4 0 0 Z " fill="#549C42" transform="translate(88,139)"/>
<path d="M0 0 C1.32 0 2.64 0 4 0 C6 2 6 2 6.125 4.625 C6.08375 5.40875 6.0425 6.1925 6 7 C2.58841744 5.86280581 1.88145399 4.95657056 0 2 C0 1.34 0 0.68 0 0 Z " fill="#40A233" transform="translate(74,137)"/>
<path d="M0 0 C0.99 0.33 1.98 0.66 3 1 C2.67 1.99 2.34 2.98 2 4 C1.34 4 0.68 4 0 4 C-0.12375 4.61875 -0.2475 5.2375 -0.375 5.875 C-1 8 -1 8 -3 10 C-2.67 7.36 -2.34 4.72 -2 2 C-1.34 2 -0.68 2 0 2 C0 1.34 0 0.68 0 0 Z " fill="#44863A" transform="translate(119,119)"/>
<path d="M0 0 C2.97 0 5.94 0 9 0 C7.515 1.98 7.515 1.98 6 4 C4.35 3.67 2.7 3.34 1 3 C0.67 2.01 0.34 1.02 0 0 Z " fill="#659857" transform="translate(93,149)"/>
<path d="M0 0 C1.04005702 3.38018531 1.08004482 6.4780279 1 10 C-1 8.25 -1 8.25 -3 6 C-3 4.68 -3 3.36 -3 2 C-2.01 2 -1.02 2 0 2 C0 1.34 0 0.68 0 0 Z " fill="#4B993F" transform="translate(71,129)"/>
<path d="M0 0 C2.79872437 2.52788007 4.45773019 4.20411134 5 8 C3.35 7.67 1.7 7.34 0 7 C-0.93423645 3.98968256 -1.04449911 3.13349732 0 0 Z " fill="#88B782" transform="translate(112,35)"/>
<path d="M0 0 C0.33 0 0.66 0 1 0 C1.33 3.96 1.66 7.92 2 12 C0.68 12 -0.64 12 -2 12 C-1.67 11.01 -1.34 10.02 -1 9 C-0.95721917 7.62566569 -0.95942727 6.24940127 -1 4.875 C-1 1 -1 1 0 0 Z " fill="#3C9728" transform="translate(122,68)"/>
<path d="M0 0 C0.68707555 2.49064888 1 4.37886292 1 7 C-0.98 7.99 -0.98 7.99 -3 9 C-2.25 2.25 -2.25 2.25 0 0 Z " fill="#7FB675" transform="translate(70,28)"/>
<path d="M0 0 C0.99 0 1.98 0 3 0 C2.67 1.98 2.34 3.96 2 6 C0.68 6 -0.64 6 -2 6 C-1.34 4.02 -0.68 2.04 0 0 Z " fill="#9AAB7E" transform="translate(88,148)"/>
<path d="M0 0 C3.96 1.98 3.96 1.98 8 4 C8 4.99 8 5.98 8 7 C2.25 4.5 2.25 4.5 0 0 Z " fill="#80B679" transform="translate(68,136)"/>
<path d="M0 0 C1.65 0 3.3 0 5 0 C3.79618552 2.49361571 2.54571278 4.68143083 1 7 C0.34 6.67 -0.32 6.34 -1 6 C-0.67 4.02 -0.34 2.04 0 0 Z " fill="#7FA978" transform="translate(107,138)"/>
<path d="M0 0 C0.99 0.33 1.98 0.66 3 1 C3 2.65 3 4.3 3 6 C2.34 5.34 1.68 4.68 1 4 C0.67 4.66 0.34 5.32 0 6 C-0.66 6 -1.32 6 -2 6 C-1.49396008 3.83125748 -1.00016187 2.00032373 0 0 Z " fill="#5CB04C" transform="translate(88,12)"/>
<path d="M0 0 C1.9375 0.6875 1.9375 0.6875 4 2 C4.75 4.625 4.75 4.625 5 7 C3.68 6.67 2.36 6.34 1 6 C0.67 4.02 0.34 2.04 0 0 Z " fill="#84BC7C" transform="translate(56,114)"/>
<path d="M0 0 C0.99 0 1.98 0 3 0 C3.33 1.65 3.66 3.3 4 5 C3.01 5 2.02 5 1 5 C0.67 3.35 0.34 1.7 0 0 Z " fill="#7DB473" transform="translate(65,130)"/>
<path d="M0 0 C2 3 2 3 1.625 6.1875 C1.41875 7.115625 1.2125 8.04375 1 9 C0.34 9 -0.32 9 -1 9 C-0.67 6.03 -0.34 3.06 0 0 Z " fill="#659C5A" transform="translate(124,61)"/>
<path d="M0 0 C0.99 0.33 1.98 0.66 3 1 C2.67 1.66 2.34 2.32 2 3 C1.34 3 0.68 3 0 3 C-0.33 3.99 -0.66 4.98 -1 6 C-1.66 6 -2.32 6 -3 6 C-1.125 1.125 -1.125 1.125 0 0 Z " fill="#61A256" transform="translate(73,26)"/>
</svg>
