<?xml version="1.0" encoding="UTF-8"?>
<svg version="1.1" xmlns="http://www.w3.org/2000/svg" width="243" height="180">
<path d="M0 0 C0.97988892 -0.00478363 1.95977783 -0.00956726 2.96936035 -0.01449585 C5.03704436 -0.01789191 7.10478228 -0.00871013 9.17236328 0.01220703 C12.33357702 0.03897635 15.49124018 0.01244879 18.65234375 -0.01953125 C20.66407032 -0.0162271 22.67579469 -0.00982076 24.6875 0 C25.63032837 -0.01012115 26.57315674 -0.02024231 27.54455566 -0.03067017 C28.42897339 -0.01490936 29.31339111 0.00085144 30.22460938 0.01708984 C30.99784546 0.02106781 31.77108154 0.02504578 32.56774902 0.02914429 C35.17372406 0.75611279 37.01945722 1.69038078 38.85289955 3.71161842 C41.29776544 8.52916069 40.50257209 14.45816404 40.44311523 19.73828125 C40.4449799 21.18901997 40.44901787 22.63975729 40.45506287 24.09048462 C40.4650335 28.02455833 40.44387424 31.95791096 40.41658282 35.89188004 C40.39273826 40.0108322 40.39569765 44.12977041 40.39527893 48.2487793 C40.39065164 55.16565137 40.36701582 62.08224809 40.33081055 68.99902344 C40.28907748 76.99306466 40.27149562 84.98685794 40.2681908 92.98100185 C40.26458921 101.49536337 40.24571103 110.00963581 40.22107053 118.52396011 C40.21484589 120.97572109 40.21120705 123.42747529 40.20803642 125.87924194 C40.20212863 129.73377055 40.18579556 133.58812261 40.16143227 137.44257736 C40.15400194 138.85629283 40.14992096 140.2700305 40.14945221 141.68376541 C40.14819115 143.61513289 40.13337929 145.54647731 40.11790466 147.4777832 C40.11325416 148.55808304 40.10860365 149.63838287 40.10381222 150.75141907 C39.82848537 153.83502325 39.33747215 155.95210024 37.84375 158.6640625 C35.00339379 160.67105029 32.59982805 160.91854973 29.17565918 160.93821716 C28.24197006 160.94819229 27.30828094 160.95816742 26.34629822 160.96844482 C24.82039818 160.96944183 24.82039818 160.96944183 23.26367188 160.97045898 C22.18686661 160.9787825 21.11006134 160.98710602 20.00062561 160.99568176 C16.43788043 161.01979622 12.87531816 161.02855464 9.3125 161.03515625 C6.83915145 161.04411964 4.36580346 161.05324143 1.89245605 161.06251526 C-3.29257527 161.07901047 -8.47754196 161.08670668 -13.66259766 161.08959961 C-20.31443614 161.09499181 -26.96546796 161.13270424 -33.61716461 161.17834377 C-38.7248966 161.20804465 -43.8324815 161.21532162 -48.94029236 161.21632576 C-51.39317096 161.22053991 -53.84604954 161.23302167 -56.29884338 161.25384331 C-59.7250766 161.28061908 -63.14988841 161.27597306 -66.57617188 161.26342773 C-68.10207191 161.28567917 -68.10207191 161.28567917 -69.65879822 161.30838013 C-76.43969922 161.23747185 -76.43969922 161.23747185 -79.78713989 158.55873108 C-81.44360057 155.05652579 -81.65115935 152.62392913 -81.64208984 148.75 C-81.64588654 148.07455139 -81.64968323 147.39910278 -81.65359497 146.70318604 C-81.66097487 144.48133163 -81.6396563 142.26079969 -81.6171875 140.0390625 C-81.61480137 138.48877109 -81.61389811 136.93847675 -81.6144104 135.38818359 C-81.61128679 132.14336978 -81.59475624 128.89899919 -81.56787109 125.65429688 C-81.53389178 121.50149617 -81.52624283 117.34918199 -81.52776146 113.19625854 C-81.52721679 109.99629092 -81.51623411 106.79642898 -81.50175858 103.59649658 C-81.49540827 102.06553954 -81.49145583 100.53457057 -81.48997116 99.00360107 C-81.4856192 96.86156963 -81.4680784 94.72004655 -81.44677734 92.578125 C-81.43534195 90.7520874 -81.43534195 90.7520874 -81.42367554 88.88916016 C-81.15976637 85.70646925 -80.62368627 83.48847979 -79.15625 80.6640625 C-76.36504909 79.26846205 -73.95419308 79.44597962 -70.8359375 79.34765625 C-69.57910156 79.30576172 -68.32226562 79.26386719 -67.02734375 79.22070312 C-65.70863281 79.18138672 -64.38992187 79.14207031 -63.03125 79.1015625 C-61.69139249 79.05836738 -60.35154844 79.01475277 -59.01171875 78.97070312 C-55.72667185 78.86435269 -52.44154719 78.76232442 -49.15625 78.6640625 C-49.14166748 77.55893311 -49.12708496 76.45380371 -49.11206055 75.31518555 C-49.05410734 71.21671111 -48.97687481 67.11878783 -48.89379883 63.02075195 C-48.86053536 61.24675438 -48.83250782 59.4726506 -48.80981445 57.69848633 C-48.77629398 55.14879074 -48.72398135 52.60006958 -48.66796875 50.05078125 C-48.66157883 49.25693527 -48.6551889 48.46308929 -48.64860535 47.64518738 C-48.50305901 42.19999204 -48.50305901 42.19999204 -46.87402344 39.68261719 C-40.95877253 36.17516597 -31.73283827 37.54150116 -25.09375 37.6015625 C-23.65225586 37.60833008 -23.65225586 37.60833008 -22.18164062 37.61523438 C-19.83977578 37.62688544 -17.49804819 37.64324225 -15.15625 37.6640625 C-15.18243408 36.72087158 -15.20861816 35.77768066 -15.2355957 34.8059082 C-15.32101922 31.29273105 -15.38359298 27.78066342 -15.4309082 24.2668457 C-15.45599109 22.74876449 -15.4900666 21.23080332 -15.53344727 19.71313477 C-15.59438293 17.52590285 -15.62251895 15.34027211 -15.64453125 13.15234375 C-15.67071533 11.83790283 -15.69689941 10.52346191 -15.72387695 9.16918945 C-15.15625 5.6640625 -15.15625 5.6640625 -13.26049805 2.73754883 C-8.84328746 -0.21293245 -5.20672939 -0.05589364 0 0 Z " fill="#FCC71D" transform="translate(142.15625,9.3359375)"/>
<path d="M0 0 C6.35368197 -0.07597749 12.70724709 -0.12856897 19.0612793 -0.16479492 C21.22343321 -0.17989444 23.38555643 -0.20037571 25.54760742 -0.22631836 C28.652909 -0.26265017 31.75780614 -0.27971462 34.86328125 -0.29296875 C35.83211746 -0.30845261 36.80095367 -0.32393646 37.79914856 -0.33988953 C39.15020943 -0.34022942 39.15020943 -0.34022942 40.52856445 -0.34057617 C41.32132278 -0.34723801 42.11408112 -0.35389984 42.93086243 -0.36076355 C45.63724884 0.11110723 46.35090485 0.81167287 48 3 C48.36914349 5.66489697 48.36914349 5.66489697 48.36076355 8.94145203 C48.36488754 10.18245667 48.36901154 11.4234613 48.3732605 12.70207214 C48.36264308 14.07962253 48.35173865 15.45717072 48.34057617 16.8347168 C48.33973007 18.28341657 48.34020471 19.73211763 48.34190369 21.18081665 C48.34276574 25.11657621 48.32510613 29.05206245 48.30418181 32.9877584 C48.28544997 37.0997198 48.28366734 41.21168721 48.28010559 45.32368469 C48.27077483 53.11161654 48.24614716 60.89942231 48.21605712 68.6872986 C48.18254513 77.55296163 48.16603517 86.41863063 48.15097082 95.28434122 C48.11959847 113.52296567 48.06681799 131.7614727 48 150 C47.01 149.01 47.01 149.01 46 148 C45.34 150.31 44.68 152.62 44 155 C36.93111222 155.85214779 29.9911168 156.12746455 22.875 156.0625 C21.91851562 156.05798828 20.96203125 156.05347656 19.9765625 156.04882812 C17.65097242 156.03720017 15.3255224 156.02086102 13 156 C13 155.01 13 154.02 13 153 C13.66 153 14.32 153 15 153 C14.93952698 138.3010473 14.86207103 123.60226665 14.76428509 108.90351295 C14.71928118 102.07892015 14.67987733 95.25438007 14.65356445 88.4296875 C14.62817461 81.84844798 14.5873012 75.26742411 14.53681374 68.68632126 C14.52007684 66.17044347 14.50860527 63.65452517 14.50238609 61.1385994 C14.49281907 57.62551365 14.4648487 54.11303555 14.43237305 50.60009766 C14.43452568 49.0259333 14.43452568 49.0259333 14.4367218 47.41996765 C14.41791458 45.98964455 14.41791458 45.98964455 14.39872742 44.53042603 C14.39411845 43.69896875 14.38950949 42.86751148 14.38476086 42.01085854 C14.25778977 41.34727522 14.13081869 40.6836919 14 40 C13.01 39.34 12.02 38.68 11 38 C11 37.34 11 36.68 11 36 C6.05 36 1.1 36 -4 36 C-3.67 34.35 -3.34 32.7 -3 31 C-2.93203149 28.96587236 -2.9150209 26.92966999 -2.9375 24.89453125 C-2.94523438 23.74662109 -2.95296875 22.59871094 -2.9609375 21.41601562 C-2.97382813 20.22685547 -2.98671875 19.03769531 -3 17.8125 C-3.02542614 15.44405527 -3.04648742 13.07555833 -3.0625 10.70703125 C-3.07410156 9.6600708 -3.08570313 8.61311035 -3.09765625 7.53442383 C-3 5 -3 5 -2 3 C-1.34 3 -0.68 3 0 3 C0 2.01 0 1.02 0 0 Z " fill="#D79001" transform="translate(133,12)"/>
<path d="M0 0 C0.98226059 -0.00004028 1.96452118 -0.00008057 2.97654724 -0.00012207 C5.04847631 0.00522896 7.12040515 0.02279377 9.19213867 0.05175781 C12.36374882 0.09365298 15.53323761 0.09282158 18.70507812 0.0859375 C20.72006684 0.09642895 22.73504462 0.10936681 24.75 0.125 C25.69798965 0.12520142 26.64597931 0.12540283 27.62269592 0.12561035 C28.94943581 0.14947815 28.94943581 0.14947815 30.30297852 0.17382812 C31.07843521 0.18224731 31.85389191 0.1906665 32.65284729 0.19934082 C35.33340762 0.68976844 36.76278446 1.83919745 38.80859375 3.59375 C38.47859375 4.25375 38.14859375 4.91375 37.80859375 5.59375 C36.81859375 4.60375 36.81859375 4.60375 35.80859375 3.59375 C33.79025432 3.26397394 33.79025432 3.26397394 31.45068359 3.27490234 C30.54990082 3.25503265 29.64911804 3.23516296 28.72103882 3.21469116 C27.74704132 3.20313995 26.77304382 3.19158875 25.76953125 3.1796875 C24.77353912 3.16032135 23.777547 3.1409552 22.75137329 3.1210022 C19.56220125 3.06110035 16.37299332 3.01477862 13.18359375 2.96875 C11.02472362 2.93057999 8.86586887 2.89152884 6.70703125 2.8515625 C1.40768841 2.7553903 -3.89174668 2.67037411 -9.19140625 2.59375 C-9.19140625 3.58375 -9.19140625 4.57375 -9.19140625 5.59375 C-9.85140625 5.59375 -10.51140625 5.59375 -11.19140625 5.59375 C-11.1756958 6.4408252 -11.15998535 7.28790039 -11.14379883 8.16064453 C-11.09245055 11.32517204 -11.05494953 14.48948608 -11.02661133 17.65429688 C-11.01159197 19.01992816 -10.99117017 20.38551176 -10.96508789 21.75097656 C-10.92840488 23.72178905 -10.91322074 25.69296408 -10.8984375 27.6640625 C-10.88272705 28.84758301 -10.8670166 30.03110352 -10.85083008 31.25048828 C-11.22891952 34.96199856 -12.33852449 37.38379798 -14.19140625 40.59375 C-14.96331299 40.60833252 -15.73521973 40.62291504 -16.53051758 40.63793945 C-20.02215718 40.71233033 -23.51283115 40.8090209 -27.00390625 40.90625 C-28.21884766 40.92880859 -29.43378906 40.95136719 -30.68554688 40.97460938 C-31.84892578 41.01005859 -33.01230469 41.04550781 -34.2109375 41.08203125 C-35.82125854 41.12130737 -35.82125854 41.12130737 -37.46411133 41.16137695 C-40.51810076 41.64554268 -41.24322323 42.30800864 -43.19140625 44.59375 C-43.85140625 44.59375 -44.51140625 44.59375 -45.19140625 44.59375 C-45.19140625 55.81375 -45.19140625 67.03375 -45.19140625 78.59375 C-42.22140625 78.59375 -39.25140625 78.59375 -36.19140625 78.59375 C-32.81640625 78.71875 -32.81640625 78.71875 -30.19140625 79.59375 C-27.40030836 84.03676715 -26.81945119 87.45780251 -26.83496094 92.65307617 C-26.83189438 93.671287 -26.83189438 93.671287 -26.82876587 94.71006775 C-26.82577712 96.93589937 -26.84417302 99.16097618 -26.86328125 101.38671875 C-26.86634173 102.94037188 -26.86821565 104.49402775 -26.86895752 106.04768372 C-26.87354821 109.29483635 -26.88792938 112.54173927 -26.91015625 115.78881836 C-26.9385084 119.95179131 -26.94937636 124.11456855 -26.95383835 128.2776289 C-26.9579927 131.48177547 -26.96780918 134.68588252 -26.97971344 137.89000893 C-26.98541022 139.42541501 -26.99017088 140.96082487 -26.99398041 142.4962368 C-27.00084951 144.63842842 -27.01448318 146.7804653 -27.03027344 148.92260742 C-27.03710144 150.14139084 -27.04392944 151.36017426 -27.05096436 152.6158905 C-27.19140625 155.59375 -27.19140625 155.59375 -28.19140625 158.59375 C-7.73140625 158.92375 12.72859375 159.25375 33.80859375 159.59375 C33.80859375 159.92375 33.80859375 160.25375 33.80859375 160.59375 C19.40517477 160.7105472 5.00182921 160.7983878 -9.40196609 160.85281086 C-16.08992744 160.87892845 -22.777561 160.91374477 -29.46533203 160.97094727 C-35.91681804 161.02518813 -42.36799813 161.05515425 -48.81969452 161.06813622 C-51.28375822 161.0773902 -53.74780478 161.09546067 -56.21173859 161.12240028 C-59.65748054 161.15858356 -63.10195087 161.1636996 -66.54785156 161.16137695 C-68.08317787 161.18834152 -68.08317787 161.18834152 -69.64952087 161.21585083 C-76.47465446 161.16591698 -76.47465446 161.16591698 -79.82626343 158.49040222 C-81.47699474 154.98776906 -81.68631108 152.55168607 -81.67724609 148.6796875 C-81.68104279 148.00423889 -81.68483948 147.32879028 -81.68875122 146.63287354 C-81.69613112 144.41101913 -81.67481255 142.19048719 -81.65234375 139.96875 C-81.64995762 138.41845859 -81.64905436 136.86816425 -81.64956665 135.31787109 C-81.64644304 132.07305728 -81.62991249 128.82868669 -81.60302734 125.58398438 C-81.56904803 121.43118367 -81.56139908 117.27886949 -81.56291771 113.12594604 C-81.56237304 109.92597842 -81.55139036 106.72611648 -81.53691483 103.52618408 C-81.53056452 101.99522704 -81.52661208 100.46425807 -81.52512741 98.93328857 C-81.52077545 96.79125713 -81.50323465 94.64973405 -81.48193359 92.5078125 C-81.4704982 90.6817749 -81.4704982 90.6817749 -81.45883179 88.81884766 C-81.19492262 85.63615675 -80.65884252 83.41816729 -79.19140625 80.59375 C-76.40020534 79.19814955 -73.98934933 79.37566712 -70.87109375 79.27734375 C-69.61425781 79.23544922 -68.35742188 79.19355469 -67.0625 79.15039062 C-65.74378906 79.11107422 -64.42507812 79.07175781 -63.06640625 79.03125 C-61.72654874 78.98805488 -60.38670469 78.94444027 -59.046875 78.90039062 C-55.7618281 78.79404019 -52.47670344 78.69201192 -49.19140625 78.59375 C-49.17682373 77.48862061 -49.16224121 76.38349121 -49.1472168 75.24487305 C-49.08926359 71.14639861 -49.01203106 67.04847533 -48.92895508 62.95043945 C-48.89569161 61.17644188 -48.86766407 59.4023381 -48.8449707 57.62817383 C-48.81145023 55.07847824 -48.7591376 52.52975708 -48.703125 49.98046875 C-48.69673508 49.18662277 -48.69034515 48.39277679 -48.6837616 47.57487488 C-48.53821526 42.12967954 -48.53821526 42.12967954 -46.90917969 39.61230469 C-40.99392878 36.10485347 -31.76799452 37.47118866 -25.12890625 37.53125 C-23.68741211 37.53801758 -23.68741211 37.53801758 -22.21679688 37.54492188 C-19.87493203 37.55657294 -17.53320444 37.57292975 -15.19140625 37.59375 C-15.21759033 36.65055908 -15.24377441 35.70736816 -15.27075195 34.7355957 C-15.35617547 31.22241855 -15.41874923 27.71035092 -15.46606445 24.1965332 C-15.49114734 22.67845199 -15.52522285 21.16049082 -15.56860352 19.64282227 C-15.62953918 17.45559035 -15.6576752 15.26995961 -15.6796875 13.08203125 C-15.70587158 11.76759033 -15.73205566 10.45314941 -15.7590332 9.09887695 C-15.19140625 5.59375 -15.19140625 5.59375 -13.29785156 2.6628418 C-8.86336812 -0.29080857 -5.21950108 -0.09046324 0 0 Z " fill="#FCE26C" transform="translate(142.19140625,9.40625)"/>
<path d="M0 0 C0.495 1.485 0.495 1.485 1 3 C0 4 0 4 -2.68383789 4.11352539 C-3.85164795 4.10828857 -5.01945801 4.10305176 -6.22265625 4.09765625 C-7.48271484 4.09443359 -8.74277344 4.09121094 -10.04101562 4.08789062 C-11.38151109 4.07953403 -12.72200588 4.07106907 -14.0625 4.0625 C-15.40689942 4.0574866 -16.7513006 4.05292342 -18.09570312 4.04882812 C-21.39717941 4.03699488 -24.69856803 4.02050971 -28 4 C-28.02317038 13.05777944 -28.04093907 22.11554868 -28.05181217 31.17335129 C-28.05703071 35.37925005 -28.06410971 39.58512853 -28.07543945 43.79101562 C-28.08630486 47.84992929 -28.0922846 51.90882346 -28.09487724 55.96775055 C-28.09672489 57.51629188 -28.10033286 59.06483215 -28.10573006 60.61336517 C-28.11298894 62.78230598 -28.11398889 64.95116619 -28.11352539 67.12011719 C-28.115746 68.35477722 -28.11796661 69.58943726 -28.12025452 70.86151123 C-28.1006481 74.17884446 -28.1006481 74.17884446 -27 78 C-11.82 78.33 3.36 78.66 19 79 C19 79.66 19 80.32 19 81 C40.12 81 61.24 81 83 81 C83 81.33 83 81.66 83 82 C68.59658102 82.1167972 54.19323546 82.2046378 39.78944016 82.25906086 C33.10147881 82.28517845 26.41384525 82.31999477 19.72607422 82.37719727 C13.27458821 82.43143813 6.82340812 82.46140425 0.37171173 82.47438622 C-2.09235197 82.4836402 -4.55639853 82.50171067 -7.02033234 82.52865028 C-10.46607429 82.56483356 -13.91054462 82.5699496 -17.35644531 82.56762695 C-18.37999619 82.58560333 -19.40354706 82.60357971 -20.45811462 82.62210083 C-27.28324821 82.57216698 -27.28324821 82.57216698 -30.63485718 79.89665222 C-32.28558849 76.39401906 -32.49490483 73.95793607 -32.48583984 70.0859375 C-32.49153488 69.07276459 -32.49153488 69.07276459 -32.49734497 68.03912354 C-32.50472487 65.81726913 -32.4834063 63.59673719 -32.4609375 61.375 C-32.45855137 59.82470859 -32.45764811 58.27441425 -32.4581604 56.72412109 C-32.45503679 53.47930728 -32.43850624 50.23493669 -32.41162109 46.99023438 C-32.37764178 42.83743367 -32.36999283 38.68511949 -32.37151146 34.53219604 C-32.37096679 31.33222842 -32.35998411 28.13236648 -32.34550858 24.93243408 C-32.33915827 23.40147704 -32.33520583 21.87050807 -32.33372116 20.33953857 C-32.3293692 18.19750713 -32.3118284 16.05598405 -32.29052734 13.9140625 C-32.27909195 12.0880249 -32.27909195 12.0880249 -32.26742554 10.22509766 C-32.00351637 7.04240675 -31.46743627 4.82441729 -30 2 C-27.20879909 0.60439955 -24.79794308 0.78191712 -21.6796875 0.68359375 C-19.79443359 0.62075195 -19.79443359 0.62075195 -17.87109375 0.55664062 C-16.55238281 0.51732422 -15.23367187 0.47800781 -13.875 0.4375 C-12.53514249 0.39430488 -11.19529844 0.35069027 -9.85546875 0.30664062 C-6.57042185 0.20029019 -3.28529719 0.09826192 0 0 Z " fill="#F6E79A" transform="translate(93,88)"/>
<path d="M0 0 C0.98226059 -0.00004028 1.96452118 -0.00008057 2.97654724 -0.00012207 C5.04847631 0.00522896 7.12040515 0.02279377 9.19213867 0.05175781 C12.36374882 0.09365298 15.53323761 0.09282158 18.70507812 0.0859375 C20.72006684 0.09642895 22.73504462 0.10936681 24.75 0.125 C25.69798965 0.12520142 26.64597931 0.12540283 27.62269592 0.12561035 C28.94943581 0.14947815 28.94943581 0.14947815 30.30297852 0.17382812 C31.07843521 0.18224731 31.85389191 0.1906665 32.65284729 0.19934082 C35.33340762 0.68976844 36.76278446 1.83919745 38.80859375 3.59375 C38.47859375 4.25375 38.14859375 4.91375 37.80859375 5.59375 C36.81859375 4.60375 36.81859375 4.60375 35.80859375 3.59375 C33.79025432 3.26397394 33.79025432 3.26397394 31.45068359 3.27490234 C30.54990082 3.25503265 29.64911804 3.23516296 28.72103882 3.21469116 C27.74704132 3.20313995 26.77304382 3.19158875 25.76953125 3.1796875 C24.77353912 3.16032135 23.777547 3.1409552 22.75137329 3.1210022 C19.56220125 3.06110035 16.37299332 3.01477862 13.18359375 2.96875 C11.02472362 2.93057999 8.86586887 2.89152884 6.70703125 2.8515625 C1.40768841 2.7553903 -3.89174668 2.67037411 -9.19140625 2.59375 C-9.19140625 3.58375 -9.19140625 4.57375 -9.19140625 5.59375 C-9.85140625 5.59375 -10.51140625 5.59375 -11.19140625 5.59375 C-11.1756958 6.4408252 -11.15998535 7.28790039 -11.14379883 8.16064453 C-11.09245055 11.32517204 -11.05494953 14.48948608 -11.02661133 17.65429688 C-11.01159197 19.01992816 -10.99117017 20.38551176 -10.96508789 21.75097656 C-10.92840488 23.72178905 -10.91322074 25.69296408 -10.8984375 27.6640625 C-10.88272705 28.84758301 -10.8670166 30.03110352 -10.85083008 31.25048828 C-11.22891952 34.96199856 -12.33852449 37.38379798 -14.19140625 40.59375 C-14.96331299 40.60833252 -15.73521973 40.62291504 -16.53051758 40.63793945 C-20.02215718 40.71233033 -23.51283115 40.8090209 -27.00390625 40.90625 C-28.21884766 40.92880859 -29.43378906 40.95136719 -30.68554688 40.97460938 C-31.84892578 41.01005859 -33.01230469 41.04550781 -34.2109375 41.08203125 C-35.82125854 41.12130737 -35.82125854 41.12130737 -37.46411133 41.16137695 C-40.51810076 41.64554268 -41.24322323 42.30800864 -43.19140625 44.59375 C-43.85140625 44.59375 -44.51140625 44.59375 -45.19140625 44.59375 C-45.19140625 55.81375 -45.19140625 67.03375 -45.19140625 78.59375 C-42.22140625 78.59375 -39.25140625 78.59375 -36.19140625 78.59375 C-34.18349855 78.87556161 -32.17763645 79.18631816 -30.19140625 79.59375 C-30.19140625 79.92375 -30.19140625 80.25375 -30.19140625 80.59375 C-35.80140625 80.59375 -41.41140625 80.59375 -47.19140625 80.59375 C-47.23734202 75.25499276 -47.27716008 69.91692247 -47.30126953 64.578125 C-47.31132116 62.76234614 -47.32496453 60.94658344 -47.34228516 59.13085938 C-47.36657031 56.51949065 -47.37789773 53.90833613 -47.38671875 51.296875 C-47.39704132 50.48631653 -47.40736389 49.67575806 -47.41799927 48.84063721 C-47.41949559 41.30775948 -47.41949559 41.30775948 -45.19140625 38.59375 C-43.41625977 37.98657227 -43.41625977 37.98657227 -41.2578125 37.84765625 C-40.45359863 37.7923877 -39.64938477 37.73711914 -38.82080078 37.68017578 C-34.25395903 37.53006789 -29.69791623 37.48991588 -25.12890625 37.53125 C-24.16791016 37.53576172 -23.20691406 37.54027344 -22.21679688 37.54492188 C-19.87493203 37.55657294 -17.53320444 37.57292975 -15.19140625 37.59375 C-15.21759033 36.65055908 -15.24377441 35.70736816 -15.27075195 34.7355957 C-15.35617547 31.22241855 -15.41874923 27.71035092 -15.46606445 24.1965332 C-15.49114734 22.67845199 -15.52522285 21.16049082 -15.56860352 19.64282227 C-15.62953918 17.45559035 -15.6576752 15.26995961 -15.6796875 13.08203125 C-15.70587158 11.76759033 -15.73205566 10.45314941 -15.7590332 9.09887695 C-15.19140625 5.59375 -15.19140625 5.59375 -13.29785156 2.6628418 C-8.86336812 -0.29080857 -5.21950108 -0.09046324 0 0 Z " fill="#F4D565" transform="translate(142.19140625,9.40625)"/>
<path d="M0 0 C0.04671424 19.21043901 0.08198603 38.42086649 0.10362434 57.63135052 C0.11393829 66.55104661 0.1280009 75.47070741 0.15087891 84.39038086 C0.17080914 92.16448087 0.18371558 99.93855532 0.18817699 107.71268016 C0.19078499 111.82927 0.19691741 115.94578672 0.21146011 120.06235313 C0.22503822 123.93727864 0.22922218 127.81210093 0.22621536 131.68704796 C0.22676542 133.10884156 0.23074155 134.53063863 0.23841095 135.95241165 C0.24837516 137.8949407 0.2447742 139.83752516 0.24050903 141.78007507 C0.24235262 142.866869 0.24419621 143.95366293 0.24609566 145.07339001 C-0.02918905 148.34712094 -0.59281987 151.59281987 -3 154 C-5.59359322 154.08851529 -8.16039691 154.11525945 -10.75390625 154.09765625 C-11.52935287 154.0962413 -12.3047995 154.09482635 -13.10374451 154.09336853 C-15.59003494 154.08775345 -18.0762366 154.07519846 -20.5625 154.0625 C-22.24413933 154.05748694 -23.92578006 154.0529237 -25.60742188 154.04882812 C-29.73831566 154.03777913 -33.86914276 154.02050445 -38 154 C-38 153.67 -38 153.34 -38 153 C-37.35562988 152.97494385 -36.71125977 152.9498877 -36.04736328 152.92407227 C-33.07311076 152.80664654 -30.09906429 152.684597 -27.125 152.5625 C-26.11179688 152.52318359 -25.09859375 152.48386719 -24.0546875 152.44335938 C-17.67258664 152.17743851 -11.34748471 151.71710563 -5 151 C-4.22897033 146.88893898 -3.86731663 142.9921229 -3.84178162 138.81167603 C-3.8319928 137.59178986 -3.82220398 136.37190369 -3.81211853 135.11505127 C-3.80621561 133.77673379 -3.80040509 132.4384159 -3.79467773 131.10009766 C-3.78509001 129.68050863 -3.77507941 128.26092241 -3.76467896 126.84133911 C-3.73772068 122.99885973 -3.71666217 119.15636819 -3.69667697 115.31384706 C-3.67476121 111.29395632 -3.64739994 107.2741027 -3.62062073 103.25424194 C-3.57076927 95.64711233 -3.52580254 88.03996202 -3.48259836 80.43279207 C-3.43316137 71.77015721 -3.37826726 63.10755962 -3.32291877 54.44496083 C-3.20921462 36.63000851 -3.10235053 18.81502099 -3 1 C-1 0 -1 0 0 0 Z " fill="#E1B552" transform="translate(182,15)"/>
<path d="M0 0 C0.80157292 4.21350789 1.11796045 8.17456383 1.09765625 12.4609375 C1.09435303 13.72244629 1.0910498 14.98395508 1.08764648 16.28369141 C1.08352753 16.95023743 1.07940857 17.61678345 1.07516479 18.30352783 C1.06231062 20.40597546 1.05586262 22.5083594 1.05102539 24.61083984 C1.03771045 29.83051857 1.01348491 35.05013619 0.98962402 40.26977539 C0.96984623 44.68808659 0.95422667 49.10637516 0.94406128 53.52471924 C0.93761364 55.58862413 0.92510734 57.65243448 0.91235352 59.71630859 C0.90905029 60.97781738 0.90574707 62.23932617 0.90234375 63.5390625 C0.89710693 64.64459473 0.89187012 65.75012695 0.88647461 66.88916016 C0.95167903 70.50136 0.95167903 70.50136 2 76 C15.365 76.495 15.365 76.495 29 77 C27 79 27 79 23.83544922 79.22705078 C22.49182037 79.22673389 21.1481659 79.21542181 19.8046875 79.1953125 C19.09724396 79.1924826 18.38980042 79.18965271 17.66091919 79.18673706 C15.3987749 79.17553137 13.13702485 79.15042679 10.875 79.125 C9.34245363 79.11497067 7.80990106 79.10584474 6.27734375 79.09765625 C2.51807699 79.07559086 -1.24089464 79.04105896 -5 79 C-4.01 78.505 -4.01 78.505 -3 78 C-2.95366426 68.55108138 -2.9181245 59.10220186 -2.89637566 49.65319443 C-2.88593743 45.26566302 -2.87177751 40.87820933 -2.84912109 36.49072266 C-2.82739411 32.25673915 -2.81543166 28.02283042 -2.81024551 23.78879547 C-2.8065495 22.17325921 -2.79933215 20.55772704 -2.78853989 18.9422226 C-2.77402682 16.67981617 -2.77202197 14.41771891 -2.77294922 12.15527344 C-2.768508 10.86731873 -2.76406677 9.57936401 -2.75949097 8.25238037 C-2.98424622 5.21303682 -3.38816744 3.53887454 -5 1 C-2 0 -2 0 0 0 Z " fill="#F3C833" transform="translate(117,90)"/>
<path d="M0 0 C0.88772095 -0.00945648 1.77544189 -0.01891296 2.69006348 -0.02865601 C3.64119019 -0.02258331 4.59231689 -0.01651062 5.57226562 -0.01025391 C6.55594116 -0.01312408 7.5396167 -0.01599426 8.55310059 -0.01895142 C10.63094662 -0.02099111 12.70881189 -0.01546791 14.78662109 -0.00292969 C17.96690816 0.013125 21.14592433 -0.00278193 24.32617188 -0.02197266 C26.34570593 -0.01999021 28.36523919 -0.0161465 30.38476562 -0.01025391 C31.81145569 -0.01936295 31.81145569 -0.01936295 33.26696777 -0.02865601 C34.15468872 -0.01919952 35.04240967 -0.00974304 35.95703125 0 C36.73550415 0.00238678 37.51397705 0.00477356 38.31604004 0.00723267 C41.00889352 0.48161723 42.42801068 1.62621992 44.47851562 3.38818359 C44.14851563 4.04818359 43.81851563 4.70818359 43.47851562 5.38818359 C42.81851563 4.72818359 42.15851563 4.06818359 41.47851562 3.38818359 C39.4601762 3.05840753 39.4601762 3.05840753 37.12060547 3.06933594 C36.21982269 3.04946625 35.31903992 3.02959656 34.39096069 3.00912476 C33.4169632 2.99757355 32.4429657 2.98602234 31.43945312 2.97412109 C30.443461 2.95475494 29.44746887 2.93538879 28.42129517 2.91543579 C25.23212312 2.85553394 22.04291519 2.80921221 18.85351562 2.76318359 C16.69464549 2.72501358 14.53579075 2.68596244 12.37695312 2.64599609 C7.07761028 2.54982389 1.77817519 2.46480771 -3.52148438 2.38818359 C-3.52148438 3.37818359 -3.52148438 4.36818359 -3.52148438 5.38818359 C-4.18148437 5.38818359 -4.84148437 5.38818359 -5.52148438 5.38818359 C-5.51101074 6.24573242 -5.50053711 7.10328125 -5.48974609 7.98681641 C-5.45560142 11.17739873 -5.43055479 14.36788771 -5.41162109 17.55859375 C-5.40158185 18.93785675 -5.3879476 20.31709856 -5.37060547 21.69628906 C-5.34626684 23.68203499 -5.33605183 25.66793809 -5.32617188 27.65380859 C-5.31569824 28.84780273 -5.30522461 30.04179688 -5.29443359 31.27197266 C-5.51113675 34.24616523 -5.95962315 35.89136738 -7.52148438 38.38818359 C-7.85148438 38.38818359 -8.18148437 38.38818359 -8.52148438 38.38818359 C-8.62034146 33.45863714 -8.69294562 28.52966712 -8.74121094 23.59936523 C-8.76133003 21.92217967 -8.78862889 20.24506428 -8.82324219 18.56811523 C-8.87175007 16.1577016 -8.89444901 13.74821487 -8.91210938 11.33740234 C-8.93275452 10.58730392 -8.95339966 9.83720551 -8.97467041 9.06437683 C-8.97558594 6.94165039 -8.97558594 6.94165039 -8.52148438 3.38818359 C-5.76851183 0.71083767 -3.79321302 0.0116299 0 0 Z " fill="#D3AA4D" transform="translate(136.521484375,9.61181640625)"/>
<path d="M0 0 C2.77245014 -0.13487595 5.53837088 -0.23400807 8.3125 -0.3125 C9.49102539 -0.3753418 9.49102539 -0.3753418 10.69335938 -0.43945312 C11.45068359 -0.45556641 12.20800781 -0.47167969 12.98828125 -0.48828125 C13.68477783 -0.51446533 14.38127441 -0.54064941 15.09887695 -0.56762695 C17 0 17 0 18.59654236 2.10136414 C20.29922935 5.61801432 20.36806829 8.04539436 20.35644531 11.94580078 C20.35951187 12.96379257 20.35951187 12.96379257 20.36264038 14.00234985 C20.3656355 16.23361634 20.34721249 18.46413451 20.328125 20.6953125 C20.32506538 22.25039487 20.3231908 23.80547998 20.32244873 25.36056519 C20.31785388 28.61369374 20.30345778 31.86657361 20.28125 35.11962891 C20.25292125 39.29047756 20.24203273 43.46113099 20.2375679 47.63206673 C20.23341302 50.84050448 20.22359572 54.04890278 20.21169281 57.2573204 C20.205995 58.79551758 20.20123468 60.33371853 20.19742584 61.87192154 C20.19055611 64.01901168 20.17692153 66.1659475 20.16113281 68.31298828 C20.15430481 69.5347879 20.14747681 70.75658752 20.14044189 72.01541138 C20 75 20 75 19 78 C18.34 78 17.68 78 17 78 C16.957279 76.33388095 16.95936168 74.66617115 17 73 C17.33 72.67 17.66 72.34 18 72 C18.12380838 69.94521547 18.17798203 67.8862104 18.20532227 65.82788086 C18.22017166 64.86205833 18.22017166 64.86205833 18.23532104 63.87672424 C18.26701528 61.73946869 18.29172449 59.60219087 18.31640625 57.46484375 C18.33696896 55.98653064 18.35796524 54.50822351 18.37937927 53.02992249 C18.43467059 49.13207829 18.48404857 45.23418042 18.53222656 41.33624268 C18.58239019 37.36148277 18.63810301 33.38680116 18.69335938 29.41210938 C18.80102724 21.60813915 18.90245287 13.80410398 19 6 C18.34 6 17.68 6 17 6 C17 5.01 17 4.02 17 3 C15.845 3.165 14.69 3.33 13.5 3.5 C9.30092197 4.03238311 5.22936959 4.07552446 1 4 C0.67 4.66 0.34 5.32 0 6 C0 4.02 0 2.04 0 0 Z " fill="#FEDF57" transform="translate(95,90)"/>
<path d="M0 0 C6.06888051 -0.09878601 12.13729439 -0.17142949 18.20678711 -0.21972656 C20.27197418 -0.23985731 22.33710416 -0.26716445 24.40209961 -0.30175781 C27.36847001 -0.35021162 30.33408772 -0.37295385 33.30078125 -0.390625 C34.2258699 -0.41127014 35.15095856 -0.43191528 36.1040802 -0.45318604 C42.52615962 -0.45544041 42.52615962 -0.45544041 45.10620117 2.02441406 C45.40115479 2.67635742 45.6961084 3.32830078 46 4 C45.01 3.67 44.02 3.34 43 3 C41.57281363 2.91389486 40.14193352 2.88228172 38.7121582 2.88647461 C37.85149246 2.88655014 36.99082672 2.88662567 36.1040802 2.88670349 C35.17899155 2.89186478 34.25390289 2.89702606 33.30078125 2.90234375 C32.35059616 2.9037587 31.40041107 2.90517365 30.4214325 2.90663147 C27.38508971 2.91223125 24.34882052 2.92478368 21.3125 2.9375 C19.25455836 2.94251503 17.19661556 2.94707793 15.13867188 2.95117188 C10.09241954 2.9622006 5.04622225 2.97946507 0 3 C0 2.01 0 1.02 0 0 Z " fill="#CF960E" transform="translate(133,12)"/>
<path d="M0 0 C0.33 0 0.66 0 1 0 C1 1.65 1 3.3 1 5 C-2.3146667 7.02907167 -4.4315979 7.12742133 -8.25 6.625 C-9.14203125 6.51414063 -10.0340625 6.40328125 -10.953125 6.2890625 C-11.96632812 6.14597656 -11.96632812 6.14597656 -13 6 C-13 5.67 -13 5.34 -13 5 C-6.565 4.505 -6.565 4.505 0 4 C0 2.68 0 1.36 0 0 Z " fill="#CB9B38" transform="translate(180,162)"/>
</svg>
