<?xml version="1.0" encoding="UTF-8"?>
<svg version="1.1" xmlns="http://www.w3.org/2000/svg" width="211" height="180">
<path d="M0 0 C5.30268934 4.63985318 9.01752813 9.07396932 9.69744873 16.28018188 C9.79682576 18.73701023 9.82957041 21.18569662 9.8359375 23.64453125 C9.8459227 24.99812996 9.8459227 24.99812996 9.85610962 26.3790741 C9.86620322 28.28272473 9.87092766 30.18641052 9.87060547 32.09008789 C9.87497068 34.98058336 9.91130286 37.86954064 9.94921875 40.75976562 C9.95508945 42.61718233 9.95905715 44.47460622 9.9609375 46.33203125 C9.97530853 47.18545609 9.98967957 48.03888092 10.00448608 48.91816711 C9.94870116 56.35970314 7.8648218 62.24745128 3.1875 68.0625 C-3.47879384 73.33352304 -9.69830638 73.68738011 -17.9375 73.875 C-18.95521484 73.90916016 -19.97292969 73.94332031 -21.02148438 73.97851562 C-23.51421266 74.06043627 -26.00661402 74.12976649 -28.5 74.1875 C-24.85444442 74.30505481 -21.20938526 74.37519812 -17.5625 74.4375 C-16.54091797 74.47101563 -15.51933594 74.50453125 -14.46679688 74.5390625 C-6.50476867 74.64081366 -0.63966751 73.12884271 5.875 68.5 C11.02999269 61.16404887 10.94058318 52.65348506 11.02734375 44.03320312 C11.06021484 42.75026367 11.06021484 42.75026367 11.09375 41.44140625 C11.10083984 40.67127197 11.10792969 39.9011377 11.11523438 39.10766602 C11.5 37.1875 11.5 37.1875 14.5 35.1875 C23.24043232 33.53785981 31.92801514 33.54981643 39.75 38.0625 C47.84857645 45.8619813 50.38177126 57.91194588 50.8359375 68.703125 C51.06810043 83.4977717 50.58012242 97.36224011 40.5 109.1875 C35.76680764 113.69530225 32.1960378 114.29397729 25.81347656 114.39282227 C24.10215546 114.4227401 24.10215546 114.4227401 22.35626221 114.45326233 C21.13010193 114.46997482 19.90394165 114.48668732 18.640625 114.50390625 C17.38111023 114.52468735 16.12159546 114.54546844 14.82391357 114.56687927 C11.48341129 114.62116302 8.14289778 114.67142069 4.80230713 114.71972656 C1.39028607 114.77005704 -2.02164823 114.8256827 -5.43359375 114.88085938 C-12.12232664 114.98795114 -18.81112463 115.0897354 -25.5 115.1875 C-24.58710205 115.20208252 -23.6742041 115.21666504 -22.73364258 115.23168945 C-19.33201389 115.29290795 -15.93117319 115.36708873 -12.5300293 115.44995117 C-11.06073578 115.48311259 -9.59131756 115.51117178 -8.12182617 115.53393555 C-6.00385632 115.56764519 -3.88702005 115.61996433 -1.76953125 115.67578125 C-0.49698486 115.70196533 0.77556152 115.72814941 2.08666992 115.75512695 C5.68722371 116.21121599 7.6429325 116.98353403 10.5 119.1875 C11.0234375 121.3515625 11.0234375 121.3515625 10.875 123.8125 C10.79765625 125.1428125 10.79765625 125.1428125 10.71875 126.5 C10.6465625 127.386875 10.574375 128.27375 10.5 129.1875 C10.4896875 129.97125 10.479375 130.755 10.46875 131.5625 C10.20774829 137.82654116 7.99723967 141.85479349 3.5 146.1875 C-6.22253821 153.70037043 -17.19128145 155.76379624 -29.25 155.6875 C-30.29478516 155.68250488 -31.33957031 155.67750977 -32.41601562 155.67236328 C-43.63437309 155.42118017 -54.23799293 153.18206672 -63.05078125 145.7265625 C-68.79423474 139.62704586 -68.65745357 132.00595284 -68.66796875 124.16015625 C-68.67296135 122.86035072 -68.67296135 122.86035072 -68.67805481 121.5342865 C-68.68310494 119.70621265 -68.68546373 117.87812964 -68.68530273 116.05004883 C-68.68748978 113.26302838 -68.70566726 110.47640366 -68.72460938 107.68945312 C-68.72754364 105.90885551 -68.72952821 104.12825603 -68.73046875 102.34765625 C-68.73765427 101.51935806 -68.74483978 100.69105988 -68.75224304 99.83766174 C-68.72542755 93.00234421 -67.32767825 87.98373402 -63.375 82.3125 C-62.83617187 81.53132813 -62.29734375 80.75015625 -61.7421875 79.9453125 C-61.33226562 79.36523438 -60.92234375 78.78515625 -60.5 78.1875 C-61.8921875 79.1775 -61.8921875 79.1775 -63.3125 80.1875 C-63.83457031 80.55875 -64.35664062 80.93 -64.89453125 81.3125 C-70.09660878 87.38791902 -69.98513399 95.04725959 -70.125 102.625 C-70.1757497 104.60296954 -70.23022491 106.58084827 -70.2890625 108.55859375 C-70.31540771 109.8568811 -70.31540771 109.8568811 -70.34228516 111.18139648 C-70.5 113.1875 -70.5 113.1875 -71.5 114.1875 C-90.06439188 115.41881171 -90.06439188 115.41881171 -97.45703125 109.6640625 C-106.46928192 100.67078499 -107.7144255 86.73456076 -107.75 74.625 C-107.74502959 62.46339478 -106.901475 50.8233225 -98.01953125 41.66015625 C-89.37610475 33.99439239 -77.93316132 35.03344128 -67.0234375 35.08984375 C-65.97217682 35.0912587 -64.92091614 35.09267365 -63.83779907 35.09413147 C-60.51683572 35.09967913 -57.19594259 35.11222158 -53.875 35.125 C-51.6080739 35.13002177 -49.34114673 35.13458349 -47.07421875 35.13867188 C-41.54945566 35.14963135 -36.02473285 35.16631643 -30.5 35.1875 C-30.5 34.5275 -30.5 33.8675 -30.5 33.1875 C-32.02137573 33.19535522 -32.02137573 33.19535522 -33.57348633 33.20336914 C-37.33617267 33.22146807 -41.09885515 33.23294994 -44.86157227 33.24243164 C-46.49015958 33.24746065 -48.11874237 33.25428465 -49.74731445 33.26293945 C-52.08806472 33.27506769 -54.4287553 33.28074263 -56.76953125 33.28515625 C-57.49775589 33.29031754 -58.22598053 33.29547882 -58.97627258 33.30079651 C-62.09602288 33.30114279 -64.51633188 33.18205604 -67.5 32.1875 C-68.74862791 27.48622673 -68.5088532 23.05447228 -68.25 18.25 C-68.20939453 17.07147461 -68.20939453 17.07147461 -68.16796875 15.86914062 C-67.87967721 10.31255376 -67.02104597 5.74664742 -62.94921875 1.61328125 C-46.7861493 -8.60063182 -16.81546502 -8.70800867 0 0 Z M-54.8125 9.8125 C-56.80560622 12.11819181 -56.80560622 12.11819181 -56.4375 15.25 C-55.29227872 18.86432649 -55.29227872 18.86432649 -52.5 21.1875 C-49.64519831 21.61572025 -48.15507108 21.59409584 -45.6875 20.0625 C-43.92155249 17.27416183 -44.03818424 15.42021032 -44.5 12.1875 C-46.12580082 9.72797777 -46.12580082 9.72797777 -48.5 8.1875 C-52.425598 7.80420299 -52.425598 7.80420299 -54.8125 9.8125 Z M-57.5 75.1875 C-57.5 75.5175 -57.5 75.8475 -57.5 76.1875 C-54.47910522 76.21466089 -51.45845871 76.23441657 -48.4375 76.25 C-47.58994141 76.25837891 -46.74238281 76.26675781 -45.86914062 76.27539062 C-40.9638278 76.29433006 -36.33555245 76.02076345 -31.5 75.1875 C-38.29766317 70.65572455 -50.02072631 72.74528818 -57.5 75.1875 Z M-12.3125 130.25 C-14.19355537 133.31909034 -13.25264699 135.80058855 -12.5 139.1875 C-11.32889816 140.57658639 -11.32889816 140.57658639 -8.0625 140.4375 C-6.886875 140.355 -5.71125 140.2725 -4.5 140.1875 C-2.35237816 136.96606724 -1.938932 135.9279533 -2.5 132.1875 C-4.17316312 130.26595307 -4.17316312 130.26595307 -6.5 129.1875 C-10.27502919 128.85035367 -10.27502919 128.85035367 -12.3125 130.25 Z " fill="#F8DD57" transform="translate(134.5,14.8125)"/>
<path d="M0 0 C5.30268934 4.63985318 9.01752813 9.07396932 9.69744873 16.28018188 C9.79682576 18.73701023 9.82957041 21.18569662 9.8359375 23.64453125 C9.8459227 24.99812996 9.8459227 24.99812996 9.85610962 26.3790741 C9.86620322 28.28272473 9.87092766 30.18641052 9.87060547 32.09008789 C9.87497068 34.98058336 9.91130286 37.86954064 9.94921875 40.75976562 C9.95508945 42.61718233 9.95905715 44.47460622 9.9609375 46.33203125 C9.97530853 47.18545609 9.98967957 48.03888092 10.00448608 48.91816711 C9.94810355 56.43942236 7.9106825 62.42403469 2.9375 68.125 C-0.65658755 71.166151 -2.62137938 72.43599631 -7.28759766 72.44287109 C-8.25935944 72.44983002 -9.23112122 72.45678894 -10.23233032 72.46395874 C-11.28230194 72.46296173 -12.33227356 72.46196472 -13.4140625 72.4609375 C-15.641932 72.48123808 -17.86979654 72.50208907 -20.09765625 72.5234375 C-23.60632501 72.54597608 -27.1147975 72.56248291 -30.62353516 72.56835938 C-34.01240504 72.5779284 -37.40039209 72.61177327 -40.7890625 72.6484375 C-41.82688873 72.64339203 -42.86471497 72.63834656 -43.93399048 72.63314819 C-51.38888921 72.73295506 -57.95686384 73.96409436 -63.62109375 79.1171875 C-64.05550781 79.75914063 -64.48992187 80.40109375 -64.9375 81.0625 C-65.38996094 81.69929688 -65.84242187 82.33609375 -66.30859375 82.9921875 C-69.75754192 89.34729856 -69.87453415 95.42606553 -70.0625 102.5 C-70.12214555 104.49622228 -70.18572581 106.49233225 -70.25390625 108.48828125 C-70.27783447 109.36653564 -70.3017627 110.24479004 -70.32641602 111.1496582 C-70.5 113.1875 -70.5 113.1875 -71.5 114.1875 C-90.06439188 115.41881171 -90.06439188 115.41881171 -97.45703125 109.6640625 C-106.46928192 100.67078499 -107.7144255 86.73456076 -107.75 74.625 C-107.74502959 62.46339478 -106.901475 50.8233225 -98.01953125 41.66015625 C-89.37610475 33.99439239 -77.93316132 35.03344128 -67.0234375 35.08984375 C-65.97217682 35.0912587 -64.92091614 35.09267365 -63.83779907 35.09413147 C-60.51683572 35.09967913 -57.19594259 35.11222158 -53.875 35.125 C-51.6080739 35.13002177 -49.34114673 35.13458349 -47.07421875 35.13867188 C-41.54945566 35.14963135 -36.02473285 35.16631643 -30.5 35.1875 C-30.5 34.5275 -30.5 33.8675 -30.5 33.1875 C-32.02137573 33.19535522 -32.02137573 33.19535522 -33.57348633 33.20336914 C-37.33617267 33.22146807 -41.09885515 33.23294994 -44.86157227 33.24243164 C-46.49015958 33.24746065 -48.11874237 33.25428465 -49.74731445 33.26293945 C-52.08806472 33.27506769 -54.4287553 33.28074263 -56.76953125 33.28515625 C-57.49775589 33.29031754 -58.22598053 33.29547882 -58.97627258 33.30079651 C-62.09602288 33.30114279 -64.51633188 33.18205604 -67.5 32.1875 C-68.74862791 27.48622673 -68.5088532 23.05447228 -68.25 18.25 C-68.20939453 17.07147461 -68.20939453 17.07147461 -68.16796875 15.86914062 C-67.87967721 10.31255376 -67.02104597 5.74664742 -62.94921875 1.61328125 C-46.7861493 -8.60063182 -16.81546502 -8.70800867 0 0 Z M-54.8125 9.8125 C-56.80560622 12.11819181 -56.80560622 12.11819181 -56.4375 15.25 C-55.29227872 18.86432649 -55.29227872 18.86432649 -52.5 21.1875 C-49.64519831 21.61572025 -48.15507108 21.59409584 -45.6875 20.0625 C-43.92155249 17.27416183 -44.03818424 15.42021032 -44.5 12.1875 C-46.12580082 9.72797777 -46.12580082 9.72797777 -48.5 8.1875 C-52.425598 7.80420299 -52.425598 7.80420299 -54.8125 9.8125 Z " fill="#3877A8" transform="translate(134.5,14.8125)"/>
<path d="M0 0 C8.78484233 8.63206246 10.88529446 21.73577116 11.06738281 33.47338867 C11.06577148 34.43092041 11.06416016 35.38845215 11.0625 36.375 C11.06088867 37.37700439 11.05927734 38.37900879 11.05761719 39.41137695 C10.91704782 47.96336903 10.55933327 57.85043954 4.546875 64.48828125 C3.93328125 65.02839844 3.3196875 65.56851563 2.6875 66.125 C2.6875 64.805 2.6875 63.485 2.6875 62.125 C3.3475 62.125 4.0075 62.125 4.6875 62.125 C5.0175 59.815 5.3475 57.505 5.6875 55.125 C6.3475 55.125 7.0075 55.125 7.6875 55.125 C9.19403199 44.39095957 10.5520926 33.26771606 5.66015625 23.2734375 C4.58927797 20.90804372 4.11313614 18.67881683 3.6875 16.125 C3.0275 16.125 2.3675 16.125 1.6875 16.125 C1.6359375 15.53332031 1.584375 14.94164063 1.53125 14.33203125 C1.0309176 10.8467612 0.54940239 8.09050702 -1.83984375 5.4140625 C-7.3042444 1.54763586 -12.80584838 1.38919125 -19.3125 2.125 C-20.3025 2.455 -21.2925 2.785 -22.3125 3.125 C-22.34988281 4.35476562 -22.38726562 5.58453125 -22.42578125 6.8515625 C-22.49147028 8.48440401 -22.55791659 10.11721518 -22.625 11.75 C-22.64755859 12.55824219 -22.67011719 13.36648437 -22.69335938 14.19921875 C-22.91828742 19.22942766 -23.66788822 22.71288387 -26.3125 27.125 C-26.828125 28.07375 -27.34375 29.0225 -27.875 30 C-28.349375 30.70125 -28.82375 31.4025 -29.3125 32.125 C-29.9725 32.125 -30.6325 32.125 -31.3125 32.125 C-31.3125 32.785 -31.3125 33.445 -31.3125 34.125 C-33.375 35.5625 -33.375 35.5625 -36.3125 37.125 C-37.735625 37.929375 -37.735625 37.929375 -39.1875 38.75 C-46.16440348 41.70474183 -58.27646212 42.47034596 -65.3125 40.125 C-65.3125 40.785 -65.3125 41.445 -65.3125 42.125 C-66.055 41.8775 -66.055 41.8775 -66.8125 41.625 C-72.77258512 40.43298298 -77.69854965 40.87941986 -83.3125 43.125 C-83.8075 42.63 -83.8075 42.63 -84.3125 42.125 C-89.13845343 41.98276137 -92.57176812 42.63583744 -96.625 45.3125 C-101.74056058 50.56612264 -101.74056058 50.56612264 -103.5 57.4375 C-103.438125 58.324375 -103.37625 59.21125 -103.3125 60.125 C-103.8075 60.62 -103.8075 60.62 -104.3125 61.125 C-104.45100684 64.00021095 -104.52571503 66.8496029 -104.55078125 69.7265625 C-104.558853 70.59638763 -104.56692474 71.46621277 -104.57524109 72.36239624 C-104.58910354 74.21016434 -104.59981598 76.05795829 -104.60766602 77.90576172 C-104.6248027 80.71762694 -104.66865899 83.52829315 -104.71289062 86.33984375 C-104.72302401 88.13540802 -104.73153809 89.9309823 -104.73828125 91.7265625 C-104.75578934 92.56224762 -104.77329742 93.39793274 -104.79133606 94.25894165 C-104.77015259 100.03039826 -103.55494307 103.33935781 -100.3125 108.125 C-103.41080629 107.05661852 -104.27884605 106.18108991 -106 103.3125 C-108.3717859 97.55244852 -108.47223719 92.23955298 -108.48046875 86.09765625 C-108.48379715 85.23111923 -108.48712555 84.36458221 -108.49055481 83.4717865 C-108.49560494 81.64371265 -108.49796373 79.81562964 -108.49780273 77.98754883 C-108.49998978 75.20052838 -108.51816726 72.41390366 -108.53710938 69.62695312 C-108.54004364 67.84635551 -108.54202821 66.06575603 -108.54296875 64.28515625 C-108.55015427 63.45685806 -108.55733978 62.62855988 -108.56474304 61.77516174 C-108.53792755 54.93984421 -107.14017825 49.92123402 -103.1875 44.25 C-102.37925781 43.07824219 -102.37925781 43.07824219 -101.5546875 41.8828125 C-100.93980469 41.01269531 -100.93980469 41.01269531 -100.3125 40.125 C-100.9725 39.795 -101.6325 39.465 -102.3125 39.125 C-95.14065325 34.83409174 -89.58047841 33.41214373 -81.2734375 33.63671875 C-79.76313461 33.64733086 -79.76313461 33.64733086 -78.22232056 33.65815735 C-75.04325336 33.68588509 -71.86602423 33.74858219 -68.6875 33.8125 C-66.51695273 33.83761082 -64.34637753 33.86041908 -62.17578125 33.88085938 C-56.88740609 33.93563995 -51.6000844 34.01904457 -46.3125 34.125 C-46.3125 34.455 -46.3125 34.785 -46.3125 35.125 C-53.5725 35.455 -60.8325 35.785 -68.3125 36.125 C-64.703125 36.2075 -61.09375 36.29 -57.375 36.375 C-55.69676147 36.42962402 -55.69676147 36.42962402 -53.98461914 36.48535156 C-46.14485885 36.57128193 -40.34416495 34.98960404 -33.9375 30.4375 C-28.78250731 23.10154887 -28.87191682 14.59098506 -28.78515625 5.97070312 C-28.75228516 4.68776367 -28.75228516 4.68776367 -28.71875 3.37890625 C-28.71166016 2.60877197 -28.70457031 1.8386377 -28.69726562 1.04516602 C-28.3125 -0.875 -28.3125 -0.875 -25.3125 -2.875 C-16.74146413 -4.67028454 -7.70530953 -4.36149596 0 0 Z M-97.3125 37.125 C-97.3125 37.455 -97.3125 37.785 -97.3125 38.125 C-94.29160522 38.15216089 -91.27095871 38.17191657 -88.25 38.1875 C-87.40244141 38.19587891 -86.55488281 38.20425781 -85.68164062 38.21289062 C-80.7763278 38.23183006 -76.14805245 37.95826345 -71.3125 37.125 C-78.11016317 32.59322455 -89.83322631 34.68278818 -97.3125 37.125 Z " fill="#F5EAA4" transform="translate(174.3125,52.875)"/>
<path d="M0 0 C0 0.33 0 0.66 0 1 C-10.23 1 -20.46 1 -31 1 C-25.555 1.495 -25.555 1.495 -20 2 C-20 2.33 -20 2.66 -20 3 C-20.81984375 3.04898437 -21.6396875 3.09796875 -22.484375 3.1484375 C-23.56203125 3.22320313 -24.6396875 3.29796875 -25.75 3.375 C-27.35101563 3.47941406 -27.35101563 3.47941406 -28.984375 3.5859375 C-31.80206432 3.9728223 -33.5830366 4.55686166 -36 6 C-36 6.99 -36 7.98 -36 9 C-36.66 9.66 -37.32 10.32 -38 11 C-36.35 11 -34.7 11 -33 11 C-33 11.66 -33 12.32 -33 13 C-32.34 13 -31.68 13 -31 13 C-31 18.33333333 -31 23.66666667 -31 29 C-33.80320669 31.72641201 -35.91305422 32.38823892 -39.765625 32.51171875 C-40.65507813 32.54716797 -41.54453125 32.58261719 -42.4609375 32.61914062 C-43.38132812 32.64169922 -44.30171875 32.66425781 -45.25 32.6875 C-46.18585938 32.72166016 -47.12171875 32.75582031 -48.0859375 32.79101562 C-50.39050533 32.87332162 -52.69470119 32.9425263 -55 33 C-55.33 33.66 -55.66 34.32 -56 35 C-43.79 35 -31.58 35 -19 35 C-19 36.65 -19 38.3 -19 40 C-35.17 40 -51.34 40 -68 40 C-68 39.67 -68 39.34 -68 39 C-52.16 39 -36.32 39 -20 39 C-20 38.34 -20 37.68 -20 37 C-21.52137573 37.00785522 -21.52137573 37.00785522 -23.07348633 37.01586914 C-26.83617267 37.03396807 -30.59885515 37.04544994 -34.36157227 37.05493164 C-35.99015958 37.05996065 -37.61874237 37.06678465 -39.24731445 37.07543945 C-41.58806472 37.08756769 -43.9287553 37.09324263 -46.26953125 37.09765625 C-46.99775589 37.10281754 -47.72598053 37.10797882 -48.47627258 37.11329651 C-51.59602288 37.11364279 -54.01633188 36.99455604 -57 36 C-58.24862791 31.29872673 -58.0088532 26.86697228 -57.75 22.0625 C-57.72292969 21.27681641 -57.69585937 20.49113281 -57.66796875 19.68164062 C-57.37967721 14.12505376 -56.52104597 9.55914742 -52.44921875 5.42578125 C-38.06113503 -3.66646678 -16.19190914 -2.99028966 0 0 Z M-44.3125 13.625 C-46.30560622 15.93069181 -46.30560622 15.93069181 -45.9375 19.0625 C-44.79227872 22.67682649 -44.79227872 22.67682649 -42 25 C-39.14519831 25.42822025 -37.65507108 25.40659584 -35.1875 23.875 C-33.42155249 21.08666183 -33.53818424 19.23271032 -34 16 C-35.62580082 13.54047777 -35.62580082 13.54047777 -38 12 C-41.925598 11.61670299 -41.925598 11.61670299 -44.3125 13.625 Z " fill="#88B3D3" transform="translate(124,11)"/>
<path d="M0 0 C0.66 0 1.32 0 2 0 C1.34 2.31 0.68 4.62 0 7 C0.66 7 1.32 7 2 7 C1.9278125 7.71542969 1.855625 8.43085938 1.78125 9.16796875 C-0.36521117 23.07858302 -0.36521117 23.07858302 3 36 C3.99 36.33 4.98 36.66 6 37 C6.66 37.7425 7.32 38.485 8 39.25 C14.71311325 46.31211302 25.00266067 48.06418931 34.25 48.5625 C35.36761719 48.62727539 35.36761719 48.62727539 36.5078125 48.69335938 C38.338349 48.79896725 40.16915176 48.89994201 42 49 C42 48.01 42 47.02 42 46 C47.22512279 44.53329887 51.5814234 43.77422598 57 44 C57 43.34 57 42.68 57 42 C56.443125 41.95875 55.88625 41.9175 55.3125 41.875 C50.89027351 40.20172511 48.54165518 35.81248277 46 32 C45.66666667 30.33333333 45.33333333 28.66666667 45 27 C44.34 26.01 43.68 25.02 43 24 C43 23.34 43 22.68 43 22 C43.71027344 21.93941406 44.42054687 21.87882812 45.15234375 21.81640625 C46.53099609 21.69072266 46.53099609 21.69072266 47.9375 21.5625 C48.85402344 21.48128906 49.77054688 21.40007812 50.71484375 21.31640625 C52.96159732 21.23955024 52.96159732 21.23955024 54 20 C56.875 19.625 56.875 19.625 60 20 C61.75 22.4375 61.75 22.4375 63 25 C63.66 25.33 64.32 25.66 65 26 C64.98839844 26.68707031 64.97679687 27.37414062 64.96484375 28.08203125 C64.95582031 28.98308594 64.94679688 29.88414062 64.9375 30.8125 C64.92589844 31.70582031 64.91429687 32.59914062 64.90234375 33.51953125 C64.88990033 36.13413791 64.88990033 36.13413791 66 39 C66.66 39 67.32 39 68 39 C68 38.01 68 37.02 68 36 C68.99 36 69.98 36 71 36 C68.45295641 42.06065758 63.06170036 44.52349953 57.359375 47.2734375 C42.907084 52.72202849 25.27855001 51.79670502 10.92578125 46.58203125 C5.50294881 43.64979208 2.00936977 39.31115845 -1 34 C-1.34826762 31.26216423 -1.49503316 28.95073231 -1.42578125 26.23046875 C-1.42249313 25.50886063 -1.41920502 24.7872525 -1.41581726 24.04377747 C-1.40545213 22.53015009 -1.38559739 21.01656063 -1.35668945 19.50317383 C-1.31230013 17.177026 -1.29520181 14.85191116 -1.28320312 12.52539062 C-1.26979083 11.05206829 -1.25487112 9.57875873 -1.23828125 8.10546875 C-1.23089432 7.40761765 -1.22350739 6.70976654 -1.21589661 5.99076843 C-1.11836982 1.11836982 -1.11836982 1.11836982 0 0 Z M52.1875 25.0625 C50.30644463 28.13159034 51.24735301 30.61308855 52 34 C53.17110184 35.38908639 53.17110184 35.38908639 56.4375 35.25 C57.613125 35.1675 58.78875 35.085 60 35 C62.14762184 31.77856724 62.561068 30.7404533 62 27 C60.32683688 25.07845307 60.32683688 25.07845307 58 24 C54.22497081 23.66285367 54.22497081 23.66285367 52.1875 25.0625 Z " fill="#F4D343" transform="translate(70,120)"/>
<path d="M0 0 C0.66 0 1.32 0 2 0 C2 0.66 2 1.32 2 2 C1.01 2.66 0.02 3.32 -1 4 C-1.87234848 6.18087121 -2.14773855 7.46429763 -1.51953125 9.7421875 C-0.85683977 12.62215499 -0.90541212 15.29791469 -0.9375 18.25 C-0.94652344 19.32765625 -0.95554687 20.4053125 -0.96484375 21.515625 C-0.97644531 22.33546875 -0.98804687 23.1553125 -1 24 C-0.34 23.34 0.32 22.68 1 22 C0.34 21.67 -0.32 21.34 -1 21 C-0.34 20.34 0.32 19.68 1 19 C1.680625 19.99 1.680625 19.99 2.375 21 C6.33232033 24.0151012 10.19004145 23.33045517 15 23 C15 22.34 15 21.68 15 21 C11.7 20.67 8.4 20.34 5 20 C5 17.03 5 14.06 5 11 C6.46132217 13.92264434 7.34099246 15.92463146 8 19 C11.41656024 19.16677282 11.41656024 19.16677282 15 19 C17.18331689 17.23863645 17.18331689 17.23863645 17.1953125 15.0546875 C17.17210937 14.33539063 17.14890625 13.61609375 17.125 12.875 C17.08375 11.59625 17.0425 10.3175 17 9 C16.01 8.67 15.02 8.34 14 8 C14.33 7.34 14.66 6.68 15 6 C16.32 6 17.64 6 19 6 C19 6.66 19 7.32 19 8 C19.66 8 20.32 8 21 8 C21 13.33333333 21 18.66666667 21 24 C18.19679331 26.72641201 16.08694578 27.38823892 12.234375 27.51171875 C11.34492187 27.54716797 10.45546875 27.58261719 9.5390625 27.61914062 C8.15847656 27.65297852 8.15847656 27.65297852 6.75 27.6875 C5.34621094 27.73874023 5.34621094 27.73874023 3.9140625 27.79101562 C1.60949467 27.87332162 -0.69470119 27.9425263 -3 28 C-3.33 28.66 -3.66 29.32 -4 30 C8.21 30 20.42 30 33 30 C33 31.65 33 33.3 33 35 C16.83 35 0.66 35 -16 35 C-16 34.67 -16 34.34 -16 34 C-0.16 34 15.68 34 32 34 C32 33.34 32 32.68 32 32 C30.47862427 32.00785522 30.47862427 32.00785522 28.92651367 32.01586914 C25.16382733 32.03396807 21.40114485 32.04544994 17.63842773 32.05493164 C16.00984042 32.05996065 14.38125763 32.06678465 12.75268555 32.07543945 C10.41193528 32.08756769 8.0712447 32.09324263 5.73046875 32.09765625 C5.00224411 32.10281754 4.27401947 32.10797882 3.52372742 32.11329651 C0.40397712 32.11364279 -2.01633188 31.99455604 -5 31 C-6.24862791 26.29872673 -6.0088532 21.86697228 -5.75 17.0625 C-5.72292969 16.27681641 -5.69585937 15.49113281 -5.66796875 14.68164062 C-5.36441362 8.83086023 -4.29123046 4.29123046 0 0 Z " fill="#90BAD4" transform="translate(72,16)"/>
<path d="M0 0 C0.495 1.485 0.495 1.485 1 3 C-0.07543783 3.98783194 -1.16073217 4.96493943 -2.25 5.9375 C-2.85328125 6.48277344 -3.4565625 7.02804688 -4.078125 7.58984375 C-7.65514328 10.21444456 -11.35474939 10.13823727 -15.68652344 10.20532227 C-17.39784454 10.2352401 -17.39784454 10.2352401 -19.14373779 10.26576233 C-20.36989807 10.28247482 -21.59605835 10.29918732 -22.859375 10.31640625 C-24.74864716 10.3475779 -24.74864716 10.3475779 -26.67608643 10.37937927 C-30.01658871 10.43366302 -33.35710222 10.48392069 -36.69769287 10.53222656 C-40.10971393 10.58255704 -43.52164823 10.6381827 -46.93359375 10.69335938 C-53.62232664 10.80045114 -60.31112463 10.9022354 -67 11 C-65.63065308 11.02187378 -65.63065308 11.02187378 -64.23364258 11.04418945 C-60.83201389 11.10540795 -57.43117319 11.17958873 -54.0300293 11.26245117 C-52.56073578 11.29561259 -51.09131756 11.32367178 -49.62182617 11.34643555 C-47.50385632 11.38014519 -45.38702005 11.43246433 -43.26953125 11.48828125 C-41.99698486 11.51446533 -40.72443848 11.54064941 -39.41333008 11.56762695 C-35.81277629 12.02371599 -33.8570675 12.79603403 -31 15 C-30.4765625 17.1640625 -30.4765625 17.1640625 -30.625 19.625 C-30.67269531 20.50542969 -30.72039062 21.38585937 -30.76953125 22.29296875 C-30.84558594 23.18628906 -30.92164063 24.07960937 -31 25 C-31.04511719 25.84175781 -31.09023437 26.68351562 -31.13671875 27.55078125 C-31.58083039 33.58083039 -31.58083039 33.58083039 -35 37 C-34.67 30.07 -34.34 23.14 -34 16 C-36.55234375 16.03480469 -39.1046875 16.06960937 -41.734375 16.10546875 C-44.20994956 16.12887376 -46.68551174 16.14708493 -49.16113281 16.16479492 C-50.87993905 16.17986933 -52.59870691 16.20033229 -54.31738281 16.22631836 C-56.78980997 16.26276165 -59.261728 16.27973958 -61.734375 16.29296875 C-62.50118591 16.30845261 -63.26799683 16.32393646 -64.05804443 16.33988953 C-67.2603911 16.34089672 -69.63383174 16.18454056 -72.51660156 14.73168945 C-74 13 -74 13 -74 9 C-71.20965739 7.6048287 -68.92774028 7.88044838 -65.80615234 7.88647461 C-64.50495453 7.88655014 -63.20375671 7.88662567 -61.86312866 7.88670349 C-60.43739789 7.89181053 -59.0116675 7.89702653 -57.5859375 7.90234375 C-56.13148039 7.90420853 -54.67702266 7.90563215 -53.2225647 7.90663147 C-49.39207224 7.91045195 -45.56161763 7.92027824 -41.73114014 7.93133545 C-37.82336947 7.94155965 -33.91559269 7.94613126 -30.0078125 7.95117188 C-22.3385244 7.96190092 -14.6692675 7.97897172 -7 8 C-6.82984375 7.04480469 -6.82984375 7.04480469 -6.65625 6.0703125 C-6.4396875 5.38710937 -6.223125 4.70390625 -6 4 C-3.5 2.875 -3.5 2.875 -1 2 C-0.67 1.34 -0.34 0.68 0 0 Z " fill="#EED96C" transform="translate(176,119)"/>
<path d="M0 0 C0.91330078 0.01353516 1.82660156 0.02707031 2.76757812 0.04101562 C4.99153259 0.07594685 7.21417952 0.12498414 9.4375 0.1875 C9.4644501 3.12506119 9.48431474 6.06237555 9.5 9 C9.50837891 9.83337891 9.51675781 10.66675781 9.52539062 11.52539062 C9.53022461 12.72905273 9.53022461 12.72905273 9.53515625 13.95703125 C9.54301147 15.06461792 9.54301147 15.06461792 9.55102539 16.19458008 C9.4375 18.1875 9.4375 18.1875 8.4375 21.1875 C7.4475 21.1875 6.4575 21.1875 5.4375 21.1875 C5.4375 22.1775 5.4375 23.1675 5.4375 24.1875 C4.7775 24.1875 4.1175 24.1875 3.4375 24.1875 C1.5296416 21.0125906 1.2765959 19.08164789 1.8125 15.4375 C1.97878906 14.23867187 1.97878906 14.23867187 2.1484375 13.015625 C2.24382812 12.41234375 2.33921875 11.8090625 2.4375 11.1875 C1.4475 10.8575 0.4575 10.5275 -0.5625 10.1875 C-1.75 7.625 -1.75 7.625 -2.5625 5.1875 C-4.0784375 5.6825 -4.0784375 5.6825 -5.625 6.1875 C-9.31729911 7.25751321 -12.71498207 7.34454155 -16.5625 7.1875 C-16.8925 6.5275 -17.2225 5.8675 -17.5625 5.1875 C-18.2225 5.1875 -18.8825 5.1875 -19.5625 5.1875 C-19.5625 4.5275 -19.5625 3.8675 -19.5625 3.1875 C-12.90040346 0.47806413 -7.15251924 -0.20465756 0 0 Z " fill="#F7D23F" transform="translate(132.5625,134.8125)"/>
<path d="M0 0 C3.18742115 -0.05865035 6.37470118 -0.09381259 9.5625 -0.125 C10.45775391 -0.14175781 11.35300781 -0.15851562 12.27539062 -0.17578125 C17.57348975 -0.21459516 22.07135989 -0.03834924 27 2 C36.46128757 11.63722061 36.47311481 26.86795541 36.42626953 39.45507812 C36.22369694 47.94356809 35.81870344 57.78409566 29.859375 64.36328125 C29.24578125 64.90339844 28.6321875 65.44351563 28 66 C28 64.68 28 63.36 28 62 C28.66 62 29.32 62 30 62 C30.33 59.69 30.66 57.38 31 55 C31.66 55 32.32 55 33 55 C34.50653199 44.26595957 35.8645926 33.14271606 30.97265625 23.1484375 C29.90177797 20.78304372 29.42563614 18.55381683 29 16 C28.34 16 27.68 16 27 16 C26.92265625 15.11248047 26.92265625 15.11248047 26.84375 14.20703125 C26.3434176 10.7217612 25.86190239 7.96550702 23.47265625 5.2890625 C18.0082556 1.42263586 12.50665162 1.26419125 6 2 C5.01 2.33 4.02 2.66 3 3 C2.96261719 4.22976562 2.92523438 5.45953125 2.88671875 6.7265625 C2.82102972 8.35940401 2.75458341 9.99221518 2.6875 11.625 C2.66494141 12.43324219 2.64238281 13.24148437 2.61914062 14.07421875 C2.39493145 19.08835125 1.65538135 22.60046736 -1 27 C-1.33 27 -1.66 27 -2 27 C-2.042721 25.33388095 -2.04063832 23.66617115 -2 22 C-1.67 21.67 -1.34 21.34 -1 21 C-0.84313751 19.44051458 -0.74923361 17.87457332 -0.68359375 16.30859375 C-0.62075195 14.89223633 -0.62075195 14.89223633 -0.55664062 13.44726562 C-0.51732422 12.45404297 -0.47800781 11.46082031 -0.4375 10.4375 C-0.37272461 8.94186523 -0.37272461 8.94186523 -0.30664062 7.41601562 C-0.20019702 4.9441585 -0.09818072 2.4721969 0 0 Z " fill="#F3E581" transform="translate(149,53)"/>
<path d="M0 0 C1.77127007 0.00022659 1.77127007 0.00022659 3.57832336 0.00045776 C4.84306992 0.01078033 6.10781647 0.02110291 7.41088867 0.03173828 C9.36462654 0.03598312 9.36462654 0.03598312 11.35783386 0.04031372 C14.80858127 0.04792381 18.2591584 0.06754943 21.70983887 0.08972168 C25.23581642 0.1102369 28.76182167 0.11932754 32.2878418 0.12939453 C39.19741663 0.15079806 46.10687883 0.18490204 53.01635742 0.22705078 C53.01635742 0.55705078 53.01635742 0.88705078 53.01635742 1.22705078 C44.60135742 1.72205078 44.60135742 1.72205078 36.01635742 2.22705078 C36.01635742 2.88705078 36.01635742 3.54705078 36.01635742 4.22705078 C34.93741211 4.21134033 33.8584668 4.19562988 32.74682617 4.17944336 C28.71386283 4.12482179 24.68093169 4.09058438 20.64770508 4.06225586 C18.90774014 4.04724224 17.16781258 4.02682501 15.42797852 4.00073242 C12.91567722 3.96401971 10.40387962 3.94725009 7.89135742 3.93408203 C6.7392981 3.91085625 6.7392981 3.91085625 5.56396484 3.88716125 C-1.04310748 3.88513857 -6.63250917 5.09462745 -11.67114258 9.66455078 C-12.81583008 10.93298828 -12.81583008 10.93298828 -13.98364258 12.22705078 C-18.63229123 16.22705078 -18.63229123 16.22705078 -20.98364258 16.22705078 C-21.31364258 17.87705078 -21.64364258 19.52705078 -21.98364258 21.22705078 C-23.21459315 17.53419907 -22.65727819 16.81935323 -20.98364258 13.41455078 C-16.41243992 4.71656794 -9.98904799 -0.04277965 0 0 Z " fill="#5D89AB" transform="translate(51.983642578125,50.77294921875)"/>
<path d="M0 0 C0.66 0 1.32 0 2 0 C1.34 2.31 0.68 4.62 0 7 C0.66 7 1.32 7 2 7 C1.9278125 7.71542969 1.855625 8.43085938 1.78125 9.16796875 C-0.36521117 23.07858302 -0.36521117 23.07858302 3 36 C3.99 36.33 4.98 36.66 6 37 C6.66 37.7425 7.32 38.485 8 39.25 C14.71311325 46.31211302 25.00266067 48.06418931 34.25 48.5625 C35.36761719 48.62727539 35.36761719 48.62727539 36.5078125 48.69335938 C38.338349 48.79896725 40.16915176 48.89994201 42 49 C42 48.34 42 47.68 42 47 C47.36095333 45.87137825 52.55306686 45.90311779 58 46 C48.13758292 52.57494472 31.74515969 51.46951567 20.50683594 49.58105469 C11.89754525 47.55201766 6.41459011 44.32032527 0.87939453 37.31689453 C-1.29830482 33.47352958 -1.53500986 30.5210452 -1.42578125 26.23046875 C-1.42249313 25.50886063 -1.41920502 24.7872525 -1.41581726 24.04377747 C-1.40545213 22.53015009 -1.38559739 21.01656063 -1.35668945 19.50317383 C-1.31230013 17.177026 -1.29520181 14.85191116 -1.28320312 12.52539062 C-1.26979083 11.05206829 -1.25487112 9.57875873 -1.23828125 8.10546875 C-1.23089432 7.40761765 -1.22350739 6.70976654 -1.21589661 5.99076843 C-1.11836982 1.11836982 -1.11836982 1.11836982 0 0 Z " fill="#EED668" transform="translate(70,120)"/>
<path d="M0 0 C1.51030289 0.01061211 1.51030289 0.01061211 3.05111694 0.0214386 C6.23018414 0.04916634 9.40741327 0.11186344 12.5859375 0.17578125 C14.75648477 0.20089207 16.92705997 0.22370033 19.09765625 0.24414062 C24.38603141 0.2989212 29.6733531 0.38232582 34.9609375 0.48828125 C34.9609375 0.81828125 34.9609375 1.14828125 34.9609375 1.48828125 C27.7009375 1.81828125 20.4409375 2.14828125 12.9609375 2.48828125 C16.69015276 2.51528281 20.41917193 2.53512147 24.1484375 2.55078125 C25.20353516 2.55916016 26.25863281 2.56753906 27.34570312 2.57617188 C28.36728516 2.57939453 29.38886719 2.58261719 30.44140625 2.5859375 C31.37879639 2.59117432 32.31618652 2.59641113 33.28198242 2.60180664 C35.94143227 2.48910782 38.37014323 2.08204774 40.9609375 1.48828125 C38.46678328 4.21997397 36.60591459 5.37783846 32.80482483 5.63304138 C31.97083664 5.64255325 31.13684845 5.65206512 30.27758789 5.66186523 C29.32972916 5.67535507 28.38187042 5.68884491 27.4052887 5.70274353 C26.38337936 5.71318192 25.36147003 5.7236203 24.30859375 5.734375 C22.14908439 5.7673068 19.98957928 5.80051856 17.83007812 5.83398438 C14.42198551 5.88144537 11.01391097 5.92589081 7.60571289 5.96508789 C4.3189921 6.00476709 1.03262191 6.05631501 -2.25390625 6.109375 C-3.7837339 6.12199623 -3.7837339 6.12199623 -5.34446716 6.13487244 C-6.77098351 6.15983543 -6.77098351 6.15983543 -8.22631836 6.18530273 C-9.47849403 6.20076393 -9.47849403 6.20076393 -10.75596619 6.21653748 C-15.45516165 6.77585558 -18.48661314 9.52790678 -22.0390625 12.48828125 C-21.0390625 10.48828125 -20.0390625 8.48828125 -19.0390625 6.48828125 C-19.6990625 6.15828125 -20.3590625 5.82828125 -21.0390625 5.48828125 C-13.86721575 1.19737299 -8.30704091 -0.22457502 0 0 Z M-16.0390625 3.48828125 C-16.0390625 3.81828125 -16.0390625 4.14828125 -16.0390625 4.48828125 C-13.01816772 4.51544214 -9.99752121 4.53519782 -6.9765625 4.55078125 C-6.12900391 4.55916016 -5.28144531 4.56753906 -4.40820312 4.57617188 C0.4971097 4.59511131 5.12538505 4.3215447 9.9609375 3.48828125 C3.16327433 -1.0434942 -8.55978881 1.04606943 -16.0390625 3.48828125 Z " fill="#DFE3DF" transform="translate(93.0390625,86.51171875)"/>
<path d="M0 0 C0.66 0.99 1.32 1.98 2 3 C-5.92 2.67 -13.84 2.34 -22 2 C-21.92127197 8.64103854 -21.92127197 8.64103854 -21.81982422 15.28173828 C-21.79014093 20.25991345 -22.00694776 24.33908255 -24 29 C-24.99 29 -25.98 29 -27 29 C-27.2475 29.5775 -27.495 30.155 -27.75 30.75 C-29.2127149 33.38288682 -30.63826769 35.12450669 -33 37 C-35.25 36.75 -35.25 36.75 -37 36 C-36.4225 35.7525 -35.845 35.505 -35.25 35.25 C-30.06583555 32.36990864 -28.38209247 29.02667823 -26.63110352 23.57397461 C-25.36345569 18.40383496 -25.52594465 13.14028637 -25.47265625 7.84570312 C-25.45074219 6.99041016 -25.42882812 6.13511719 -25.40625 5.25390625 C-25.39916016 4.48377197 -25.39207031 3.7136377 -25.38476562 2.92016602 C-25 1 -25 1 -22 -1 C-14.78008926 -2.5122786 -7.01114267 -2.42360488 0 0 Z " fill="#F3EEB4" transform="translate(171,51)"/>
<path d="M0 0 C0.66 0 1.32 0 2 0 C1.649375 0.7425 1.29875 1.485 0.9375 2.25 C-0.04509293 5.1322726 -0.0326802 6.21176345 1 9 C2.32 8.67 3.64 8.34 5 8 C4.34 11.96 3.68 15.92 3 20 C6.3 20.33 9.6 20.66 13 21 C13 21.66 13 22.32 13 23 C13.66 23.33 14.32 23.66 15 24 C12.89611431 24.05402274 10.79183286 24.09280256 8.6875 24.125 C7.51574219 24.14820312 6.34398438 24.17140625 5.13671875 24.1953125 C2 24 2 24 -1 22 C-1.66 23.32 -2.32 24.64 -3 26 C-4.90449151 22.19101698 -4.00674347 17.47005846 -3.9375 13.28515625 C-3.83685096 9.99257189 -3.83685096 9.99257189 -5 7 C-3.6875 4.3125 -3.6875 4.3125 -2 2 C-1.34 2 -0.68 2 0 2 C0 1.34 0 0.68 0 0 Z " fill="#4480AE" transform="translate(74,16)"/>
<path d="M0 0 C8.57142857 0.85714286 8.57142857 0.85714286 12 3 C12 4.32 12 5.64 12 7 C-4.5 7 -21 7 -38 7 C-38 6.67 -38 6.34 -38 6 C-37.19780029 5.97494385 -36.39560059 5.9498877 -35.5690918 5.92407227 C-31.94172926 5.80817957 -28.31463083 5.68542249 -24.6875 5.5625 C-23.42486328 5.52318359 -22.16222656 5.48386719 -20.86132812 5.44335938 C-19.65283203 5.40146484 -18.44433594 5.35957031 -17.19921875 5.31640625 C-16.08377686 5.27974854 -14.96833496 5.24309082 -13.8190918 5.20532227 C-10.92126429 5.11068791 -10.92126429 5.11068791 -8 4 C-8 3.34 -8 2.68 -8 2 C-2.25 0.875 -2.25 0.875 0 2 C0 1.34 0 0.68 0 0 Z " fill="#2B608C" transform="translate(120,80)"/>
<path d="M0 0 C0.99 0.33 1.98 0.66 3 1 C3.66 0.67 4.32 0.34 5 0 C6.67864751 3.35729502 6.20637424 7.14582953 6.23828125 10.83984375 C6.246353 11.71774063 6.25442474 12.59563751 6.26274109 13.50013733 C6.2765808 15.35871403 6.28730346 17.21731614 6.29516602 19.07592773 C6.31241125 21.92284941 6.35630098 24.76861948 6.40039062 27.61523438 C6.41051464 29.41926228 6.41903166 31.22330006 6.42578125 33.02734375 C6.44328934 33.88053696 6.46079742 34.73373016 6.47883606 35.61277771 C6.45701813 41.53527405 6.45701813 41.53527405 3.97338867 44.06079102 C3.32217041 44.37072998 2.67095215 44.68066895 2 45 C2.01160156 44.26394531 2.02320313 43.52789062 2.03515625 42.76953125 C2.04417969 41.79371094 2.05320313 40.81789062 2.0625 39.8125 C2.07410156 38.84957031 2.08570313 37.88664062 2.09765625 36.89453125 C2.00486622 34.14423487 1.62111685 31.67520409 1 29 C1.66 28.67 2.32 28.34 3 28 C3 20.41 3 12.82 3 5 C2.34 5 1.68 5 1 5 C0.67 3.35 0.34 1.7 0 0 Z " fill="#35648A" transform="translate(137,27)"/>
<path d="M0 0 C20.13 0 40.26 0 61 0 C61 0.33 61 0.66 61 1 C32.785 1.495 32.785 1.495 4 2 C14.06677654 2.2494835 14.06677654 2.2494835 24.1340332 2.47802734 C25.38531006 2.5136377 26.63658691 2.54924805 27.92578125 2.5859375 C29.85031128 2.63306885 29.85031128 2.63306885 31.8137207 2.68115234 C35 3 35 3 38 5 C25.79 5 13.58 5 1 5 C0.67 3.35 0.34 1.7 0 0 Z " fill="#FAF1BD" transform="translate(105,128)"/>
<path d="M0 0 C1.1442041 0.01087646 1.1442041 0.01087646 2.31152344 0.02197266 C12.35306384 0.15854501 18.16604821 1.5285946 25.5 8.3125 C25.995 8.869375 26.49 9.42625 27 10 C26.67 10.66 26.34 11.32 26 12 C22.23312136 12 21.08809695 11.76462683 18 10 C18 7 18 7 20 5 C19.07316406 4.93941406 18.14632812 4.87882813 17.19140625 4.81640625 C15.99386719 4.73261719 14.79632813 4.64882812 13.5625 4.5625 C12.36753906 4.48128906 11.17257813 4.40007813 9.94140625 4.31640625 C7 4 7 4 6 3 C3.65863545 2.95122157 1.34020609 2.9583281 -1 3 C-9.69919276 3.08770955 -18.32474912 2.60125501 -27 2 C-27 1.67 -27 1.34 -27 1 C-18.16682818 -0.82755279 -8.97137939 -0.14105942 0 0 Z " fill="#537E9D" transform="translate(114,11)"/>
<path d="M0 0 C4.08929084 1.48701485 5.24196318 3.67477338 7.125 7.5 C7.87136719 8.96953125 7.87136719 8.96953125 8.6328125 10.46875 C11.76232514 18.55183407 12.38948402 26.64287007 12.375 35.25 C12.37338867 36.25200439 12.37177734 37.25400879 12.37011719 38.28637695 C12.22954782 46.83836903 11.87183327 56.72543954 5.859375 63.36328125 C5.24578125 63.90339844 4.6321875 64.44351563 4 65 C4 63.68 4 62.36 4 61 C4.66 61 5.32 61 6 61 C6.33 58.69 6.66 56.38 7 54 C7.66 54 8.32 54 9 54 C11.19951672 38.72093563 11.19951672 38.72093563 7.734375 24.05078125 C6.1416037 19.60288268 6.22643934 14.68495188 6 10 C5.34 10 4.68 10 4 10 C3.566875 8.2984375 3.566875 8.2984375 3.125 6.5625 C2.75375 5.386875 2.3825 4.21125 2 3 C1.34 2.67 0.68 2.34 0 2 C0 1.34 0 0.68 0 0 Z " fill="#FBF1C2" transform="translate(173,54)"/>
<path d="M0 0 C0.66 0.33 1.32 0.66 2 1 C2.66 1 3.32 1 4 1 C4.99 1.66 5.98 2.32 7 3 C5.783125 3.391875 4.56625 3.78375 3.3125 4.1875 C-0.76904616 5.71089399 -3.0629578 7.74543972 -6 11 C-10.64864865 15 -10.64864865 15 -13 15 C-13.33 16.65 -13.66 18.3 -14 20 C-15.23095057 16.30714829 -14.67363561 15.59230245 -13 12.1875 C-9.98606132 6.42902498 -6.26521628 2.08840543 0 0 Z " fill="#4C88B0" transform="translate(44,52)"/>
<path d="M0 0 C0.886875 0.12375 1.77375 0.2475 2.6875 0.375 C5.5227113 5.9272888 6.06702295 10.17612515 5.6875 16.375 C2.06421381 17.58276206 -0.50861527 17.77540892 -4.3125 17.375 C-7.20826216 14.8504894 -8.15397642 13.20284534 -8.875 9.4375 C-7.90528402 4.1579352 -5.48751934 0.6212286 0 0 Z M-5.125 5.4375 C-7.00605537 8.50659034 -6.06514699 10.98808855 -5.3125 14.375 C-4.14139816 15.76408639 -4.14139816 15.76408639 -0.875 15.625 C0.300625 15.5425 1.47625 15.46 2.6875 15.375 C4.83512184 12.15356724 5.248568 11.1154533 4.6875 7.375 C3.01433688 5.45345307 3.01433688 5.45345307 0.6875 4.375 C-3.08752919 4.03785367 -3.08752919 4.03785367 -5.125 5.4375 Z " fill="#F5E085" transform="translate(127.3125,139.625)"/>
<path d="M0 0 C5.25105442 -0.02464928 10.50207545 -0.04283568 15.75317383 -0.05493164 C17.54094021 -0.05997218 19.32870245 -0.06680454 21.11645508 -0.07543945 C23.68051168 -0.0875173 26.24451397 -0.09323094 28.80859375 -0.09765625 C29.6127623 -0.10281754 30.41693085 -0.10797882 31.24546814 -0.11329651 C33.16401715 -0.11349215 35.08245368 -0.06201983 37 0 C38 1 38 1 38.1328125 2.96875 C38.08359133 18.91640867 38.08359133 18.91640867 34 23 C34.33 16.07 34.66 9.14 35 2 C23.45 1.67 11.9 1.34 0 1 C0 0.67 0 0.34 0 0 Z " fill="#F0DF8D" transform="translate(107,133)"/>
<path d="M0 0 C0.33 0 0.66 0 1 0 C1.09944869 5.81660061 1.1717413 11.63269792 1.21972656 17.44995117 C1.23974646 19.4256249 1.26697092 21.40124009 1.30175781 23.37670898 C1.35070207 26.2291515 1.37306525 29.08080549 1.390625 31.93359375 C1.41127014 32.80584091 1.43191528 33.67808807 1.45318604 34.57676697 C1.45544542 40.85999878 -0.05026745 45.46932986 -3 51 C-4.32 51 -5.64 51 -7 51 C-7 48.36 -7 45.72 -7 43 C-5.68 43 -4.36 43 -3 43 C-2.67 42.01 -2.34 41.02 -2 40 C-1.34 40 -0.68 40 0 40 C0 26.8 0 13.6 0 0 Z " fill="#7CA3BF" transform="translate(143,29)"/>
<path d="M0 0 C4.597107 1.451718 9.00448689 3.21504652 13.4375 5.09765625 C18.92893792 7.03137905 24.61247872 7.24467559 30.375 7.5625 C31.11105469 7.60568359 31.84710938 7.64886719 32.60546875 7.69335938 C34.40348068 7.79843799 36.20171958 7.89962093 38 8 C38 7.34 38 6.68 38 6 C43.36095333 4.87137825 48.55306686 4.90311779 54 5 C44.15761072 11.56159285 27.70251944 10.50884312 16.49072266 8.56494141 C10.05791264 7.00728938 4.47745994 5.08604672 0 0 Z " fill="#F9EAAB" transform="translate(74,161)"/>
<path d="M0 0 C0.99 0.33 1.98 0.66 3 1 C2.98839844 1.68707031 2.97679687 2.37414062 2.96484375 3.08203125 C2.95582031 3.98308594 2.94679687 4.88414062 2.9375 5.8125 C2.92589844 6.70582031 2.91429687 7.59914062 2.90234375 8.51953125 C2.88990033 11.13413791 2.88990033 11.13413791 4 14 C4.66 14 5.32 14 6 14 C6 13.01 6 12.02 6 11 C6.99 11 7.98 11 9 11 C7.54845769 14.62885578 5.7599362 16.15432673 2.5 18.25 C1.7059375 18.77078125 0.911875 19.2915625 0.09375 19.828125 C-2 21 -2 21 -4 21 C-3.625 19.0625 -3.625 19.0625 -3 17 C-2.34 16.67 -1.68 16.34 -1 16 C-0.67 15.01 -0.34 14.02 0 13 C-2.64 13 -5.28 13 -8 13 C-8 12.67 -8 12.34 -8 12 C-3.545 11.505 -3.545 11.505 1 11 C0.67 7.37 0.34 3.74 0 0 Z " fill="#F3D460" transform="translate(132,145)"/>
<path d="M0 0 C-0.99 0.680625 -0.99 0.680625 -2 1.375 C-2.99 2.179375 -2.99 2.179375 -4 3 C-4 3.66 -4 4.32 -4 5 C-3.34 5.33 -2.68 5.66 -2 6 C-2 6.99 -2 7.98 -2 9 C-0.68 9.33 0.64 9.66 2 10 C0.02 10.33 -1.96 10.66 -4 11 C-4.33 11.99 -4.66 12.98 -5 14 C-5.66 13.34 -6.32 12.68 -7 12 C-7.66 12 -8.32 12 -9 12 C-9.33 12.66 -9.66 13.32 -10 14 C-10.94693195 10.2983569 -11.30443767 8.60887535 -9.5625 5.125 C-9.046875 4.42375 -8.53125 3.7225 -8 3 C-8.66 2.67 -9.32 2.34 -10 2 C-3.375 -1.125 -3.375 -1.125 0 0 Z " fill="#679DC1" transform="translate(84,13)"/>
<path d="M0 0 C4.12032633 4.12032633 3.18408356 9.67155362 3.18945312 15.19750977 C3.1335789 20.41349519 2.40488136 24.99511016 1 30 C0.34 30 -0.32 30 -1 30 C-1.15723924 19.95415947 -0.67192387 10.0188648 0 0 Z " fill="#EDDA69" transform="translate(181,78)"/>
<path d="M0 0 C0.66 0 1.32 0 2 0 C2 0.66 2 1.32 2 2 C2.99 1.67 3.98 1.34 5 1 C3.79618552 3.49361571 2.54571278 5.68143083 1 8 C-2.0135208 8.25389744 -4.80401057 8.32639138 -7.8125 8.25 C-8.66239502 8.23904297 -9.51229004 8.22808594 -10.38793945 8.21679688 C-17.2840884 8.09712401 -24.13638762 7.69005798 -31 7 C-31 6.67 -31 6.34 -31 6 C-16.15 5.505 -16.15 5.505 -1 5 C-0.67 3.35 -0.34 1.7 0 0 Z " fill="#3F7199" transform="translate(106,46)"/>
<path d="M0 0 C0.33 0 0.66 0 1 0 C0.97679688 0.95519531 0.95359375 1.91039063 0.9296875 2.89453125 C0.84440506 9.00440913 0.76439078 14.74733388 2.0625 20.75 C3.25990106 26.31833361 2.80192164 31.39738528 2 37 C1.67 37 1.34 37 1 37 C-0.7297888 29.81525116 -1.28329675 23.06385013 -1.1875 15.6875 C-1.18685547 14.72521484 -1.18621094 13.76292969 -1.18554688 12.77148438 C-1.15804898 8.35654417 -0.9660506 4.32337757 0 0 Z " fill="#759DB7" transform="translate(28,73)"/>
<path d="M0 0 C0.33 0 0.66 0 1 0 C0.67 7.92 0.34 15.84 0 24 C-3.63 24 -7.26 24 -11 24 C-11 23.67 -11 23.34 -11 23 C-9.576875 22.6596875 -9.576875 22.6596875 -8.125 22.3125 C-4.88530771 21.34329537 -4.88530771 21.34329537 -3.87109375 18.83203125 C-2.90176237 15.68061757 -2.38424061 12.64108682 -1.9375 9.375 C-1.48178921 6.08333694 -1.05143047 3.15429141 0 0 Z " fill="#356990" transform="translate(62,104)"/>
<path d="M0 0 C0.66 0 1.32 0 2 0 C1.67 1.32 1.34 2.64 1 4 C1.66 4 2.32 4 3 4 C3 8.29 3 12.58 3 17 C5.31 17.33 7.62 17.66 10 18 C10 18.33 10 18.66 10 19 C5.38 19 0.76 19 -4 19 C-2.68 17.35 -1.36 15.7 0 14 C-0.28566879 11.64934822 -0.28566879 11.64934822 -1 9 C-0.81660778 5.97912255 -0.42422946 2.99571267 0 0 Z " fill="#3D7EB2" transform="translate(93,24)"/>
<path d="M0 0 C0 1.32 0 2.64 0 4 C0.56847656 3.91621094 1.13695313 3.83242187 1.72265625 3.74609375 C6.76635545 3.08089803 11.00294069 3.0431163 16 4 C16 4.66 16 5.32 16 6 C6.52395508 6.42324766 -1.39840919 6.63162582 -10 2 C-6.69339874 0.89779958 -3.50201629 0 0 0 Z " fill="#EFD14C" transform="translate(96,163)"/>
<path d="M0 0 C0.66 0 1.32 0 2 0 C1.85848172 2.0836309 1.71162064 4.16689938 1.5625 6.25 C1.48128906 7.41015625 1.40007813 8.5703125 1.31640625 9.765625 C1.06571522 12.32824447 0.62877492 14.52681866 0 17 C-0.06456879 18.41534778 -0.08611039 19.83337689 -0.0625 21.25 C-0.041875 22.4875 -0.02125 23.725 0 25 C-0.66 25.33 -1.32 25.66 -2 26 C-3.13903249 21.61515313 -2.98887454 17.47520557 -2.6875 13 C-2.65205078 12.30132812 -2.61660156 11.60265625 -2.58007812 10.8828125 C-2.32767587 6.88958284 -1.73015294 3.61566655 0 0 Z " fill="#4F84AB" transform="translate(31,67)"/>
<path d="M0 0 C1.03930664 0.01353516 1.03930664 0.01353516 2.09960938 0.02734375 C3.79572395 0.05073843 5.49165871 0.08660359 7.1875 0.125 C7.1875 0.455 7.1875 0.785 7.1875 1.125 C6.51203125 1.17398438 5.8365625 1.22296875 5.140625 1.2734375 C4.24859375 1.34820312 3.3565625 1.42296875 2.4375 1.5 C1.11492187 1.60441406 1.11492187 1.60441406 -0.234375 1.7109375 C-2.82878622 2.12761567 -4.51525858 2.89980458 -6.8125 4.125 C-8.80360401 4.50790462 -10.80350513 4.85104615 -12.8125 5.125 C-12.874375 5.7025 -12.93625 6.28 -13 6.875 C-14.13277301 10.01190987 -16.15447595 11.21667504 -18.8125 13.125 C-17.55670769 8.62507755 -16.0859182 5.49194443 -12.8125 2.125 C-8.60388633 -0.09408721 -4.64870727 -0.11566162 0 0 Z " fill="#F3E698" transform="translate(87.8125,91.875)"/>
<path d="M0 0 C0.99 0.33 1.98 0.66 3 1 C2.34 2.32 1.68 3.64 1 5 C0.34 5 -0.32 5 -1 5 C-1 5.66 -1 6.32 -1 7 C-6.55999986 10.87515142 -12.14883099 13.50130505 -19 13 C-16.21549237 11.14366158 -13.70423031 10.01543711 -10.625 8.75 C-5.6471911 6.54130333 -3.02630954 4.48728656 0 0 Z " fill="#F0E28E" transform="translate(144,80)"/>
<path d="M0 0 C0.66 0 1.32 0 2 0 C1.62875 0.7425 1.2575 1.485 0.875 2.25 C-0.20175136 5.63407571 0.44944878 5.99010645 2 9 C1.625 12.25 1.625 12.25 1 15 C0.01 15 -0.98 15 -2 15 C-2.33 15.99 -2.66 16.98 -3 18 C-2.67 15.03 -2.34 12.06 -2 9 C-2.66 8.67 -3.32 8.34 -4 8 C-4.33 8.66 -4.66 9.32 -5 10 C-4.75 7.125 -4.75 7.125 -4 4 C-1.9375 2.625 -1.9375 2.625 0 2 C0 1.34 0 0.68 0 0 Z " fill="#468CC2" transform="translate(74,16)"/>
<path d="M0 0 C0.66 0 1.32 0 2 0 C2.0269501 2.93756119 2.04681474 5.87487555 2.0625 8.8125 C2.07087891 9.64587891 2.07925781 10.47925781 2.08789062 11.33789062 C2.09111328 12.14033203 2.09433594 12.94277344 2.09765625 13.76953125 C2.10289307 14.50792236 2.10812988 15.24631348 2.11352539 16.00708008 C2 18 2 18 1 21 C0.01 21 -0.98 21 -2 21 C-2 21.99 -2 22.98 -2 24 C-2.66 24 -3.32 24 -4 24 C-3.67 22.35 -3.34 20.7 -3 19 C-2.34 19 -1.68 19 -1 19 C-1.33 17.02 -1.66 15.04 -2 13 C-1.01 13 -0.02 13 1 13 C0.67 8.71 0.34 4.42 0 0 Z " fill="#ECD14D" transform="translate(140,135)"/>
<path d="M0 0 C0.66 0 1.32 0 2 0 C1.34 2.31 0.68 4.62 0 7 C0.66 7 1.32 7 2 7 C1.34 14.59 0.68 22.18 0 30 C-0.33 30 -0.66 30 -1 30 C-1.02465746 25.8882744 -1.04283959 21.77657722 -1.05493164 17.66479492 C-1.0599708 16.26504772 -1.06680216 14.8653058 -1.07543945 13.46557617 C-1.0875232 11.45754223 -1.09269807 9.44947043 -1.09765625 7.44140625 C-1.10289307 6.23170166 -1.10812988 5.02199707 -1.11352539 3.77563477 C-1 1 -1 1 0 0 Z " fill="#F5E371" transform="translate(70,120)"/>
<path d="M0 0 C6.38335823 0.75098332 10.73411164 4.40596638 15 9 C14.67 9.66 14.34 10.32 14 11 C10.23312136 11 9.08809695 10.76462683 6 9 C6 6 6 6 8 4 C7.05125 3.71125 6.1025 3.4225 5.125 3.125 C2 2 2 2 0 0 Z " fill="#759BB7" transform="translate(126,12)"/>
<path d="M0 0 C-0.61488281 0.76183594 -0.61488281 0.76183594 -1.2421875 1.5390625 C-4.39286344 5.5640887 -6.73796061 8.95184246 -8 14 C-8.66 14 -9.32 14 -10 14 C-10.75 11.8125 -10.75 11.8125 -11 9 C-9.125 6.4375 -9.125 6.4375 -7 4 C-6.7215625 2.88625 -6.7215625 2.88625 -6.4375 1.75 C-6.293125 1.1725 -6.14875 0.595 -6 0 C-3 -1 -3 -1 0 0 Z " fill="#5E89A8" transform="translate(73,92)"/>
<path d="M0 0 C1.32 0 2.64 0 4 0 C4 0.66 4 1.32 4 2 C4.66 2 5.32 2 6 2 C6.02712066 3.43739513 6.04645067 4.87493863 6.0625 6.3125 C6.07410156 7.11300781 6.08570312 7.91351563 6.09765625 8.73828125 C6 11 6 11 5 14 C2.9375 14.6875 2.9375 14.6875 1 15 C1.33 14.34 1.66 13.68 2 13 C2.06996014 11.29297265 2.08440154 9.58331997 2.0625 7.875 C2.05347656 6.96492188 2.04445313 6.05484375 2.03515625 5.1171875 C2.02355469 4.41851562 2.01195313 3.71984375 2 3 C1.01 2.67 0.02 2.34 -1 2 C-0.67 1.34 -0.34 0.68 0 0 Z " fill="#517D9E" transform="translate(87,22)"/>
<path d="M0 0 C3.88508627 1.47365341 5.14017966 3.34117089 7 7 C7.6953125 10.12109375 7.6953125 10.12109375 8.125 13.4375 C8.34542969 15.07525391 8.34542969 15.07525391 8.5703125 16.74609375 C8.71210938 17.81988281 8.85390625 18.89367187 9 20 C9.32552416 22.00128587 9.65640726 24.00173697 10 26 C6.98656045 22.67148232 6.55332456 20.18117187 6.3125 15.75 C6.24675781 14.67234375 6.18101562 13.5946875 6.11328125 12.484375 C6.05720703 11.25460938 6.05720703 11.25460938 6 10 C5.34 10 4.68 10 4 10 C3.566875 8.2984375 3.566875 8.2984375 3.125 6.5625 C2.75375 5.386875 2.3825 4.21125 2 3 C1.34 2.67 0.68 2.34 0 2 C0 1.34 0 0.68 0 0 Z " fill="#F0E692" transform="translate(173,54)"/>
<path d="M0 0 C0.33 0 0.66 0 1 0 C1.02705729 1.77074917 1.04642195 3.54161711 1.0625 5.3125 C1.07410156 6.29863281 1.08570313 7.28476563 1.09765625 8.30078125 C1 11 1 11 0 14 C-0.66 14 -1.32 14 -2 14 C-2.33 15.98 -2.66 17.96 -3 20 C-4.32 20.33 -5.64 20.66 -7 21 C-7.33 20.34 -7.66 19.68 -8 19 C-7.01 18.67 -6.02 18.34 -5 18 C-4.29508733 15.67793475 -3.62787571 13.34406932 -3 11 C-2.34 10.67 -1.68 10.34 -1 10 C-1.01160156 9.36191406 -1.02320313 8.72382812 -1.03515625 8.06640625 C-1.04417969 7.24011719 -1.05320313 6.41382812 -1.0625 5.5625 C-1.07410156 4.73878906 -1.08570313 3.91507812 -1.09765625 3.06640625 C-1 1 -1 1 0 0 Z " fill="#EED34D" transform="translate(179,101)"/>
<path d="M0 0 C0.33 0 0.66 0 1 0 C1 2.97 1 5.94 1 9 C-2.55353929 10.1845131 -5.27013478 10.26641894 -9 10 C-10.9375 8.8125 -10.9375 8.8125 -12 7 C-12.1875 4.3125 -12.1875 4.3125 -12 2 C-10 5 -10 5 -9 7 C-6.69 7 -4.38 7 -2 7 C-1.34 4.69 -0.68 2.38 0 0 Z " fill="#FBEDAD" transform="translate(132,147)"/>
<path d="M0 0 C0.92232422 0.06123047 1.84464844 0.12246094 2.79492188 0.18554688 C5.05231627 0.33759935 7.30737794 0.5052389 9.5625 0.6875 C9.5625 1.0175 9.5625 1.3475 9.5625 1.6875 C5.16828518 2.25712044 0.87339216 2.75546742 -3.5625 2.625 C-7.48040827 2.51537826 -7.48040827 2.51537826 -11.25 3.8125 C-12.301875 4.10125 -13.35375 4.39 -14.4375 4.6875 C-15.4275 4.0275 -16.4175 3.3675 -17.4375 2.6875 C-11.39533384 -0.53664628 -6.74130056 -0.54842834 0 0 Z " fill="#578CB3" transform="translate(94.4375,12.3125)"/>
<path d="M0 0 C1.26650391 0.00966797 1.26650391 0.00966797 2.55859375 0.01953125 C3.43128906 0.03628906 4.30398437 0.05304688 5.203125 0.0703125 C6.53537109 0.08384766 6.53537109 0.08384766 7.89453125 0.09765625 C10.08100558 0.12116673 12.26692594 0.15402751 14.453125 0.1953125 C14.453125 0.5253125 14.453125 0.8553125 14.453125 1.1953125 C13.27234375 1.24429688 12.0915625 1.29328125 10.875 1.34375 C9.31768563 1.41880129 7.76039509 1.49434811 6.203125 1.5703125 C5.42582031 1.60125 4.64851563 1.6321875 3.84765625 1.6640625 C-0.14656664 1.86889444 -3.03223776 2.1471556 -6.546875 4.1953125 C-12.88020833 4.63975694 -12.88020833 4.63975694 -16.546875 2.1953125 C-14.59375 2.26041667 -12.640625 2.32552083 -10.6875 2.390625 C-8.51302849 2.33385361 -8.51302849 2.33385361 -6.69726562 1.1953125 C-4.2606483 0.06220798 -2.67204862 -0.03610877 0 0 Z " fill="#F4D750" transform="translate(124.546875,133.8046875)"/>
<path d="M0 0 C-0.33 1.98 -0.66 3.96 -1 6 C-3.97 6 -6.94 6 -10 6 C-9.67 5.01 -9.34 4.02 -9 3 C-2.88888889 0 -2.88888889 0 0 0 Z " fill="#F4D044" transform="translate(170,121)"/>
<path d="M0 0 C0.33 0 0.66 0 1 0 C1 1.98 1 3.96 1 6 C2.65 6.33 4.3 6.66 6 7 C7.04449911 10.13349732 6.93423645 10.98968256 6 14 C2.64787027 10.91251209 0.14946473 8.48291244 -1 4 C-0.625 1.6875 -0.625 1.6875 0 0 Z " fill="#678DAC" transform="translate(31,109)"/>
<path d="M0 0 C0.33 0.66 0.66 1.32 1 2 C-4.63551402 7.94859813 -4.63551402 7.94859813 -8 9 C-10.75 8.625 -10.75 8.625 -13 8 C-13 7.34 -13 6.68 -13 6 C-12.31292969 5.81824219 -11.62585938 5.63648437 -10.91796875 5.44921875 C-10.01691406 5.19785156 -9.11585938 4.94648437 -8.1875 4.6875 C-7.29417969 4.44386719 -6.40085938 4.20023437 -5.48046875 3.94921875 C-2.94752262 2.9799181 -1.7283504 2.04990396 0 0 Z " fill="#F5E16C" transform="translate(140,87)"/>
<path d="M0 0 C1.98 0.99 1.98 0.99 4 2 C4 3.32 4 4.64 4 6 C4.66 6 5.32 6 6 6 C6.33 9.3 6.66 12.6 7 16 C6.34 15.34 5.68 14.68 5 14 C5 13.01 5 12.02 5 11 C4.34 11 3.68 11 3 11 C2.86722656 10.37351562 2.73445312 9.74703125 2.59765625 9.1015625 C2.42105469 8.28429687 2.24445313 7.46703125 2.0625 6.625 C1.80146484 5.40683594 1.80146484 5.40683594 1.53515625 4.1640625 C1.07669307 1.970537 1.07669307 1.970537 0 0 Z " fill="#EEE072" transform="translate(173,58)"/>
<path d="M0 0 C0 0.66 0 1.32 0 2 C-7.28571429 5.42857143 -7.28571429 5.42857143 -12 5 C-11.3125 3.0625 -11.3125 3.0625 -10 1 C-6.67000827 -0.07999732 -3.48044019 -0.09944115 0 0 Z " fill="#3B6B97" transform="translate(82,86)"/>
<path d="M0 0 C0.66 0 1.32 0 2 0 C2.226875 1.051875 2.45375 2.10375 2.6875 3.1875 C3.79360531 7.1597906 5.88629885 9.29599637 9 12 C6.1875 11.8125 6.1875 11.8125 3 11 C-0.05305441 7.43810319 -0.32046578 4.59334282 0 0 Z " fill="#EFD053" transform="translate(117,147)"/>
<path d="M0 0 C-4.03923713 2.69282475 -6.95536152 3.13300939 -11.75 3.0625 C-12.54921875 3.05347656 -13.3484375 3.04445312 -14.171875 3.03515625 C-14.77515625 3.02355469 -15.3784375 3.01195312 -16 3 C-16 2.34 -16 1.68 -16 1 C-10.63904667 -0.12862175 -5.44693314 -0.09688221 0 0 Z " fill="#F1E188" transform="translate(128,166)"/>
<path d="M0 0 C0.144375 0.61875 0.28875 1.2375 0.4375 1.875 C0.93152225 4.03258322 0.93152225 4.03258322 2 6 C-1.75 9 -1.75 9 -4 9 C-4.33 10.65 -4.66 12.3 -5 14 C-6 11 -6 11 -5.0390625 8.5546875 C-4.57242187 7.67039062 -4.10578125 6.78609375 -3.625 5.875 C-3.16351562 4.98554687 -2.70203125 4.09609375 -2.2265625 3.1796875 C-1 1 -1 1 0 0 Z " fill="#87ADC7" transform="translate(35,58)"/>
<path d="M0 0 C0.66 0.33 1.32 0.66 2 1 C2.05384521 3.29141286 2.09272087 5.58318188 2.125 7.875 C2.14820313 9.15117188 2.17140625 10.42734375 2.1953125 11.7421875 C2 15 2 15 0 17 C0.01160156 16.26394531 0.02320313 15.52789062 0.03515625 14.76953125 C0.04417969 13.79371094 0.05320313 12.81789063 0.0625 11.8125 C0.07410156 10.84957031 0.08570313 9.88664062 0.09765625 8.89453125 C0.07962093 5.99714276 0.07962093 5.99714276 -0.56640625 3.19921875 C-0.70949219 2.47347656 -0.85257813 1.74773438 -1 1 C-0.67 0.67 -0.34 0.34 0 0 Z " fill="#2C6796" transform="translate(139,55)"/>
<path d="M0 0 C0.99 1.485 0.99 1.485 2 3 C0.68 3 -0.64 3 -2 3 C-2 2.34 -2 1.68 -2 1 C-8.6 0.67 -15.2 0.34 -22 0 C-22 -0.33 -22 -0.66 -22 -1 C-14.54593424 -2.06692624 -7.23219464 -2.5000179 0 0 Z " fill="#F9F3CB" transform="translate(171,51)"/>
<path d="M0 0 C1.32 0.66 2.64 1.32 4 2 C4 3.32 4 4.64 4 6 C1.125 6.125 1.125 6.125 -2 6 C-2.66 5.34 -3.32 4.68 -4 4 C-3.01 3.67 -2.02 3.34 -1 3 C-0.67 2.01 -0.34 1.02 0 0 Z " fill="#416F96" transform="translate(128,81)"/>
<path d="M0 0 C0.33 0.99 0.66 1.98 1 3 C-5.07439825 8.88183807 -5.07439825 8.88183807 -8.9375 9.375 C-9.618125 9.25125 -10.29875 9.1275 -11 9 C-9.68 8.67 -8.36 8.34 -7 8 C-6.938125 7.38125 -6.87625 6.7625 -6.8125 6.125 C-6 4 -6 4 -3.5 2.875 C-2.675 2.58625 -1.85 2.2975 -1 2 C-0.67 1.34 -0.34 0.68 0 0 Z " fill="#F2E28D" transform="translate(176,119)"/>
<path d="M0 0 C1.4540625 0.0309375 1.4540625 0.0309375 2.9375 0.0625 C2.298125 0.949375 1.65875 1.83625 1 2.75 C-0.87079757 5.75461428 -1.65673966 7.6135371 -2.0625 11.0625 C-2.3925 11.0625 -2.7225 11.0625 -3.0625 11.0625 C-3.25656478 9.41742782 -3.44257935 7.77140406 -3.625 6.125 C-3.72941406 5.20847656 -3.83382812 4.29195312 -3.94140625 3.34765625 C-3.98136719 2.59355469 -4.02132812 1.83945312 -4.0625 1.0625 C-3.0625 0.0625 -3.0625 0.0625 0 0 Z " fill="#407EAD" transform="translate(108.0625,39.9375)"/>
<path d="M0 0 C1.32 0.66 2.64 1.32 4 2 C3.01 2.33 2.02 2.66 1 3 C0.67 8.94 0.34 14.88 0 21 C-0.33 21 -0.66 21 -1 21 C-1.02888146 17.68751813 -1.04675799 14.37506833 -1.0625 11.0625 C-1.07087891 10.11697266 -1.07925781 9.17144531 -1.08789062 8.19726562 C-1.09111328 7.29814453 -1.09433594 6.39902344 -1.09765625 5.47265625 C-1.10289307 4.64000244 -1.10812988 3.80734863 -1.11352539 2.94946289 C-1 1 -1 1 0 0 Z " fill="#F9E872" transform="translate(151,53)"/>
<path d="M0 0 C1.9375 0.625 1.9375 0.625 4 2 C4.75 5.125 4.75 5.125 5 8 C4.01 8.66 3.02 9.32 2 10 C0 3.375 0 3.375 0 0 Z " fill="#587F9C" transform="translate(138,21)"/>
<path d="M0 0 C1.46132217 2.92264434 2.34099246 4.92463146 3 8 C5.31 8.33 7.62 8.66 10 9 C10 9.33 10 9.66 10 10 C6.7 9.67 3.4 9.34 0 9 C0 6.03 0 3.06 0 0 Z " fill="#9FC0D8" transform="translate(77,27)"/>
<path d="M0 0 C0.99 0 1.98 0 3 0 C1.50902342 3.7952131 -0.75700849 5.61042731 -4 8 C-4.66 7.67 -5.32 7.34 -6 7 C-5.67 6.01 -5.34 5.02 -5 4 C-3.35 3.67 -1.7 3.34 0 3 C0 2.01 0 1.02 0 0 Z " fill="#F2E18B" transform="translate(138,156)"/>
<path d="M0 0 C0.66 0.33 1.32 0.66 2 1 C1.01 1.33 0.02 1.66 -1 2 C-1 2.66 -1 3.32 -1 4 C-1.639375 4.12375 -2.27875 4.2475 -2.9375 4.375 C-3.9584375 4.684375 -3.9584375 4.684375 -5 5 C-5.33 5.66 -5.66 6.32 -6 7 C-6.66 6.34 -7.32 5.68 -8 5 C-5.31158141 2.74754119 -3.35358125 1.11786042 0 0 Z " fill="#8BB0C8" transform="translate(44,52)"/>
<path d="M0 0 C0.66 0 1.32 0 2 0 C0.6062718 4.43458973 -1.60582235 6.87378374 -5 10 C-4.75 7.125 -4.75 7.125 -4 4 C-1.9375 2.625 -1.9375 2.625 0 2 C0 1.34 0 0.68 0 0 Z " fill="#5485A8" transform="translate(74,16)"/>
<path d="M0 0 C4.62 0 9.24 0 14 0 C13.67 0.66 13.34 1.32 13 2 C10.5 2.6875 10.5 2.6875 8 3 C7.67 2.67 7.34 2.34 7 2 C4.67182036 1.63239269 2.3381615 1.29758419 0 1 C0 0.67 0 0.34 0 0 Z " fill="#F5E879" transform="translate(83,93)"/>
<path d="M0 0 C0 1.32 0 2.64 0 4 C-2.64 4 -5.28 4 -8 4 C-8 3.01 -8 2.02 -8 1 C-2.25 0 -2.25 0 0 0 Z " fill="#2C719D" transform="translate(88,81)"/>
<path d="M0 0 C1.32 0 2.64 0 4 0 C4 3.63 4 7.26 4 11 C3.67 11 3.34 11 3 11 C2.67 8.36 2.34 5.72 2 3 C1.01 2.67 0.02 2.34 -1 2 C-0.67 1.34 -0.34 0.68 0 0 Z " fill="#91B7CD" transform="translate(87,22)"/>
<path d="M0 0 C3.09654061 2.78688655 4.65385205 5.06510598 6 9 C6.33 9.66 6.66 10.32 7 11 C3.17131081 9.54773858 1.7461047 7.66681987 0 4 C0 2.68 0 1.36 0 0 Z " fill="#ECD978" transform="translate(69,150)"/>
<path d="M0 0 C-0.33 1.32 -0.66 2.64 -1 4 C-2.65 4 -4.3 4 -6 4 C-6 3.01 -6 2.02 -6 1 C-3 0 -3 0 0 0 Z " fill="#F9D736" transform="translate(122,138)"/>
<path d="M0 0 C0.33 0 0.66 0 1 0 C0.67 3.3 0.34 6.6 0 10 C-0.99 10 -1.98 10 -3 10 C-3 8.68 -3 7.36 -3 6 C-2.34 6 -1.68 6 -1 6 C-0.67 4.02 -0.34 2.04 0 0 Z " fill="#F0E7AC" transform="translate(147,70)"/>
<path d="M0 0 C3.82524236 1.450954 5.19090966 3.38181932 7 7 C7 7.66 7 8.32 7 9 C6.34 9 5.68 9 5 9 C4.54625 8.030625 4.0925 7.06125 3.625 6.0625 C2.34213779 2.92920418 2.34213779 2.92920418 0 2 C0 1.34 0 0.68 0 0 Z " fill="#FAF7D1" transform="translate(173,54)"/>
<path d="M0 0 C6.46153846 0.46153846 6.46153846 0.46153846 9 3 C5.37 2.67 1.74 2.34 -2 2 C-1.34 1.34 -0.68 0.68 0 0 Z " fill="#437195" transform="translate(123,13)"/>
<path d="M0 0 C0.99 0.33 1.98 0.66 3 1 C3.33 1.99 3.66 2.98 4 4 C2.35 4 0.7 4 -1 4 C-1 1 -1 1 0 0 Z " fill="#356D95" transform="translate(44,123)"/>
<path d="M0 0 C0.66 0 1.32 0 2 0 C2 0.66 2 1.32 2 2 C2.99 1.67 3.98 1.34 5 1 C4.34 2.32 3.68 3.64 3 5 C2.01 5 1.02 5 0 5 C0 3.35 0 1.7 0 0 Z " fill="#376E97" transform="translate(106,46)"/>
<path d="M0 0 C0 0.33 0 0.66 0 1 C-3.3125 2.125 -3.3125 2.125 -7 3 C-7.99 2.34 -8.98 1.68 -10 1 C-6.21812119 -0.83691257 -4.05431692 -1.15837626 0 0 Z " fill="#5383A8" transform="translate(87,14)"/>
</svg>
