<?xml version="1.0" encoding="UTF-8"?>
<svg version="1.1" xmlns="http://www.w3.org/2000/svg" width="180" height="180">
<path d="M0 0 C16.53939987 13.96029459 27.60008277 32.96287691 30.25 54.5625 C31.1722214 70.67919453 32.0710793 87.59180619 25.25 102.5625 C24.76732666 103.63177734 24.76732666 103.63177734 24.27490234 104.72265625 C18.77743401 116.54516879 11.82961259 126.61729884 2.25 135.5625 C1.59 135.5625 0.93 135.5625 0.25 135.5625 C0.25 136.2225 0.25 136.8825 0.25 137.5625 C-1.81871676 139.26881382 -3.87473157 140.83409173 -6.0625 142.375 C-6.7033252 142.82641357 -7.34415039 143.27782715 -8.00439453 143.74291992 C-23.32493206 154.29939989 -41.02740649 158.73959294 -59.4375 158.75 C-60.55833984 158.76224609 -61.67917969 158.77449219 -62.83398438 158.78710938 C-72.97885165 158.8047731 -82.28845753 157.525503 -91.75 153.8125 C-92.43151123 153.54864502 -93.11302246 153.28479004 -93.81518555 153.01293945 C-104.49613956 148.77706317 -113.13905755 143.18663115 -121.75 135.5625 C-122.37519531 135.02109375 -123.00039062 134.4796875 -123.64453125 133.921875 C-138.65494057 120.00121437 -148.82468465 98.53826911 -149.87646484 78.10571289 C-150.63212647 51.53482117 -145.91863476 26.96570924 -127.15185547 6.86401367 C-119.49841072 -0.98264749 -110.37252048 -7.24393572 -100.75 -12.4375 C-99.29013672 -13.22640625 -99.29013672 -13.22640625 -97.80078125 -14.03125 C-65.39737429 -30.29273836 -27.26917896 -21.55205454 0 0 Z M-67.75 -6.4375 C-66.326875 -5.7259375 -66.326875 -5.7259375 -64.875 -5 C-62.3125 -3.71875 -62.3125 -3.71875 -59.75 -2.4375 C-58.76 -3.0975 -57.77 -3.7575 -56.75 -4.4375 C-56.75 -5.4275 -56.75 -6.4175 -56.75 -7.4375 C-62.52786722 -8.63534225 -62.52786722 -8.63534225 -67.75 -6.4375 Z M-83.75 -5.4375 C-82.75 -3.4375 -82.75 -3.4375 -82.75 -3.4375 Z M-82.75 7.5625 C-81.75 10.5625 -81.75 10.5625 -81.75 10.5625 Z M-104.75 11.5625 C-104.42 12.5525 -104.09 13.5425 -103.75 14.5625 C-103.42 13.5725 -103.09 12.5825 -102.75 11.5625 C-103.41 11.5625 -104.07 11.5625 -104.75 11.5625 Z M-89.75 11.5625 C-89.75 12.2225 -89.75 12.8825 -89.75 13.5625 C-92.06 14.2225 -94.37 14.8825 -96.75 15.5625 C-96.42 16.5525 -96.09 17.5425 -95.75 18.5625 C-90.78690704 16.93668243 -90.78690704 16.93668243 -87.3125 13.375 C-87.126875 12.776875 -86.94125 12.17875 -86.75 11.5625 C-87.74 11.5625 -88.73 11.5625 -89.75 11.5625 Z M-35.75 17.5625 C-36.08 18.5525 -36.41 19.5425 -36.75 20.5625 C-30.15 20.8925 -23.55 21.2225 -16.75 21.5625 C-20.56874818 17.30670368 -20.56874818 17.30670368 -25.4375 16.4375 C-28.93385509 16.56943793 -32.29708782 17.01003405 -35.75 17.5625 Z " fill="#657593" transform="translate(149.75,21.4375)"/>
<path d="M0 0 C0.83917969 0.64710937 1.67835938 1.29421875 2.54296875 1.9609375 C12.83919902 10.50566278 19.60098905 22.8006869 24.3125 35.125 C24.55508545 35.75752686 24.7976709 36.39005371 25.04760742 37.04174805 C28.22345358 45.79468991 29.37022803 54.40400875 29.3125 63.6875 C29.30686035 64.64793213 29.3012207 65.60836426 29.29541016 66.59790039 C28.96174399 86.33871399 22.44831317 105.83851882 9.35546875 120.890625 C8 122 8 122 6 122 C7.50585655 118.81112731 9.30716356 115.9405092 11.25 113 C15.93134644 105.70921829 19.86999397 98.0821752 23 90 C22.08734375 89.87044922 22.08734375 89.87044922 21.15625 89.73828125 C0.98415779 86.50481353 -17.71633033 77.75593497 -36 69 C-31.64569513 67.54856504 -28.87242968 69.63232959 -24.9375 71.5 C-23.29819031 72.24897931 -21.65752616 72.9950001 -20.015625 73.73828125 C-18.75975586 74.30796631 -18.75975586 74.30796631 -17.47851562 74.88916016 C-3.97860633 80.93965142 9.53267147 84.93488802 24 88 C24.06058594 87.40832031 24.12117187 86.81664063 24.18359375 86.20703125 C24.89573175 79.49102212 24.89573175 79.49102212 25.55078125 76.40625 C28.07944931 62.86138456 25.42688925 48.09964008 20.8046875 35.36328125 C20 33 20 33 20 31 C19.38253906 30.82984375 18.76507813 30.6596875 18.12890625 30.484375 C13.90184356 29.27480455 9.84955523 28.01618102 5.875 26.125 C-0.80100594 23.01033539 -7.95813324 21.10823986 -15 19 C-15 18.34 -15 17.68 -15 17 C-15.61875 16.690625 -16.2375 16.38125 -16.875 16.0625 C-18.25 15.375 -19.625 14.6875 -21 14 C-25.42830345 13.7940324 -29.64946961 14.14695483 -34 15 C-34.495 15.99 -34.495 15.99 -35 17 C-30.05 17 -25.1 17 -20 17 C-20 17.33 -20 17.66 -20 18 C-21.83111328 18.05607422 -21.83111328 18.05607422 -23.69921875 18.11328125 C-42.72061278 18.82064842 -59.03364767 23.50494079 -76.32723999 31.45825195 C-79.51321467 32.92128004 -82.71049262 34.35928115 -85.90625 35.80078125 C-86.84019844 36.22280319 -86.84019844 36.22280319 -87.79301453 36.65335083 C-104.94529724 44.40018959 -122.84820019 52.33020344 -142 52 C-144.16462353 47.67075295 -142.41016556 42.30627022 -141.02734375 37.90234375 C-131.97641517 13.48520845 -115.65939334 -3.98841945 -92.4375 -15.375 C-86.12132258 -18.15565859 -79.77861353 -19.78402381 -73 -21 C-72.29488281 -21.13148437 -71.58976562 -21.26296875 -70.86328125 -21.3984375 C-44.99215346 -25.41198772 -19.43788683 -16.88915917 0 0 Z M-66 -10 C-64.576875 -9.2884375 -64.576875 -9.2884375 -63.125 -8.5625 C-60.5625 -7.28125 -60.5625 -7.28125 -58 -6 C-57.01 -6.66 -56.02 -7.32 -55 -8 C-55 -8.99 -55 -9.98 -55 -11 C-60.77786722 -12.19784225 -60.77786722 -12.19784225 -66 -10 Z M-82 -9 C-81 -7 -81 -7 -81 -7 Z M-81 4 C-80 7 -80 7 -80 7 Z M-103 8 C-102.67 8.99 -102.34 9.98 -102 11 C-101.67 10.01 -101.34 9.02 -101 8 C-101.66 8 -102.32 8 -103 8 Z M-88 8 C-88 8.66 -88 9.32 -88 10 C-90.31 10.66 -92.62 11.32 -95 12 C-94.67 12.99 -94.34 13.98 -94 15 C-89.03690704 13.37418243 -89.03690704 13.37418243 -85.5625 9.8125 C-85.376875 9.214375 -85.19125 8.61625 -85 8 C-85.99 8 -86.98 8 -88 8 Z " fill="#DAE6E7" transform="translate(148,25)"/>
<path d="M0 0 C1.50433594 -0.02416992 1.50433594 -0.02416992 3.0390625 -0.04882812 C13.50695396 -0.05559033 22.46055074 2.7648714 31.94140625 7.04296875 C34.97442365 8.39077857 34.97442365 8.39077857 38.21484375 9.11328125 C42.37162902 10.27964745 45.78221153 11.25772098 48.08837891 15.14892578 C55.7983847 32.51306364 55.74934963 52.21973949 51 70.3125 C32.45732496 69.82218888 12.85661486 60.39352043 -3.515625 52.3203125 C-6.22922856 51.21951105 -8.96553452 50.57733058 -11.80957031 49.90185547 C-15.73339208 48.84611475 -19.46794749 47.28558274 -23.25 45.8125 C-46.88755889 36.95833525 -69.06492457 38.89778884 -91.9375 48.9375 C-92.80173584 49.33380615 -93.66597168 49.7301123 -94.55639648 50.13842773 C-99.99345914 52.6078193 -105.14358416 54.19896116 -111 55.3125 C-112.98 55.8075 -112.98 55.8075 -115 56.3125 C-115 49.3825 -115 42.4525 -115 35.3125 C-107 33.3125 -107 33.3125 -103.0703125 32.34765625 C-102.41933594 32.18716797 -101.76835938 32.02667969 -101.09765625 31.86132812 C-99.79082347 31.53914856 -98.48353493 31.21881161 -97.17578125 30.90039062 C-87.70945804 28.55714888 -78.7334903 25.55276341 -69.75 21.75 C-68.71584961 21.31671387 -67.68169922 20.88342773 -66.61621094 20.43701172 C-59.43061069 17.40384459 -52.33089899 14.20631394 -45.25 10.9375 C-30.29426665 4.05841477 -16.56778619 -0.05323839 0 0 Z " fill="#80AEBB" transform="translate(121,42.6875)"/>
<path d="M0 0 C5.94 0 11.88 0 18 0 C18 19.8 18 39.6 18 60 C8 60 8 60 0 59 C0 39.53 0 20.06 0 0 Z " fill="#444872" transform="translate(75,115)"/>
<path d="M0 0 C5.94 0 11.88 0 18 0 C18 19.47 18 38.94 18 59 C13.23458989 57.41152996 10.25753856 56.10446097 6.1875 53.4375 C5.23230469 52.81746094 4.27710938 52.19742188 3.29296875 51.55859375 C1 50 1 50 0 49 C-0.09319449 47.4651703 -0.117458 45.92607918 -0.11352539 44.38842773 C-0.11344986 43.40748642 -0.11337433 42.4265451 -0.11329651 41.4158783 C-0.10813522 40.3492244 -0.10297394 39.2825705 -0.09765625 38.18359375 C-0.0962413 37.0974025 -0.09482635 36.01121124 -0.09336853 34.8921051 C-0.08775048 31.40720925 -0.07519492 27.92237658 -0.0625 24.4375 C-0.05748733 22.08138113 -0.05292402 19.72526126 -0.04882812 17.36914062 C-0.03777518 11.57940257 -0.02049846 5.78971201 0 0 Z " fill="#444772" transform="translate(36,107)"/>
<path d="M0 0 C5.94 0 11.88 0 18 0 C18 13.86 18 27.72 18 42 C4 45 4 45 0 45 C0 30.15 0 15.3 0 0 Z " fill="#434672" transform="translate(94,130)"/>
<path d="M0 0 C5.94 0 11.88 0 18 0 C18 7.59 18 15.18 18 23 C6.75 28.875 6.75 28.875 0 30 C0 20.1 0 10.2 0 0 Z " fill="#434671" transform="translate(114,141)"/>
<path d="M0 0 C5.94 0 11.88 0 18 0 C18 10.89 18 21.78 18 33 C13.36465134 29.026844 9.88163903 25.9684128 6.1875 21.375 C5.43855469 20.45460937 4.68960937 19.53421875 3.91796875 18.5859375 C-0.74002955 12.30570354 -0.16890004 7.76940174 0 0 Z " fill="#42476D" transform="translate(16,120)"/>
</svg>
