<?xml version="1.0" encoding="UTF-8"?>
<svg version="1.1" xmlns="http://www.w3.org/2000/svg" width="180" height="180">
<path d="M0 0 C0.66 0.66 1.32 1.32 2 2 C4.52624324 2.53153326 7.01565295 2.976343 9.5625 3.375 C32.14193655 7.34418785 48.98419902 23.93016402 62 42 C65.77022812 47.78725762 68.49789358 54.05040963 71.30981445 60.33984375 C72.10306366 62.11281675 72.9010813 63.883664 73.70385742 65.65234375 C75.31681017 69.20734121 76.89778427 72.72930024 78.27734375 76.3828125 C81.86087736 84.85298286 88.76115108 87.67471059 96.57421875 91.66015625 C101.98656343 94.43860701 106.47720251 97.95286214 111 102 C111.85722656 102.75023438 112.71445313 103.50046875 113.59765625 104.2734375 C115.7466254 106.16665607 117.87994468 108.07453913 120 110 C119.67 111.32 119.34 112.64 119 114 C112.73 115.32 106.46 116.64 100 118 C103.00038519 121.00038519 105.30342494 122.98887114 108.75 125.25 C115.13691189 129.64630862 121.62849665 134.83555538 125 142 C125 142.66 125 143.32 125 144 C123 143 121 142 119 141 C119 140.34 119 139.68 119 139 C118.01 139 117.02 139 116 139 C116 138.34 116 137.68 116 137 C114.741875 136.649375 113.48375 136.29875 112.1875 135.9375 C103.39177594 132.98712327 94.67603958 127.44342915 89 120 C87.5625 116.5625 87.5625 116.5625 87 114 C91.0495942 109.9504058 98.22533856 109.19015162 103.79296875 108.80859375 C105.86296005 108.81188467 107.93258874 108.89662944 110 109 C106.71056552 105.3288564 102.48288407 103.14337366 98.30078125 100.62109375 C97.54152344 100.08613281 96.78226562 99.55117187 96 99 C96 98.34 96 97.68 96 97 C95.2265625 96.82984375 94.453125 96.6596875 93.65625 96.484375 C92.09390625 96.12085937 92.09390625 96.12085937 90.5 95.75 C89.4790625 95.51796875 88.458125 95.2859375 87.40625 95.046875 C81.64081098 93.27492814 77.28879678 91.84593289 73.75 86.77734375 C73.14054572 85.50962536 72.55833427 84.22854891 72 82.9375 C71.51055908 81.89335937 71.51055908 81.89335937 71.01123047 80.828125 C68.89486494 76.24452549 66.99955301 71.57397555 65.10083008 66.8972168 C62.1416473 59.62771074 58.97981885 52.79146757 54.8125 46.125 C54.40854004 45.47724609 54.00458008 44.82949219 53.58837891 44.16210938 C51.08720011 40.30344009 48.3198094 37.20861961 45 34 C44.35675781 33.17242187 43.71351562 32.34484375 43.05078125 31.4921875 C32.89788921 19.15400632 17.69739767 12.15830426 2.1484375 10.5859375 C-2.01830082 9.81048992 -4.52010701 8.00626404 -7.83203125 5.46484375 C-11.84037289 2.75650481 -17.12690387 1 -22 1 C-19.77103032 5.92230805 -17.30112616 10.02596304 -14 14.3125 C-10.03682465 19.6382458 -7.99366169 24.72334477 -6 31 C-3.24182488 39.81882832 -3.24182488 39.81882832 1.875 47.3125 C4 50 4 50 3.734375 53.68359375 C3.10283226 57.73791376 2.23682214 61.73890256 1.375 65.75 C-0.67255222 76.092671 0.05137457 85.16568762 4 95 C4.66 95 5.32 95 6 95 C6.18175781 94.04738281 6.36351562 93.09476562 6.55078125 92.11328125 C6.92783203 90.23189453 6.92783203 90.23189453 7.3125 88.3125 C7.55613281 87.07113281 7.79976562 85.82976562 8.05078125 84.55078125 C8.95350409 81.17392913 9.9210142 78.79514029 12 76 C12.66 76 13.32 76 14 76 C14 75.34 14 74.68 14 74 C17 75 17 75 17.94799805 76.59130859 C18.21652588 77.27016113 18.48505371 77.94901367 18.76171875 78.6484375 C19.22698975 79.7780188 19.22698975 79.7780188 19.70166016 80.93041992 C20.0269873 81.73713135 20.35231445 82.54384277 20.6875 83.375 C23.93314524 91.04618155 27.64694807 97.56306565 33 104 C33.87398437 105.06347656 33.87398437 105.06347656 34.765625 106.1484375 C36.76075631 108.52128784 38.80760033 110.80760033 41 113 C41 113.66 41 114.32 41 115 C36.05456394 114.57968265 33.94958833 112.43028471 30.5625 108.9375 C30.08167969 108.44306396 29.60085937 107.94862793 29.10546875 107.43920898 C25.36431765 103.53185472 22.08121294 99.43418144 19 95 C18.00413857 93.66357275 17.00513511 92.3294665 16 91 C15.81824219 91.69867188 15.63648438 92.39734375 15.44921875 93.1171875 C15.07216797 94.48230469 15.07216797 94.48230469 14.6875 95.875 C14.44386719 96.77992187 14.20023438 97.68484375 13.94921875 98.6171875 C13 101 13 101 10 103 C6.81808755 103.50240723 5.33430806 103.18386944 2.5 101.625 C-5.18266169 93.55820523 -7.4102041 83.02135326 -7.2734375 72.23046875 C-6.88779523 67.67438079 -5.79719246 63.40070925 -4.55859375 59.0078125 C-3.81411478 54.99907961 -4.05795911 51.74277564 -6.015625 48.12109375 C-6.62664063 47.28771484 -6.62664063 47.28771484 -7.25 46.4375 C-11.20105034 40.48808605 -13.59997534 33.62008137 -15.6640625 26.80859375 C-17.13635743 22.10706526 -19.54359569 18.92154577 -22.625 15.0625 C-26.00564284 10.70180109 -28.21264972 7.49872539 -28.2734375 1.90625 C-27.84665833 -1.06901049 -27.01900609 -2.7790933 -25 -5 C-16.74503075 -10.18883782 -7.33761988 -4.25581953 0 0 Z " fill="#124E71" transform="translate(54,9)"/>
<path d="M0 0 C0.66 -1.32 1.32 -2.64 2 -4 C3.99954746 -4.04254356 6.00041636 -4.04080783 8 -4 C9.57465873 -2.42534127 9.20054408 -0.7820823 9.28125 1.40234375 C9.33732422 2.73749023 9.33732422 2.73749023 9.39453125 4.09960938 C9.44673828 5.50436523 9.44673828 5.50436523 9.5 6.9375 C9.56876352 8.78010759 9.64148918 10.62257289 9.71875 12.46484375 C9.74904297 13.285896 9.77933594 14.10694824 9.81054688 14.95288086 C9.8811079 17.06462166 9.8811079 17.06462166 11 19 C17.27 19.33 23.54 19.66 30 20 C30.66 18.68 31.32 17.36 32 16 C37.18918919 14.59459459 37.18918919 14.59459459 40 16 C40 19.3 40 22.6 40 26 C37.25540812 26.72650962 35.29061108 27.05541886 32.48046875 26.51953125 C26.87866932 25.68334795 21.26131203 26.03523127 15.61132812 26.21484375 C10.564785 26.293977 7.08077738 26.34542938 3 23 C0.41073669 20.41073669 0.62601957 18.97294721 0.375 15.375 C0.30023438 14.37210938 0.22546875 13.36921875 0.1484375 12.3359375 C0.09945312 11.56507813 0.05046875 10.79421875 0 10 C-0.22237877 12.41611533 -0.42832339 14.8317717 -0.625 17.25 C-0.68945312 17.93191406 -0.75390625 18.61382812 -0.8203125 19.31640625 C-1.11594735 23.1227049 -1.17561392 25.77809846 1 29 C-1.80915474 30.40457737 -3.88810534 30.24895157 -7 30 C-7.85658203 29.26523438 -7.85658203 29.26523438 -8.73046875 28.515625 C-11.94769786 26.36711399 -14.60448596 26.59117179 -18.4375 26.5 C-23.54638846 26.378239 -26.87285834 26.14742766 -31 23 C-32.81947279 19.36105442 -32.31317595 15.13232266 -32.375 11.125 C-32.41238281 10.21363281 -32.44976562 9.30226562 -32.48828125 8.36328125 C-32.57647731 1.67018033 -32.57647731 1.67018033 -29.7890625 -1.5703125 C-20.98982534 -6.08084583 -7.88733634 -6.15596983 0 0 Z M-23 3 C-24.03815092 11.52465003 -24.03815092 11.52465003 -23 20 C-21.68 20 -20.36 20 -19 20 C-19 18.68 -19 17.36 -19 16 C-11.375 16.875 -11.375 16.875 -8 18 C-7.97306425 15.87506859 -7.95363372 13.75004088 -7.9375 11.625 C-7.92589844 10.44164062 -7.91429687 9.25828125 -7.90234375 8.0390625 C-7.78533407 5.08078479 -7.78533407 5.08078479 -9 3 C-11.21774779 2.49173851 -11.21774779 2.49173851 -13.8125 2.3125 C-15.12154297 2.18294922 -15.12154297 2.18294922 -16.45703125 2.05078125 C-18.87044965 2.00258703 -20.70736498 2.2892297 -23 3 Z " fill="#DC8F17" transform="translate(140,147)"/>
<path d="M0 0 C3.19194923 3.31534933 4.5701239 7.52485452 6.1875 11.75 C6.59645508 12.79607422 6.59645508 12.79607422 7.01367188 13.86328125 C7.68131025 15.57337254 8.34141552 17.28640154 9 19 C9.66 19 10.32 19 11 19 C11.23074219 18.38253906 11.46148438 17.76507813 11.69921875 17.12890625 C16.79803962 3.88809475 16.79803962 3.88809475 20 0 C23.5625 -1.1875 23.5625 -1.1875 27 -1 C28.32 -0.34 29.64 0.32 31 1 C31 9.91 31 18.82 31 28 C28.69 28 26.38 28 24 28 C23.505 20.575 23.505 20.575 23 13 C20.112332 16.850224 18.3812782 20.39121935 16.4765625 24.7578125 C14.59504071 27.61493818 13.32793074 28.28336595 10 29 C7.45703125 28.6328125 7.45703125 28.6328125 5 27 C3.24598198 24.43303472 1.97300761 21.69970174 0.6875 18.875 C0.32849609 18.12089844 -0.03050781 17.36679688 -0.40039062 16.58984375 C-1.28158936 14.73345175 -2.142782 12.86758661 -3 11 C-3.33 16.61 -3.66 22.22 -4 28 C-6.31 28 -8.62 28 -11 28 C-11.11589162 23.72939382 -11.18714802 19.45919016 -11.25 15.1875 C-11.28351562 13.97255859 -11.31703125 12.75761719 -11.3515625 11.50585938 C-11.36445313 10.34248047 -11.37734375 9.17910156 -11.390625 7.98046875 C-11.41157227 6.90692139 -11.43251953 5.83337402 -11.45410156 4.72729492 C-11 2 -11 2 -9.19824219 0.12231445 C-5.83181 -1.59642042 -3.56995281 -0.97362349 0 0 Z " fill="#0E4568" transform="translate(11,144)"/>
<path d="M0 0 C4.93202039 4.398829 6.8238433 8.69735197 8.9765625 14.7421875 C11.41205279 21.38593992 14.18153958 27.7499715 17.375 34.0625 C17.72578613 34.78872559 18.07657227 35.51495117 18.43798828 36.26318359 C22.04753274 43.19487289 27.00073674 45.38820429 34.1875 48.1875 C35.00605469 48.51105469 35.82460937 48.83460937 36.66796875 49.16796875 C38.76671316 49.91676701 40.8290385 50.50591911 43 51 C38.20783398 48.16389733 38.20783398 48.16389733 33.125 45.9375 C32.42375 45.628125 31.7225 45.31875 31 45 C30.67 44.01 30.34 43.02 30 42 C43.59032476 45.83316852 53.79138217 55.72840506 64 65 C63.505 66.98 63.505 66.98 63 69 C56.73 70.32 50.46 71.64 44 73 C47.00038519 76.00038519 49.30342494 77.98887114 52.75 80.25 C59.13691189 84.64630862 65.62849665 89.83555538 69 97 C69 97.66 69 98.32 69 99 C67 98 65 97 63 96 C63 95.34 63 94.68 63 94 C62.01 94 61.02 94 60 94 C60 93.34 60 92.68 60 92 C58.741875 91.649375 57.48375 91.29875 56.1875 90.9375 C47.39177594 87.98712327 38.67603958 82.44342915 33 75 C31.5625 71.5625 31.5625 71.5625 31 69 C35.0495942 64.9504058 42.22533856 64.19015162 47.79296875 63.80859375 C49.86296005 63.81188467 51.93258874 63.89662944 54 64 C50.71056552 60.3288564 46.48288407 58.14337366 42.30078125 55.62109375 C41.54152344 55.08613281 40.78226563 54.55117187 40 54 C40 53.34 40 52.68 40 52 C39.2265625 51.82984375 38.453125 51.6596875 37.65625 51.484375 C36.6146875 51.24203125 35.573125 50.9996875 34.5 50.75 C33.4790625 50.51796875 32.458125 50.2859375 31.40625 50.046875 C25.64081098 48.27492814 21.28879678 46.84593289 17.75 41.77734375 C17.14032399 40.50973198 16.55807055 39.22866293 16 37.9375 C15.67733154 37.24648193 15.35466309 36.55546387 15.0222168 35.84350586 C12.1286991 29.55802202 9.45845554 23.15548286 6.87695312 16.73608398 C4.64465006 11.24359945 1.98005374 6.12393367 -1 1 C-0.67 0.67 -0.34 0.34 0 0 Z " fill="#0F435F" transform="translate(110,54)"/>
<path d="M0 0 C0.92361328 -0.01224609 1.84722656 -0.02449219 2.79882812 -0.03710938 C3.68119141 -0.03904297 4.56355469 -0.04097656 5.47265625 -0.04296875 C6.280979 -0.04707764 7.08930176 -0.05118652 7.92211914 -0.05541992 C9.9375 0.1875 9.9375 0.1875 11.9375 2.1875 C11.5625 4.3125 11.5625 4.3125 10.9375 6.1875 C6.84746141 7.33732602 2.90572949 7.29844256 -1.3125 7.25 C-2.05757812 7.24548828 -2.80265625 7.24097656 -3.5703125 7.23632812 C-5.4010764 7.22459246 -7.23179873 7.2066585 -9.0625 7.1875 C-8.7325 8.5075 -8.4025 9.8275 -8.0625 11.1875 C-6.50789063 11.35185547 -6.50789063 11.35185547 -4.921875 11.51953125 C-3.55200736 11.67903639 -2.18221963 11.83922884 -0.8125 12 C0.21037109 12.10538086 0.21037109 12.10538086 1.25390625 12.21289062 C5.23407438 12.69592074 8.21000695 13.12251412 10.9375 16.1875 C11.46875 18.5625 11.46875 18.5625 11.4375 21.1875 C11.4478125 22.05375 11.458125 22.92 11.46875 23.8125 C10.9375 26.1875 10.9375 26.1875 9.09375 27.9375 C5.72191891 29.89218469 3.09058667 30.30949418 -0.73046875 30.28515625 C-1.62314453 30.28193359 -2.51582031 30.27871094 -3.43554688 30.27539062 C-4.82870117 30.26282227 -4.82870117 30.26282227 -6.25 30.25 C-7.19037109 30.24548828 -8.13074219 30.24097656 -9.09960938 30.23632812 C-11.42063712 30.22454626 -13.74153644 30.20809558 -16.0625 30.1875 C-16.3925 28.5375 -16.7225 26.8875 -17.0625 25.1875 C-13.76289859 23.5376993 -10.07122116 23.80491639 -6.4375 23.625 C-5.63570312 23.58181641 -4.83390625 23.53863281 -4.0078125 23.49414062 C-2.0262489 23.38798543 -0.04439729 23.28723145 1.9375 23.1875 C2.2675 21.5375 2.5975 19.8875 2.9375 18.1875 C2.01130859 18.23970703 2.01130859 18.23970703 1.06640625 18.29296875 C-5.06555627 18.48896755 -10.49721689 17.95112578 -16.0625 15.1875 C-17.65995879 11.99258241 -17.57066842 8.65540611 -17.0625 5.1875 C-12.59627435 -0.81880346 -6.81518441 0.00477588 0 0 Z " fill="#BE8632" transform="translate(95.0625,142.8125)"/>
<path d="M0 0 C0.845625 0.66 1.69125 1.32 2.5625 2 C3.2225 0.68 3.8825 -0.64 4.5625 -2 C6.56204746 -2.04254356 8.56291636 -2.04080783 10.5625 -2 C12.13715873 -0.42534127 11.76304408 1.2179177 11.84375 3.40234375 C11.89982422 4.73749023 11.89982422 4.73749023 11.95703125 6.09960938 C12.00923828 7.50436523 12.00923828 7.50436523 12.0625 8.9375 C12.13126352 10.78010759 12.20398918 12.62257289 12.28125 14.46484375 C12.31154297 15.285896 12.34183594 16.10694824 12.37304688 16.95288086 C12.4436079 19.06462166 12.4436079 19.06462166 13.5625 21 C19.8325 21.33 26.1025 21.66 32.5625 22 C33.2225 20.68 33.8825 19.36 34.5625 18 C39.75168919 16.59459459 39.75168919 16.59459459 42.5625 18 C42.5625 21.3 42.5625 24.6 42.5625 28 C39.81790812 28.72650962 37.85311108 29.05541886 35.04296875 28.51953125 C29.44116932 27.68334795 23.82381203 28.03523127 18.17382812 28.21484375 C13.127285 28.293977 9.64327738 28.34542938 5.5625 25 C2.12151118 21.55901118 2.89100574 16.70858228 2.5625 12 C2.2325 15.63 1.9025 19.26 1.5625 23 C1.2325 23 0.9025 23 0.5625 23 C0.54791748 22.40461426 0.53333496 21.80922852 0.51831055 21.19580078 C0.44395656 18.50486949 0.34725813 15.81519667 0.25 13.125 C0.22744141 12.18785156 0.20488281 11.25070313 0.18164062 10.28515625 C0.1284668 8.94130859 0.1284668 8.94130859 0.07421875 7.5703125 C0.04803467 6.74289551 0.02185059 5.91547852 -0.00512695 5.06298828 C-0.26846637 2.60672068 -0.26846637 2.60672068 -3.4375 1 C-6.02635171 0.70008931 -8.52899082 0.49134775 -11.125 0.375 C-12.1778418 0.31699219 -12.1778418 0.31699219 -13.25195312 0.2578125 C-14.98004655 0.1637666 -16.70873675 0.0808032 -18.4375 0 C-18.7675 0.66 -19.0975 1.32 -19.4375 2 C-19.4375 1.34 -19.4375 0.68 -19.4375 0 C-21.0875 0 -22.7375 0 -24.4375 0 C-24.4375 -0.33 -24.4375 -0.66 -24.4375 -1 C-16.92446148 -2.77031368 -6.90422346 -4.01210522 0 0 Z " fill="#BE9F5D" transform="translate(137.4375,145)"/>
<path d="M0 0 C3 0.125 3 0.125 4 1.125 C4.14426614 5.79345228 4.04208415 10.45365953 4 15.125 C8.62 15.125 13.24 15.125 18 15.125 C18.33 10.175 18.66 5.225 19 0.125 C21.31 0.125 23.62 0.125 26 0.125 C26.08696177 4.06236123 26.14037835 7.99947628 26.1875 11.9375 C26.21263672 13.05705078 26.23777344 14.17660156 26.26367188 15.33007812 C26.27333984 16.40322266 26.28300781 17.47636719 26.29296875 18.58203125 C26.3086792 19.57178955 26.32438965 20.56154785 26.34057617 21.58129883 C26 24.125 26 24.125 24.60668945 25.90893555 C21.49861961 28.26135857 19.4019106 28.24290479 15.5546875 28.22265625 C13.94013672 28.21782227 13.94013672 28.21782227 12.29296875 28.21289062 C11.16503906 28.20451172 10.03710938 28.19613281 8.875 28.1875 C7.73933594 28.18298828 6.60367188 28.17847656 5.43359375 28.17382812 C2.62234362 28.16201615 -0.1888023 28.14554507 -3 28.125 C-3 26.805 -3 25.485 -3 24.125 C7.395 23.63 7.395 23.63 18 23.125 C18.33 22.465 18.66 21.805 19 21.125 C17.90300781 21.07601562 16.80601563 21.02703125 15.67578125 20.9765625 C14.22133075 20.90149409 12.76690484 20.82594803 11.3125 20.75 C10.59126953 20.7190625 9.87003906 20.688125 9.12695312 20.65625 C5.0709025 20.43400065 1.64693372 20.09351536 -2 18.125 C-4.77540839 12.97067014 -4.41886343 6.84297282 -4 1.125 C-3 0.125 -3 0.125 0 0 Z " fill="#0D4C6F" transform="translate(49,151.875)"/>
<path d="M0 0 C3.14697406 3.28485694 4.56772893 7.44959014 6.1875 11.625 C6.46013672 12.305625 6.73277344 12.98625 7.01367188 13.6875 C9 18.72550517 9 18.72550517 9 21 C10.98 20.67 12.96 20.34 15 20 C14.125 24.75 14.125 24.75 13 27 C10.25 26.875 10.25 26.875 7 26 C2.27615791 20.68567765 -0.13593374 13.43460219 -3 7 C-3.66 7 -4.32 7 -5 7 C-5.33 13.27 -5.66 19.54 -6 26 C-7.65 26 -9.3 26 -11 26 C-11.11594584 22.06274674 -11.18716464 18.12593077 -11.25 14.1875 C-11.28351562 13.06794922 -11.31703125 11.94839844 -11.3515625 10.79492188 C-11.36445313 9.72177734 -11.37734375 8.64863281 -11.390625 7.54296875 C-11.41157227 6.55321045 -11.43251953 5.56345215 -11.45410156 4.54370117 C-11 2 -11 2 -9.19824219 0.1496582 C-5.83527482 -1.60913937 -3.58200798 -0.97691127 0 0 Z " fill="#0C5A83" transform="translate(11,144)"/>
<path d="M0 0 C0.99 0 1.98 0 3 0 C7 5.25714286 7 5.25714286 7 8 C7.66 8.33 8.32 8.66 9 9 C18.36142678 18.13853567 23.09564785 31.83660504 28.12255859 43.70825195 C31.35795572 51.27229662 31.35795572 51.27229662 36 58 C36.99 58 37.98 58 39 58 C39.45375 58.61746094 39.9075 59.23492187 40.375 59.87109375 C42.36880817 62.48317417 43.92302191 63.00478878 47 64.0625 C50.41942493 65.24810418 52.61937331 66.23565387 55 69 C54.01 69.495 54.01 69.495 53 70 C50.96875 69.14453125 50.96875 69.14453125 48.5 67.8125 C44.17134237 65.53524968 39.85595874 63.75576453 35.2265625 62.1875 C29.45983393 59.11191143 27.13218435 52.59703123 24.5 46.9375 C24.10200195 46.09348633 23.70400391 45.24947266 23.29394531 44.37988281 C20.72667436 38.84109627 18.68874782 33.29666337 16.890625 27.4609375 C15.24164267 22.90453897 12.87519271 19.16566033 8.6875 16.5625 C8.130625 16.376875 7.57375 16.19125 7 16 C7.33 14.35 7.66 12.7 8 11 C7.01 10.67 6.02 10.34 5 10 C3.39453125 8.15234375 3.39453125 8.15234375 1.8125 5.9375 C1.28269531 5.20402344 0.75289063 4.47054687 0.20703125 3.71484375 C-0.19128906 3.14894531 -0.58960937 2.58304688 -1 2 C-0.67 1.34 -0.34 0.68 0 0 Z " fill="#0C5C86" transform="translate(100,37)"/>
<path d="M0 0 C3.4165052 -0.08724706 6.83272313 -0.14047325 10.25 -0.1875 C11.70212891 -0.22520508 11.70212891 -0.22520508 13.18359375 -0.26367188 C14.58544922 -0.27817383 14.58544922 -0.27817383 16.015625 -0.29296875 C16.87446289 -0.3086792 17.73330078 -0.32438965 18.61816406 -0.34057617 C21.59821686 0.08553839 22.91920887 0.82904916 25 3 C25.45410156 5.26831055 25.45410156 5.26831055 25.390625 7.88671875 C25.37128906 9.2934082 25.37128906 9.2934082 25.3515625 10.72851562 C25.31804687 11.70498047 25.28453125 12.68144531 25.25 13.6875 C25.23195312 14.67556641 25.21390625 15.66363281 25.1953125 16.68164062 C25.14815447 19.12206842 25.08236042 21.56054769 25 24 C24.34 23.67 23.68 23.34 23 23 C23.33 19.37 23.66 15.74 24 12 C23.01 12 22.02 12 21 12 C21 15.63 21 19.26 21 23 C20.34 22.67 19.68 22.34 19 22 C19.01160156 20.78441406 19.02320313 19.56882813 19.03515625 18.31640625 C19.04453278 16.73177236 19.05363313 15.14713682 19.0625 13.5625 C19.07087891 12.76005859 19.07925781 11.95761719 19.08789062 11.13085938 C19.0965143 9.08704779 19.0522815 7.04316098 19 5 C17.86687244 3.64139107 17.86687244 3.64139107 14.875 3.8671875 C13.59625 3.86976563 12.3175 3.87234375 11 3.875 C9.72125 3.87242187 8.4425 3.86984375 7.125 3.8671875 C4.13312756 3.64139107 4.13312756 3.64139107 3 5 C2.91368126 6.34267413 2.89293527 7.68974322 2.90234375 9.03515625 C2.90556641 9.84404297 2.90878906 10.65292969 2.91210938 11.48632812 C2.92048828 12.33646484 2.92886719 13.18660156 2.9375 14.0625 C2.94201172 14.91650391 2.94652344 15.77050781 2.95117188 16.65039062 C2.96299627 18.76695663 2.98093231 20.88348685 3 23 C4.34964844 22.9690625 4.34964844 22.9690625 5.7265625 22.9375 C9.79891283 23.01525371 13.08484114 23.91995618 17 25 C15 27 15 27 12.35546875 27.265625 C10.78732422 27.25789063 10.78732422 27.25789063 9.1875 27.25 C7.63095703 27.25773437 7.63095703 27.25773437 6.04296875 27.265625 C2.87441282 26.98903732 0.73725209 26.63153985 -2 25 C-3.5331624 20.94859984 -3.11586746 16.47742275 -3.0625 12.1875 C-3.05798828 11.49462891 -3.05347656 10.80175781 -3.04882812 10.08789062 C-3.03713156 8.39188932 -3.01919924 6.69593297 -3 5 C-2.34 5 -1.68 5 -1 5 C-0.67 3.35 -0.34 1.7 0 0 Z " fill="#D0800F" transform="translate(113,145)"/>
<path d="M0 0 C1.65 0 3.3 0 5 0 C5.33 7.26 5.66 14.52 6 22 C12.27 22.33 18.54 22.66 25 23 C25 24.32 25 25.64 25 27 C21.97861433 27.08149592 18.95946095 27.14073421 15.9375 27.1875 C15.08994141 27.21263672 14.24238281 27.23777344 13.36914062 27.26367188 C7.7749264 27.32846972 3.98039041 26.57466587 -1 24 C-1.02887236 20.18751574 -1.04675492 16.3750593 -1.0625 12.5625 C-1.07087891 11.47388672 -1.07925781 10.38527344 -1.08789062 9.26367188 C-1.09111328 8.22919922 -1.09433594 7.19472656 -1.09765625 6.12890625 C-1.10289307 5.17056885 -1.10812988 4.21223145 -1.11352539 3.22485352 C-1 1 -1 1 0 0 Z " fill="#D48617" transform="translate(143,145)"/>
<path d="M0 0 C3 1 3 1 3.94799805 2.59130859 C4.21652588 3.27016113 4.48505371 3.94901367 4.76171875 4.6484375 C5.07189941 5.4014917 5.38208008 6.1545459 5.70166016 6.93041992 C6.0269873 7.73713135 6.35231445 8.54384277 6.6875 9.375 C9.93314524 17.04618155 13.64694807 23.56306565 19 30 C19.87398437 31.06347656 19.87398437 31.06347656 20.765625 32.1484375 C22.76075631 34.52128784 24.80760033 36.80760033 27 39 C27 39.66 27 40.32 27 41 C19.19566592 40.33670217 13.81585265 32.26420201 8.98828125 26.66796875 C6.28494774 23.24461905 4.28140854 20.50253671 4 16 C5.32 17.65 6.64 19.3 8 21 C8 17.02698665 6.28783907 14.25357249 4.5 10.8125 C3.99919922 9.83120117 3.99919922 9.83120117 3.48828125 8.83007812 C2.66423076 7.2172936 1.83281845 5.60827441 1 4 C-2.98138185 7.98138185 -3.75347459 12.65774825 -5 18 C-5.33 18 -5.66 18 -6 18 C-6.46450943 11.49686791 -5.32575612 7.5825192 -2 2 C-1.34 2 -0.68 2 0 2 C0 1.34 0 0.68 0 0 Z " fill="#12384F" transform="translate(68,83)"/>
<path d="M0 0 C11.12003964 4.56815699 11.12003964 4.56815699 13.3515625 8.19921875 C13.56554687 8.79347656 13.77953125 9.38773438 14 10 C13.01 10.33 12.02 10.66 11 11 C10.071875 10.360625 9.14375 9.72125 8.1875 9.0625 C4.52522555 6.69279301 3.2456782 6.83350282 -1 7 C-4.02987283 6.45273233 -7.01277744 5.7434865 -10 5 C-9.2265625 6.423125 -9.2265625 6.423125 -8.4375 7.875 C-7.963125 8.90625 -7.48875 9.9375 -7 11 C-7.33 11.66 -7.66 12.32 -8 13 C-7.67 13.99 -7.34 14.98 -7 16 C-7.99 16 -8.98 16 -10 16 C-12.24174328 12.49727613 -13.82336961 9.90081498 -14.625 5.8125 C-14 3 -14 3 -11.5 0.5625 C-7.18268305 -1.36487364 -4.39654026 -1.39029667 0 0 Z " fill="#105B80" transform="translate(42,5)"/>
<path d="M0 0 C0 0.66 0 1.32 0 2 C-0.99 2.66 -1.98 3.32 -3 4 C-2.3709375 4.42410156 -1.741875 4.84820312 -1.09375 5.28515625 C20.2812652 19.93219227 20.2812652 19.93219227 22 29 C20 28 18 27 16 26 C16 25.34 16 24.68 16 24 C15.01 24 14.02 24 13 24 C13 23.34 13 22.68 13 22 C12.1646875 21.76216797 12.1646875 21.76216797 11.3125 21.51953125 C5.76121822 19.82226436 0.50064276 17.76584394 -4 14 C-4.33 13.01 -4.66 12.02 -5 11 C-0.96479403 12.58962659 3.01811282 14.28232318 7 16 C7 16.66 7 17.32 7 18 C7.66 18 8.32 18 9 18 C9 17.01 9 16.02 9 15 C8.34 15 7.68 15 7 15 C7 14.34 7 13.68 7 13 C6.29875 12.7525 5.5975 12.505 4.875 12.25 C-0.13138528 10.07331075 -4.41539897 7.13607811 -8 3 C-8 2.34 -8 1.68 -8 1 C-5.10765685 0.17361624 -3.11257569 0 0 0 Z " fill="#0F425E" transform="translate(157,124)"/>
<path d="M0 0 C2.5845829 0.9333216 4.66128728 1.70305678 6.7421875 3.52734375 C9.79139008 5.51618349 12.25897473 5.49007429 15.875 5.75 C27.70658215 6.97620587 37.18152668 12.74177288 46.109375 20.3984375 C47.91499573 22.05620255 47.91499573 22.05620255 50 23 C50 23.66 50 24.32 50 25 C50.66 25 51.32 25 52 25 C53.5859375 26.609375 53.5859375 26.609375 55.375 28.75 C57.31403841 31.04452878 59.19129177 33.18122378 61.375 35.25 C63.15591285 37.16790615 63.63373419 38.43613931 64 41 C59.95740292 39.65246764 59.30534954 37.52582871 57 34 C44.75474472 21.19246259 31.76128842 11.44859186 13.95263672 9.08691406 C7.82058731 8.20458425 3.61380157 6.06172275 -1 2 C-0.67 1.34 -0.34 0.68 0 0 Z " fill="#0F3B57" transform="translate(45,11)"/>
<path d="M0 0 C3.44410878 1.72205439 4.51854771 5.52544479 6.1875 8.875 C6.56841797 9.60847656 6.94933594 10.34195313 7.34179688 11.09765625 C7.87450195 12.15919922 7.87450195 12.15919922 8.41796875 13.2421875 C8.74563232 13.8904248 9.0732959 14.53866211 9.41088867 15.20654297 C10 17 10 17 9 20 C4.125 15.25 4.125 15.25 3 13 C2.34 13 1.68 13 1 13 C0.67 12.34 0.34 11.68 0 11 C-0.10957031 11.77085938 -0.21914062 12.54171875 -0.33203125 13.3359375 C-0.49058594 14.33882812 -0.64914063 15.34171875 -0.8125 16.375 C-0.96332031 17.37273437 -1.11414063 18.37046875 -1.26953125 19.3984375 C-2 22 -2 22 -5 24 C-8.1875 23.625 -8.1875 23.625 -11 23 C-11.33 21.68 -11.66 20.36 -12 19 C-10.02 19.33 -8.04 19.66 -6 20 C-5.67 18.68 -5.34 17.36 -5 16 C-5.66 15.67 -6.32 15.34 -7 15 C-6.34 15 -5.68 15 -5 15 C-4.9175 13.824375 -4.835 12.64875 -4.75 11.4375 C-4.20155569 6.84530215 -2.49130683 3.85750735 0 0 Z " fill="#0E5C85" transform="translate(68,86)"/>
<path d="M0 0 C4.86571198 2.91227173 8.07664717 6.06774415 11.5 10.5625 C12.22098877 11.50101807 12.22098877 11.50101807 12.95654297 12.45849609 C19.74876806 21.46802731 24.1229479 31.37394335 28.66870117 41.63916016 C31.15074829 47.21782636 33.78445663 52.59893243 36.80859375 57.90625 C37.94678461 59.90648049 38.98983276 61.932681 40 64 C35.23310206 61.743723 33.44541076 58.81204352 31.3125 54.1875 C30.98072754 53.50042969 30.64895508 52.81335938 30.30712891 52.10546875 C28.28701462 47.88117085 26.37409494 43.61080992 24.47265625 39.33203125 C23.82526489 37.88244019 23.82526489 37.88244019 23.16479492 36.40356445 C22.32469456 34.51234477 21.49487938 32.616512 20.67700195 30.71557617 C17.82543619 24.25504339 14.50778679 18.47560526 9.45654297 13.47070312 C6.91138149 10.9007982 4 7.72138499 4 4 C2.68 3.67 1.36 3.34 0 3 C0 2.01 0 1.02 0 0 Z " fill="#0C3F5E" transform="translate(99,33)"/>
<path d="M0 0 C0.99 0.66 1.98 1.32 3 2 C3 2.66 3 3.32 3 4 C1.39658445 4.33692785 -0.20776555 4.66941093 -1.8125 5 C-2.70582031 5.185625 -3.59914062 5.37125 -4.51953125 5.5625 C-7 6 -7 6 -10 6 C-10.33 6.99 -10.66 7.98 -11 9 C-11 8.34 -11 7.68 -11 7 C-13.64 7.33 -16.28 7.66 -19 8 C-14.6328254 13.71092064 -10.46226022 16.88375452 -4 20 C-4 20.66 -4 21.32 -4 22 C-3.34 22 -2.68 22 -2 22 C-2 22.99 -2 23.98 -2 25 C-2.66 25 -3.32 25 -4 25 C-4 24.34 -4 23.68 -4 23 C-4.825 22.938125 -5.65 22.87625 -6.5 22.8125 C-10.87257022 21.79743906 -14.60619962 19.98034247 -18 17 C-18 16.01 -18 15.02 -18 14 C-18.66 14 -19.32 14 -20 14 C-21.74627478 11.38058783 -22.38722388 9.96175123 -23 7 C-16.30715011 3.33486792 -9.51687014 3.3023429 -2 3 C-2 2.34 -2 1.68 -2 1 C-1.34 0.67 -0.68 0.34 0 0 Z " fill="#0D5B81" transform="translate(168,117)"/>
<path d="M0 0 C3.4375 0.8125 3.4375 0.8125 7 2 C7.33 2.99 7.66 3.98 8 5 C7.34 5 6.68 5 6 5 C6.33 5.99 6.66 6.98 7 8 C6.34 8 5.68 8 5 8 C4.34 7.34 3.68 6.68 3 6 C2.67 6 2.34 6 2 6 C1.67 12.27 1.34 18.54 1 25 C-0.65 25 -2.3 25 -4 25 C-4 17.74 -4 10.48 -4 3 C-3.01 2.67 -2.02 2.34 -1 2 C-0.67 1.34 -0.34 0.68 0 0 Z " fill="#0B6189" transform="translate(4,145)"/>
<path d="M0 0 C0.83789062 0.47050781 1.67578125 0.94101563 2.5390625 1.42578125 C6.24646935 3.11210739 9.34452652 3.69319665 13.375 4.1875 C14.62023437 4.34605469 15.86546875 4.50460938 17.1484375 4.66796875 C18.08945313 4.77753906 19.03046875 4.88710937 20 5 C20.625 8.375 20.625 8.375 21 12 C19 14 19 14 17.02880859 14.22705078 C16.24328613 14.21657715 15.45776367 14.20610352 14.6484375 14.1953125 C13.79765625 14.18886719 12.946875 14.18242187 12.0703125 14.17578125 C10.73613281 14.15064453 10.73613281 14.15064453 9.375 14.125 C8.02921875 14.11146484 8.02921875 14.11146484 6.65625 14.09765625 C4.43723414 14.0740497 2.21874923 14.0411231 0 14 C0 14.99 0 15.98 0 17 C7.26 16.67 14.52 16.34 22 16 C18.79593538 18.13604308 18.00399253 18.24208908 14.33203125 18.1953125 C13.43935547 18.18886719 12.54667969 18.18242187 11.62695312 18.17578125 C10.23379883 18.15064453 10.23379883 18.15064453 8.8125 18.125 C7.87212891 18.11597656 6.93175781 18.10695312 5.96289062 18.09765625 C3.64167032 18.07409056 1.32096356 18.04119116 -1 18 C-1.33 16.35 -1.66 14.7 -2 13 C1.29960141 11.3501993 4.99127884 11.61741639 8.625 11.4375 C9.42679688 11.39431641 10.22859375 11.35113281 11.0546875 11.30664062 C13.0362511 11.20048543 15.01810271 11.09973145 17 11 C17.33 9.35 17.66 7.7 18 6 C17.07380859 6.05220703 17.07380859 6.05220703 16.12890625 6.10546875 C9.81455703 6.30729726 4.84551745 5.37209404 -1 3 C-0.67 2.01 -0.34 1.02 0 0 Z " fill="#B9842E" transform="translate(80,155)"/>
<path d="M0 0 C1.58634931 2.37952397 2.62509125 4.30882002 3.69921875 6.90625 C4.18358398 8.02193359 4.18358398 8.02193359 4.67773438 9.16015625 C5.34788275 10.71303391 6.001751 12.27304456 6.63867188 13.83984375 C8.41015909 17.84042348 9.64125529 20.25976115 13.76953125 22.03125 C15.36861328 22.51078125 15.36861328 22.51078125 17 23 C17.66 21.35 18.32 19.7 19 18 C19.66 18.66 20.32 19.32 21 20 C19.56092073 22.23057287 18.56127046 23.73807378 16.125 24.875 C13.0728981 25.05453541 11.68091522 24.54102979 9 23 C7.22952873 20.4453987 5.97242401 17.69841936 4.6875 14.875 C4.32849609 14.12089844 3.96949219 13.36679688 3.59960938 12.58984375 C2.71841064 10.73345175 1.857218 8.86758661 1 7 C0.67 12.61 0.34 18.22 0 24 C-2.31 24 -4.62 24 -7 24 C-7 23.34 -7 22.68 -7 22 C-5.35 22 -3.7 22 -2 22 C-2.01047363 21.40461426 -2.02094727 20.80922852 -2.03173828 20.19580078 C-2.07323949 17.50557657 -2.09930704 14.81541963 -2.125 12.125 C-2.14175781 11.18785156 -2.15851562 10.25070313 -2.17578125 9.28515625 C-2.18222656 8.38925781 -2.18867187 7.49335938 -2.1953125 6.5703125 C-2.20578613 5.74289551 -2.21625977 4.91547852 -2.22705078 4.06298828 C-2 2 -2 2 0 0 Z " fill="#0C3958" transform="translate(7,148)"/>
<path d="M0 0 C0.66 0 1.32 0 2 0 C1.86722656 0.70125 1.73445313 1.4025 1.59765625 2.125 C-0.88626052 15.46925361 -2.18999904 27.07396467 3 40 C3.66 40 4.32 40 5 40 C5.33 39.34 5.66 38.68 6 38 C6.66 38 7.32 38 8 38 C7.505 40.475 7.505 40.475 7 43 C4.75 43.0625 4.75 43.0625 2 42 C0.18253421 39.17830735 -0.90737187 36.16207587 -2 33 C-2.22816406 32.35546875 -2.45632812 31.7109375 -2.69140625 31.046875 C-5.92840246 20.27197851 -3.73037731 10.32515148 0 0 Z " fill="#084162" transform="translate(55,64)"/>
<path d="M0 0 C0.845625 0.66 1.69125 1.32 2.5625 2 C2.8925 1.01 3.2225 0.02 3.5625 -1 C5.5425 -1 7.5225 -1 9.5625 -1 C7.5825 -0.01 7.5825 -0.01 5.5625 1 C5.2325 8.26 4.9025 15.52 4.5625 23 C4.2325 23 3.9025 23 3.5625 23 C3.2325 19.37 2.9025 15.74 2.5625 12 C2.2325 15.63 1.9025 19.26 1.5625 23 C1.2325 23 0.9025 23 0.5625 23 C0.54791748 22.40461426 0.53333496 21.80922852 0.51831055 21.19580078 C0.44395656 18.50486949 0.34725813 15.81519667 0.25 13.125 C0.22744141 12.18785156 0.20488281 11.25070313 0.18164062 10.28515625 C0.1284668 8.94130859 0.1284668 8.94130859 0.07421875 7.5703125 C0.04803467 6.74289551 0.02185059 5.91547852 -0.00512695 5.06298828 C-0.26846637 2.60672068 -0.26846637 2.60672068 -3.4375 1 C-6.02635171 0.70008931 -8.52899082 0.49134775 -11.125 0.375 C-12.1778418 0.31699219 -12.1778418 0.31699219 -13.25195312 0.2578125 C-14.98004655 0.1637666 -16.70873675 0.0808032 -18.4375 0 C-18.7675 0.66 -19.0975 1.32 -19.4375 2 C-19.4375 1.34 -19.4375 0.68 -19.4375 0 C-21.0875 0 -22.7375 0 -24.4375 0 C-24.4375 -0.33 -24.4375 -0.66 -24.4375 -1 C-16.92446148 -2.77031368 -6.90422346 -4.01210522 0 0 Z " fill="#CE963F" transform="translate(137.4375,145)"/>
<path d="M0 0 C1.8871875 0.00773438 1.8871875 0.00773438 3.8125 0.015625 C5.070625 0.01046875 6.32875 0.0053125 7.625 0 C10.8125 0.265625 10.8125 0.265625 12.8125 2.265625 C12.95767744 5.1749808 12.99880796 7.985571 12.9375 10.890625 C12.92847656 11.69242188 12.91945312 12.49421875 12.91015625 13.3203125 C12.88656223 15.30221023 12.85069065 17.28395481 12.8125 19.265625 C9.8125 19.265625 9.8125 19.265625 7.8125 18.265625 C7.8125 17.605625 7.8125 16.945625 7.8125 16.265625 C5.8325 17.255625 5.8325 17.255625 3.8125 18.265625 C4.1425 18.925625 4.4725 19.585625 4.8125 20.265625 C1.8425 20.265625 -1.1275 20.265625 -4.1875 20.265625 C-5.76727708 17.10607083 -5.37197084 13.73098683 -5.375 10.265625 C-5.38724609 9.52828125 -5.39949219 8.7909375 -5.41210938 8.03125 C-5.41737395 6.10792442 -5.30953447 4.18508237 -5.1875 2.265625 C-3.1875 0.265625 -3.1875 0.265625 0 0 Z M-3.1875 2.265625 C-4.22565092 10.79027503 -4.22565092 10.79027503 -3.1875 19.265625 C-1.8675 19.265625 -0.5475 19.265625 0.8125 19.265625 C0.8125 17.945625 0.8125 16.625625 0.8125 15.265625 C8.4375 16.140625 8.4375 16.140625 11.8125 17.265625 C11.83943575 15.14069359 11.85886628 13.01566588 11.875 10.890625 C11.88660156 9.70726562 11.89820313 8.52390625 11.91015625 7.3046875 C12.02716593 4.34640979 12.02716593 4.34640979 10.8125 2.265625 C8.59475221 1.75736351 8.59475221 1.75736351 6 1.578125 C4.69095703 1.44857422 4.69095703 1.44857422 3.35546875 1.31640625 C0.94205035 1.26821203 -0.89486498 1.5548547 -3.1875 2.265625 Z " fill="#CF9943" transform="translate(120.1875,147.734375)"/>
<path d="M0 0 C2.4375 1.1875 2.4375 1.1875 5 3 C5.75 5.25 5.75 5.25 6 8 C6.185625 9.258125 6.37125 10.51625 6.5625 11.8125 C6.706875 12.864375 6.85125 13.91625 7 15 C6.01 15.495 6.01 15.495 5 16 C5.7115625 17.299375 5.7115625 17.299375 6.4375 18.625 C7.93468779 21.85892564 8.43343603 24.51967845 9 28 C9.66 28.33 10.32 28.66 11 29 C10.67 30.32 10.34 31.64 10 33 C7.114587 29.59933468 5.57699266 25.86753294 4 21.75 C3.73944824 21.08194336 3.47889648 20.41388672 3.21044922 19.72558594 C2.46868073 17.81897651 1.7341378 15.90956061 1 14 C0.65195312 13.1234375 0.30390625 12.246875 -0.0546875 11.34375 C-1.20627984 8.40444764 -2 6.18728042 -2 3 C0.72426311 5.35277269 1.8141763 7.62496331 3 11 C3.66 11 4.32 11 5 11 C4.6390625 10.37351562 4.278125 9.74703125 3.90625 9.1015625 C3.4421875 8.28429688 2.978125 7.46703125 2.5 6.625 C2.0359375 5.81289063 1.571875 5.00078125 1.09375 4.1640625 C0 2 0 2 0 0 Z " fill="#0B3D5B" transform="translate(38,24)"/>
<path d="M0 0 C0.33 0 0.66 0 1 0 C1.33 7.26 1.66 14.52 2 22 C8.27 22.33 14.54 22.66 21 23 C21 24.32 21 25.64 21 27 C17.87507749 27.05791844 14.75029234 27.09356746 11.625 27.125 C10.73554688 27.14175781 9.84609375 27.15851563 8.9296875 27.17578125 C8.07890625 27.18222656 7.228125 27.18867188 6.3515625 27.1953125 C5.17327881 27.21102295 5.17327881 27.21102295 3.97119141 27.22705078 C2 27 2 27 0 25 C0 16.66666667 0 8.33333333 0 0 Z " fill="#C88614" transform="translate(147,145)"/>
<path d="M0 0 C-0.33 1.65 -0.66 3.3 -1 5 C-1.66 5 -2.32 5 -3 5 C-2.835 5.61875 -2.67 6.2375 -2.5 6.875 C-1.91957812 10.50263675 -1.98748741 13.9520708 -2.03125 17.6171875 C-1.99763311 20.18047551 -1.66066488 22.52250671 -1 25 C2.75399798 26.2039337 6.33217412 26.09877617 10.25 26.0625 C11.51328125 26.05347656 12.7765625 26.04445312 14.078125 26.03515625 C15.52445313 26.01775391 15.52445313 26.01775391 17 26 C17.33 26.99 17.66 27.98 18 29 C15.26935053 28.91269147 12.5418381 28.80577876 9.8125 28.6875 C9.04357422 28.66494141 8.27464844 28.64238281 7.48242188 28.61914062 C2.89075147 28.40236649 -0.2597126 27.94139106 -4 25 C-5.82189994 21.35620011 -5.22760405 17.07417515 -5.25 13.0625 C-5.270625 12.14275391 -5.29125 11.22300781 -5.3125 10.27539062 C-5.31765625 9.39173828 -5.3228125 8.50808594 -5.328125 7.59765625 C-5.3374707 6.78820557 -5.34681641 5.97875488 -5.35644531 5.14477539 C-4.82077569 1.92158522 -3.37531138 0 0 0 Z " fill="#C48B36" transform="translate(113,145)"/>
<path d="M0 0 C0.33 1.32 0.66 2.64 1 4 C-4.94 4 -10.88 4 -17 4 C-17 3.34 -17 2.68 -17 2 C-19.53744315 2.54708727 -19.53744315 2.54708727 -22 4 C-22.89830839 7.05272465 -22.89830839 7.05272465 -23 10 C-23.99 10.33 -24.98 10.66 -26 11 C-26.3125 7.6875 -26.3125 7.6875 -26 4 C-22.04193109 0.69267743 -17.96229044 0.47272155 -13 0.3125 C-11.95199219 0.26125977 -11.95199219 0.26125977 -10.8828125 0.20898438 C-7.25418045 0.04124572 -3.63214763 -0.03547019 0 0 Z " fill="#C17716" transform="translate(104,144)"/>
<path d="M0 0 C0.66 1.32 1.32 2.64 2 4 C6.95 4 11.9 4 17 4 C17 5.32 17 6.64 17 8 C13.89601022 8.08710289 10.79233452 8.14042309 7.6875 8.1875 C6.80642578 8.21263672 5.92535156 8.23777344 5.01757812 8.26367188 C3.74624023 8.27817383 3.74624023 8.27817383 2.44921875 8.29296875 C1.66893311 8.3086792 0.88864746 8.32438965 0.0847168 8.34057617 C-2 8 -2 8 -3.77807617 6.73168945 C-5 5 -5 5 -5 1 C-4.34 1 -3.68 1 -3 1 C-2.67 1.99 -2.34 2.98 -2 4 C-1.34 2.68 -0.68 1.36 0 0 Z " fill="#06405E" transform="translate(51,163)"/>
<path d="M0 0 C3.57949225 0.61014072 5.68454491 2.06110012 8.5 4.3125 C9.2528125 4.90675781 10.005625 5.50101563 10.78125 6.11328125 C16.94102342 11.35125759 16.94102342 11.35125759 17.25 14.75 C17.1675 15.4925 17.085 16.235 17 17 C16.01 17 15.02 17 14 17 C14 16.34 14 15.68 14 15 C13.34 15 12.68 15 12 15 C12 14.34 12 13.68 12 13 C11.401875 12.731875 10.80375 12.46375 10.1875 12.1875 C8.02775192 11.01506533 6.64209744 9.80630718 5 8 C5.66 8 6.32 8 7 8 C7 7.34 7 6.68 7 6 C3.535 4.02 3.535 4.02 0 2 C0 1.34 0 0.68 0 0 Z " fill="#16597E" transform="translate(83,21)"/>
<path d="M0 0 C3.58294844 3.53605121 4.95910645 8.6313283 6.6875 13.25 C7.00783203 14.09046875 7.32816406 14.9309375 7.65820312 15.796875 C8.44454323 17.86248483 9.22491769 19.93014538 10 22 C9.34 22.66 8.68 23.32 8 24 C6.66087415 20.87745057 5.32969342 17.75157642 4 14.625 C3.6184375 13.73554688 3.236875 12.84609375 2.84375 11.9296875 C2.30234375 10.65351563 2.30234375 10.65351563 1.75 9.3515625 C1.41484375 8.56604004 1.0796875 7.78051758 0.734375 6.97119141 C0 5 0 5 0 3 C-2.31 2.34 -4.62 1.68 -7 1 C-7.33 1.99 -7.66 2.98 -8 4 C-8.99 4 -9.98 4 -11 4 C-8.42407961 -1.70382372 -5.97292422 -1.36224587 0 0 Z " fill="#0F4064" transform="translate(11,144)"/>
<path d="M0 0 C0.66 0.66 1.32 1.32 2 2 C0.125 3.0625 0.125 3.0625 -2 4 C-2.66 3.67 -3.32 3.34 -4 3 C-5.99960012 2.960008 -8.00047242 2.95653201 -10 3 C-10.15397814 5.26811444 -10.15397814 5.26811444 -8.4375 8 C-7.963125 8.99 -7.48875 9.98 -7 11 C-7.33 11.66 -7.66 12.32 -8 13 C-7.67 13.99 -7.34 14.98 -7 16 C-7.99 16 -8.98 16 -10 16 C-12.24174328 12.49727613 -13.82336961 9.90081498 -14.625 5.8125 C-14 3 -14 3 -11.5 0.5625 C-6.91444546 -1.48462256 -4.84496908 -1.13049279 0 0 Z " fill="#175A7F" transform="translate(42,5)"/>
<path d="M0 0 C2.5 1.25 2.5 1.25 4.5 4.25 C4.625 6.9375 4.625 6.9375 4.5 9.25 C2.52 10.24 2.52 10.24 0.5 11.25 C-0.53319813 9.9891988 -1.55124379 8.71596742 -2.5625 7.4375 C-3.41521484 6.37595703 -3.41521484 6.37595703 -4.28515625 5.29296875 C-4.68605469 4.61878906 -5.08695313 3.94460937 -5.5 3.25 C-5.17 2.26 -4.84 1.27 -4.5 0.25 C-2.5 -0.75 -2.5 -0.75 0 0 Z " fill="#1C4258" transform="translate(61.5,27.75)"/>
<path d="M0 0 C3 1 3 1 4.60546875 3.87109375 C5.12753906 5.04800781 5.64960937 6.22492188 6.1875 7.4375 C6.71730469 8.61183594 7.24710938 9.78617188 7.79296875 10.99609375 C9 14 9 14 9 16 C6 15 6 15 4.61328125 12.49609375 C3.96939453 10.98208984 3.96939453 10.98208984 3.3125 9.4375 C2.87550781 8.42558594 2.43851563 7.41367188 1.98828125 6.37109375 C1.66214844 5.58863281 1.33601563 4.80617188 1 4 C-2.98138185 7.98138185 -3.75347459 12.65774825 -5 18 C-5.33 18 -5.66 18 -6 18 C-6.46450943 11.49686791 -5.32575612 7.5825192 -2 2 C-1.34 2 -0.68 2 0 2 C0 1.34 0 0.68 0 0 Z " fill="#0B3C59" transform="translate(68,83)"/>
<path d="M0 0 C2.31 0 4.62 0 7 0 C7.08696177 3.93736123 7.14037835 7.87447628 7.1875 11.8125 C7.21263672 12.93205078 7.23777344 14.05160156 7.26367188 15.20507812 C7.27333984 16.27822266 7.28300781 17.35136719 7.29296875 18.45703125 C7.31653442 19.9416687 7.31653442 19.9416687 7.34057617 21.45629883 C6.95047123 24.3699213 6.27991712 25.22497802 4 27 C3.01 26.67 2.02 26.34 1 26 C1.99 25.34 2.98 24.68 4 24 C4.50843062 21.68246412 4.50843062 21.68246412 4.51171875 18.9921875 C4.54716797 18.00605469 4.58261719 17.01992187 4.61914062 16.00390625 C4.65297852 14.45509766 4.65297852 14.45509766 4.6875 12.875 C4.72166016 11.83472656 4.75582031 10.79445312 4.79101562 9.72265625 C4.87367058 7.14854493 4.94276155 4.57478171 5 2 C3.35 2.33 1.7 2.66 0 3 C0 2.01 0 1.02 0 0 Z " fill="#10384D" transform="translate(68,152)"/>
<path d="M0 0 C1.56197295 2.34295943 3.10846459 4.69014198 4.625 7.0625 C5.07101563 7.75472656 5.51703125 8.44695312 5.9765625 9.16015625 C7 11 7 11 7 13 C11.14093698 13.20970559 11.14093698 13.20970559 15 12 C15.61561418 9.45123766 15.61561418 9.45123766 16 6.5 C16.4375 3.46875 16.4375 3.46875 17 1 C17.66 0.67 18.32 0.34 19 0 C20.19180968 3.4626903 19.80706459 5.65326824 18.75 9.125 C18.49734375 9.99382812 18.2446875 10.86265625 17.984375 11.7578125 C17 14 17 14 14 16 C10.7263256 16.51689596 9.31595359 16.18494844 6.4375 14.5 C2.26973956 10.22537391 0 5.9996821 0 0 Z " fill="#09314E" transform="translate(50,96)"/>
<path d="M0 0 C0.66 0 1.32 0 2 0 C1.76228882 0.84933105 1.76228882 0.84933105 1.51977539 1.71582031 C0.99214152 4.0345345 0.795844 6.17358397 0.68359375 8.546875 C0.64169922 9.39121094 0.59980469 10.23554688 0.55664062 11.10546875 C0.51732422 11.97816406 0.47800781 12.85085937 0.4375 13.75 C0.37272461 15.08224609 0.37272461 15.08224609 0.30664062 16.44140625 C0.20086385 18.62745963 0.09877454 20.81362089 0 23 C-1.32 23 -2.64 23 -4 23 C-4 19.04 -4 15.08 -4 11 C-3.01 10.67 -2.02 10.34 -1 10 C-1.020625 8.72125 -1.04125 7.4425 -1.0625 6.125 C-1.125 2.25 -1.125 2.25 0 0 Z " fill="#075884" transform="translate(5,147)"/>
<path d="M0 0 C0.99 0 1.98 0 3 0 C3 7.59 3 15.18 3 23 C2.01 23 1.02 23 0 23 C0 15.41 0 7.82 0 0 Z " fill="#0D5E86" transform="translate(37,147)"/>
<path d="M0 0 C0.66 0.33 1.32 0.66 2 1 C1.34 9.58 0.68 18.16 0 27 C-0.33 26.34 -0.66 25.68 -1 25 C-1.66 25 -2.32 25 -3 25 C-3.42781312 16.20606372 -2.29967196 8.48688461 0 0 Z " fill="#0F406B" transform="translate(50,65)"/>
<path d="M0 0 C3.35915158 1.43963639 5.71624938 3.12416589 8 6 C7.60546875 8.1328125 7.60546875 8.1328125 7 10 C5.43883181 10.33951619 3.87598662 10.67132544 2.3125 11 C1.00732422 11.2784375 1.00732422 11.2784375 -0.32421875 11.5625 C-2.93712964 11.98972047 -5.35813038 12.07616201 -8 12 C-8 11.34 -8 10.68 -8 10 C-3.71 9.34 0.58 8.68 5 8 C4.01 7.01 3.02 6.02 2 5 C1.01 5 0.02 5 -1 5 C-1.33 4.01 -1.66 3.02 -2 2 C-1.34 2 -0.68 2 0 2 C0 1.34 0 0.68 0 0 Z " fill="#0D3D52" transform="translate(166,113)"/>
<path d="M0 0 C0 0.99 0 1.98 0 3 C-0.66 3.66 -1.32 4.32 -2 5 C-2.16687448 7.58354218 -2.16687448 7.58354218 -2 10 C-1.01 10 -0.02 10 1 10 C1 10.66 1 11.32 1 12 C2.98 12 4.96 12 7 12 C7 12.33 7 12.66 7 13 C1.31088285 13.29426468 -1.97718116 12.98977312 -7 10 C-7.66 9.67 -8.32 9.34 -9 9 C-8.01 8.67 -7.02 8.34 -6 8 C-6.061875 7.05125 -6.12375 6.1025 -6.1875 5.125 C-6.125625 4.09375 -6.06375 3.0625 -6 2 C-3 0 -3 0 0 0 Z " fill="#D78E12" transform="translate(87,146)"/>
<path d="M0 0 C9.6447881 2.72032485 17.61061468 8.3583501 25 15 C25.33 15.66 25.66 16.32 26 17 C17.31034483 13.62068966 17.31034483 13.62068966 16 11 C15.34 10.67 14.68 10.34 14 10 C12.72582921 9.19274389 11.4554394 8.37950875 10.1875 7.5625 C7.79207233 6.04249226 5.72674404 4.89534878 3.0625 3.875 C2.381875 3.58625 1.70125 3.2975 1 3 C0.67 2.01 0.34 1.02 0 0 Z " fill="#0A3650" transform="translate(140,96)"/>
<path d="M0 0 C0.66 0 1.32 0 2 0 C1.86722656 0.67804688 1.73445313 1.35609375 1.59765625 2.0546875 C0.52284631 7.71901433 -0.27282099 13.24235869 -0.55859375 19.00390625 C-1 21 -1 21 -4 23 C-4.67620721 14.67889465 -2.74493505 7.81816322 0 0 Z " fill="#0F385D" transform="translate(55,64)"/>
<path d="M0 0 C0 4.95 0 9.9 0 15 C-1.32 15 -2.64 15 -4 15 C-4.08078641 12.87561661 -4.13909141 10.7503677 -4.1875 8.625 C-4.22230469 7.44164062 -4.25710937 6.25828125 -4.29296875 5.0390625 C-4.19628906 4.03617188 -4.09960938 3.03328125 -4 2 C-1 0 -1 0 0 0 Z " fill="#DF8B0C" transform="translate(147,145)"/>
<path d="M0 0 C1.99954746 -0.04254356 4.00041636 -0.04080783 6 0 C7.57465873 1.57465873 7.20054408 3.2179177 7.28125 5.40234375 C7.31863281 6.29244141 7.35601562 7.18253906 7.39453125 8.09960938 C7.42933594 9.03611328 7.46414062 9.97261719 7.5 10.9375 C7.56876352 12.78010759 7.64148918 14.62257289 7.71875 16.46484375 C7.74904297 17.285896 7.77933594 18.10694824 7.81054688 18.95288086 C7.8811079 21.06462166 7.8811079 21.06462166 9 23 C14.61 23.33 20.22 23.66 26 24 C26 24.33 26 24.66 26 25 C22.85418577 25.02888514 19.70840531 25.04675923 16.5625 25.0625 C15.66466797 25.07087891 14.76683594 25.07925781 13.84179688 25.08789062 C12.56079102 25.09272461 12.56079102 25.09272461 11.25390625 25.09765625 C10.46314697 25.10289307 9.6723877 25.10812988 8.85766602 25.11352539 C7 25 7 25 6 24 C5.84285346 22.36743242 5.74914586 20.72864662 5.68359375 19.08984375 C5.62075195 17.60581055 5.62075195 17.60581055 5.55664062 16.09179688 C5.51732422 15.05087891 5.47800781 14.00996094 5.4375 12.9375 C5.39431641 11.89271484 5.35113281 10.84792969 5.30664062 9.77148438 C5.20018775 7.18113116 5.0981724 4.59067814 5 2 C3.35 1.67 1.7 1.34 0 1 C0 0.67 0 0.34 0 0 Z " fill="#C49A55" transform="translate(142,143)"/>
<path d="M0 0 C0.99 0.99 1.98 1.98 3 3 C3.33 2.34 3.66 1.68 4 1 C4.48210937 1.55429688 4.96421875 2.10859375 5.4609375 2.6796875 C6.09257813 3.40414062 6.72421875 4.12859375 7.375 4.875 C8.00148438 5.59429687 8.62796875 6.31359375 9.2734375 7.0546875 C10.47426834 8.4076598 11.7208345 9.7208345 13 11 C13 11.66 13 12.32 13 13 C8.31808451 12.54261927 6.36895826 10.80889606 3.1875 7.4375 C2.39730469 6.61121094 1.60710937 5.78492187 0.79296875 4.93359375 C0.20128906 4.29550781 -0.39039062 3.65742187 -1 3 C-0.67 2.01 -0.34 1.02 0 0 Z " fill="#384B51" transform="translate(82,111)"/>
<path d="M0 0 C0.99 0 1.98 0 3 0 C3 5.61 3 11.22 3 17 C2.01 17.33 1.02 17.66 0 18 C-1.04167441 13.90274731 -0.94409525 10.38504776 -0.5625 6.1875 C-0.46066406 5.02605469 -0.35882813 3.86460937 -0.25390625 2.66796875 C-0.17011719 1.78753906 -0.08632812 0.90710938 0 0 Z " fill="#0F5E85" transform="translate(70,157)"/>
<path d="M0 0 C6.27 0 12.54 0 19 0 C18.01 0.33 17.02 0.66 16 1 C16 1.66 16 2.32 16 3 C10.72 3 5.44 3 0 3 C0 2.01 0 1.02 0 0 Z " fill="#D48C12" transform="translate(80,169)"/>
<path d="M0 0 C2.6875 0.375 2.6875 0.375 4.5625 2.5625 C5.709574 5.43018499 5.94906512 7.32340693 5.6875 10.375 C4.6975 10.87 4.6975 10.87 3.6875 11.375 C3.44 10.7975 3.1925 10.22 2.9375 9.625 C1.39711048 6.85229886 0.25653343 5.28530691 -2.3125 3.375 C-5.30408416 2.74981575 -8.26230844 2.50535007 -11.3125 2.375 C-11.3125 2.045 -11.3125 1.715 -11.3125 1.375 C-7.54635053 0.85553111 -3.77742263 0.42763275 0 0 Z " fill="#D88D1C" transform="translate(131.3125,144.625)"/>
<path d="M0 0 C1.27746094 -0.02578125 2.55492188 -0.0515625 3.87109375 -0.078125 C7.78824814 0.2700665 10.19749932 1.27364721 13.5625 3.25 C13.5625 3.91 13.5625 4.57 13.5625 5.25 C12.56669922 4.77433594 12.56669922 4.77433594 11.55078125 4.2890625 C7.95325657 3.03815849 4.5185199 2.79809948 0.75 2.625 C0.05712891 2.58632812 -0.63574219 2.54765625 -1.34960938 2.5078125 C-3.04517015 2.41426432 -4.74129712 2.33107636 -6.4375 2.25 C-6.7675 2.91 -7.0975 3.57 -7.4375 4.25 C-7.4375 3.59 -7.4375 2.93 -7.4375 2.25 C-9.0875 2.25 -10.7375 2.25 -12.4375 2.25 C-12.4375 1.92 -12.4375 1.59 -12.4375 1.25 C-8.26439011 0.25678383 -4.28461604 0.05177784 0 0 Z " fill="#C3995B" transform="translate(125.4375,142.75)"/>
<path d="M0 0 C2.52399159 0.95853879 3.3012567 1.99449683 4.796875 4.21484375 C5.22484375 4.83230469 5.6528125 5.44976562 6.09375 6.0859375 C7.046875 7.77734375 7.046875 7.77734375 7.046875 9.77734375 C5.046875 8.77734375 3.046875 7.77734375 1.046875 6.77734375 C1.046875 6.11734375 1.046875 5.45734375 1.046875 4.77734375 C0.056875 4.77734375 -0.933125 4.77734375 -1.953125 4.77734375 C-1.953125 4.11734375 -1.953125 3.45734375 -1.953125 2.77734375 C-2.613125 2.77734375 -3.273125 2.77734375 -3.953125 2.77734375 C-3.953125 2.11734375 -3.953125 1.45734375 -3.953125 0.77734375 C-1.953125 -0.22265625 -1.953125 -0.22265625 0 0 Z " fill="#1B2F43" transform="translate(171.953125,143.22265625)"/>
<path d="M0 0 C0.55429688 0.42152344 1.10859375 0.84304687 1.6796875 1.27734375 C2.40414062 1.82519531 3.12859375 2.37304688 3.875 2.9375 C4.59429687 3.48277344 5.31359375 4.02804688 6.0546875 4.58984375 C7.94357079 6.03964624 7.94357079 6.03964624 10 7 C10 7.66 10 8.32 10 9 C7 10 7 10 4.73828125 8.890625 C3.93777344 8.34921875 3.13726562 7.8078125 2.3125 7.25 C1.50425781 6.71890625 0.69601563 6.1878125 -0.13671875 5.640625 C-0.75160156 5.09921875 -1.36648437 4.5578125 -2 4 C-2 3.01 -2 2.02 -2 1 C-1.34 0.67 -0.68 0.34 0 0 Z " fill="#164B65" transform="translate(156,106)"/>
<path d="M0 0 C0.33 0 0.66 0 1 0 C1 4.29 1 8.58 1 13 C-0.32 12.34 -1.64 11.68 -3 11 C-3 8.03 -3 5.06 -3 2 C-2.01 2 -1.02 2 0 2 C0 1.34 0 0.68 0 0 Z " fill="#E38B10" transform="translate(113,154)"/>
<path d="M0 0 C0.33 0.66 0.66 1.32 1 2 C1.66 2 2.32 2 3 2 C3.38091797 2.79664063 3.38091797 2.79664063 3.76953125 3.609375 C5.96029838 8.13205287 5.96029838 8.13205287 8.8125 12.25 C10 14 10 14 9.6875 16.25 C9.460625 16.8275 9.23375 17.405 9 18 C7.65485136 16.0071872 6.32482349 14.00628222 5 12 C4.31744141 10.99066406 4.31744141 10.99066406 3.62109375 9.9609375 C3.16863281 9.27257813 2.71617188 8.58421875 2.25 7.875 C1.82203125 7.23304687 1.3940625 6.59109375 0.953125 5.9296875 C0 4 0 4 0 0 Z " fill="#113A54" transform="translate(47,44)"/>
<path d="M0 0 C4.03520597 1.58962659 8.01811282 3.28232318 12 5 C12 5.66 12 6.32 12 7 C13.32 7.33 14.64 7.66 16 8 C16 8.66 16 9.32 16 10 C10.3844502 8.71310317 5.49553073 6.69510697 1 3 C0.67 2.01 0.34 1.02 0 0 Z " fill="#083756" transform="translate(152,135)"/>
<path d="M0 0 C0.99 0.66 1.98 1.32 3 2 C2.67 2.99 2.34 3.98 2 5 C2.74981308 6.81218012 2.74981308 6.81218012 3.9375 8.5625 C6 11.81355932 6 11.81355932 6 14 C5.34 14 4.68 14 4 14 C2.4921875 11.91796875 2.4921875 11.91796875 0.875 9.1875 C0.33617187 8.29417969 -0.20265625 7.40085937 -0.7578125 6.48046875 C-2 4 -2 4 -2 1 C-1.34 0.67 -0.68 0.34 0 0 Z " fill="#14597E" transform="translate(37,21)"/>
<path d="M0 0 C2.3431213 0.25561323 4.67843403 0.59270772 7 1 C8.38125018 3.76250036 8.19079306 5.94731099 8 9 C7.34 9.66 6.68 10.32 6 11 C5.01 10.67 4.02 10.34 3 10 C3.165 9.236875 3.33 8.47375 3.5 7.6875 C4.09145396 4.96403764 4.09145396 4.96403764 4 2 C2.68 1.34 1.36 0.68 0 0 Z " fill="#E19013" transform="translate(96,158)"/>
<path d="M0 0 C0 0.99 0 1.98 0 3 C-5.28 3 -10.56 3 -16 3 C-16 2.34 -16 1.68 -16 1 C-14.27111445 0.83044205 -12.54187557 0.66448486 -10.8125 0.5 C-9.84957031 0.4071875 -8.88664062 0.314375 -7.89453125 0.21875 C-5.24812333 0.01875156 -2.65239135 -0.03879183 0 0 Z " fill="#D6881C" transform="translate(104,144)"/>
<path d="M0 0 C3.59057674 0.61482478 5.77333525 2.08553104 8.625 4.3125 C9.40101562 4.90675781 10.17703125 5.50101563 10.9765625 6.11328125 C12.98754086 7.9883827 13.96475077 9.47866719 15 12 C14.50371094 11.61328125 14.00742188 11.2265625 13.49609375 10.828125 C9.15116853 7.49729049 4.81370839 4.60742538 0 2 C0 1.34 0 0.68 0 0 Z " fill="#134160" transform="translate(83,21)"/>
<path d="M0 0 C3.74817794 0.28288135 6.07469317 1.39982467 9.3125 3.25 C8.3225 3.91 7.3325 4.57 6.3125 5.25 C3.958252 4.661438 1.62279085 3.99259349 -0.6875 3.25 C-1.6775 3.25 -2.6675 3.25 -3.6875 3.25 C-4.0175 4.24 -4.3475 5.23 -4.6875 6.25 C-3.62625076 0.33732565 -3.62625076 0.33732565 0 0 Z " fill="#0D4065" transform="translate(34.6875,6.75)"/>
<path d="M0 0 C5.81261371 1.73982995 10.83169994 3.8110489 16 7 C15.34 7.66 14.68 8.32 14 9 C13.32453125 8.65066406 12.6490625 8.30132812 11.953125 7.94140625 C11.06109375 7.48636719 10.1690625 7.03132813 9.25 6.5625 C8.36828125 6.11003906 7.4865625 5.65757813 6.578125 5.19140625 C4.35801434 4.16544602 2.38555381 3.48491397 0 3 C0 2.01 0 1.02 0 0 Z " fill="#15597C" transform="translate(139,98)"/>
<path d="M0 0 C2.475 0.99 2.475 0.99 5 2 C4.67 3.32 4.34 4.64 4 6 C2.68 6.33 1.36 6.66 0 7 C0 6.34 0 5.68 0 5 C-0.66 5 -1.32 5 -2 5 C-1.34 3.35 -0.68 1.7 0 0 Z " fill="#DAB36B" transform="translate(174,164)"/>
<path d="M0 0 C0.33 0 0.66 0 1 0 C1 3.96 1 7.92 1 12 C-2 12 -2 12 -4 11 C-4 10.34 -4 9.68 -4 9 C-6.31 9.66 -8.62 10.32 -11 11 C-11 10.01 -11 9.02 -11 8 C-9.741875 7.95875 -8.48375 7.9175 -7.1875 7.875 C-6.47980469 7.85179687 -5.77210937 7.82859375 -5.04296875 7.8046875 C-3 8 -3 8 0 10 C0 6.7 0 3.4 0 0 Z " fill="#B98D41" transform="translate(132,155)"/>
<path d="M0 0 C2.4375 1.1875 2.4375 1.1875 5 3 C5.75 5.25 5.75 5.25 6 8 C6.185625 9.258125 6.37125 10.51625 6.5625 11.8125 C6.706875 12.864375 6.85125 13.91625 7 15 C6.34 15 5.68 15 5 15 C5 14.34 5 13.68 5 13 C4.34 13 3.68 13 3 13 C3 12.34 3 11.68 3 11 C3.66 11 4.32 11 5 11 C4.6390625 10.37351562 4.278125 9.74703125 3.90625 9.1015625 C3.4421875 8.28429688 2.978125 7.46703125 2.5 6.625 C1.80390625 5.40683594 1.80390625 5.40683594 1.09375 4.1640625 C0 2 0 2 0 0 Z " fill="#084465" transform="translate(38,24)"/>
<path d="M0 0 C1 2 1 2 0.22265625 4.3828125 C-0.16019531 5.28773438 -0.54304688 6.19265625 -0.9375 7.125 C-1.31777344 8.03507813 -1.69804687 8.94515625 -2.08984375 9.8828125 C-2.39019531 10.58148438 -2.69054687 11.28015625 -3 12 C-3.66 11.67 -4.32 11.34 -5 11 C-4.50769231 4.6 -4.50769231 4.6 -1.9375 1.5625 C-0.9784375 0.7890625 -0.9784375 0.7890625 0 0 Z " fill="#0C5B81" transform="translate(31,151)"/>
<path d="M0 0 C0.66 0.33 1.32 0.66 2 1 C1.58846263 5.97093824 1.20399168 10.44508386 -1 15 C-1.66 15 -2.32 15 -3 15 C-2.01 10.05 -1.02 5.1 0 0 Z " fill="#063362" transform="translate(50,65)"/>
<path d="M0 0 C2 1 2 1 3.125 3.375 C4 6 4 6 4 9 C3.34 8.67 2.68 8.34 2 8 C2 7.34 2 6.68 2 6 C1.01 6 0.02 6 -1 6 C-1.33 6.99 -1.66 7.98 -2 9 C-3 6 -3 6 -1.5625 2.8125 C-1.046875 1.884375 -0.53125 0.95625 0 0 Z " fill="#0A4D68" transform="translate(24,158)"/>
<path d="M0 0 C0.33 0 0.66 0 1 0 C0.09032258 9.09677419 0.09032258 9.09677419 -2 12 C-2.99 12.33 -3.98 12.66 -5 13 C-4.54554036 11.58208592 -4.08625056 10.16571954 -3.625 8.75 C-3.24214844 7.56664062 -3.24214844 7.56664062 -2.8515625 6.359375 C-2.04826333 4.13372042 -1.10288338 2.09068328 0 0 Z " fill="#083655" transform="translate(32,152)"/>
<path d="M0 0 C3.46101743 3.00336223 4.69352564 5.31280768 5.75 9.75 C5.99234375 10.73484375 6.2346875 11.7196875 6.484375 12.734375 C6.73960938 13.85585938 6.73960938 13.85585938 7 15 C6.34 15 5.68 15 5 15 C4.731875 14.13375 4.46375 13.2675 4.1875 12.375 C3.07291667 8.96875 3.07291667 8.96875 1.375 5.8125 C0 3 0 3 0 0 Z " fill="#115D7D" transform="translate(42,37)"/>
<path d="M0 0 C0.33 0.66 0.66 1.32 1 2 C1.639375 2.12375 2.27875 2.2475 2.9375 2.375 C5 3 5 3 6.3125 4.875 C7 7 7 7 6 10 C1.125 5.25 1.125 5.25 0 3 C-0.66 2.67 -1.32 2.34 -2 2 C-1.34 2 -0.68 2 0 2 C0 1.34 0 0.68 0 0 Z " fill="#145176" transform="translate(71,96)"/>
<path d="M0 0 C4.55555556 1.55555556 4.55555556 1.55555556 6 3 C6.04080783 4.99958364 6.04254356 7.00045254 6 9 C4 6 4 6 4 4 C1.69 4 -0.62 4 -3 4 C-2.67 3.01 -2.34 2.02 -2 1 C-1.34 0.67 -0.68 0.34 0 0 Z " fill="#0F3048" transform="translate(59,27)"/>
<path d="M0 0 C1.89213369 2.38573379 3.02391783 4.07175348 4 7 C1.29120665 8.35439668 -1.00933268 8.06501451 -4 8 C-3.67 7.01 -3.34 6.02 -3 5 C-2.01 5.33 -1.02 5.66 0 6 C0 4.02 0 2.04 0 0 Z " fill="#BC973F" transform="translate(137,169)"/>
<path d="M0 0 C0 1.65 0 3.3 0 5 C-0.99 5 -1.98 5 -3 5 C-3.66 6.32 -4.32 7.64 -5 9 C-5.66 8.34 -6.32 7.68 -7 7 C-6.625 4.875 -6.625 4.875 -6 3 C-5.34 3.33 -4.68 3.66 -4 4 C-4 3.01 -4 2.02 -4 1 C-1 0 -1 0 0 0 Z " fill="#0C4B72" transform="translate(58,59)"/>
<path d="M0 0 C1.32 0 2.64 0 4 0 C4 0.66 4 1.32 4 2 C5.32 2.66 6.64 3.32 8 4 C6.375 4.6875 6.375 4.6875 4 5 C0.75 3.5625 0.75 3.5625 -2 2 C-1.34 1.34 -0.68 0.68 0 0 Z " fill="#C98E10" transform="translate(124,164)"/>
<path d="M0 0 C4.23429756 1.31061591 8.07407404 2.94356259 12 5 C8.84979535 6.38609004 7.68081978 5.89180331 4.3125 4.75 C1 3 1 3 0 0 Z " fill="#0D3F5D" transform="translate(140,96)"/>
<path d="M0 0 C3.83146596 1.56096761 6.28148054 3.91411305 9 7 C9.8125 9.3125 9.8125 9.3125 10 11 C5.98587091 9.66195697 5.26994046 7.47584633 3 4 C2.01 3.34 1.02 2.68 0 2 C0 1.34 0 0.68 0 0 Z " fill="#0A395C" transform="translate(99,41)"/>
<path d="M0 0 C3.18005028 3.88672813 6.10554447 7.89952133 9 12 C5.18688695 10.5019913 3.27516449 8.37351976 1 5 C0.25 2.1875 0.25 2.1875 0 0 Z " fill="#093253" transform="translate(72,99)"/>
<path d="M0 0 C-1.64110448 3.28220895 -4.69322988 3.74570789 -8 5 C-8.99 5 -9.98 5 -11 5 C-10 2 -10 2 -7.75 0.8125 C-5.00208853 0.00061706 -2.84552111 -0.16260121 0 0 Z " fill="#083659" transform="translate(39,2)"/>
<path d="M0 0 C1.43088528 2.86177057 0.59991697 4.93375773 0 8 C-0.99 8.33 -1.98 8.66 -3 9 C-3.1875 5.625 -3.1875 5.625 -3 2 C-2.01 1.34 -1.02 0.68 0 0 Z " fill="#BA7B23" transform="translate(81,146)"/>
<path d="M0 0 C0.66 0 1.32 0 2 0 C2.33 2.64 2.66 5.28 3 8 C2.01 8.66 1.02 9.32 0 10 C0 6.7 0 3.4 0 0 Z " fill="#003656" transform="translate(51,77)"/>
<path d="M0 0 C0.66 0 1.32 0 2 0 C2.99 2.64 3.98 5.28 5 8 C4.34 8.66 3.68 9.32 3 10 C0 3.375 0 3.375 0 0 Z " fill="#083E59" transform="translate(16,158)"/>
<path d="M0 0 C2.22825644 2.22825644 2.69239369 3.65761628 3.625 6.625 C3.88539062 7.44226563 4.14578125 8.25953125 4.4140625 9.1015625 C4.60742188 9.72804688 4.80078125 10.35453125 5 11 C4.34 11 3.68 11 3 11 C2.30300448 9.54618103 1.61766134 8.08677047 0.9375 6.625 C0.55464844 5.81289062 0.17179687 5.00078125 -0.22265625 4.1640625 C-0.47917969 3.44992188 -0.73570313 2.73578125 -1 2 C-0.67 1.34 -0.34 0.68 0 0 Z " fill="#113E64" transform="translate(124,69)"/>
<path d="M0 0 C3 1.8125 3 1.8125 6 4 C6 4.99 6 5.98 6 7 C4.35 6.67 2.7 6.34 1 6 C0.67 4.02 0.34 2.04 0 0 Z " fill="#5A5F63" transform="translate(89,117)"/>
<path d="M0 0 C2.1723491 3.25852365 4.07119658 6.59244728 6 10 C5.34 10.66 4.68 11.32 4 12 C3.32332002 10.75539217 2.65905281 9.50403104 2 8.25 C1.62875 7.55390625 1.2575 6.8578125 0.875 6.140625 C0 4 0 4 0 0 Z " fill="#093A5A" transform="translate(50,96)"/>
<path d="M0 0 C0.66 0.66 1.32 1.32 2 2 C0.48890239 4.3422013 -0.46097908 5.77132446 -3.0625 6.875 C-3.701875 6.91625 -4.34125 6.9575 -5 7 C-5.66 6.34 -6.32 5.68 -7 5 C-5.35 5 -3.7 5 -2 5 C-1.34 3.35 -0.68 1.7 0 0 Z " fill="#082743" transform="translate(26,166)"/>
<path d="M0 0 C0.66 1.32 1.32 2.64 2 4 C1.67 4.66 1.34 5.32 1 6 C1.66 6 2.32 6 3 6 C2.34 7.65 1.68 9.3 1 11 C0.67 11 0.34 11 0 11 C0 7.37 0 3.74 0 0 Z " fill="#105F87" transform="translate(48,157)"/>
<path d="M0 0 C0.66 0.33 1.32 0.66 2 1 C2 3.31 2 5.62 2 8 C0 7 0 7 -2 4 C-2.66 4 -3.32 4 -4 4 C-3.67 3.01 -3.34 2.02 -3 1 C-2.01 1.33 -1.02 1.66 0 2 C0 1.34 0 0.68 0 0 Z " fill="#094B72" transform="translate(33,148)"/>
<path d="M0 0 C0 0.33 0 0.66 0 1 C-2.97 1 -5.94 1 -9 1 C-9.33 1.66 -9.66 2.32 -10 3 C-10 2.34 -10 1.68 -10 1 C-11.65 1 -13.3 1 -15 1 C-15 0.67 -15 0.34 -15 0 C-9.96266834 -1.5111995 -5.11828973 -0.64599773 0 0 Z " fill="#D6983A" transform="translate(128,144)"/>
<path d="M0 0 C0 0.33 0 0.66 0 1 C-3.3 1.33 -6.6 1.66 -10 2 C-10 1.34 -10 0.68 -10 0 C-6.30581799 -1.231394 -3.7943739 -0.64432764 0 0 Z " fill="#0F3D60" transform="translate(168,123)"/>
<path d="M0 0 C0.99 0.33 1.98 0.66 3 1 C2.67 1.99 2.34 2.98 2 4 C-0.97 4 -3.94 4 -7 4 C-7 3.67 -7 3.34 -7 3 C-3.535 2.505 -3.535 2.505 0 2 C0 1.34 0 0.68 0 0 Z " fill="#0D2A45" transform="translate(171,119)"/>
<path d="M0 0 C3.99455527 0.61454696 6.74466336 2.70646737 10 5 C9.01 5.33 8.02 5.66 7 6 C6.34 5.67 5.68 5.34 5 5 C5 4.34 5 3.68 5 3 C2.525 2.01 2.525 2.01 0 1 C0 0.67 0 0.34 0 0 Z " fill="#063A55" transform="translate(145,103)"/>
<path d="M0 0 C2.9719385 1.12451727 5.33440687 2.22293791 8 4 C7.67 4.99 7.34 5.98 7 7 C5.83040013 6.02433888 4.66438823 5.044375 3.5 4.0625 C2.8503125 3.51722656 2.200625 2.97195312 1.53125 2.41015625 C1.0259375 1.94480469 0.520625 1.47945312 0 1 C0 0.67 0 0.34 0 0 Z " fill="#1C3F61" transform="translate(84,28)"/>
<path d="M0 0 C0.99 0 1.98 0 3 0 C3 1.32 3 2.64 3 4 C2.34 4 1.68 4 1 4 C1.33 4.99 1.66 5.98 2 7 C1.01 7.495 1.01 7.495 0 8 C0 5.36 0 2.72 0 0 Z " fill="#E3850F" transform="translate(134,157)"/>
<path d="M0 0 C1.77706209 2.66559313 2.87548273 5.0280615 4 8 C3.01 8.495 3.01 8.495 2 9 C0.4375 7.3125 0.4375 7.3125 -1 5 C-0.6875 2.25 -0.6875 2.25 0 0 Z " fill="#09446C" transform="translate(7,148)"/>
<path d="M0 0 C0 0.99 0 1.98 0 3 C-1.65 3.66 -3.3 4.32 -5 5 C-5 3.68 -5 2.36 -5 1 C-3 0 -3 0 0 0 Z " fill="#D28808" transform="translate(87,146)"/>
<path d="M0 0 C1.0625 1.875 1.0625 1.875 2 4 C1.67 4.66 1.34 5.32 1 6 C0.34 6 -0.32 6 -1 6 C-3 3 -3 3 -4 1 C-2 0 -2 0 0 0 Z " fill="#12628C" transform="translate(149,125)"/>
<path d="M0 0 C2 1 2 1 2.6328125 2.84765625 C2.79523437 3.57855469 2.95765625 4.30945313 3.125 5.0625 C3.29257812 5.79597656 3.46015625 6.52945313 3.6328125 7.28515625 C3.75398438 7.85105469 3.87515625 8.41695312 4 9 C0.06153846 5.67692308 0.06153846 5.67692308 -0.25 2.25 C-0.1675 1.5075 -0.085 0.765 0 0 Z " fill="#0D5882" transform="translate(52,96)"/>
<path d="M0 0 C1.65 1.65 3.3 3.3 5 5 C4.67 5.99 4.34 6.98 4 8 C4 7.34 4 6.68 4 6 C3.01 5.67 2.02 5.34 1 5 C-0.1875 2.9375 -0.1875 2.9375 -1 1 C-0.67 0.67 -0.34 0.34 0 0 Z " fill="#083958" transform="translate(110,54)"/>
</svg>
