<?xml version="1.0" encoding="UTF-8"?>
<svg version="1.1" xmlns="http://www.w3.org/2000/svg" width="180" height="180">
<path d="M0 0 C2.19140625 0.03125 2.19140625 0.03125 5 1 C6.99518305 3.2882037 8.4338589 5.8713494 9.9375 8.5 C10.8193209 9.97845647 11.70212605 11.45632636 12.5859375 12.93359375 C13.00456055 13.64370605 13.42318359 14.35381836 13.85449219 15.08544922 C15.18001626 17.30087117 16.59676202 19.43758935 18.0625 21.5625 C22.32899322 27.85772919 26.12309194 34.4609484 30 41 C33.576484 40.40689082 36.49165022 39.45103255 39.73828125 37.84765625 C40.63329346 37.40566895 41.52830566 36.96368164 42.45043945 36.50830078 C43.39491943 36.03118652 44.33939941 35.55407227 45.3125 35.0625 C46.28856201 34.57249512 47.26462402 34.08249023 48.27026367 33.57763672 C56.27207896 29.49838275 63.84558191 24.92017443 71.37988281 20.04541016 C73.62720026 18.5952876 75.8890512 17.18026543 78.1875 15.8125 C78.82042969 15.42707031 79.45335937 15.04164062 80.10546875 14.64453125 C82.66302691 13.77443414 84.43520101 14.30453637 87 15 C86.49935818 21.18475814 85.02312019 25.97011065 82.484375 31.6015625 C81.75194242 33.28174013 81.02223432 34.96310745 80.29492188 36.64550781 C79.9161792 37.51985474 79.53743652 38.39420166 79.1472168 39.29504395 C77.21378258 43.85377652 75.42853807 48.46861737 73.640625 53.0859375 C73.09903748 54.47610077 73.09903748 54.47610077 72.54650879 55.89434814 C71.06690953 59.69227155 69.59033521 63.49128114 68.12548828 67.29492188 C67.03432227 70.12425787 65.93213903 72.94909461 64.828125 75.7734375 C64.50201233 76.62859955 64.17589966 77.4837616 63.83990479 78.36483765 C62.08965748 82.81629511 60.38913999 86.51127955 57 90 C46.52348008 94.45809358 33.21760343 93.15007568 22.06640625 93.1328125 C20.65795373 93.13348952 19.24950132 93.13446281 17.84104919 93.13571167 C14.90386837 93.13717434 11.96671823 93.13508359 9.02954102 93.13037109 C5.33536119 93.12472142 1.64125405 93.12803854 -2.0529232 93.13379288 C-15.29981227 93.15151268 -28.5465632 93.14146175 -41.78515625 92.6171875 C-42.66360703 92.58682404 -43.5420578 92.55646057 -44.4471283 92.525177 C-52.36007447 92.14935116 -52.36007447 92.14935116 -56 90 C-57.23583984 88.17211914 -57.23583984 88.17211914 -58.0859375 85.97265625 C-58.40788086 85.1645752 -58.72982422 84.35649414 -59.06152344 83.52392578 C-59.3712207 82.69103027 -59.68091797 81.85813477 -60 81 C-60.44520996 79.85313721 -60.44520996 79.85313721 -60.89941406 78.68310547 C-61.82625439 76.27443974 -62.72671493 73.85694976 -63.625 71.4375 C-66.61898529 63.47548892 -69.77643437 55.5958485 -73.0625 47.75 C-73.48200928 46.74533691 -73.90151855 45.74067383 -74.33374023 44.70556641 C-76.26893546 40.08358523 -78.22415698 35.47218301 -80.2265625 30.87890625 C-80.72724243 29.71246582 -80.72724243 29.71246582 -81.23803711 28.52246094 C-81.85014728 27.09771903 -82.47261638 25.67736147 -83.10766602 24.26269531 C-84.73542725 20.44709351 -85.31909782 17.98779283 -84 14 C-77.86254887 14.38731488 -73.67537154 17.36446364 -68.625 20.5625 C-61.06243329 25.23417092 -53.43923232 29.4475026 -45.4375 33.30859375 C-41.80568085 35.09561385 -38.33448309 37.05767239 -34.89453125 39.1875 C-32.39195424 40.26077014 -30.69573657 40.37654733 -28 40 C-22.31447831 35.20658593 -18.58815216 27.26379209 -14.70581055 20.96166992 C-10.21543727 13.67415576 -5.48682962 6.58419555 0 0 Z " fill="#FA4B4B" transform="translate(89,43)"/>
<path d="M0 0 C2.19140625 0.03125 2.19140625 0.03125 5 1 C6.99518305 3.2882037 8.4338589 5.8713494 9.9375 8.5 C10.8193209 9.97845647 11.70212605 11.45632636 12.5859375 12.93359375 C13.00456055 13.64370605 13.42318359 14.35381836 13.85449219 15.08544922 C15.18001626 17.30087117 16.59676202 19.43758935 18.0625 21.5625 C22.32899322 27.85772919 26.12309194 34.4609484 30 41 C33.576484 40.40689082 36.49165022 39.45103255 39.73828125 37.84765625 C40.63329346 37.40566895 41.52830566 36.96368164 42.45043945 36.50830078 C43.86715942 35.79262939 43.86715942 35.79262939 45.3125 35.0625 C46.77659302 34.32749268 46.77659302 34.32749268 48.27026367 33.57763672 C56.27207896 29.49838275 63.84558191 24.92017443 71.37988281 20.04541016 C73.62720026 18.5952876 75.8890512 17.18026543 78.1875 15.8125 C78.82042969 15.42707031 79.45335937 15.04164062 80.10546875 14.64453125 C82.66302691 13.77443414 84.43520101 14.30453637 87 15 C86.49915273 21.18234711 85.02525319 25.96788923 82.48828125 31.59765625 C81.75613636 33.27772571 81.02658674 34.95892797 80.29931641 36.64111328 C79.92019104 37.5158429 79.54106567 38.39057251 79.15045166 39.29180908 C77.20791753 43.86458121 75.40754557 48.49155916 73.60546875 53.12109375 C73.06033127 54.51480698 73.06033127 54.51480698 72.50418091 55.93667603 C71.01475432 59.74608145 69.52902807 63.55688684 68.05004883 67.37036133 C66.94898474 70.20610508 65.84030245 73.03877289 64.73046875 75.87109375 C64.39919479 76.73141708 64.06792084 77.59174042 63.72660828 78.47813416 C62.19578154 82.37096481 60.81373624 85.82512513 58 89 C56 88 56 88 53 86 C51.01200182 85.29835358 49.01301483 84.62627128 47 84 C47 83.34 47 82.68 47 82 C46.46375 81.87625 45.9275 81.7525 45.375 81.625 C42.52098405 80.87394317 39.76196159 80.04340771 37 79 C36.67 78.34 36.34 77.68 36 77 C34.2486009 76.08927247 32.49047743 75.19037364 30.7109375 74.3359375 C27.26327205 72.63694386 23.8850521 70.81979465 20.5 69 C15.37170022 66.25045551 10.22642132 63.55987983 5 61 C5 60.34 5 59.68 5 59 C4.13375 58.9175 3.2675 58.835 2.375 58.75 C-1.49519596 57.88995645 -3.76954407 56.24727369 -7 54 C-9.22602615 53.23060319 -9.22602615 53.23060319 -11 53 C-11 52.34 -11 51.68 -11 51 C-11.53238281 50.89300781 -12.06476563 50.78601563 -12.61328125 50.67578125 C-15.64862713 49.81634616 -18.34513868 48.55501854 -21.1875 47.1875 C-22.25355469 46.68605469 -23.31960937 46.18460938 -24.41796875 45.66796875 C-27 44 -27 44 -28.0390625 42.03515625 C-27.98521301 39.22959771 -27.04076684 38.3417233 -25.1875 36.25 C-21.71553361 32.05730606 -18.83502022 27.69402209 -16 23.0625 C-11.0823225 15.06697865 -6.02046064 7.22455276 0 0 Z " fill="#BB3F41" transform="translate(89,43)"/>
<path d="M0 0 C-0.50087169 6.1785789 -1.97186711 10.95989039 -4.5078125 16.5859375 C-5.23986276 18.26548892 -5.9692446 19.94620531 -6.69628906 21.62792969 C-7.07579712 22.50380737 -7.45530518 23.37968506 -7.84631348 24.28210449 C-9.80337249 28.89261332 -11.61519503 33.5585075 -13.4296875 38.2265625 C-13.79547913 39.16280457 -14.16127075 40.09904663 -14.53814697 41.06365967 C-16.03895065 44.90605039 -17.53618564 48.7497775 -19.02539062 52.59667969 C-20.13320037 55.45490431 -21.24949422 58.30969113 -22.3671875 61.1640625 C-22.87184036 62.47777328 -22.87184036 62.47777328 -23.38668823 63.81802368 C-23.70106842 64.61751434 -24.01544861 65.417005 -24.33935547 66.24072266 C-24.61278778 66.94508453 -24.88622009 67.64944641 -25.16793823 68.37515259 C-26 70 -26 70 -28 71 C-28.33 69.02 -28.66 67.04 -29 65 C-29.66 65 -30.32 65 -31 65 C-33.36214538 62.35153397 -34.87172132 60.38483604 -36 57 C-36.66 56.67 -37.32 56.34 -38 56 C-42 49.64705882 -42 49.64705882 -42 46 C-42.66 46 -43.32 46 -44 46 C-46 43 -46 43 -46 40 C-46.66 40 -47.32 40 -48 40 C-52 34.58823529 -52 34.58823529 -52 32 C-52.66 32 -53.32 32 -54 32 C-54.66 30.68 -55.32 29.36 -56 28 C-49.32452428 23.8883653 -42.54194981 20.12940275 -35.5625 16.5625 C-28.09811246 12.70472242 -21.01614501 8.62155627 -14 4 C-12.38858593 2.97825165 -10.76395222 1.976965 -9.125 1 C-8.44695312 0.5875 -7.76890625 0.175 -7.0703125 -0.25 C-4.39565695 -1.21893182 -2.69807689 -0.75207718 0 0 Z " fill="#7A343A" transform="translate(176,58)"/>
<path d="M0 0 C5.78652958 0.27597295 9.68348599 2.9786567 14.375 6.0625 C15.11105469 6.53494141 15.84710937 7.00738281 16.60546875 7.49414062 C18.40942165 8.65382463 20.2055239 9.82570507 22 11 C19.04335481 12.4783226 16.25770263 12.06032783 13 12 C12.87625 12.598125 12.7525 13.19625 12.625 13.8125 C12 16 12 16 10 19 C9.66931562 24.58856595 11.31036949 29.19114511 13.94140625 34.01953125 C18.33538462 42.24 18.33538462 42.24 17.57421875 46.234375 C17.28998047 47.10835937 17.28998047 47.10835937 17 48 C16.52691406 46.87207031 16.05382812 45.74414062 15.56640625 44.58203125 C15.09376343 43.45716309 15.09376343 43.45716309 14.61157227 42.30957031 C13.90414179 40.62569811 13.1976186 38.94144448 12.49194336 37.25683594 C10.53187309 32.59036919 8.54235921 27.93969098 6.5 23.30859375 C6.09322021 22.38006592 5.68644043 21.45153809 5.26733398 20.49487305 C4.47960914 18.70026505 3.68511927 16.90860735 2.88305664 15.12036133 C0.80493515 10.36753065 -0.67674132 6.19965025 -1 1 C-0.67 0.67 -0.34 0.34 0 0 Z " fill="#F64B4D" transform="translate(5,57)"/>
<path d="M0 0 C3.37705625 0.53725895 6.696686 1.11064623 10 2 C10 3.32 10 4.64 10 6 C-3.7914803 10.8109815 -19.46804905 8.94923495 -33.8125 8.5625 C-35.96938629 8.5091655 -38.12628738 8.45642629 -40.28320312 8.40429688 C-45.52232589 8.2763943 -50.76121808 8.14114329 -56 8 C-56 7.67 -56 7.34 -56 7 C-44.33487727 6.18042457 -32.68883662 5.72735475 -21 5.4375 C-19.33853474 5.39414472 -17.67707633 5.35052617 -16.015625 5.30664062 C-12.01048871 5.20140737 -8.00527811 5.09968322 -4 5 C-3.67 4.34 -3.34 3.68 -3 3 C-0.9375 2.375 -0.9375 2.375 1 2 C0.505 1.01 0.505 1.01 0 0 Z " fill="#EA5458" transform="translate(136,127)"/>
<path d="M0 0 C0.99 0.33 1.98 0.66 3 1 C3.70381157 2.98723268 4.3711811 4.98777953 5 7 C5.66 7.33 6.32 7.66 7 8 C7.53400419 9.8338056 7.97751966 11.69434239 8.375 13.5625 C9.45030849 18.15156904 10.78279174 21.99417002 13.01171875 26.125 C17.32306787 34.30463469 17.32306787 34.30463469 16.57421875 38.234375 C16.28998047 39.10835937 16.28998047 39.10835937 16 40 C15.5153125 38.83726563 15.030625 37.67453125 14.53125 36.4765625 C13.85461997 34.85918529 13.17749872 33.24201352 12.5 31.625 C12.14486328 30.77679688 11.78972656 29.92859375 11.42382812 29.0546875 C8.54600172 22.21668872 5.54788248 15.43802157 2.43945312 8.70166016 C0 3.32578282 0 3.32578282 0 0 Z " fill="#D55B5E" transform="translate(6,65)"/>
<path d="M0 0 C2.49916548 2.29240165 4.1364313 4.6772083 5.84765625 7.59765625 C6.63172852 8.92313477 6.63172852 8.92313477 7.43164062 10.27539062 C7.96982422 11.19513672 8.50800781 12.11488281 9.0625 13.0625 C10.1340273 14.88830098 11.20812772 16.712595 12.28515625 18.53515625 C12.75832275 19.343479 13.23148926 20.15180176 13.71899414 20.98461914 C14.97144021 23.11640749 14.97144021 23.11640749 17 25 C15.35 25.33 13.7 25.66 12 26 C8.98480243 22.60790274 8.98480243 22.60790274 9.0625 19.5 C9.25884509 16.85176062 9.25884509 16.85176062 7.1875 14.875 C6.1046875 13.946875 6.1046875 13.946875 5 13 C3.25 11.5 3.25 11.5 2 10 C2 8.68 2 7.36 2 6 C1.34 6 0.68 6 0 6 C0 4.02 0 2.04 0 0 Z " fill="#B1424E" transform="translate(104,61)"/>
<path d="M0 0 C0.99 0.33 1.98 0.66 3 1 C3.66015625 2.99609375 3.66015625 2.99609375 4.0625 5.4375 C4.63171515 9.14163657 4.63171515 9.14163657 7 12 C7.793884 15.03159 8.40388893 18.08072644 9.0234375 21.15234375 C10.12253206 24.35730349 11.12995173 25.3051361 14 27 C11.75 27.0625 11.75 27.0625 9 26 C7.15526535 23.21913135 6.13312393 20.12454696 5 17 C4.55140625 15.81019531 4.1028125 14.62039062 3.640625 13.39453125 C0 3.57475886 0 3.57475886 0 0 Z " fill="#E35355" transform="translate(24,107)"/>
<path d="M0 0 C1.67542976 0.28604898 3.34385343 0.61781233 5 1 C3.52267049 4.8947778 1.54120367 5.97645504 -2 8 C-3.36984198 9.29579647 -4.7151049 10.61992749 -6 12 C-6.66 11.67 -7.32 11.34 -8 11 C-6.85539001 9.35331565 -5.70927742 7.70767566 -4.5625 6.0625 C-3.92441406 5.14597656 -3.28632812 4.22945312 -2.62890625 3.28515625 C-1 1 -1 1 0 0 Z " fill="#AB4F53" transform="translate(89,43)"/>
<path d="M0 0 C1.65 0 3.3 0 5 0 C5.33 0.66 5.66 1.32 6 2 C7.66500443 2.34153937 9.33178677 2.67449498 11 3 C11.66 3.66 12.32 4.32 13 5 C13.66 4.67 14.32 4.34 15 4 C15 5.32 15 6.64 15 8 C17.97 8.33 20.94 8.66 24 9 C23.67 9.99 23.34 10.98 23 12 C20.03 11.01 17.06 10.02 14 9 C14 8.34 14 7.68 14 7 C13.46375 6.87625 12.9275 6.7525 12.375 6.625 C9.52098405 5.87394317 6.76196159 5.04340771 4 4 C3.67 3.34 3.34 2.68 3 2 C2.01 1.34 1.02 0.68 0 0 Z " fill="#D03D3F" transform="translate(122,118)"/>
<path d="M0 0 C7.44379088 2.23313726 14.11976695 5.40272079 21 9 C20.67 9.66 20.34 10.32 20 11 C18.68 10.67 17.36 10.34 16 10 C16 9.67 16 9.34 16 9 C13.69 8.67 11.38 8.34 9 8 C8.67 7.01 8.34 6.02 8 5 C6.845 4.67 5.69 4.34 4.5 4 C3.345 3.67 2.19 3.34 1 3 C0.67 2.01 0.34 1.02 0 0 Z " fill="#E35157" transform="translate(32,72)"/>
<path d="M0 0 C5.70629354 0.42797202 9.41078616 2.84345952 14 6 C12.68 6.33 11.36 6.66 10 7 C9.67 6.01 9.34 5.02 9 4 C7.68 4 6.36 4 5 4 C5 3.34 5 2.68 5 2 C3.68 2 2.36 2 1 2 C1 3.98 1 5.96 1 8 C-1 5 -1 5 -0.625 2.3125 C-0.41875 1.549375 -0.2125 0.78625 0 0 Z " fill="#DF8F94" transform="translate(5,57)"/>
<path d="M0 0 C0 0.99 0 1.98 0 3 C-0.66 3 -1.32 3 -2 3 C-2 3.66 -2 4.32 -2 5 C-11.88429752 9.37190083 -11.88429752 9.37190083 -16 8 C-10.72 5.36 -5.44 2.72 0 0 Z " fill="#68373B" transform="translate(146,72)"/>
<path d="M0 0 C0.33 0 0.66 0 1 0 C1.25532751 3.06393013 1.21861333 4.63233212 -0.375 7.3125 C-0.91125 7.869375 -1.4475 8.42625 -2 9 C-2.66 9 -3.32 9 -4 9 C-4.268125 9.78375 -4.53625 10.5675 -4.8125 11.375 C-6 14 -6 14 -9 16 C-7.56786488 12.06342758 -5.69667846 8.71068644 -3.4375 5.1875 C-2.50744141 3.72376953 -2.50744141 3.72376953 -1.55859375 2.23046875 C-1.04425781 1.49441406 -0.52992187 0.75835937 0 0 Z " fill="#A24D51" transform="translate(80,55)"/>
<path d="M0 0 C0.515625 0.2475 1.03125 0.495 1.5625 0.75 C1.2325 2.07 0.9025 3.39 0.5625 4.75 C-0.7575 4.42 -2.0775 4.09 -3.4375 3.75 C-3.4375 4.41 -3.4375 5.07 -3.4375 5.75 C-5.0875 6.08 -6.7375 6.41 -8.4375 6.75 C-8.7675 5.76 -9.0975 4.77 -9.4375 3.75 C-3.0375 -0.31153846 -3.0375 -0.31153846 0 0 Z " fill="#A1787D" transform="translate(173.4375,57.25)"/>
<path d="M0 0 C5.37305699 0.2642487 5.37305699 0.2642487 8 1 C10 3.5625 10 3.5625 11 6 C6.25452058 6 4.71326262 4.8055762 1 2 C0.67 1.34 0.34 0.68 0 0 Z " fill="#C83A3C" transform="translate(99,104)"/>
<path d="M0 0 C0.99 0 1.98 0 3 0 C3.33 1.98 3.66 3.96 4 6 C5.32 6.33 6.64 6.66 8 7 C8.66 9.31 9.32 11.62 10 14 C6.125 11.375 6.125 11.375 5 8 C4.34 7.67 3.68 7.34 3 7 C1.94647157 4.69034152 0.94280904 2.3570226 0 0 Z " fill="#913036" transform="translate(135,107)"/>
<path d="M0 0 C2.96865509 2.54456151 4.3619751 5.48994665 6 9 C5.34 9.66 4.68 10.32 4 11 C3.34 10.67 2.68 10.34 2 10 C2 8.68 2 7.36 2 6 C1.34 6 0.68 6 0 6 C0 4.02 0 2.04 0 0 Z " fill="#AD5D61" transform="translate(104,61)"/>
<path d="M0 0 C4.74683544 5.69620253 4.74683544 5.69620253 6 9 C5.67 9.66 5.34 10.32 5 11 C4.01 11 3.02 11 2 11 C0.80712589 7.12315913 0 4.08378077 0 0 Z " fill="#AE555B" transform="translate(98,52)"/>
<path d="M0 0 C1.32 0 2.64 0 4 0 C4 0.66 4 1.32 4 2 C5.32 2 6.64 2 8 2 C8 2.66 8 3.32 8 4 C6.35 4 4.7 4 3 4 C2.67 4.66 2.34 5.32 2 6 C1.34 6 0.68 6 0 6 C0 4.02 0 2.04 0 0 Z " fill="#E05257" transform="translate(6,59)"/>
<path d="M0 0 C0.99 0.33 1.98 0.66 3 1 C4.62323754 4.75907641 5.23994929 7.92086213 5 12 C0 4.5 0 4.5 0 0 Z " fill="#E1797F" transform="translate(6,65)"/>
<path d="M0 0 C0.66 0 1.32 0 2 0 C2.474375 1.11375 2.94875 2.2275 3.4375 3.375 C5.25198234 8.00888544 5.25198234 8.00888544 9 11 C6.75 11.0625 6.75 11.0625 4 10 C0 3.34185304 0 3.34185304 0 0 Z " fill="#DD8683" transform="translate(29,123)"/>
<path d="M0 0 C0.99 0 1.98 0 3 0 C3 0.66 3 1.32 3 2 C3.66 2.33 4.32 2.66 5 3 C4.34 4.32 3.68 5.64 3 7 C3 6.34 3 5.68 3 5 C2.34 5 1.68 5 1 5 C0.34 3.68 -0.32 2.36 -1 1 C-0.67 0.67 -0.34 0.34 0 0 Z " fill="#8D3138" transform="translate(121,85)"/>
<path d="M0 0 C1 3 1 3 0.0625 5.1875 C-0.4634375 6.0846875 -0.4634375 6.0846875 -1 7 C-1.99 7 -2.98 7 -4 7 C-4 5.68 -4 4.36 -4 3 C-3.34 3 -2.68 3 -2 3 C-2 2.34 -2 1.68 -2 1 C-1.34 0.67 -0.68 0.34 0 0 Z " fill="#622E33" transform="translate(158,102)"/>
<path d="M0 0 C4.21912747 0.4794463 6.79663178 1.16625119 10 4 C8.35 4.33 6.7 4.66 5 5 C5 4.34 5 3.68 5 3 C2.525 2.01 2.525 2.01 0 1 C0 0.67 0 0.34 0 0 Z " fill="#DE5D5F" transform="translate(43,78)"/>
<path d="M0 0 C3.08089673 2.77280706 4.68775452 5.06326356 6 9 C2.83884224 7.63016497 2.0072908 7.0109362 0 4 C0 2.68 0 1.36 0 0 Z " fill="#9C4346" transform="translate(109,70)"/>
<path d="M0 0 C0.33 0.66 0.66 1.32 1 2 C1.66 2 2.32 2 3 2 C3.66 3.65 4.32 5.3 5 7 C3.68 7.33 2.36 7.66 1 8 C0.67 5.36 0.34 2.72 0 0 Z " fill="#B04047" transform="translate(131,102)"/>
<path d="M0 0 C0.6875 1.8125 0.6875 1.8125 1 4 C-0.4375 5.75 -0.4375 5.75 -2 7 C-2.66 5.68 -3.32 4.36 -4 3 C-3.34 3 -2.68 3 -2 3 C-2 2.34 -2 1.68 -2 1 C-1.34 0.67 -0.68 0.34 0 0 Z " fill="#652D36" transform="translate(165,84)"/>
<path d="M0 0 C2.2477975 2.05233685 3.0022242 3.00667261 4 6 C1 6 1 6 -0.6875 4.5 C-1.120625 4.005 -1.55375 3.51 -2 3 C-1.34 3 -0.68 3 0 3 C0 2.01 0 1.02 0 0 Z " fill="#B45D64" transform="translate(94,46)"/>
<path d="M0 0 C0.33 1.32 0.66 2.64 1 4 C0.01 4.33 -0.98 4.66 -2 5 C-3.20882096 7.00016466 -3.20882096 7.00016466 -4 9 C-4 5.00095031 -2.27413033 3.19799578 0 0 Z " fill="#9E4549" transform="translate(70,71)"/>
<path d="M0 0 C3.37503669 1.1858237 5.64722731 2.27573689 8 5 C5.36 4.34 2.72 3.68 0 3 C0 2.01 0 1.02 0 0 Z " fill="#D55F62" transform="translate(19,64)"/>
</svg>
