<?xml version="1.0" encoding="UTF-8"?>
<svg version="1.1" xmlns="http://www.w3.org/2000/svg" width="472" height="528">
<path d="M0 0 C2.60546875 1.3203125 2.60546875 1.3203125 5.1875 3.125 C8.86700202 5.60120541 12.5256579 7.90840812 16.4375 10 C21.30705293 12.60721106 26.076822 15.35598904 30.83984375 18.15234375 C35.93113235 21.12907985 41.05849245 24.04225678 46.18261719 26.96191406 C48.05366807 28.03065511 49.92169002 29.10453365 51.7890625 30.1796875 C52.41055176 30.53683838 53.03204102 30.89398926 53.67236328 31.26196289 C55.39670245 32.25312391 57.12025162 33.24565893 58.84375 34.23828125 C61.85570965 35.9194617 64.90224807 37.48378106 68 39 C68 39.66 68 40.32 68 41 C69.65 41.33 71.3 41.66 73 42 C73 42.66 73 43.32 73 44 C73.58088379 44.12366943 74.16176758 44.24733887 74.76025391 44.37475586 C77.03260633 45.00910233 78.78465487 45.84842393 80.8359375 47.00390625 C81.92769287 47.61455933 81.92769287 47.61455933 83.04150391 48.23754883 C83.81155762 48.67478271 84.58161133 49.1120166 85.375 49.5625 C86.57068604 50.23478638 86.57068604 50.23478638 87.79052734 50.9206543 C90.19648935 52.27554019 92.59850884 53.63720912 95 55 C96.33847469 55.75532703 97.67701136 56.51054425 99.015625 57.265625 C103.75171523 59.94650184 108.47825332 62.62705722 113.0625 65.5625 C118.51084424 69.04371777 124.28867342 71.97891719 130 75 C130 75.66 130 76.32 130 77 C130.51433594 77.09023437 131.02867187 77.18046875 131.55859375 77.2734375 C134.95656718 78.28467439 137.95907894 79.94495839 141.0625 81.625 C142.06168457 82.16133057 142.06168457 82.16133057 143.08105469 82.70849609 C147.99971124 85.38054858 152.71393767 88.29661176 157.40234375 91.35546875 C160.85066821 93.53854333 164.41517829 95.45702383 168.01171875 97.3828125 C171.57707077 99.31229712 175.10367022 101.30409098 178.625 103.3125 C179.54986206 103.83734985 179.54986206 103.83734985 180.4934082 104.37280273 C184.87927992 106.87927992 184.87927992 106.87927992 186 108 C186.09443335 110.30053835 186.11742128 112.60402173 186.11352539 114.90649414 C186.11367142 115.62840439 186.11381744 116.35031464 186.1139679 117.09410095 C186.11326869 119.49114947 186.10547595 121.88812123 186.09765625 124.28515625 C186.0957921 125.94282489 186.09436818 127.60049407 186.09336853 129.25816345 C186.08954312 133.62954214 186.07971265 138.00088781 186.06866455 142.37225342 C186.05845092 146.82954461 186.05387101 151.28684111 186.04882812 155.74414062 C186.0380904 164.49610893 186.02101371 173.24805036 186 182 C185.38434677 182.33954712 184.76869354 182.67909424 184.13438416 183.02893066 C183.32554276 183.4763562 182.51670135 183.92378174 181.68334961 184.38476562 C180.88207138 184.82743774 180.08079315 185.27010986 179.25523376 185.72619629 C176.61857758 187.21543545 174.08779086 188.8296048 171.5625 190.5 C167.29544888 193.2554319 162.97017616 195.55456825 158.3984375 197.75390625 C155.96188076 199.01980462 153.75944104 200.44217486 151.5 202 C147.73067079 204.59635613 143.88120886 206.59896324 139.75390625 208.5625 C135.29672218 210.88908686 131.15410533 213.72745685 126.98046875 216.5234375 C123.4979203 218.24873673 122.63153878 218.03533264 119 217 C116.80615234 215.95947266 116.80615234 215.95947266 114.5859375 214.6640625 C113.75191406 214.18227539 112.91789062 213.70048828 112.05859375 213.20410156 C111.17300781 212.68299805 110.28742188 212.16189453 109.375 211.625 C108.45074219 211.08842773 107.52648437 210.55185547 106.57421875 209.99902344 C104.65560163 208.88462884 102.7386219 207.76741072 100.82324219 206.64746094 C98.1721124 205.10043363 95.51388589 203.56672656 92.8515625 202.0390625 C85.8421778 198.0128842 78.86596327 193.95443708 72 189.6875 C67.41327107 186.83738165 62.76791543 184.18015384 58.01171875 181.625 C48.66864536 176.58386053 39.47101488 171.3893043 30.5625 165.609375 C27.11641746 163.44506706 23.55919387 161.52907571 19.97265625 159.609375 C16.49438524 157.72626376 13.05755287 155.77736543 9.625 153.8125 C8.48289062 153.15894531 7.34078125 152.50539062 6.1640625 151.83203125 C3.42741467 150.24747837 0.71163739 148.62698243 -2 147 C-2 170.1 -2 193.2 -2 217 C-0.35 217.66 1.3 218.32 3 219 C14.43211511 224.83688479 25.49565286 231.51076599 36.56640625 238 C39.3391405 239.6150625 42.11831184 241.2170784 44.90234375 242.8125 C45.7631958 243.30709717 46.62404785 243.80169434 47.51098633 244.3112793 C49.23202057 245.29966442 50.95448081 246.28557133 52.6784668 247.26879883 C53.46777588 247.72279053 54.25708496 248.17678223 55.0703125 248.64453125 C55.77945801 249.05034424 56.48860352 249.45615723 57.21923828 249.87426758 C59 251 59 251 61 253 C61.30780029 255.97149658 61.30780029 255.97149658 61.38574219 259.83300781 C61.40209717 260.53567276 61.41845215 261.23833771 61.43530273 261.96229553 C61.48500965 264.29253731 61.51804261 266.62253526 61.546875 268.953125 C61.55752235 269.749179 61.56816971 270.545233 61.57913971 271.36540985 C61.63260681 275.58031869 61.67135141 279.7951091 61.70019531 284.01025391 C61.73346906 288.36049185 61.82298632 292.70769164 61.9249382 297.05678177 C61.9923305 300.4043312 62.01535369 303.75116221 62.02664948 307.09932709 C62.04006684 308.70226982 62.07049567 310.30516581 62.11843109 311.90744781 C62.25586269 316.77992276 62.26262255 321.26971393 61 326 C58.03497499 329.11058988 54.97947133 330.51212399 51 332 C49.80336898 332.65952263 48.61874691 333.34179097 47.453125 334.0546875 C46.39609375 334.65539062 45.3390625 335.25609375 44.25 335.875 C43.66637695 336.20741699 43.08275391 336.53983398 42.48144531 336.88232422 C40.04458421 338.27025286 37.60621844 339.65552833 35.16796875 341.04101562 C25.3939796 346.56271405 25.3939796 346.56271405 15.80265808 352.3923645 C13 354 13 354 9.49385071 355.46920776 C5.6227413 357.15791982 1.94676339 358.90721733 -1 362 C-2.90648496 367.45200893 -2.56424823 372.65093006 -2.26953125 378.3203125 C-2.24296143 379.90865583 -2.223937 381.49714154 -2.21208191 383.08566284 C-2.16679758 387.25200684 -2.04572895 391.41212082 -1.90026855 395.5760498 C-1.67063837 402.24490642 -1.51529731 408.912819 -1.43906212 415.58514023 C-1.39521116 417.90927665 -1.29344682 420.22588888 -1.18696594 422.54788208 C-0.89788077 432.69362694 -0.89788077 432.69362694 -3.87243652 436.2194519 C-6.18886516 437.78871805 -8.42355849 438.92140977 -11 440 C-11.89702637 440.55800293 -12.79405273 441.11600586 -13.71826172 441.69091797 C-16.09997681 443.09239086 -18.48497929 444.48773246 -20.875 445.875 C-21.71546875 446.37257813 -22.5559375 446.87015625 -23.421875 447.3828125 C-24.22882813 447.85203125 -25.03578125 448.32125 -25.8671875 448.8046875 C-26.59019043 449.22733887 -27.31319336 449.64999023 -28.05810547 450.08544922 C-30 451 -30 451 -33 451 C-33 451.66 -33 452.32 -33 453 C-34.14855469 453.6290625 -35.29710937 454.258125 -36.48046875 454.90625 C-38.04981623 455.77022137 -39.61880129 456.63485123 -41.1875 457.5 C-42.40977295 458.17252808 -42.40977295 458.17252808 -43.65673828 458.85864258 C-49.74174071 462.23316159 -55.60681877 465.84562231 -61.3984375 469.69921875 C-64 471 -64 471 -65.90234375 470.953125 C-69.10092945 469.4997639 -72.14599802 467.81367899 -75.1875 466.0625 C-75.89092529 465.66208496 -76.59435059 465.26166992 -77.3190918 464.84912109 C-83.04645594 461.57724777 -88.73633193 458.2412701 -94.4128418 454.88208008 C-98.25545821 452.60863077 -102.10844401 450.35587716 -105.98046875 448.1328125 C-106.81731201 447.65183105 -107.65415527 447.17084961 -108.51635742 446.67529297 C-110.11531529 445.7576958 -111.71563508 444.84246569 -113.31762695 443.93017578 C-114.76826723 443.09686616 -116.20618584 442.24082181 -117.62732029 441.35813332 C-119.93510257 439.94708121 -119.93510257 439.94708121 -122.36295223 439.14420128 C-125.40407776 437.79680056 -126.95070641 436.65195044 -129 434 C-130.83075205 427.50687456 -130.19377713 420.34848638 -130.11352539 413.67431641 C-130.12085044 411.56506691 -130.13212873 409.45582799 -130.14706421 407.34661865 C-130.17638268 401.62351107 -130.15036237 395.9018309 -130.11447453 390.1788106 C-130.08635118 384.19697408 -130.10902266 378.21533651 -130.12632751 372.23348999 C-130.15136365 360.90745858 -130.13065668 349.58199012 -130.09355396 338.25601041 C-130.05353639 325.36126062 -130.06445389 312.46671181 -130.07967007 299.57192731 C-130.10982706 273.04778589 -130.07595378 246.52403478 -130 220 C-130.83144531 220.5053125 -131.66289062 221.010625 -132.51953125 221.53125 C-133.60621094 222.1809375 -134.69289063 222.830625 -135.8125 223.5 C-136.89144531 224.1496875 -137.97039062 224.799375 -139.08203125 225.46875 C-142 227 -142 227 -145 227 C-145 227.66 -145 228.32 -145 229 C-145.55042969 229.29390625 -146.10085937 229.5878125 -146.66796875 229.890625 C-152.38142402 232.97323343 -158.04023082 236.14333738 -163.67797852 239.36206055 C-165.5227837 240.41527897 -167.36964431 241.46490498 -169.21850586 242.51098633 C-173.11694575 244.72596938 -176.98327362 246.93745814 -180.70703125 249.4375 C-187.70862936 254.03932058 -187.70862936 254.03932058 -191.4375 253.92578125 C-196.00389185 252.59134579 -199.75920988 249.90283652 -203.75146484 247.38720703 C-207.75059059 244.91999395 -211.84871866 242.62693318 -215.9375 240.3125 C-222.71289862 236.45910778 -229.47154697 232.58120362 -236.1875 228.625 C-236.83259521 228.24512939 -237.47769043 227.86525879 -238.14233398 227.47387695 C-239.37720347 226.74469326 -240.60314248 226.00009048 -241.81791687 225.23789978 C-244.00083565 223.92687669 -244.00083565 223.92687669 -246.52352905 223.03765869 C-249.62137508 221.68068894 -251.64530807 220.44768383 -254 218 C-255.58066213 212.53641296 -255.48323406 207.16099758 -255.43359375 201.5078125 C-255.44796439 199.87643094 -255.46485551 198.24506982 -255.48414612 196.61373901 C-255.51238248 193.19846767 -255.50306046 189.78579778 -255.46850586 186.37060547 C-255.4283562 182.00760842 -255.49217056 177.65330394 -255.58582973 173.29138374 C-255.64470446 169.92264515 -255.64246946 166.55596851 -255.62278938 163.18685532 C-255.62166777 161.58010592 -255.64047194 159.97320714 -255.68014336 158.36694717 C-255.78741779 153.28349192 -255.65234787 148.84178298 -254 144 C-250.05793043 140.1882328 -246.01380771 138.23772526 -241 136 C-238.80242439 134.79709476 -236.65615249 133.52710416 -234.5 132.25 C-233.33053232 131.58399301 -232.16017492 130.91954143 -230.98828125 130.2578125 C-219.59399928 123.81108615 -208.21600869 117.3350723 -196.9375 110.6875 C-195.90508179 110.07986816 -195.90508179 110.07986816 -194.85180664 109.45996094 C-191.68817348 107.59535616 -188.53150151 105.72045253 -185.38671875 103.82421875 C-184.31035156 103.18097656 -183.23398438 102.53773437 -182.125 101.875 C-181.19945312 101.31554687 -180.27390625 100.75609375 -179.3203125 100.1796875 C-177 99 -177 99 -174 99 C-174 98.34 -174 97.68 -174 97 C-172.35 96.67 -170.7 96.34 -169 96 C-169 95.34 -169 94.68 -169 94 C-168.13955078 93.54173828 -168.13955078 93.54173828 -167.26171875 93.07421875 C-160.08386315 89.20754388 -153.03518474 85.13883732 -145.98876953 81.03881836 C-140.87474942 78.06891281 -135.72516728 75.18563167 -130.51953125 72.37890625 C-123.69503681 68.64395038 -117.03079041 64.62686699 -110.37231445 60.60571289 C-109.73382568 60.22020264 -109.09533691 59.83469238 -108.4375 59.4375 C-107.80223389 59.05392334 -107.16696777 58.67034668 -106.51245117 58.27514648 C-101.89109728 55.49923856 -97.19819733 52.88946296 -92.44140625 50.3515625 C-89.41197764 48.67447082 -86.52703617 46.81694386 -83.65625 44.8828125 C-82 44 -82 44 -79 44 C-79 43.34 -79 42.68 -79 42 C-63.6631728 33.34056181 -63.6631728 33.34056181 -57.25 29.875 C-52.49089689 27.29331068 -47.81661768 24.58194959 -43.1484375 21.83984375 C-39.88306583 19.9316675 -36.60014327 18.05701797 -33.3125 16.1875 C-27.7880549 13.04139654 -22.29378678 9.84568589 -16.8125 6.625 C-16.08135986 6.19598389 -15.35021973 5.76696777 -14.59692383 5.32495117 C-13.91138428 4.92123291 -13.22584473 4.51751465 -12.51953125 4.1015625 C-11.91214111 3.74400879 -11.30475098 3.38645508 -10.67895508 3.01806641 C-6.58805861 0.53747338 -4.87605066 -0.49792796 0 0 Z " fill="#EC8E26" transform="translate(270,22)"/>
<path d="M0 0 C2.60546875 1.3203125 2.60546875 1.3203125 5.1875 3.125 C8.86700202 5.60120541 12.5256579 7.90840812 16.4375 10 C21.30705293 12.60721106 26.076822 15.35598904 30.83984375 18.15234375 C35.93113235 21.12907985 41.05849245 24.04225678 46.18261719 26.96191406 C48.05366807 28.03065511 49.92169002 29.10453365 51.7890625 30.1796875 C52.41055176 30.53683838 53.03204102 30.89398926 53.67236328 31.26196289 C55.39670245 32.25312391 57.12025162 33.24565893 58.84375 34.23828125 C61.85570965 35.9194617 64.90224807 37.48378106 68 39 C68 39.66 68 40.32 68 41 C69.65 41.33 71.3 41.66 73 42 C73 42.66 73 43.32 73 44 C73.58088379 44.12366943 74.16176758 44.24733887 74.76025391 44.37475586 C77.03260633 45.00910233 78.78465487 45.84842393 80.8359375 47.00390625 C81.92769287 47.61455933 81.92769287 47.61455933 83.04150391 48.23754883 C83.81155762 48.67478271 84.58161133 49.1120166 85.375 49.5625 C86.57068604 50.23478638 86.57068604 50.23478638 87.79052734 50.9206543 C90.19648935 52.27554019 92.59850884 53.63720912 95 55 C96.33847469 55.75532703 97.67701136 56.51054425 99.015625 57.265625 C103.75171523 59.94650184 108.47825332 62.62705722 113.0625 65.5625 C118.51084424 69.04371777 124.28867342 71.97891719 130 75 C130 75.66 130 76.32 130 77 C130.51433594 77.09023437 131.02867187 77.18046875 131.55859375 77.2734375 C134.95656718 78.28467439 137.95907894 79.94495839 141.0625 81.625 C142.06168457 82.16133057 142.06168457 82.16133057 143.08105469 82.70849609 C147.99971124 85.38054858 152.71393767 88.29661176 157.40234375 91.35546875 C162.38214576 94.50809529 167.62966502 97.20650352 172.83056641 99.97412109 C174.7692966 101.01159318 176.6974835 102.06686634 178.625 103.125 C179.24157471 103.44976318 179.85814941 103.77452637 180.4934082 104.10913086 C184.79826547 106.49654079 184.79826547 106.49654079 185.8984375 109.2421875 C185.93195313 109.82226562 185.96546875 110.40234375 186 111 C185.13375 111.0825 184.2675 111.165 183.375 111.25 C179.44391486 112.12357447 177.33750237 113.75261675 174 116 C171.30427806 117.50247671 168.55769658 118.90291276 165.8125 120.3125 C159.85789998 123.41244356 154.15218693 126.70133663 148.53515625 130.38671875 C145.06694568 132.59376184 141.47371514 134.51889932 137.83984375 136.4375 C135.79607712 137.56199333 133.79166327 138.75910234 131.81640625 140 C130.23666016 140.99 130.23666016 140.99 128.625 142 C127.66851562 142.61875 126.71203125 143.2375 125.7265625 143.875 C123 145 123 145 120.66796875 144.484375 C119.34732422 143.74960937 119.34732422 143.74960937 118 143 C117.41089844 142.67580078 116.82179688 142.35160156 116.21484375 142.01757812 C114.02102468 140.79099517 111.85400033 139.52419902 109.6875 138.25 C108.86572266 137.77046875 108.04394531 137.2909375 107.19726562 136.796875 C105.40979483 135.75340731 103.62320871 134.70842304 101.83740234 133.66210938 C98.92089928 131.95366394 96.00184189 130.24966089 93.08203125 128.546875 C92.08212158 127.96373535 91.08221191 127.3805957 90.05200195 126.77978516 C89.04484131 126.19245605 88.03768066 125.60512695 87 125 C84.96873235 123.81513442 82.93748223 122.6302388 80.90625 121.4453125 C79.91882813 120.86942383 78.93140625 120.29353516 77.9140625 119.70019531 C76.01264085 118.59082028 74.11158208 117.480823 72.2109375 116.37011719 C69.64199382 114.86938223 67.07123214 113.37180978 64.5 111.875 C63.75363281 111.43800781 63.00726563 111.00101562 62.23828125 110.55078125 C58.13539938 108.16677521 53.9863219 105.96413605 49.72802734 103.87109375 C47.75885363 102.87843879 45.90655785 101.77096421 44.0625 100.5625 C40.59922264 98.35003738 37.05933538 96.34323849 33.45703125 94.3671875 C30.760179 92.86655429 28.0987432 91.31289519 25.4375 89.75 C21.91607903 87.68337457 18.38173993 85.64590224 14.81640625 83.65625 C14.10105713 83.25696289 13.38570801 82.85767578 12.64868164 82.44628906 C11.24434895 81.66441994 9.83864063 80.88501517 8.43139648 80.10839844 C5.70167841 78.58853053 3.23487746 77.19913524 0.84375 75.171875 C-0.96151831 73.7550412 -0.96151831 73.7550412 -3.28637695 74.24853516 C-6.29311032 75.08116901 -8.57282212 76.27071043 -11.26171875 77.8515625 C-12.28539551 78.4482373 -13.30907227 79.04491211 -14.36376953 79.65966797 C-15.46060059 80.30822754 -16.55743164 80.95678711 -17.6875 81.625 C-18.84184149 82.30040078 -19.99663464 82.97503015 -21.15185547 83.64892578 C-23.55891837 85.05393602 -25.96398964 86.46226795 -28.36767578 87.87304688 C-34.10331549 91.23605264 -39.86454905 94.55471357 -45.625 97.875 C-46.70563721 98.49793945 -47.78627441 99.12087891 -48.8996582 99.76269531 C-51.9323536 101.50977385 -54.96604288 103.25511372 -58 105 C-59.2984082 105.74830078 -59.2984082 105.74830078 -60.62304688 106.51171875 C-62.87067009 107.80487183 -65.12191974 109.09138526 -67.375 110.375 C-68.00486816 110.73835449 -68.63473633 111.10170898 -69.28369141 111.47607422 C-72.14222853 113.09428061 -74.74354108 114.43854156 -78 115 C-78 115.66 -78 116.32 -78 117 C-78.69480469 117.36609375 -79.38960937 117.7321875 -80.10546875 118.109375 C-87.44994602 122.01898267 -94.70852793 126.06816233 -101.9375 130.1875 C-102.83686279 130.69829102 -103.73622559 131.20908203 -104.6628418 131.73535156 C-109.225017 134.34425631 -113.6389442 137.0630916 -118 140 C-119.69523749 140.96097809 -121.40362333 141.89917017 -123.125 142.8125 C-127.95084596 145.41252129 -132.68787654 148.13397761 -137.4140625 150.91015625 C-142.7219729 154.01636864 -148.075132 157.04457591 -153.42382812 160.07983398 C-158.46504996 162.94923958 -163.47095582 165.8675444 -168.4453125 168.8515625 C-169.5168457 169.4902124 -170.58837891 170.1288623 -171.69238281 170.78686523 C-173.77300589 172.0293975 -175.8481544 173.28115542 -177.91699219 174.54321289 C-182.99477155 177.56506687 -187.02131777 179.90522565 -193 180 C-195.4375 179.0625 -195.4375 179.0625 -197 178 C-197 177.34 -197 176.68 -197 176 C-197.680625 175.9175 -198.36125 175.835 -199.0625 175.75 C-202.79774223 174.79632113 -205.737028 172.97828986 -209 171 C-210.79045928 169.9562594 -212.58226864 168.91483324 -214.375 167.875 C-217.97902271 165.77227659 -221.57720396 163.66043657 -225.16796875 161.53515625 C-232.35018471 157.28776446 -239.53149109 153.07920598 -246.8984375 149.15625 C-249 148 -249 148 -252 146 C-252.33 169.76 -252.66 193.52 -253 218 C-253.33 218 -253.66 218 -254 218 C-254.30189929 208.49046214 -254.53252063 198.9825843 -254.67355824 189.46929169 C-254.74127188 185.05104269 -254.83299602 180.6360822 -254.98071289 176.21972656 C-255.12252366 171.95298842 -255.19979569 167.68939985 -255.23340416 163.42048645 C-255.25733264 161.79659911 -255.30407237 160.17287501 -255.37449074 158.55033875 C-255.58816118 153.42059078 -255.56622863 148.92345411 -254 144 C-250.07094525 140.15098066 -246.03576067 138.22855844 -241 136 C-238.8012747 134.79861968 -236.65590918 133.52815957 -234.5 132.25 C-233.33053232 131.58399301 -232.16017492 130.91954143 -230.98828125 130.2578125 C-219.59399928 123.81108615 -208.21600869 117.3350723 -196.9375 110.6875 C-195.90508179 110.07986816 -195.90508179 110.07986816 -194.85180664 109.45996094 C-191.68817348 107.59535616 -188.53150151 105.72045253 -185.38671875 103.82421875 C-184.31035156 103.18097656 -183.23398438 102.53773437 -182.125 101.875 C-181.19945312 101.31554687 -180.27390625 100.75609375 -179.3203125 100.1796875 C-177 99 -177 99 -174 99 C-174 98.34 -174 97.68 -174 97 C-172.35 96.67 -170.7 96.34 -169 96 C-169 95.34 -169 94.68 -169 94 C-168.13955078 93.54173828 -168.13955078 93.54173828 -167.26171875 93.07421875 C-160.08386315 89.20754388 -153.03518474 85.13883732 -145.98876953 81.03881836 C-140.87474942 78.06891281 -135.72516728 75.18563167 -130.51953125 72.37890625 C-123.69503681 68.64395038 -117.03079041 64.62686699 -110.37231445 60.60571289 C-109.73382568 60.22020264 -109.09533691 59.83469238 -108.4375 59.4375 C-107.80223389 59.05392334 -107.16696777 58.67034668 -106.51245117 58.27514648 C-101.89109728 55.49923856 -97.19819733 52.88946296 -92.44140625 50.3515625 C-89.41197764 48.67447082 -86.52703617 46.81694386 -83.65625 44.8828125 C-82 44 -82 44 -79 44 C-79 43.34 -79 42.68 -79 42 C-63.6631728 33.34056181 -63.6631728 33.34056181 -57.25 29.875 C-52.49089689 27.29331068 -47.81661768 24.58194959 -43.1484375 21.83984375 C-39.88306583 19.9316675 -36.60014327 18.05701797 -33.3125 16.1875 C-27.7880549 13.04139654 -22.29378678 9.84568589 -16.8125 6.625 C-16.08135986 6.19598389 -15.35021973 5.76696777 -14.59692383 5.32495117 C-13.91138428 4.92123291 -13.22584473 4.51751465 -12.51953125 4.1015625 C-11.91214111 3.74400879 -11.30475098 3.38645508 -10.67895508 3.01806641 C-6.58805861 0.53747338 -4.87605066 -0.49792796 0 0 Z " fill="#F7BE3D" transform="translate(270,22)"/>
<path d="M0 0 C0.33 23.43 0.66 46.86 1 71 C3.97 72.65 6.94 74.3 10 76 C11.73580795 77.03056177 13.46649144 78.06990932 15.1875 79.125 C18.72514466 81.26635122 22.26386303 83.23025091 26 85 C26 85.66 26 86.32 26 87 C26.54495117 87.10344727 27.08990234 87.20689453 27.65136719 87.31347656 C30.56541277 88.1652745 32.93212534 89.49397876 35.578125 90.984375 C36.65707031 91.59023438 37.73601562 92.19609375 38.84765625 92.8203125 C40.53181641 93.77550781 40.53181641 93.77550781 42.25 94.75 C43.35730469 95.37132812 44.46460938 95.99265625 45.60546875 96.6328125 C48.74841682 98.40422437 51.88600893 100.17809729 55 102 C55.70406982 102.25122116 56.40813965 102.50244232 57.13354492 102.76127625 C59.76163216 103.88871152 61.1840888 104.7690361 63 107 C64.1562321 112.39978259 63.93038999 117.75317207 63.78125 123.23828125 C63.76632078 124.84536419 63.75493696 126.45248366 63.74694824 128.05961609 C63.71646588 132.28070383 63.6379424 136.49957365 63.54931641 140.7197876 C63.46733717 145.02968337 63.43091135 149.33993919 63.390625 153.65039062 C63.30493919 162.10127599 63.16848559 170.55036178 63 179 C61.73279535 178.36937255 60.46593555 177.73805213 59.19921875 177.10644531 C58.14093872 176.57920868 58.14093872 176.57920868 57.0612793 176.0413208 C54.34223301 174.66770808 51.66909801 173.21800391 49 171.75 C48.05125 171.22921875 47.1025 170.7084375 46.125 170.171875 C45.42375 169.78515625 44.7225 169.3984375 44 169 C44 168.34 44 167.68 44 167 C43.48695313 166.91105469 42.97390625 166.82210937 42.4453125 166.73046875 C39.0203527 165.70735776 36.00009309 164.01321762 32.875 162.3125 C31.86759766 161.76903931 31.86759766 161.76903931 30.83984375 161.21459961 C25.46117153 158.29362443 20.22044539 155.1975228 15 152 C10.05 149.03 5.1 146.06 0 143 C0 189.86 0 236.72 0 285 C-2.31 284.67 -4.62 284.34 -7 284 C-7.22429687 283.19046875 -7.44859375 282.3809375 -7.6796875 281.546875 C-8.33324219 280.28617187 -8.33324219 280.28617187 -9 279 C-11.33042459 278.28505066 -11.33042459 278.28505066 -14.125 278.25 C-22.16097303 277.21557201 -28.05744707 273.44703876 -34.85302734 269.30273438 C-37.06113863 267.96290246 -39.28654353 266.65727815 -41.51953125 265.359375 C-49.13973026 260.92485049 -49.13973026 260.92485049 -51.89445925 259.23674601 C-53.9684497 257.97981249 -53.9684497 257.97981249 -56.1006999 256.98793823 C-61.54832888 254.16503753 -61.54832888 254.16503753 -62.73196507 251.11197412 C-63.01179967 248.74862263 -63.02853994 246.50179887 -62.96203613 244.12260437 C-62.96887153 243.22811783 -62.97570693 242.33363129 -62.98274946 241.4120391 C-62.99593166 238.41360785 -62.9519318 235.41875553 -62.90820312 232.4206543 C-62.90594661 230.27216171 -62.90721304 228.12366295 -62.91174316 225.97517395 C-62.91404116 220.14040616 -62.8669659 214.30695061 -62.8111515 208.47248816 C-62.76118419 202.37599808 -62.75644506 196.27947881 -62.74694824 190.18281555 C-62.72207055 178.63708617 -62.65640369 167.09196186 -62.57615232 155.54649907 C-62.48677266 142.40282516 -62.44275703 129.25912253 -62.40258884 116.11522043 C-62.3189393 89.07647799 -62.17820063 62.03827288 -62 35 C-59.71125827 33.66141476 -57.41930344 32.32898986 -55.125 31 C-54.47402344 30.6184375 -53.82304687 30.236875 -53.15234375 29.84375 C-48.2265625 27 -48.2265625 27 -46 27 C-46 26.34 -46 25.68 -46 25 C-44.63681641 24.29037109 -44.63681641 24.29037109 -43.24609375 23.56640625 C-35.62706298 19.56774423 -28.16265245 15.4007515 -20.83764648 10.88305664 C-18.23599318 9.28801439 -15.90786543 7.96928848 -13 7 C-12.67 6.34 -12.34 5.68 -12 5 C-10.15234375 4.3671875 -10.15234375 4.3671875 -7.9375 3.875 C-6.83728516 3.62363281 -6.83728516 3.62363281 -5.71484375 3.3671875 C-5.14894531 3.24601563 -4.58304688 3.12484375 -4 3 C-4 2.34 -4 1.68 -4 1 C-2 0 -2 0 0 0 Z " fill="#E45B2D" transform="translate(204,204)"/>
<path d="M0 0 C8.23002463 4.00828289 16.21087303 8.17708127 24 13 C26.47456122 14.50767031 28.9550084 16.00542925 31.4375 17.5 C32.08436768 17.88969971 32.73123535 18.27939941 33.39770508 18.6809082 C37.09634418 20.89691727 40.82348414 23.02577544 44.625 25.0625 C60.65909091 33.65909091 60.65909091 33.65909091 64 37 C64.14713174 39.236831 64.22316127 41.47835453 64.2722168 43.71948242 C64.29653023 44.7732608 64.29653023 44.7732608 64.32133484 45.84832764 C64.46170916 52.33980044 64.53967936 58.83265151 64.60025311 65.32531261 C64.64122826 69.6890977 64.70157136 74.0506391 64.80932617 78.41333008 C64.91311266 82.62928228 64.96765961 86.84323373 64.98771095 91.06038857 C65.00364055 92.66615462 65.03686515 94.27184757 65.08786583 95.87688255 C65.23551348 100.75813945 65.25349266 105.2578545 64 110 C61.03647826 113.11524612 57.98221561 114.51380461 54 116 C52.80331214 116.65941948 51.61867736 117.34167728 50.453125 118.0546875 C49.39609375 118.65539062 48.3390625 119.25609375 47.25 119.875 C46.66637695 120.20741699 46.08275391 120.53983398 45.48144531 120.88232422 C43.04458421 122.27025286 40.60621844 123.65552833 38.16796875 125.04101562 C28.3939796 130.56271405 28.3939796 130.56271405 18.80265808 136.3923645 C16 138 16 138 12.49385071 139.46920776 C8.6227413 141.15791982 4.94676339 142.90721733 2 146 C0.09351504 151.45200893 0.43575177 156.65093006 0.73046875 162.3203125 C0.75703857 163.90865583 0.776063 165.49714154 0.78791809 167.08566284 C0.83320242 171.25200684 0.95427105 175.41212082 1.09973145 179.5760498 C1.32936163 186.24490642 1.48470269 192.912819 1.56093788 199.58514023 C1.60478884 201.90927665 1.70655318 204.22588888 1.81303406 206.54788208 C2.10211923 216.69362694 2.10211923 216.69362694 -0.87243652 220.2194519 C-3.18886516 221.78871805 -5.42355849 222.92140977 -8 224 C-8.89702637 224.55800293 -9.79405273 225.11600586 -10.71826172 225.69091797 C-13.09997681 227.09239086 -15.48497929 228.48773246 -17.875 229.875 C-18.71546875 230.37257813 -19.5559375 230.87015625 -20.421875 231.3828125 C-21.22882813 231.85203125 -22.03578125 232.32125 -22.8671875 232.8046875 C-23.59019043 233.22733887 -24.31319336 233.64999023 -25.05810547 234.08544922 C-27 235 -27 235 -30 235 C-30 235.66 -30 236.32 -30 237 C-31.72283203 237.94359375 -31.72283203 237.94359375 -33.48046875 238.90625 C-35.04981623 239.77022137 -36.61880129 240.63485123 -38.1875 241.5 C-39.00234863 241.94835205 -39.81719727 242.3967041 -40.65673828 242.85864258 C-46.74174071 246.23316159 -52.60681877 249.84562231 -58.3984375 253.69921875 C-61 255 -61 255 -62.92163086 254.70605469 C-66.58809087 253.46050055 -69.83063938 251.46919683 -73.1875 249.5625 C-74.29254883 248.95051758 -74.29254883 248.95051758 -75.41992188 248.32617188 C-76.12052734 247.93107422 -76.82113281 247.53597656 -77.54296875 247.12890625 C-78.18258545 246.76869385 -78.82220215 246.40848145 -79.48120117 246.03735352 C-81 245 -81 245 -82 243 C-78.58056494 243.42269769 -75.27825654 243.91991217 -72 245 C-70.375 247.625 -70.375 247.625 -70 250 C-67.69 250.33 -65.38 250.66 -63 251 C-63 204.14 -63 157.28 -63 109 C-59.3807932 110.44768272 -56.56458 111.75037395 -53.3125 113.75 C-52.4359375 114.28367187 -51.559375 114.81734375 -50.65625 115.3671875 C-48.98889955 116.39211763 -47.3221415 117.41801274 -45.65625 118.4453125 C-37.5673821 123.37952192 -29.212249 128.10773981 -20.6171875 132.109375 C-19 133 -19 133 -18 135 C-16.48997727 135.85047257 -14.94083994 136.63229042 -13.375 137.375 C-9.09527535 139.41609945 -5.153916 141.62633372 -1 144 C-1 120.57 -1 97.14 -1 73 C-14.365 65.575 -14.365 65.575 -28 58 C-30.97 56.35 -33.94 54.7 -37 53 C-37 52.34 -37 51.68 -37 51 C-37.78375 50.79375 -38.5675 50.5875 -39.375 50.375 C-43.38680325 48.85328153 -46.74681395 46.84567029 -50.38671875 44.59765625 C-54.18899549 42.27309543 -58.08904964 40.13496324 -62 38 C-62 37.34 -62 36.68 -62 36 C-59.9375 34.58984375 -59.9375 34.58984375 -57 32.9375 C-55.89785156 32.31230469 -54.79570312 31.68710937 -53.66015625 31.04296875 C-52.44040111 30.36144745 -51.22034189 29.6804701 -50 29 C-48.76927525 28.30904955 -47.53881007 27.61763655 -46.30859375 26.92578125 C-44.34859661 25.82384622 -42.38831828 24.72244128 -40.42675781 23.62329102 C-35.009538 20.58328824 -29.62485008 17.48922471 -24.25 14.375 C-23.44876709 13.91150146 -22.64753418 13.44800293 -21.82202148 12.97045898 C-18.27938089 10.91745805 -14.74417472 8.85481937 -11.234375 6.74609375 C-10.16703125 6.10800781 -9.0996875 5.46992188 -8 4.8125 C-7.0925 4.26207031 -6.185 3.71164063 -5.25 3.14453125 C-3 2 -3 2 0 2 C0 1.34 0 0.68 0 0 Z " fill="#EC8E24" transform="translate(267,238)"/>
<path d="M0 0 C3.99274335 1.59709734 6.90857161 3.10990893 10.4375 5.4375 C14.19525895 7.91238249 17.96660817 10.00942709 22 12 C23.94685365 13.10873447 25.88432185 14.23409673 27.8125 15.375 C31.33012272 17.44495243 34.85270684 19.48636719 38.4375 21.4375 C42.14915543 23.47422067 45.7258128 25.68836599 49.3125 27.9375 C53.28143831 30.40097895 57.22464447 32.67212819 61.4375 34.6875 C70.42283146 39.04293955 78.8772742 44.37476255 87.44580078 49.48583984 C91.78014079 52.05528897 96.1626795 54.53621278 100.546875 57.01953125 C103.19574684 58.53873716 105.82809513 60.07720122 108.453125 61.63671875 C109.21842529 62.09087158 109.98372559 62.54502441 110.7722168 63.01293945 C112.25990957 63.89768926 113.74585662 64.78538348 115.22973633 65.67651367 C116.56149291 66.46822785 117.90117056 67.24682586 119.24975586 68.00952148 C120.68945575 68.82426028 122.10280474 69.68538799 123.5078125 70.55859375 C127.67521059 71.29670658 130.39431122 68.90603037 133.8125 66.6875 C135.33497463 65.74453735 136.85843586 64.80316603 138.3828125 63.86328125 C139.15270508 63.38197754 139.92259766 62.90067383 140.71582031 62.40478516 C144.15019454 60.29262298 147.66235503 58.33057698 151.1875 56.375 C152.50027787 55.64112183 153.81278029 54.90675072 155.125 54.171875 C155.764375 53.81416016 156.40375 53.45644531 157.0625 53.08789062 C160.27926856 51.28170102 163.4842642 49.45505549 166.6875 47.625 C167.78449219 46.99851563 168.88148438 46.37203125 170.01171875 45.7265625 C173.33662749 43.80550412 176.64478744 41.86778683 179.87890625 39.796875 C181.53064836 38.76980566 183.26666519 37.88242499 185 37 C186.32 37.33 187.64 37.66 189 38 C189 61.43 189 84.86 189 109 C186.03 110.65 183.06 112.3 180 114 C178.17499525 115.14700698 176.36030445 116.31081266 174.5625 117.5 C170.29544888 120.2554319 165.97017616 122.55456825 161.3984375 124.75390625 C158.96188076 126.01980462 156.75944104 127.44217486 154.5 129 C150.73067079 131.59635613 146.88120886 133.59896324 142.75390625 135.5625 C138.29672218 137.88908686 134.15410533 140.72745685 129.98046875 143.5234375 C126.4979203 145.24873673 125.63153878 145.03533264 122 144 C119.80615234 142.95947266 119.80615234 142.95947266 117.5859375 141.6640625 C116.75191406 141.18227539 115.91789062 140.70048828 115.05859375 140.20410156 C114.17300781 139.68299805 113.28742188 139.16189453 112.375 138.625 C111.45074219 138.08842773 110.52648437 137.55185547 109.57421875 136.99902344 C107.65560163 135.88462884 105.7386219 134.76741072 103.82324219 133.64746094 C101.1721124 132.10043363 98.51388589 130.56672656 95.8515625 129.0390625 C88.8421778 125.0128842 81.86596327 120.95443708 75 116.6875 C70.41327107 113.83738165 65.76791543 111.18015384 61.01171875 108.625 C51.66864536 103.58386053 42.47101488 98.3893043 33.5625 92.609375 C30.11889621 90.44662384 26.56427194 88.53188296 22.98046875 86.61328125 C19.45866389 84.70698321 15.97694054 82.73663067 12.5 80.75 C11.90018311 80.408479 11.30036621 80.06695801 10.68237305 79.71508789 C8.06066636 78.21467533 5.51485859 76.67657239 3 75 C3 74.34 3 73.68 3 73 C2.01 73 1.02 73 0 73 C0 48.91 0 24.82 0 0 Z " fill="#E45C2E" transform="translate(267,95)"/>
<path d="M0 0 C8.23002463 4.00828289 16.21087303 8.17708127 24 13 C26.47456122 14.50767031 28.9550084 16.00542925 31.4375 17.5 C32.08436768 17.88969971 32.73123535 18.27939941 33.39770508 18.6809082 C37.09634418 20.89691727 40.82348414 23.02577544 44.625 25.0625 C60.65909091 33.65909091 60.65909091 33.65909091 64 37 C64.09439978 39.26991887 64.11742226 41.54281967 64.11352539 43.81469727 C64.11367142 44.52685394 64.11381744 45.23901062 64.1139679 45.9727478 C64.1132687 48.33733112 64.10547606 50.70183661 64.09765625 53.06640625 C64.09579209 54.70165463 64.09436818 56.33690357 64.09336853 57.97215271 C64.08954318 62.28434785 64.07971275 66.59650952 64.06866455 70.90869141 C64.0584508 75.30565946 64.05387099 79.70263289 64.04882812 84.09960938 C64.03809049 92.73308831 64.02101387 101.36654 64 110 C62.35 110.66 60.7 111.32 59 112 C58.67 111.01 58.34 110.02 58 109 C59.98 109.495 59.98 109.495 62 110 C61.505 74.36 61.505 74.36 61 38 C55.72 41.3 50.44 44.6 45 48 C39 51 39 51 37 51 C37 51.66 37 52.32 37 53 C36.39414062 53.29132813 35.78828125 53.58265625 35.1640625 53.8828125 C29.88009388 56.46789253 24.81042833 59.25185797 19.7890625 62.3125 C16.42196567 64.34973506 13.03105202 66.3412496 9.625 68.3125 C9.02977539 68.66223877 8.43455078 69.01197754 7.82128906 69.37231445 C2.03198882 72.70831242 2.03198882 72.70831242 -1 73 C-3.78979492 71.81591797 -3.78979492 71.81591797 -6.98046875 69.9921875 C-7.55275711 69.66969025 -8.12504547 69.34719299 -8.7146759 69.0149231 C-10.54570546 67.97968003 -12.36652757 66.92781371 -14.1875 65.875 C-15.39323545 65.18896973 -16.59961028 64.5040619 -17.80664062 63.8203125 C-20.13808705 62.49772132 -22.46518862 61.16835346 -24.79052734 59.83496094 C-28.84012115 57.51967514 -32.91409454 55.25044274 -37 53 C-37 52.34 -37 51.68 -37 51 C-37.78375 50.79375 -38.5675 50.5875 -39.375 50.375 C-43.38680325 48.85328153 -46.74681395 46.84567029 -50.38671875 44.59765625 C-54.18899549 42.27309543 -58.08904964 40.13496324 -62 38 C-62 37.34 -62 36.68 -62 36 C-59.9375 34.58984375 -59.9375 34.58984375 -57 32.9375 C-55.89785156 32.31230469 -54.79570312 31.68710937 -53.66015625 31.04296875 C-52.44040111 30.36144745 -51.22034189 29.6804701 -50 29 C-48.76927525 28.30904955 -47.53881007 27.61763655 -46.30859375 26.92578125 C-44.34859661 25.82384622 -42.38831828 24.72244128 -40.42675781 23.62329102 C-35.009538 20.58328824 -29.62485008 17.48922471 -24.25 14.375 C-23.44876709 13.91150146 -22.64753418 13.44800293 -21.82202148 12.97045898 C-18.27938089 10.91745805 -14.74417472 8.85481937 -11.234375 6.74609375 C-9.63335937 5.78896484 -9.63335937 5.78896484 -8 4.8125 C-7.0925 4.26207031 -6.185 3.71164063 -5.25 3.14453125 C-3 2 -3 2 0 2 C0 1.34 0 0.68 0 0 Z " fill="#F7BE3F" transform="translate(267,238)"/>
<path d="M0 0 C0 23.43 0 46.86 0 71 C-2.97 72.65 -5.94 74.3 -9 76 C-10.82500475 77.14700698 -12.63969555 78.31081266 -14.4375 79.5 C-18.70455112 82.2554319 -23.02982384 84.55456825 -27.6015625 86.75390625 C-30.03811924 88.01980462 -32.24055896 89.44217486 -34.5 91 C-38.26932921 93.59635613 -42.11879114 95.59896324 -46.24609375 97.5625 C-50.70327782 99.88908686 -54.84589467 102.72745685 -59.01953125 105.5234375 C-62 107 -62 107 -64.3359375 107.04296875 C-68.42239712 105.44313778 -72.07206042 103.21687936 -75.8125 100.9375 C-76.60076172 100.46505859 -77.38902344 99.99261719 -78.20117188 99.50585938 C-80.13812608 98.34368685 -82.07078295 97.17495583 -84 96 C-81.50935112 95.31292445 -79.62113708 95 -77 95 C-77 95.99 -77 96.98 -77 98 C-75.56656 98.53190541 -74.12804633 99.05015258 -72.6875 99.5625 C-71.48673828 99.99755859 -71.48673828 99.99755859 -70.26171875 100.44140625 C-67.8566826 101.24915625 -67.8566826 101.24915625 -65 100 C-65.0030162 99.18425003 -65.00603241 98.36850006 -65.00914001 97.5280304 C-65.03140401 89.83262113 -65.02018324 82.13832823 -64.97153378 74.4430666 C-64.94769917 70.4869256 -64.93672415 66.53162659 -64.95532227 62.57543945 C-64.97280197 58.75586083 -64.95626095 54.93779337 -64.91632271 51.11839867 C-64.90704271 49.66281934 -64.90993393 48.20710892 -64.92530632 46.75158119 C-65.03411693 35.3389802 -65.03411693 35.3389802 -62.47047424 32.01956177 C-60.6015625 30.65991211 -60.6015625 30.65991211 -57 29 C-56.16597656 28.51015625 -55.33195312 28.0203125 -54.47265625 27.515625 C-53.67730469 27.09796875 -52.88195312 26.6803125 -52.0625 26.25 C-47.40549076 23.76200876 -42.78682213 21.21748531 -38.1875 18.625 C-37.51170898 18.24424316 -36.83591797 17.86348633 -36.13964844 17.47119141 C-22.4814421 9.88349474 -22.4814421 9.88349474 -9.12109375 1.796875 C-4.44444444 -1.11111111 -4.44444444 -1.11111111 0 0 Z " fill="#EC8E26" transform="translate(456,133)"/>
<path d="M0 0 C15.15829439 7.5791472 15.15829439 7.5791472 20.9375 11.60546875 C23.71415332 13.48286503 26.61733538 15.0609525 29.5625 16.65625 C32.34859103 18.19217198 35.07698702 19.81328917 37.8125 21.4375 C43.73809341 24.91506833 49.81762701 28.00746839 56 31 C56 31.66 56 32.32 56 33 C56.804375 33.309375 57.60875 33.61875 58.4375 33.9375 C61 35 61 35 62 36 C62.09409479 38.02494231 62.11743122 40.0531987 62.11352539 42.08032227 C62.11344986 43.38159561 62.11337433 44.68286896 62.11329651 46.02357483 C62.10818909 47.45451902 62.10297308 48.88546282 62.09765625 50.31640625 C62.09579203 51.7722926 62.09436815 53.22817957 62.09336853 54.68406677 C62.08954365 58.52279379 62.07971364 62.36148319 62.06866455 66.20019531 C62.05844978 70.11457816 62.05387077 74.02896706 62.04882812 77.94335938 C62.03809134 85.62892343 62.02101529 93.31445645 62 101 C61.34 101 60.68 101 60 101 C60 101.99 60 102.98 60 104 C51.42830008 103.85713833 46.15120781 100.46369278 39 96 C37.36233341 95.08932285 35.71647032 94.19321954 34.0625 93.3125 C25.80428003 88.85088482 17.68870357 84.13151333 9.54785156 79.46044922 C6.36702434 77.63717321 3.18326843 75.81901053 0 74 C0 49.58 0 25.16 0 0 Z " fill="#E45B2D" transform="translate(17,167)"/>
<path d="M0 0 C0.99 0.33 1.98 0.66 3 1 C2.01 1.33 1.02 1.66 0 2 C0.33 46.22 0.66 90.44 1 136 C6.94 135.01 6.94 135.01 13 134 C10.39046621 136.60953379 8.16561785 138.32746684 5.0625 140.25 C3.78052734 141.06210937 3.78052734 141.06210937 2.47265625 141.890625 C-0.42775153 143.1919138 -1.07352652 142.97355068 -4 142 C-6.80669288 140.6636678 -9.48509413 139.09746653 -12.1875 137.5625 C-13.29254883 136.95051758 -13.29254883 136.95051758 -14.41992188 136.32617188 C-15.12052734 135.93107422 -15.82113281 135.53597656 -16.54296875 135.12890625 C-17.18258545 134.76869385 -17.82220215 134.40848145 -18.48120117 134.03735352 C-20 133 -20 133 -21 131 C-17.58056494 131.42269769 -14.27825654 131.91991217 -11 133 C-9.375 135.625 -9.375 135.625 -9 138 C-6.36 138.33 -3.72 138.66 -1 139 C-1.00092179 138.28970674 -1.00184359 137.57941347 -1.00279331 136.84759617 C-1.02484779 119.5893716 -1.04141118 102.33115061 -1.05181217 85.07291508 C-1.0569753 76.72707171 -1.06401831 68.38123773 -1.07543945 60.03540039 C-1.08538579 52.7638123 -1.09185331 45.49223101 -1.09408849 38.22063631 C-1.09539569 34.36800479 -1.09848208 30.51539272 -1.10573006 26.66276741 C-1.11248948 23.04067328 -1.11461712 19.41860672 -1.11310768 15.79650688 C-1.11351637 13.82502772 -1.11891197 11.85355159 -1.12442017 9.88208008 C-1.1230455 8.71955215 -1.12167084 7.55702423 -1.12025452 6.35926819 C-1.12117631 5.34253053 -1.1220981 4.32579287 -1.12304783 3.27824497 C-1 1 -1 1 0 0 Z " fill="#EF8F33" transform="translate(206,350)"/>
<path d="M0 0 C3.74820696 1.49928279 6.87895114 2.96530438 10.3125 5 C11.19550781 5.515625 12.07851562 6.03125 12.98828125 6.5625 C13.65214844 7.036875 14.31601563 7.51125 15 8 C15 8.66 15 9.32 15 10 C13.02 9.34 11.04 8.68 9 8 C9 7.34 9 6.68 9 6 C6.69 5.34 4.38 4.68 2 4 C1.67 49.54 1.34 95.08 1 142 C0.67 142 0.34 142 0 142 C0 95.14 0 48.28 0 0 Z " fill="#EF8337" transform="translate(204,347)"/>
<path d="M0 0 C1.65 0 3.3 0 5 0 C5 0.66 5 1.32 5 2 C5.99 2.33 6.98 2.66 8 3 C8.639375 2.67 9.27875 2.34 9.9375 2 C12.4723486 0.7709825 13.38161568 1.2128448 16 2 C15.00614288 2.38693527 14.01228577 2.77387054 12.98831177 3.17253113 C8.95063933 4.94997175 5.11593159 6.81532143 2 10 C0.02334654 15.46214253 0.3157864 20.71829524 0.5546875 26.42578125 C0.5685379 28.02137426 0.5755996 29.61703925 0.57620239 31.21269226 C0.59324883 35.39466448 0.69034629 39.57071685 0.80828857 43.75091553 C0.9829051 50.45583878 1.03111341 57.16301438 1.08655167 63.86977196 C1.1168246 66.21022506 1.17889862 68.54813389 1.24655151 70.88777161 C1.27279472 72.31750566 1.29854784 73.74724882 1.32373047 75.17700195 C1.35707489 76.42528275 1.39041931 77.67356354 1.42477417 78.95967102 C1 82 1 82 -1.02023315 83.92643738 C-1.67355621 84.28071304 -2.32687927 84.63498871 -3 85 C-3.66 84.67 -4.32 84.34 -5 84 C-4.34 82.68 -3.68 81.36 -3 80 C-2.01 80.33 -1.02 80.66 0 81 C0 54.27 0 27.54 0 0 Z " fill="#E39F53" transform="translate(267,374)"/>
<path d="M0 0 C1.98 0.99 1.98 0.99 4 2 C3.01 2.495 3.01 2.495 2 3 C2.16455185 3.69022751 2.3291037 4.38045502 2.49864197 5.09159851 C3.05381828 8.31220237 3.07883709 11.26654408 3.02172852 14.53442383 C3.00163223 15.83539505 2.98153595 17.13636627 2.96083069 18.47676086 C2.93363831 19.88685323 2.9063274 21.29694331 2.87890625 22.70703125 C2.85458604 24.15719331 2.83074345 25.60736346 2.80735779 27.05754089 C2.74470584 30.86340584 2.67558636 34.66912663 2.60510254 38.47485352 C2.53424783 42.36272652 2.46953363 46.25070126 2.40429688 50.13867188 C2.27552824 57.75922714 2.13992435 65.37964053 2 73 C2.66 73 3.32 73 4 73 C4 73.66 4 74.32 4 75 C2.68 74.67 1.36 74.34 0 74 C0 49.58 0 25.16 0 0 Z " fill="#D9623C" transform="translate(17,167)"/>
<path d="M0 0 C0.33 0 0.66 0 1 0 C1.01030746 0.78260696 1.02061493 1.56521393 1.03123474 2.37153625 C1.12917403 9.74346549 1.2316834 17.11531023 1.33933926 24.48710346 C1.39452584 28.27709879 1.447939 32.06710189 1.49731445 35.85717773 C1.54502094 39.51415398 1.59736599 43.171037 1.65294075 46.82790184 C1.67333583 48.2237332 1.69205361 49.6195901 1.70907402 51.01546669 C1.73318077 52.96911102 1.76378046 54.92267197 1.79467773 56.8762207 C1.81022202 57.9887471 1.8257663 59.1012735 1.84178162 60.24751282 C1.88493745 63.09025286 1.88493745 63.09025286 3 66 C7.95 65.01 7.95 65.01 13 64 C3.42124884 71.18406337 3.42124884 71.18406337 -0.3828125 70.69140625 C-4.57565604 69.39041139 -6.49841982 68.75237028 -9 65 C-6.69 65.33 -4.38 65.66 -2 66 C-2 65.01 -2 64.02 -2 63 C-1.34 63 -0.68 63 0 63 C0 42.21 0 21.42 0 0 Z " fill="#F17A36" transform="translate(79,205)"/>
<path d="M0 0 C-0.66 1.32 -1.32 2.64 -2 4 C-3.32 4 -4.64 4 -6 4 C-6.103125 4.598125 -6.20625 5.19625 -6.3125 5.8125 C-7.09701691 8.30869017 -8.09889308 9.25731865 -10 11 C-10.33 11.66 -10.66 12.32 -11 13 C-13.3984375 13.78125 -13.3984375 13.78125 -16.375 14.5 C-19.86830012 15.34797787 -21.97253222 15.98168815 -25 18 C-28.1875 18.125 -28.1875 18.125 -31 18 C-29.59064756 15.18129512 -27.71598404 14.63598067 -24.9375 13.1875 C-20.69214187 10.94060695 -16.63867725 8.56588849 -12.65625 5.8828125 C-11 5 -11 5 -8 5 C-8 4.34 -8 3.68 -8 3 C-2.25 0 -2.25 0 0 0 Z " fill="#F5C95F" transform="translate(199,61)"/>
<path d="M0 0 C3.54997152 1.41998861 6.18729934 2.6121589 9.3125 4.625 C10.00988281 5.07101563 10.70726562 5.51703125 11.42578125 5.9765625 C11.94527344 6.31429687 12.46476562 6.65203125 13 7 C12.01 7.495 12.01 7.495 11 8 C8.64018187 7.06421005 6.30368736 6.06652192 4 5 C3.67 5.66 3.34 6.32 3 7 C2.67 7.33 2.34 7.66 2 8 C1.87630675 9.9935143 1.8220361 11.9913647 1.79467773 13.98852539 C1.77473251 15.26977798 1.75478729 16.55103058 1.73423767 17.87110901 C1.71725203 19.27995684 1.70037327 20.68880595 1.68359375 22.09765625 C1.66303085 23.53112905 1.64203456 24.96459569 1.62062073 26.39805603 C1.56533141 30.1775312 1.51595255 33.9570617 1.46777344 37.7366333 C1.41760835 41.59074855 1.36189629 45.44478309 1.30664062 49.29882812 C1.19897521 56.86581714 1.09754903 64.4328731 1 72 C2.32 72 3.64 72 5 72 C5 72.99 5 73.98 5 75 C4.34 75 3.68 75 3 75 C3 74.34 3 73.68 3 73 C2.01 73 1.02 73 0 73 C0 48.91 0 24.82 0 0 Z " fill="#DE692B" transform="translate(267,95)"/>
<path d="M0 0 C1.65 0 3.3 0 5 0 C5 0.66 5 1.32 5 2 C6.65 1.67 8.3 1.34 10 1 C10.66 1.99 11.32 2.98 12 4 C12.66 4 13.32 4 14 4 C14.33 5.32 14.66 6.64 15 8 C16.98 7.67 18.96 7.34 21 7 C21.185625 7.5775 21.37125 8.155 21.5625 8.75 C23.62918619 11.98481316 26.57300911 13.47853422 30 15 C30.928125 15.185625 31.85625 15.37125 32.8125 15.5625 C35 16 35 16 37 19 C35.44921875 19.73828125 35.44921875 19.73828125 33 20 C30.4645609 18.83002869 28.19353112 17.61889809 25.8125 16.1875 C25.12285156 15.7853125 24.43320313 15.383125 23.72265625 14.96875 C22.249004 14.10735255 20.7785524 13.2404606 19.31103516 12.36865234 C16.93963499 10.96425034 14.55569296 9.58347271 12.16796875 8.20703125 C10.61159647 7.30534773 9.05559665 6.40302097 7.5 5.5 C6.75210205 5.0671167 6.0042041 4.6342334 5.23364258 4.18823242 C3.47198658 3.15409543 1.73322098 2.08111804 0 1 C0 0.67 0 0.34 0 0 Z " fill="#DD7F5C" transform="translate(150,461)"/>
<path d="M0 0 C1.64703306 0.81006526 3.29259506 1.6231221 4.9375 2.4375 C5.85402344 2.88996094 6.77054687 3.34242188 7.71484375 3.80859375 C10 5 10 5 11 6 C11.09436529 8.23929886 11.11742327 10.4816175 11.11352539 12.72290039 C11.11367142 13.4253035 11.11381744 14.1277066 11.1139679 14.85139465 C11.11326872 17.18351278 11.10547617 19.515552 11.09765625 21.84765625 C11.09579208 23.46048438 11.09436818 25.07331307 11.09336853 26.68614197 C11.08954323 30.93915357 11.07971285 35.19213124 11.06866455 39.44512939 C11.05845069 43.7817743 11.05387096 48.11842467 11.04882812 52.45507812 C11.03809059 60.97006769 11.02101403 69.48502963 11 78 C10.01 77.34 9.02 76.68 8 76 C8.66 76 9.32 76 10 76 C9.93882312 67.31587667 9.86174234 58.63208335 9.76428509 49.94829082 C9.71953412 45.91614971 9.68028872 41.88411073 9.65356445 37.85180664 C9.62757818 33.96126837 9.58720977 30.07112217 9.53681374 26.18082619 C9.52011319 24.69570602 9.50861877 23.21051799 9.50238609 21.725317 C9.4927791 19.64678095 9.46476379 17.56925515 9.43237305 15.4909668 C9.42126999 14.30738083 9.41016693 13.12379486 9.39872742 11.90434265 C9.23931593 9.0238528 9.23931593 9.0238528 7.67219543 7.19978333 C5.26517092 5.47276756 2.67870272 4.25006127 0 3 C0 2.01 0 1.02 0 0 Z " fill="#E06924" transform="translate(256,305)"/>
<path d="M0 0 C-30.80195599 18 -30.80195599 18 -34 18 C-34 18.66 -34 19.32 -34 20 C-36.11997834 21.19733988 -38.24513676 22.38298713 -40.375 23.5625 C-41.27992188 24.07586914 -41.27992188 24.07586914 -42.203125 24.59960938 C-43.76978241 25.46127095 -45.38290862 26.23718183 -47 27 C-47.66 26.67 -48.32 26.34 -49 26 C-43.6214498 21.24686262 -43.6214498 21.24686262 -40.73828125 20.1015625 C-37.21848421 18.68560991 -34.09274531 16.73533857 -30.875 14.75 C-25.47325139 11.45813414 -20.02561276 8.32415366 -14.4375 5.35546875 C-11.41656673 3.67555874 -8.57623207 1.77846196 -5.75390625 -0.21484375 C-3.47075011 -1.23692478 -2.34515369 -0.68116371 0 0 Z " fill="#F08531" transform="translate(192,211)"/>
<path d="M0 0 C3.41943506 0.42269769 6.72174346 0.91991217 10 2 C11.625 4.625 11.625 4.625 12 7 C14.97 7.33 17.94 7.66 21 8 C21.33 7.01 21.66 6.02 22 5 C25.96 4.34 29.92 3.68 34 3 C31.39046621 5.60953379 29.16561785 7.32746684 26.0625 9.25 C24.78052734 10.06210937 24.78052734 10.06210937 23.47265625 10.890625 C20.57224847 12.1919138 19.92647348 11.97355068 17 11 C14.19330712 9.6636678 11.51490587 8.09746653 8.8125 6.5625 C8.07580078 6.15451172 7.33910156 5.74652344 6.58007812 5.32617188 C5.87947266 4.93107422 5.17886719 4.53597656 4.45703125 4.12890625 C3.81741455 3.76869385 3.17779785 3.40848145 2.51879883 3.03735352 C1 2 1 2 0 0 Z " fill="#E49B75" transform="translate(185,481)"/>
<path d="M0 0 C6.35418678 1.80917818 11.55731663 4.26892973 17 8 C17.99 8.66 18.98 9.32 20 10 C20 10.66 20 11.32 20 12 C21.051875 12.1546875 21.051875 12.1546875 22.125 12.3125 C25.39137647 13.09359003 28.0471852 14.42058743 31 16 C31 16.66 31 17.32 31 18 C32.98 18.33 34.96 18.66 37 19 C37 19.66 37 20.32 37 21 C37.66 21 38.32 21 39 21 C38.67 21.66 38.34 22.32 38 23 C33.15273404 20.66292534 28.58301415 18.17269253 24.05078125 15.27734375 C21.98321178 13.98954334 19.88456442 12.79804891 17.75 11.625 C13.98275457 9.55038057 10.23276721 7.44866891 6.5 5.3125 C5.4790625 4.73113281 4.458125 4.14976563 3.40625 3.55078125 C1 2 1 2 0 0 Z " fill="#FAAB46" transform="translate(288,106)"/>
<path d="M0 0 C0.33 24.75 0.66 49.5 1 75 C-1.42920859 71.35618712 -1.24285565 69.66387555 -1.22705078 65.32543945 C-1.22734283 64.652005 -1.22763489 63.97857056 -1.22793579 63.284729 C-1.22654344 61.06078161 -1.21098703 58.83717005 -1.1953125 56.61328125 C-1.19158203 55.07057376 -1.18873522 53.5278639 -1.18673706 51.9851532 C-1.17910329 47.92611136 -1.15945706 43.8672128 -1.1373291 39.80822754 C-1.11686512 35.6657912 -1.10773416 31.5233317 -1.09765625 27.38085938 C-1.07621088 19.25384052 -1.04207808 11.12693809 -1 3 C-1.99 3 -2.98 3 -4 3 C-4 2.34 -4 1.68 -4 1 C-2 0 -2 0 0 0 Z " fill="#DD6025" transform="translate(204,204)"/>
<path d="M0 0 C2.31 0 4.62 0 7 0 C7 0.99 7 1.98 7 3 C8.43344 3.53190541 9.87195367 4.05015258 11.3125 4.5625 C12.51326172 4.99755859 12.51326172 4.99755859 13.73828125 5.44140625 C16.1433174 6.24915625 16.1433174 6.24915625 19 5 C19.66 5.33 20.32 5.66 21 6 C21 6.99 21 7.98 21 9 C21.598125 8.649375 22.19625 8.29875 22.8125 7.9375 C25 7 25 7 28 8 C22.7574814 12.02332823 22.7574814 12.02332823 19.84375 11.93359375 C15.61073109 10.5439076 11.98963079 8.29466401 8.1875 6 C7.39923828 5.5359375 6.61097656 5.071875 5.79882812 4.59375 C1.55052856 2.06316117 1.55052856 2.06316117 0 1 C0 0.67 0 0.34 0 0 Z " fill="#E58D57" transform="translate(372,228)"/>
<path d="M0 0 C3.46455638 1.81054377 6.74474316 3.83840653 10 6 C5.82412255 7.39195915 3.86525224 5.82323219 0 4 C-0.66 4.66 -1.32 5.32 -2 6 C-4.625 6.125 -4.625 6.125 -7 6 C-7 5.34 -7 4.68 -7 4 C-7.99 4.66 -8.98 5.32 -10 6 C-12.1875 5.625 -12.1875 5.625 -14 5 C-5.31798844 -1.16995746 -5.31798844 -1.16995746 0 0 Z " fill="#F5C85D" transform="translate(270,22)"/>
<path d="M0 0 C0 0.66 0 1.32 0 2 C-0.99 2 -1.98 2 -3 2 C-3.0825 2.598125 -3.165 3.19625 -3.25 3.8125 C-4.26134211 6.76224781 -5.24412147 7.54953762 -8 9 C-11.75 9.1875 -11.75 9.1875 -15 9 C-15 9.66 -15 10.32 -15 11 C-16.98 11.33 -18.96 11.66 -21 12 C-18.92802434 9.7787431 -16.92088004 8.22645249 -14.27734375 6.73828125 C-13.57416016 6.34189453 -12.87097656 5.94550781 -12.14648438 5.53710938 C-11.41751953 5.13298828 -10.68855469 4.72886719 -9.9375 4.3125 C-8.83825195 3.68891602 -8.83825195 3.68891602 -7.71679688 3.05273438 C-2.25796644 0 -2.25796644 0 0 0 Z " fill="#F4CC6C" transform="translate(90,124)"/>
<path d="M0 0 C1.32 0 2.64 0 4 0 C4 0.66 4 1.32 4 2 C4.99 2.33 5.98 2.66 7 3 C7.639375 2.67 8.27875 2.34 8.9375 2 C11.4723486 0.7709825 12.38161568 1.2128448 15 2 C9.83783423 5.75430238 6.43985624 7.67081836 0 7 C0 4.69 0 2.38 0 0 Z " fill="#EC8C28" transform="translate(268,374)"/>
<path d="M0 0 C1.32 0 2.64 0 4 0 C4 0.66 4 1.32 4 2 C5.27875 2.144375 6.5575 2.28875 7.875 2.4375 C10.25692894 2.70642746 11.84452691 2.92226346 14 4 C14.33 3.34 14.66 2.68 15 2 C15.99 3.485 15.99 3.485 17 5 C16.34 5 15.68 5 15 5 C15 5.99 15 6.98 15 8 C17.475 8.495 17.475 8.495 20 9 C20.33 9.99 20.66 10.98 21 12 C17.42892597 10.66959987 14.29773358 9.07110473 11.0625 7.0625 C7.44088932 4.84839123 3.83455628 2.81636876 0 1 C0 0.67 0 0.34 0 0 Z " fill="#DF7851" transform="translate(31,248)"/>
<path d="M0 0 C-17.96103896 10.98701299 -17.96103896 10.98701299 -24 13 C-24 12.01 -24 11.02 -24 10 C-23.195625 9.71125 -22.39125 9.4225 -21.5625 9.125 C-18.8673532 8.26737432 -18.8673532 8.26737432 -18 6 C-16.35636866 5.27840576 -14.68949614 4.60648579 -13 4 C-13 3.67 -13 3.34 -13 3 C-11.35 3 -9.7 3 -8 3 C-8 2.01 -8 1.02 -8 0 C-4.90645403 -0.99435406 -3.09720845 -0.87840996 0 0 Z " fill="#EBB074" transform="translate(116,256)"/>
<path d="M0 0 C0 0.66 0 1.32 0 2 C-0.598125 2.2475 -1.19625 2.495 -1.8125 2.75 C-4.10941228 3.82989394 -4.10941228 3.82989394 -5.1875 5.9375 C-8.89136606 10.15224414 -15.62338317 11.13280374 -21 12 C-16.58963007 7.17301532 -6.62335272 0 0 0 Z " fill="#F1D275" transform="translate(59,142)"/>
<path d="M0 0 C4.53461001 1.24701775 8.00540782 3.15868231 11.8984375 5.69140625 C15.14862976 7.71522485 18.55285161 9.33798203 22 11 C22 11.66 22 12.32 22 13 C24.475 13.495 24.475 13.495 27 14 C26.67 14.66 26.34 15.32 26 16 C24.02 15.34 22.04 14.68 20 14 C20 13.34 20 12.68 20 12 C17.525 11.505 17.525 11.505 15 11 C15 10.34 15 9.68 15 9 C14.175 8.7525 13.35 8.505 12.5 8.25 C8.53680272 6.8345724 4.5114491 5.35493364 1 3 C0.67 2.01 0.34 1.02 0 0 Z " fill="#F2D287" transform="translate(316,50)"/>
<path d="M0 0 C3.55780196 0.60990891 6.6828589 1.5783681 10 3 C10 3.66 10 4.32 10 5 C11.27875 5.165 12.5575 5.33 13.875 5.5 C14.59429687 5.5928125 15.31359375 5.685625 16.0546875 5.78125 C18.00498344 6.0372485 18.00498344 6.0372485 20 6 C20 7.65 20 9.3 20 11 C20.66 11.33 21.32 11.66 22 12 C18.10957984 11.42543617 15.44132504 10.28006931 12.125 8.1875 C11.26390625 7.65253906 10.4028125 7.11757812 9.515625 6.56640625 C8.68546875 6.04949219 7.8553125 5.53257812 7 5 C4.67798625 3.64549198 2.34030671 2.32278205 0 1 C0 0.67 0 0.34 0 0 Z M20 5 C22 6 22 6 22 6 Z " fill="#FBB146" transform="translate(42,181)"/>
<path d="M0 0 C0.66 0.33 1.32 0.66 2 1 C-0.8071708 4.11907866 -3.10671674 5.52686579 -7 7 C-7.33 7.66 -7.66 8.32 -8 9 C-7.0409375 9.1546875 -7.0409375 9.1546875 -6.0625 9.3125 C-5.381875 9.539375 -4.70125 9.76625 -4 10 C-3.67 10.99 -3.34 11.98 -3 13 C-6.48330216 12.35494404 -9.09432866 11.01782732 -12 9 C-12 8.34 -12 7.68 -12 7 C-9.4453125 5.23828125 -9.4453125 5.23828125 -6.125 3.3125 C-5.03445312 2.66925781 -3.94390625 2.02601563 -2.8203125 1.36328125 C-1.88960937 0.91339844 -0.95890625 0.46351563 0 0 Z " fill="#FAB73E" transform="translate(217,267)"/>
<path d="M0 0 C0.66 0 1.32 0 2 0 C2 0.66 2 1.32 2 2 C3.65 2 5.3 2 7 2 C5.50264592 4.99470816 3.17408681 5.51823928 0.1875 6.9375 C-4.20784407 9.01971934 -4.20784407 9.01971934 -8.19921875 11.75390625 C-9.09060547 12.37072266 -9.09060547 12.37072266 -10 13 C-10.99 12.67 -11.98 12.34 -13 12 C-9.67692308 8.06153846 -9.67692308 8.06153846 -6.25 7.75 C-5.5075 7.8325 -4.765 7.915 -4 8 C-4 7.01 -4 6.02 -4 5 C-2.35 5 -0.7 5 1 5 C0.67 3.35 0.34 1.7 0 0 Z " fill="#E9AD64" transform="translate(416,220)"/>
<path d="M0 0 C6.50760989 1.71252892 13.21690682 5.21690682 18 10 C13.685913 9.50976284 11.36101233 8.68880986 8 6 C5.85266073 5.29485154 5.85266073 5.29485154 4 5 C4 5.66 4 6.32 4 7 C3.01 6.67 2.02 6.34 1 6 C1 5.01 1 4.02 1 3 C0.67 2.01 0.34 1.02 0 0 Z " fill="#DE6527" transform="translate(280,103)"/>
<path d="M0 0 C3.82863224 0.67185133 6.692378 2.44879227 10 4.4375 C13.28923916 6.40693195 16.54021448 8.34495837 20 10 C17 11 17 11 14.58984375 10.07421875 C13.71457031 9.61660156 12.83929688 9.15898437 11.9375 8.6875 C10.62072266 8.01267578 10.62072266 8.01267578 9.27734375 7.32421875 C7 6 7 6 5 4 C3.9790625 3.7834375 3.9790625 3.7834375 2.9375 3.5625 C2.298125 3.376875 1.65875 3.19125 1 3 C0.67 2.01 0.34 1.02 0 0 Z " fill="#F28632" transform="translate(220,357)"/>
<path d="M0 0 C3.74087154 1.41989285 7.23068194 3.09766592 10.75 5 C11.71421875 5.515625 12.6784375 6.03125 13.671875 6.5625 C16 8 16 8 17 10 C13.18948298 9.32755582 9.59784804 8.43913922 6 7 C5.34 6.01 4.68 5.02 4 4 C1.94996045 2.80767387 1.94996045 2.80767387 0 2 C0 1.34 0 0.68 0 0 Z " fill="#F3CF78" transform="translate(294,254)"/>
<path d="M0 0 C2.32169599 1.06648229 4.63094457 2.15164027 6.9375 3.25 C7.59685547 3.55035156 8.25621094 3.85070312 8.93554688 4.16015625 C13.78929937 6.49991386 13.78929937 6.49991386 14.94140625 9.234375 C14.96074219 9.81703125 14.98007812 10.3996875 15 11 C13.35 10.67 11.7 10.34 10 10 C10 9.01 10 8.02 10 7 C8.906875 6.731875 7.81375 6.46375 6.6875 6.1875 C1.86642269 4.63494968 1.86642269 4.63494968 0 2 C0 1.34 0 0.68 0 0 Z " fill="#F1CB79" transform="translate(441,122)"/>
<path d="M0 0 C0.66 0.33 1.32 0.66 2 1 C1.67 1.66 1.34 2.32 1 3 C0.34 3 -0.32 3 -1 3 C-1 3.66 -1 4.32 -1 5 C-1.99 5 -2.98 5 -4 5 C-4 5.66 -4 6.32 -4 7 C-7.4352048 9.29013653 -8.985331 9.17842973 -13 9 C-11.54038954 6.08077908 -9.36103252 5.43806731 -6.5 3.9375 C-3.0318363 2.28029466 -3.0318363 2.28029466 0 0 Z " fill="#F4CF76" transform="translate(219,48)"/>
<path d="M0 0 C3.53783229 0.45649449 6.32235654 1.58657495 9.5 3.125 C12.4949287 4.51496691 13.70415021 5.024151 17.0625 4.75 C17.701875 4.5025 18.34125 4.255 19 4 C18 6 18 6 15.3359375 7.33203125 C10.91512269 8.21722953 9.37506708 7.07180191 5.625 4.6875 C4.56539063 4.03136719 3.50578125 3.37523437 2.4140625 2.69921875 C1.61742187 2.13847656 0.82078125 1.57773438 0 1 C0 0.67 0 0.34 0 0 Z " fill="#FBAF45" transform="translate(379,159)"/>
<path d="M0 0 C0 0.66 0 1.32 0 2 C-0.99 2 -1.98 2 -3 2 C-3.061875 2.61875 -3.12375 3.2375 -3.1875 3.875 C-4 6 -4 6 -6.25 7.25 C-8.97996128 7.99453489 -11.18703084 8.1607411 -14 8 C-12.54553462 5.09106923 -10.3992863 4.40221655 -7.5625 2.875 C-6.57378906 2.33617188 -5.58507812 1.79734375 -4.56640625 1.2421875 C-2 0 -2 0 0 0 Z " fill="#F0CE6E" transform="translate(168,79)"/>
<path d="M0 0 C-1.41042956 0.84384675 -2.82864132 1.67469496 -4.25 2.5 C-5.43335938 3.19609375 -5.43335938 3.19609375 -6.640625 3.90625 C-9 5 -9 5 -13 5 C-12.67 3.68 -12.34 2.36 -12 1 C-10.37681021 0.63762737 -8.7513642 0.28534843 -7.125 -0.0625 C-6.22007812 -0.25972656 -5.31515625 -0.45695312 -4.3828125 -0.66015625 C-2 -1 -2 -1 0 0 Z " fill="#EBA85D" transform="translate(219,485)"/>
<path d="M0 0 C-1.95519384 1.17192047 -3.9142539 2.3373929 -5.875 3.5 C-6.96554687 4.1496875 -8.05609375 4.799375 -9.1796875 5.46875 C-12 7 -12 7 -14 7 C-13.67 5.35 -13.34 3.7 -13 2 C-10.03 2.495 -10.03 2.495 -7 3 C-7 2.01 -7 1.02 -7 0 C-2.25 -1.125 -2.25 -1.125 0 0 Z " fill="#EAA862" transform="translate(307,362)"/>
<path d="M0 0 C1.89709988 0.93493439 3.79262578 1.87306296 5.6875 2.8125 C6.74324219 3.33457031 7.79898437 3.85664062 8.88671875 4.39453125 C11.66776696 5.8286728 14.33904567 7.35603378 17 9 C13.37673261 10.2077558 12.35853631 9.54311128 9 8 C9 7.34 9 6.68 9 6 C6.69 5.67 4.38 5.34 2 5 C1.34 3.35 0.68 1.7 0 0 Z " fill="#F5D07D" transform="translate(379,86)"/>
<path d="M0 0 C1.32 0.99 2.64 1.98 4 3 C-1.94 6.465 -1.94 6.465 -8 10 C-8.33 9.01 -8.66 8.02 -9 7 C-8.01 7 -7.02 7 -6 7 C-6 6.34 -6 5.68 -6 5 C-4.68 5 -3.36 5 -2 5 C-1.34 3.35 -0.68 1.7 0 0 Z " fill="#EAAA63" transform="translate(322,348)"/>
<path d="M0 0 C2.31 0 4.62 0 7 0 C7 0.99 7 1.98 7 3 C7.969375 3.268125 8.93875 3.53625 9.9375 3.8125 C10.948125 4.204375 11.95875 4.59625 13 5 C13.33 5.99 13.66 6.98 14 8 C8.76481294 6.56032356 4.36973991 4.18303389 0 1 C0 0.67 0 0.34 0 0 Z " fill="#E0795F" transform="translate(372,228)"/>
<path d="M0 0 C1.65 0 3.3 0 5 0 C5 0.66 5 1.32 5 2 C6.65 1.67 8.3 1.34 10 1 C10.33 1.99 10.66 2.98 11 4 C11.66 4.33 12.32 4.66 13 5 C12.67 5.99 12.34 6.98 12 8 C9.99743426 6.85865673 7.99800203 5.71181367 6 4.5625 C4.88625 3.92441406 3.7725 3.28632813 2.625 2.62890625 C1.75875 2.09136719 0.8925 1.55382812 0 1 C0 0.67 0 0.34 0 0 Z " fill="#E08763" transform="translate(150,461)"/>
<path d="M0 0 C0.66 0.99 1.32 1.98 2 3 C5.3 2.34 8.6 1.68 12 1 C2.66666667 8 2.66666667 8 -1 8 C-0.67 5.36 -0.34 2.72 0 0 Z " fill="#EBAC69" transform="translate(80,268)"/>
<path d="M0 0 C0.66 0.33 1.32 0.66 2 1 C0.46841892 2.15927975 -1.07579793 3.30187547 -2.625 4.4375 C-3.48351562 5.07558594 -4.34203125 5.71367187 -5.2265625 6.37109375 C-8.22437238 8.13177927 -10.56671931 8.64257635 -14 9 C-11.50175511 6.18841591 -8.721524 4.55162169 -5.4375 2.75 C-4.46683594 2.20859375 -3.49617187 1.6671875 -2.49609375 1.109375 C-1.67238281 0.74328125 -0.84867188 0.3771875 0 0 Z " fill="#DE6326" transform="translate(156,231)"/>
<path d="M0 0 C3.54243452 1.36591169 6.92627929 2.90931484 10.3125 4.625 C11.63701172 5.29402344 11.63701172 5.29402344 12.98828125 5.9765625 C13.65214844 6.31429687 14.31601562 6.65203125 15 7 C12 8 12 8 10.1328125 7.1875 C9.47023438 6.795625 8.80765625 6.40375 8.125 6 C5.26131021 4.45720034 4.33324315 3.97222974 1 4.25 C0.34 4.4975 -0.32 4.745 -1 5 C-0.67 3.35 -0.34 1.7 0 0 Z " fill="#E06628" transform="translate(33,177)"/>
<path d="M0 0 C6.48462882 -1.02388876 10.83877972 2.57278653 16 6 C12.23375329 7.25541557 10.62811066 6.37061958 7 5 C7 4.34 7 3.68 7 3 C6.34 3 5.68 3 5 3 C5 2.34 5 1.68 5 1 C3.02 1.33 1.04 1.66 -1 2 C-0.67 1.34 -0.34 0.68 0 0 Z " fill="#F5D17D" transform="translate(264,22)"/>
<path d="M0 0 C0.66 0 1.32 0 2 0 C2 2.31 2 4.62 2 7 C-1.48539917 6.35455571 -4.02819057 4.89865603 -7 3 C-4.3333581 1.66667905 -2.83319697 2.32897967 0 3 C0 2.01 0 1.02 0 0 Z " fill="#DE8051" transform="translate(77,268)"/>
<path d="M0 0 C2.97 0.33 5.94 0.66 9 1 C8.67 1.99 8.34 2.98 8 4 C9.32 4 10.64 4 12 4 C12.66 5.32 13.32 6.64 14 8 C9.02790438 6.23570801 4.56561939 3.6060834 0 1 C0 0.67 0 0.34 0 0 Z " fill="#E08060" transform="translate(311,193)"/>
<path d="M0 0 C1.32 0.33 2.64 0.66 4 1 C4 1.66 4 2.32 4 3 C4.5775 3.103125 5.155 3.20625 5.75 3.3125 C8.32049158 4.09792798 9.93657284 5.30504197 12 7 C7.6822542 6.49202991 3.96697886 5.80317221 0 4 C0 2.68 0 1.36 0 0 Z " fill="#F1CD7A" transform="translate(396,96)"/>
<path d="M0 0 C0.66 0.33 1.32 0.66 2 1 C-4 7 -4 7 -7.0625 7.0625 C-8.5165625 7.0315625 -8.5165625 7.0315625 -10 7 C-8.67408323 4.34816647 -7.13437549 3.74863527 -4.5625 2.3125 C-3.75941406 1.85488281 -2.95632812 1.39726562 -2.12890625 0.92578125 C-1.42636719 0.62027344 -0.72382813 0.31476562 0 0 Z " fill="#F4D182" transform="translate(254,28)"/>
<path d="M0 0 C-0.33 0.99 -0.66 1.98 -1 3 C-5.29 3.66 -9.58 4.32 -14 5 C-12.68899417 2.37798835 -11.69560803 2.13499285 -9 1 C-2.35416667 -1.17708333 -2.35416667 -1.17708333 0 0 Z " fill="#F5C55B" transform="translate(45,153)"/>
<path d="M0 0 C5.31027254 1.46032495 9.46330032 3.98320986 14 7 C12.0859375 7.58203125 12.0859375 7.58203125 10 8 C8.97702078 7.02351983 7.98095748 6.01868662 7 5 C5.96875 4.67 4.9375 4.34 3.875 4 C2.92625 3.67 1.9775 3.34 1 3 C0.67 2.01 0.34 1.02 0 0 Z " fill="#F3D580" transform="translate(354,72)"/>
<path d="M0 0 C0 0.66 0 1.32 0 2 C-2.1875 3.4375 -2.1875 3.4375 -5 5 C-6.2684375 5.86625 -6.2684375 5.86625 -7.5625 6.75 C-10.40266231 8.20649349 -11.07953887 7.91380179 -14 7 C-13.38511719 6.66226563 -12.77023438 6.32453125 -12.13671875 5.9765625 C-11.32847656 5.53054687 -10.52023438 5.08453125 -9.6875 4.625 C-8.88699219 4.18414062 -8.08648437 3.74328125 -7.26171875 3.2890625 C-1.49090909 0 -1.49090909 0 0 0 Z " fill="#F4D688" transform="translate(235,40)"/>
<path d="M0 0 C1.32 0 2.64 0 4 0 C4.33 0.66 4.66 1.32 5 2 C7.3140622 2.73075648 9.64828869 3.40138258 12 4 C12 4.99 12 5.98 12 7 C7.69235185 5.43358249 3.93828536 3.31663844 0 1 C0 0.67 0 0.34 0 0 Z " fill="#DF825E" transform="translate(272,170)"/>
<path d="M0 0 C-5.14285714 4.42857143 -5.14285714 4.42857143 -9 5 C-8.75 3.125 -8.75 3.125 -8 1 C-5.08518252 -1.1107299 -3.34823603 -1.19579858 0 0 Z " fill="#EAA759" transform="translate(261,460)"/>
<path d="M0 0 C1.32 0 2.64 0 4 0 C4 0.99 4 1.98 4 3 C5.65 3.33 7.3 3.66 9 4 C9.33 4.99 9.66 5.98 10 7 C6.4124787 5.66749209 3.1635377 4.169283 0 2 C0 1.34 0 0.68 0 0 Z " fill="#DD846A" transform="translate(42,253)"/>
<path d="M0 0 C3.29680965 0.65784963 5.84117922 1.89420573 8.75 3.5625 C9.94882812 4.24505859 9.94882812 4.24505859 11.171875 4.94140625 C11.77515625 5.29074219 12.3784375 5.64007813 13 6 C11 7 11 7 8.65234375 6.328125 C7.75644531 5.97234375 6.86054688 5.6165625 5.9375 5.25 C5.03902344 4.90453125 4.14054687 4.5590625 3.21484375 4.203125 C1 3 1 3 0 0 Z " fill="#DC6C27" transform="translate(323,128)"/>
<path d="M0 0 C1.31602523 0.61754259 2.62773556 1.24428742 3.9375 1.875 C4.66839844 2.22304688 5.39929688 2.57109375 6.15234375 2.9296875 C8 4 8 4 9 6 C6.03 5.67 3.06 5.34 0 5 C0 3.35 0 1.7 0 0 Z " fill="#F3CC70" transform="translate(321,269)"/>
<path d="M0 0 C-0.33 0.99 -0.66 1.98 -1 3 C-1.66 3 -2.32 3 -3 3 C-3 3.66 -3 4.32 -3 5 C-5.35438733 6.42944945 -6.48032433 7.08661261 -9.25 6.625 C-9.8275 6.41875 -10.405 6.2125 -11 6 C-9.824375 5.87625 -9.824375 5.87625 -8.625 5.75 C-5.85955198 5.28474077 -5.85955198 5.28474077 -4.8125 3 C-4.544375 2.34 -4.27625 1.68 -4 1 C-2 0 -2 0 0 0 Z " fill="#F18332" transform="translate(203,202)"/>
<path d="M0 0 C4.99213851 0.46801299 9.12963993 2.91715737 13 6 C13 6.66 13 7.32 13 8 C8.27626146 6.37621488 4.05818166 3.89006982 0 1 C0 0.67 0 0.34 0 0 Z " fill="#DA6624" transform="translate(369,155)"/>
<path d="M0 0 C1.62974564 0.76074843 3.25366648 1.53398433 4.875 2.3125 C5.77992187 2.74175781 6.68484375 3.17101562 7.6171875 3.61328125 C10 5 10 5 12 8 C11.01 8 10.02 8 9 8 C9 7.34 9 6.68 9 6 C7.88625 5.7525 6.7725 5.505 5.625 5.25 C2 4 2 4 0.7734375 1.921875 C0.51820312 1.28765625 0.26296875 0.6534375 0 0 Z " fill="#DA6722" transform="translate(48,185)"/>
<path d="M0 0 C3.7910119 1.44950455 7.3874638 3.15172566 11 5 C7.94736336 5.98120464 6.05263664 5.98120464 3 5 C3 4.01 3 3.02 3 2 C2.01 2 1.02 2 0 2 C0 1.34 0 0.68 0 0 Z " fill="#F5D284" transform="translate(368,80)"/>
<path d="M0 0 C-1.28813342 0.83878455 -2.58063256 1.67086783 -3.875 2.5 C-4.59429687 2.9640625 -5.31359375 3.428125 -6.0546875 3.90625 C-8 5 -8 5 -10 5 C-10 4.01 -10 3.02 -10 2 C-4.10714286 -1.34821429 -4.10714286 -1.34821429 0 0 Z " fill="#EBAD6C" transform="translate(283,376)"/>
<path d="M0 0 C2.31 0.33 4.62 0.66 7 1 C7 1.99 7 2.98 7 4 C8.65 4 10.3 4 12 4 C10.265625 5.14453125 10.265625 5.14453125 8 6 C5.859375 5.13671875 5.859375 5.13671875 3.75 3.6875 C3.04359375 3.21699219 2.3371875 2.74648438 1.609375 2.26171875 C1.07828125 1.84535156 0.5471875 1.42898438 0 1 C0 0.67 0 0.34 0 0 Z " fill="#DF8A6B" transform="translate(56,262)"/>
<path d="M0 0 C1.65 0 3.3 0 5 0 C2.64722731 2.72426311 0.37503669 3.8141763 -3 5 C-3 4.34 -3 3.68 -3 3 C-3.66 2.67 -4.32 2.34 -5 2 C-4.34 1.67 -3.68 1.34 -3 1 C-2.01 1.33 -1.02 1.66 0 2 C0 1.34 0 0.68 0 0 Z " fill="#EBB16E" transform="translate(437,211)"/>
<path d="M0 0 C3.79303725 1.00193437 6.71536341 1.81024227 10 4 C10 4.66 10 5.32 10 6 C5.56909529 4.79157144 3.01887244 3.48331435 0 0 Z " fill="#FAAE46" transform="translate(278,100)"/>
<path d="M0 0 C-0.33 1.32 -0.66 2.64 -1 4 C-3.64 4.33 -6.28 4.66 -9 5 C-2.87096774 0 -2.87096774 0 0 0 Z " fill="#F6CF74" transform="translate(149,90)"/>
<path d="M0 0 C3.59391114 1.33488128 6.75490696 2.96022723 10 5 C8 6 8 6 5 5.125 C2 4 2 4 0 3 C0 2.01 0 1.02 0 0 Z " fill="#F4D173" transform="translate(344,66)"/>
<path d="M0 0 C2.8125 -0.25 2.8125 -0.25 6 0 C7.875 2 7.875 2 9 4 C7.3125 4.8125 7.3125 4.8125 5 5 C2.25 2.5625 2.25 2.5625 0 0 Z " fill="#DF7358" transform="translate(178,476)"/>
<path d="M0 0 C3.94120709 0.56302958 6.7508723 1.6791945 10 4 C10 4.66 10 5.32 10 6 C6.40992874 4.66654496 3.20429093 3.1056769 0 1 C0 0.67 0 0.34 0 0 Z " fill="#DF6425" transform="translate(218,354)"/>
<path d="M0 0 C4.99911924 0.47610659 7.97832683 2.03162219 12 5 C9.44345185 5.95582656 8.39658231 6.17802782 5.859375 5.0390625 C5.16328125 4.57242187 4.4671875 4.10578125 3.75 3.625 C3.04359375 3.16351563 2.3371875 2.70203125 1.609375 2.2265625 C1.07828125 1.82179688 0.5471875 1.41703125 0 1 C0 0.67 0 0.34 0 0 Z " fill="#DB6527" transform="translate(227,290)"/>
<path d="M0 0 C0.66 0.33 1.32 0.66 2 1 C-1.28804981 3.91227269 -3.59885603 5.49701212 -8 6 C-5.54080489 3.3651481 -3.42227589 1.25483449 0 0 Z M-10 6 C-8 7 -8 7 -8 7 Z " fill="#DD6426" transform="translate(180,217)"/>
<path d="M0 0 C-0.33 1.32 -0.66 2.64 -1 4 C-3.97 4.66 -6.94 5.32 -10 6 C-8.80702902 3.61405803 -7.85642735 3.16265153 -5.5625 1.875 C-4.94503906 1.52179688 -4.32757813 1.16859375 -3.69140625 0.8046875 C-2 0 -2 0 0 0 Z " fill="#F1D372" transform="translate(140,95)"/>
<path d="M0 0 C3.77545388 1.09068668 6.47043472 1.9083091 9 5 C8.01 5.33 7.02 5.66 6 6 C2.8125 4.1875 2.8125 4.1875 0 2 C0 1.34 0 0.68 0 0 Z " fill="#FBAA48" transform="translate(205,274)"/>
<path d="M0 0 C-1.28813342 0.83878455 -2.58063256 1.67086783 -3.875 2.5 C-4.59429687 2.9640625 -5.31359375 3.428125 -6.0546875 3.90625 C-8 5 -8 5 -10 5 C-9.67 4.01 -9.34 3.02 -9 2 C-8.01 2 -7.02 2 -6 2 C-6 1.34 -6 0.68 -6 0 C-3.50907189 -1.24546405 -2.58919267 -0.7767578 0 0 Z " fill="#E4A965" transform="translate(433,217)"/>
<path d="M0 0 C0 0.66 0 1.32 0 2 C-0.99 2 -1.98 2 -3 2 C-3 2.66 -3 3.32 -3 4 C-6 6 -6 6 -8.1875 5.625 C-8.785625 5.41875 -9.38375 5.2125 -10 5 C-8.71186658 4.16121545 -7.41936744 3.32913217 -6.125 2.5 C-5.40570313 2.0359375 -4.68640625 1.571875 -3.9453125 1.09375 C-2 0 -2 0 0 0 Z " fill="#F4D381" transform="translate(69,136)"/>
<path d="M0 0 C4.95 0.99 4.95 0.99 10 2 C10 2.66 10 3.32 10 4 C8.51882199 3.71872579 7.04006751 3.42466268 5.5625 3.125 C4.73878906 2.96257812 3.91507813 2.80015625 3.06640625 2.6328125 C2.38449219 2.42398437 1.70257813 2.21515625 1 2 C0.67 1.34 0.34 0.68 0 0 Z " fill="#E2785C" transform="translate(185,481)"/>
<path d="M0 0 C0.763125 0.309375 1.52625 0.61875 2.3125 0.9375 C4.18789677 1.67893593 6.08684652 2.36228217 8 3 C8.33 3.99 8.66 4.98 9 6 C6.07606119 5.37344168 3.55170871 4.5838192 1 3 C0.67 2.01 0.34 1.02 0 0 Z " fill="#F18431" transform="translate(240,368)"/>
<path d="M0 0 C1.65 0 3.3 0 5 0 C-0.14285714 4.42857143 -0.14285714 4.42857143 -4 5 C-4 4.01 -4 3.02 -4 2 C-2.68 2 -1.36 2 0 2 C0 1.34 0 0.68 0 0 Z " fill="#E9A863" transform="translate(135,241)"/>
<path d="M0 0 C1.98 0 3.96 0 6 0 C6.66 1.65 7.32 3.3 8 5 C4.62496331 3.8141763 2.35277269 2.72426311 0 0 Z " fill="#E38164" transform="translate(23,243)"/>
<path d="M0 0 C-0.625 1.9375 -0.625 1.9375 -2 4 C-5.125 4.75 -5.125 4.75 -8 5 C-8 4.34 -8 3.68 -8 3 C-2.25 0 -2.25 0 0 0 Z " fill="#F6D384" transform="translate(199,61)"/>
<path d="M0 0 C0.33 1.32 0.66 2.64 1 4 C-0.32 4.99 -1.64 5.98 -3 7 C-3.66 6.67 -4.32 6.34 -5 6 C-4.34 4.68 -3.68 3.36 -3 2 C-2.01 2.33 -1.02 2.66 0 3 C0 2.01 0 1.02 0 0 Z " fill="#E7A45B" transform="translate(267,452)"/>
<path d="M0 0 C1.98 0.99 1.98 0.99 4 2 C3.01 2.495 3.01 2.495 2 3 C2.33 4.65 2.66 6.3 3 8 C2.01 8.495 2.01 8.495 1 9 C0.67 6.03 0.34 3.06 0 0 Z " fill="#D96732" transform="translate(17,167)"/>
<path d="M0 0 C0 0.66 0 1.32 0 2 C-4.15267176 5.11450382 -4.15267176 5.11450382 -7.3125 4.6875 C-7.869375 4.460625 -8.42625 4.23375 -9 4 C-2.25 0 -2.25 0 0 0 Z " fill="#F4D589" transform="translate(85,127)"/>
<path d="M0 0 C3.96 1.98 3.96 1.98 8 4 C4 5 4 5 1 4 C0.67 2.68 0.34 1.36 0 0 Z " fill="#F1CD76" transform="translate(422,111)"/>
<path d="M0 0 C2.97 0.495 2.97 0.495 6 1 C5.01 1.495 5.01 1.495 4 2 C3.67 2.99 3.34 3.98 3 5 C2.34 5 1.68 5 1 5 C1 4.34 1 3.68 1 3 C0.34 3 -0.32 3 -1 3 C-0.67 2.01 -0.34 1.02 0 0 Z " fill="#E79B45" transform="translate(225,475)"/>
<path d="M0 0 C-3.96 1.98 -3.96 1.98 -8 4 C-8 2.68 -8 1.36 -8 0 C-4.63458162 -1.08174162 -3.70152678 -0.92538169 0 0 Z " fill="#E6A961" transform="translate(116,256)"/>
<path d="M0 0 C0 0.66 0 1.32 0 2 C-0.99 2 -1.98 2 -3 2 C-3.33 3.32 -3.66 4.64 -4 6 C-4.66 5.67 -5.32 5.34 -6 5 C-6 4.01 -6 3.02 -6 2 C-2.25 0 -2.25 0 0 0 Z " fill="#F4D477" transform="translate(168,79)"/>
</svg>
